<svg width="2990" height="517" viewBox="0 0 2990 517" fill="none" xmlns="http://www.w3.org/2000/svg">
<rect y="4" width="444" height="444" rx="127.319" fill="url(#paint0_linear_3620_903)"/>
<path d="M301.432 269.62C302.592 275.105 306.044 281.283 311.977 281.283C317.91 281.283 321.36 275.105 322.521 269.62C323.681 264.135 341.203 170.901 341.203 170.901C344.492 153.974 357.657 143.944 371.272 143.914L426.64 143.914V170.902H371.732C368.709 170.968 365.854 173.392 365.296 176.645L346.4 273.533C343.125 292.757 331.577 308.086 311.977 308.086C294.577 308.086 280.816 292.693 277.552 273.533L258.657 176.645C258.093 173.362 255.191 170.924 252.137 170.901C249.076 170.913 246.162 173.356 245.598 176.645L226.702 273.533C223.82 290.451 211.827 308.086 192.279 308.086C175.381 308.012 161.246 292.71 157.979 273.533L139.083 176.645C138.521 173.366 135.623 170.928 132.572 170.901C129.516 170.921 126.611 173.361 126.047 176.645L107.151 273.534C103.877 292.757 89.6806 308.086 72.7282 308.086L17.3599 308.086V281.281L72.779 281.283C78.6808 281.248 82.115 275.09 83.2719 269.62C84.4322 264.135 101.954 170.901 101.954 170.901C105.241 153.985 118.914 143.958 132.521 143.914C146.129 143.958 159.89 153.985 163.176 170.901C163.176 170.901 180.698 264.135 181.859 269.62C183.015 275.086 186.445 281.241 192.341 281.283C198.236 281.241 201.666 275.086 202.822 269.62C203.983 264.135 221.505 170.901 221.505 170.901C224.793 153.976 238.479 143.946 252.094 143.914C265.731 143.914 279.456 153.948 282.75 170.901C282.75 170.901 300.272 264.135 301.432 269.62Z" fill="white"/>
<path fill-rule="evenodd" clip-rule="evenodd" d="M949.615 403.864H1003.78V280.562C1003.78 240.23 1004.93 157.261 1079.83 157.261C1116.71 157.261 1140.33 178.003 1140.33 229.283V403.864H1194.49V216.607C1194.49 153.227 1163.95 110.014 1098.84 110.014C1033.74 110.014 1008.96 152.075 1003.78 165.903V106.557V0.541016H949.615V403.864ZM2094.83 403.864H2148.99V280.562C2148.99 240.23 2150.14 157.261 2225.05 157.261C2261.92 157.261 2285.54 178.003 2285.54 229.283V403.864H2339.7V216.607C2339.7 153.227 2309.17 110.014 2244.06 110.014C2178.95 110.014 2154.18 152.075 2148.99 165.903V106.557V0.541016H2094.83V403.864ZM2483.77 403.863H2554.06V357.193H2494.14C2474.55 357.193 2465.91 348.551 2465.91 328.961V163.022H2543.11V118.08H2465.91V28.7732H2411.75V118.08H2346.64V163.022H2411.75V333.57C2411.75 380.816 2436.52 403.863 2483.77 403.863ZM1981.45 516.23H1848.35C1792.46 516.23 1772.29 492.031 1772.29 458.613C1772.29 429.804 1792.46 409.062 1809.17 398.691C1793.04 388.896 1783.82 375.067 1783.82 352.02C1783.82 323.788 1806.86 304.198 1826.45 291.522C1809.74 276.541 1794.76 250.613 1794.76 216.619C1794.76 156.121 1843.16 110.027 1910 110.027C1963.01 110.027 1994.7 138.259 2007.95 160.73C2013.14 135.955 2025.81 118.093 2055.2 118.093H2084.58V163.035H2060.96C2036.76 163.035 2027.54 168.797 2025.23 201.639L2024.08 215.467C2018.9 279.998 1974.53 321.483 1910.58 321.483C1890.99 321.483 1872.55 319.178 1856.42 310.536C1840.86 316.874 1831.06 327.245 1831.06 337.616C1831.06 346.835 1836.83 356.054 1856.42 356.054H1980.29C2036.18 356.054 2072.48 388.319 2072.48 436.142C2072.48 489.726 2031 516.23 1981.45 516.23ZM1910.58 278.846C1948.03 278.846 1972.23 254.071 1972.23 216.043C1972.23 178.592 1948.03 152.664 1910.58 152.664C1873.12 152.664 1848.92 178.592 1848.92 216.043C1848.92 254.071 1873.12 278.846 1910.58 278.846ZM1863.33 470.136H1974.53C1997.58 470.136 2017.74 463.798 2017.74 436.718C2017.74 409.638 1997.58 403.876 1974.53 403.876H1840.86C1831.64 409.638 1820.12 422.314 1820.12 440.175C1820.12 463.222 1835.67 470.136 1863.33 470.136ZM1509.47 305.348C1509.47 368.728 1538.28 411.941 1603.39 411.941C1662.16 411.941 1689.24 371.609 1698.45 354.899V403.874H1751.46V118.091H1697.3V242.545C1697.3 286.911 1693.85 364.694 1622.4 364.694C1586.68 364.694 1563.63 343.952 1563.63 292.673V118.091H1509.47V305.348ZM1352.38 411.943C1275.17 411.943 1216.4 347.411 1216.4 261.561C1216.4 174.558 1273.44 110.027 1352.38 110.027C1431.32 110.027 1487.78 174.558 1487.78 261.561C1487.78 348.563 1429.01 411.943 1352.38 411.943ZM1352.38 365.273C1399.05 365.273 1431.32 331.854 1431.32 262.137C1431.32 191.844 1399.05 156.697 1352.38 156.697C1305.13 156.697 1272.87 191.844 1272.87 262.137C1272.87 331.854 1305.13 365.273 1352.38 365.273ZM934.423 403.863H864.13C816.883 403.863 792.108 380.816 792.108 333.57V163.022H727V118.08H792.108V28.7732H846.268V118.08H923.476V163.022H846.268V328.961C846.268 348.551 854.911 357.193 874.501 357.193H934.423V403.863ZM2571.84 333.694C2571.84 381.206 2603.75 409.379 2642.48 409.379C2677.29 409.379 2702.13 380.868 2708.22 345.115L2739.28 164.913C2740.33 158.78 2745.78 154.23 2751.48 154.23C2759.02 154.23 2762.65 160.235 2763.93 164.054L2841.6 394.943L2825.21 441.557C2817.15 463.451 2805.62 468.061 2786.03 468.061H2728.42V516.459H2787.76C2837.89 516.459 2859.21 498.598 2877.65 444.438L2990 118.322H2932.96L2883.98 266.399C2878.95 281.05 2873.63 297.092 2869.72 308.868C2868.6 312.246 2867.59 315.273 2866.74 317.815L2810.69 154.23C2797.93 118.322 2779.88 103.381 2751.48 103.381C2723.09 103.381 2697.02 126.031 2691.83 158.78L2661.33 337.354C2659.09 348.053 2656.51 358.274 2643.85 358.274C2633.54 358.274 2626 351.46 2626 333.694V0.541016H2571.84V333.694Z" fill="#424242"/>
<defs>
<linearGradient id="paint0_linear_3620_903" x1="-122.808" y1="448" x2="-31.6169" y2="-86.0806" gradientUnits="userSpaceOnUse">
<stop stop-color="#32CB08"/>
<stop offset="1" stop-color="#72FA4C"/>
</linearGradient>
</defs>
</svg>
