<svg xmlns="http://www.w3.org/2000/svg" width="288" height="233" fill="none" viewBox="0 0 288 233">
    <g clip-path="url(#a)">
        <path stroke="#3a3a3a" d="m152.66-128-433.01 250m441.67-245-433.01 250m441.67-245-433.01 250m441.67-245-433.01 250M187.3-108l-433 250m441.67-245-433.01 250M204.62-98l-433.01 250M213.28-93l-433.01 250M221.94-88l-433.01 250M230.6-83l-433 250M239.26-78l-433.01 250M247.92-73l-433.01 250M256.58-68l-433 250M265.23-63l-433 250M273.9-58l-433 250M282.55-53l-433 250M291.21-48l-433 250M299.88-43l-433.02 250M308.55-38l-433.02 250M317.2-33l-433 250M325.86-28l-433.02 250M334.53-23-98.5 227M343.2-18-89.83 232M351.85-13-81.17 237M360.51-8-72.51 242M369.17-3-63.85 247M377.83 2-55.2 252M386.5 7-46.53 257M395.15 12-37.87 262M403.81 17-29.21 267M412.47 22-20.54 272M421.13 27-11.88 277M429.79 32-3.22 282M438.45 37 5.44 287M447.1 42l-433 250M455.77 47 22.76 297M464.43 52 31.42 302M473.09 57 40.08 307M481.75 62 48.74 312M490.4 67l-433 250M499.07 72 66.06 322M507.73 77 74.72 327M516.39 82 83.38 332M525.05 87 92.04 337M533.7 92l-433 250M542.37 97 109.36 347m441.67-245L118.02 352m441.67-245L126.68 357m441.67-245L135.34 362m0-490 433.01 250M126.68-123l433.01 250M118.02-118l433.01 250M109.36-113l433.01 250M100.7-108l433 250M92.04-103l433.01 250M83.38-98l433.01 250M74.72-93l433.01 250M66.06-88l433.01 250M57.4-83l433 250M48.74-78l433.01 250M40.08-73l433.01 250M31.42-68l433 250M22.77-63l433 250M14.1-58l433 250M5.45-53l433 250M-3.21-48l433 250M-11.87-43l433 250M-20.53-38l433 250M-29.2-33l433.02 250M-37.87-28l433.02 250M-46.53-23 386.5 227M-55.2-18l433.02 250M-63.85-13l433.02 250M-72.51-8l433.02 250M-81.17-3l433.02 250M-89.83 2 343.2 252M-98.5 7l433.02 250M-107.15 12l433.02 250M-115.81 17l433.02 250M-124.48 22l433.02 250M-133.13 27 299.9 277M-141.8 32l433.01 250M-150.45 37l433.01 250M-159.1 42l433 250M-167.77 47l433.01 250M-176.43 52l433.01 250M-185.09 57l433.01 250M-193.75 62l433.01 250M-202.4 67l433 250M-211.07 72l433.01 250M-219.73 77l433.01 250M-228.39 82l433.01 250M-237.05 87l433.01 250M-245.7 92l433 250M-254.37 97l433.01 250m-441.67-245 433.01 250m-441.67-245 433.01 250m-441.67-245 433.01 250M144-133l-433.01 250L144 367l433.01-250z" opacity=".3"/>
        <path fill="url(#b)" d="M155 141-58 263l-.5-.87 213-122zm0-10L-58 253l-.5-.87 213-122zm0-10L-58 243l-.5-.87 213-122z"/>
        <path stroke="#4a4a4a" d="m222.5 98.5 14.93-8.71a6 6 0 0 1 6.11.04l28.94 17.36a6 6 0 0 0 6.08.05L312 88m-97.26-6.63 78-47M169 88l47.16-28.39a3 3 0 0 0-.03-5.16L194.97 42.1a3 3 0 0 1 0-5.18l99.53-57.46"/>
        <path stroke="#faff69" d="m30.75 201.56 23-13M232.74 70.57l23-14m-20-43 23-14m-10.48 93 10 6M81.75 182.56l37-21m-67 18 16-9"/>
        <path fill="#353624" stroke="#faff69" d="M119.19 93.48c1.33 2.32 3.55 4.35 6.4 6l.48.27c5.13 2.81 11.71 4.18 18.25 4.14s13.07-1.51 18.1-4.41c2.84-1.65 5.07-3.68 6.4-6 .25 3.7-2.05 7.52-7.15 10.46-4.85 2.8-11.25 4.22-17.67 4.22s-12.81-1.42-17.66-4.22c-5.1-2.94-7.4-6.77-7.15-10.46Z"/>
        <path fill="#353624" stroke="#faff69" d="M119.3 96.89q.38.66.9 1.71l.02.04.03.03c1.3 1.81 3.14 4.08 5.59 5.5l.47.26c5.06 2.77 11.55 4.13 18 4.08s12.9-1.48 17.86-4.35a18.3 18.3 0 0 0 6.66-6.97l.01 7.92c0 3.79-2.66 7.3-7.17 9.91-4.78 2.76-11.05 4.17-17.37 4.22-6.31.04-12.63-1.29-17.5-3.96l-.47-.26c-4.5-2.6-7.16-6.13-7.16-9.91v-8.45zm-.11-19.34c1.33 2.31 3.55 4.35 6.4 6l.48.26c5.13 2.82 11.71 4.19 18.25 4.15s13.07-1.51 18.1-4.41c2.84-1.65 5.07-3.68 6.4-6 .25 3.7-2.05 7.51-7.15 10.46-4.85 2.8-11.25 4.22-17.67 4.22S131.2 90.8 126.34 88c-5.1-2.95-7.4-6.77-7.15-10.46Z"/>
        <path fill="#353624" stroke="#faff69" d="M119.3 80.96q.38.66.9 1.71l.02.04.03.03c1.3 1.81 3.14 4.08 5.59 5.5l.47.26c5.06 2.77 11.55 4.13 18 4.08s12.9-1.48 17.86-4.35a18.3 18.3 0 0 0 6.66-6.97l.01 7.92c0 3.79-2.66 7.3-7.17 9.91-4.78 2.76-11.05 4.17-17.37 4.22-6.31.04-12.63-1.29-17.5-3.96l-.47-.26c-4.5-2.6-7.16-6.13-7.16-9.91v-8.45zm42.68-29.74c9.94 5.73 9.94 15.03 0 20.77s-26.03 5.73-35.96 0-9.94-15.04 0-20.77 26.03-5.73 35.96 0Z"/>
        <path fill="#353624" stroke="#faff69" d="M118.61 64.54q.39.67.94 1.76l.02.04.02.03c1.25 1.74 3 3.9 5.28 5.36l.46.28.49.27c5.2 2.86 11.87 4.25 18.5 4.2 6.62-.05 13.25-1.53 18.35-4.47a19 19 0 0 0 6.86-7.2l.02 8.19c0 3.77-2.58 7.3-6.95 9.94l-.43.26c-4.92 2.83-11.36 4.29-17.86 4.33-6.3.05-12.59-1.23-17.53-3.81l-.47-.26-.48-.26c-4.64-2.68-7.38-6.3-7.38-10.2v-8.74z"/>
        <path fill="#2a2a28" stroke="#606060" d="M172.35 123.87c1.33 2.3 3.56 4.34 6.4 5.99l.48.26c5.13 2.82 11.72 4.2 18.25 4.15 6.54-.05 13.08-1.51 18.1-4.41 2.85-1.65 5.08-3.68 6.4-6 .25 3.7-2.04 7.52-7.14 10.46-4.86 2.8-11.25 4.22-17.67 4.22s-12.81-1.42-17.67-4.22c-5.1-2.94-7.4-6.77-7.15-10.45Z"/>
        <path fill="#2a2a28" stroke="#606060" d="M172.46 127.27q.37.66.91 1.71l.02.04.02.03c1.3 1.81 3.15 4.08 5.6 5.5l.47.26c5.06 2.78 11.55 4.13 18 4.08s12.9-1.48 17.86-4.35a18.3 18.3 0 0 0 6.65-6.97l.02 7.92c0 3.79-2.66 7.3-7.17 9.91-4.78 2.76-11.05 4.17-17.37 4.22s-12.64-1.29-17.5-3.96l-.47-.26c-4.5-2.6-7.17-6.13-7.17-9.9v-8.46zm-.11-19.33c1.33 2.3 3.56 4.34 6.4 5.99l.48.26c5.13 2.82 11.72 4.2 18.25 4.15 6.54-.05 13.08-1.51 18.1-4.41 2.85-1.65 5.08-3.68 6.4-6 .25 3.7-2.04 7.51-7.14 10.46-4.86 2.8-11.25 4.22-17.67 4.22s-12.81-1.42-17.67-4.22c-5.1-2.95-7.4-6.77-7.15-10.45Z"/>
        <path fill="#2a2a28" stroke="#606060" d="M172.46 111.34q.37.66.91 1.71l.02.04.02.03c1.3 1.81 3.15 4.08 5.6 5.5l.47.26c5.06 2.78 11.55 4.13 18 4.08s12.9-1.48 17.86-4.35a18.3 18.3 0 0 0 6.65-6.97l.02 7.92c0 3.79-2.66 7.3-7.17 9.91-4.78 2.76-11.05 4.18-17.37 4.22s-12.64-1.29-17.5-3.96l-.47-.26c-4.5-2.6-7.17-6.13-7.17-9.9v-8.46zm42.69-29.74c9.93 5.74 9.93 15.03 0 20.77s-26.03 5.73-35.97 0-9.93-15.04 0-20.77 26.04-5.73 35.97 0Z"/>
        <path fill="#2a2a28" stroke="#606060" d="M171.78 94.92q.39.67.94 1.76l.02.04.02.03c1.25 1.75 3 3.9 5.28 5.36l.46.28.49.27c5.2 2.86 11.87 4.25 18.5 4.2 6.62-.05 13.25-1.53 18.34-4.47a19 19 0 0 0 6.86-7.2l.02 8.19c0 3.77-2.57 7.3-6.95 9.94l-.43.26c-4.91 2.83-11.36 4.29-17.85 4.33-6.3.05-12.6-1.23-17.53-3.81l-.48-.26-.47-.26c-4.64-2.68-7.38-6.3-7.38-10.2v-8.74zM66.02 123.87c1.33 2.3 3.56 4.34 6.4 5.99l.48.26c5.13 2.82 11.71 4.2 18.25 4.15s13.08-1.51 18.1-4.41c2.85-1.65 5.08-3.68 6.4-6 .25 3.7-2.05 7.52-7.14 10.46-4.86 2.8-11.25 4.22-17.67 4.22s-12.81-1.42-17.67-4.22c-5.1-2.94-7.4-6.77-7.15-10.45Z"/>
        <path fill="#2a2a28" stroke="#606060" d="M66.13 127.27q.37.66.91 1.71l.02.04.02.03c1.3 1.81 3.15 4.08 5.6 5.5l.46.26c5.06 2.78 11.56 4.13 18 4.08 6.45-.04 12.9-1.48 17.87-4.35a18.3 18.3 0 0 0 6.65-6.97l.02 7.92c0 3.79-2.67 7.3-7.17 9.91-4.78 2.76-11.05 4.17-17.37 4.22s-12.64-1.29-17.51-3.96l-.46-.26c-4.51-2.6-7.17-6.13-7.17-9.9v-8.46zm-.11-19.33c1.33 2.3 3.56 4.34 6.4 5.99l.48.26c5.13 2.82 11.71 4.2 18.25 4.15s13.08-1.51 18.1-4.41c2.85-1.65 5.08-3.68 6.4-6 .25 3.7-2.05 7.51-7.14 10.46-4.86 2.8-11.25 4.22-17.67 4.22s-12.81-1.42-17.67-4.22c-5.1-2.95-7.4-6.77-7.15-10.45Z"/>
        <path fill="#2a2a28" stroke="#606060" d="M66.13 111.34q.37.66.91 1.71l.02.04.02.03c1.3 1.81 3.15 4.08 5.6 5.5l.46.26c5.06 2.78 11.56 4.13 18 4.08 6.45-.04 12.9-1.48 17.87-4.35a18.3 18.3 0 0 0 6.65-6.97l.02 7.92c0 3.79-2.67 7.3-7.17 9.91-4.78 2.76-11.05 4.18-17.37 4.22s-12.64-1.29-17.51-3.96l-.46-.26c-4.51-2.6-7.17-6.13-7.17-9.9v-8.46zm42.69-29.74c9.93 5.74 9.93 15.03 0 20.77s-26.04 5.73-35.97 0-9.93-15.04 0-20.77 26.04-5.73 35.97 0Z"/>
        <path fill="#2a2a28" stroke="#606060" d="M65.45 94.92q.39.67.94 1.76l.01.04.03.03c1.24 1.75 3 3.9 5.27 5.36l.47.28.49.27c5.2 2.86 11.87 4.25 18.49 4.2 6.63-.05 13.25-1.53 18.35-4.47a19 19 0 0 0 6.86-7.2l.02 8.19c0 3.77-2.57 7.3-6.95 9.94l-.43.26c-4.91 2.83-11.36 4.29-17.86 4.33-6.29.05-12.58-1.23-17.53-3.81l-.47-.26-.47-.26c-4.64-2.68-7.38-6.3-7.38-10.2v-8.74zm53.74 66.98c1.33 2.32 3.56 4.36 6.4 6l.48.27c5.13 2.81 11.71 4.18 18.25 4.14s13.07-1.5 18.1-4.41c2.84-1.64 5.07-3.68 6.4-6 .25 3.7-2.05 7.52-7.15 10.46-4.85 2.8-11.24 4.22-17.67 4.22-6.42 0-12.8-1.42-17.66-4.22-5.1-2.94-7.4-6.76-7.15-10.45Z"/>
        <path fill="#2a2a28" stroke="#606060" d="M119.3 165.31q.38.66.9 1.72l.02.03.03.03c1.3 1.82 3.14 4.09 5.59 5.5l.47.26c5.06 2.78 11.56 4.13 18 4.09 6.45-.05 12.9-1.49 17.86-4.35a18.3 18.3 0 0 0 6.66-6.97l.01 7.92c0 3.78-2.66 7.3-7.17 9.9-4.78 2.76-11.04 4.18-17.36 4.22s-12.64-1.28-17.51-3.96l-.47-.26c-4.5-2.6-7.16-6.12-7.16-9.9v-8.45zm-.11-19.33c1.33 2.3 3.56 4.35 6.4 5.99l.48.27c5.13 2.81 11.71 4.18 18.25 4.14s13.07-1.5 18.1-4.41c2.84-1.64 5.07-3.68 6.4-6 .25 3.7-2.05 7.52-7.15 10.46-4.85 2.8-11.24 4.22-17.67 4.22-6.42 0-12.8-1.42-17.66-4.22-5.1-2.94-7.4-6.76-7.15-10.45Z"/>
        <path fill="#2a2a28" stroke="#606060" d="M119.3 149.38q.38.66.9 1.72l.02.03.03.03c1.3 1.82 3.14 4.09 5.59 5.5l.47.26c5.06 2.78 11.56 4.13 18 4.09 6.45-.05 12.9-1.49 17.86-4.35a18.3 18.3 0 0 0 6.66-6.97l.01 7.92c0 3.78-2.66 7.3-7.17 9.9-4.78 2.76-11.04 4.18-17.36 4.22s-12.64-1.28-17.51-3.96l-.47-.26c-4.5-2.6-7.16-6.12-7.16-9.9v-8.45zm42.69-29.74c9.93 5.74 9.93 15.04 0 20.77s-26.04 5.73-35.97 0-9.94-15.03 0-20.77 26.03-5.73 35.97 0Z"/>
        <path fill="#2a2a28" stroke="#606060" d="M118.61 132.96q.39.68.94 1.76l.02.04.02.03c1.25 1.75 3 3.9 5.28 5.36l.46.28h.01l.48.28c5.2 2.85 11.87 4.24 18.5 4.2 6.62-.05 13.25-1.53 18.35-4.48a19 19 0 0 0 6.86-7.2l.02 8.2c0 3.77-2.58 7.29-6.95 9.94l-.43.25c-4.92 2.84-11.36 4.3-17.86 4.34-6.3.04-12.59-1.24-17.53-3.82l-.47-.25-.48-.27c-4.63-2.68-7.37-6.3-7.37-10.2v-8.73z"/>
    </g>
    <defs>
        <linearGradient id="b" x1="142" x2="50.5" y1="137.5" y2="232" gradientUnits="userSpaceOnUse">
            <stop offset=".14" stop-color="#4a4a4a" stop-opacity="0"/>
            <stop offset=".4" stop-color="#4a4a4a"/>
        </linearGradient>
        <clipPath id="a">
            <path fill="#fff" d="M0 0h288v233H0z"/>
        </clipPath>
    </defs>
</svg>
