<svg xmlns="http://www.w3.org/2000/svg" width="288" height="233" fill="none" viewBox="0 0 288 233">
    <g clip-path="url(#a)">
        <path stroke="#3a3a3a" d="m152.66-128-433.01 250m441.67-245-433.01 250m441.67-245-433.01 250m441.67-245-433.01 250M187.3-108l-433 250m441.67-245-433.01 250M204.62-98l-433.01 250M213.28-93l-433.01 250M221.94-88l-433.01 250M230.6-83l-433 250M239.26-78l-433.01 250M247.92-73l-433.01 250M256.58-68l-433 250M265.23-63l-433 250M273.9-58l-433 250M282.55-53l-433 250M291.21-48l-433 250M299.88-43l-433.02 250M308.55-38l-433.02 250M317.2-33l-433 250M325.86-28l-433.02 250M334.53-23-98.5 227M343.2-18-89.83 232M351.85-13-81.17 237M360.51-8-72.51 242M369.17-3-63.85 247M377.83 2-55.2 252M386.5 7-46.53 257M395.15 12-37.87 262M403.81 17-29.21 267M412.47 22-20.54 272M421.13 27-11.88 277M429.79 32-3.22 282M438.45 37 5.44 287M447.1 42l-433 250M455.77 47 22.76 297M464.43 52 31.42 302M473.09 57 40.08 307M481.75 62 48.74 312M490.4 67l-433 250M499.07 72 66.06 322M507.73 77 74.72 327M516.39 82 83.38 332M525.05 87 92.04 337M533.7 92l-433 250M542.37 97 109.36 347m441.67-245L118.02 352m441.67-245L126.68 357m441.67-245L135.34 362m0-490 433.01 250M126.68-123l433.01 250M118.02-118l433.01 250M109.36-113l433.01 250M100.7-108l433 250M92.04-103l433.01 250M83.38-98l433.01 250M74.72-93l433.01 250M66.06-88l433.01 250M57.4-83l433 250M48.74-78l433.01 250M40.08-73l433.01 250M31.42-68l433 250M22.77-63l433 250M14.1-58l433 250M5.45-53l433 250M-3.21-48l433 250M-11.87-43l433 250M-20.53-38l433 250M-29.2-33l433.02 250M-37.87-28l433.02 250M-46.53-23 386.5 227M-55.2-18l433.02 250M-63.85-13l433.02 250M-72.51-8l433.02 250M-81.17-3l433.02 250M-89.83 2 343.2 252M-98.5 7l433.02 250M-107.15 12l433.02 250M-115.81 17l433.02 250M-124.48 22l433.02 250M-133.13 27 299.9 277M-141.8 32l433.01 250M-150.45 37l433.01 250M-159.1 42l433 250M-167.77 47l433.01 250M-176.43 52l433.01 250M-185.09 57l433.01 250M-193.75 62l433.01 250M-202.4 67l433 250M-211.07 72l433.01 250M-219.73 77l433.01 250M-228.39 82l433.01 250M-237.05 87l433.01 250M-245.7 92l433 250M-254.37 97l433.01 250m-441.67-245 433.01 250m-441.67-245 433.01 250m-441.67-245 433.01 250M144-133l-433.01 250L144 367l433.01-250z" opacity=".3"/>
        <path fill="#2a2a28" stroke="#3e3e3e" stroke-width="1.25" d="M0 0h81.98v81.98H0z" transform="matrix(.87 .5 -.87 .5 144 111)"/>
        <path stroke="#606060" stroke-width="1.25" d="M0 0h81.98v81.98H0z" transform="matrix(.87 .5 0 1 73 70)"/>
        <path stroke="url(#b)" stroke-width="1.25" d="M0 0h81.98v81.98H0z" transform="matrix(.87 .5 0 1 73 70)"/>
        <path stroke="#606060" stroke-width="1.25" d="M0 0h81.98v81.98H0z" transform="matrix(.87 -.5 0 1 144 110.98)"/>
        <path stroke="url(#c)" stroke-width="1.25" d="M0 0h81.98v81.98H0z" transform="matrix(.87 -.5 0 1 144 110.98)"/>
        <path stroke="#606060" stroke-width="1.25" d="M0 0h81.98v81.98H0z" transform="matrix(.87 .5 -.87 .5 144 29)"/>
        <path stroke="url(#d)" stroke-width="1.25" d="M0 0h81.98v81.98H0z" transform="matrix(.87 .5 -.87 .5 144 29)"/>
        <path stroke="#8c8c8c" stroke-width=".5" d="m89.85 183.8 44-34m103.06-47.57-65-25m41.07-27.98-66-6"/>
        <circle cx="90" cy="184" r="3" fill="#faff69"/>
        <circle cx="134" cy="150" r="3" fill="#faff69"/>
        <circle cx="172" cy="77" r="3" fill="#faff69"/>
        <circle cx="237" cy="102" r="3" fill="#faff69"/>
        <circle cx="213" cy="49" r="3" fill="#faff69"/>
        <circle cx="147" cy="43" r="3" fill="#faff69"/>
        <circle cx="94" cy="139" r="2" fill="#707070"/>
        <circle cx="134.5" cy="89.5" r="2.5" fill="#707070"/>
        <circle cx="54" cy="99" r="2" fill="#707070"/>
        <circle cx="63.5" cy="48.5" r="1.5" fill="#faff69"/>
        <circle cx="24" cy="39" r="2" fill="#707070"/>
        <circle cx="194" cy="22" r="2" fill="#707070"/>
        <circle cx="193" cy="121" r="1" fill="#faff69"/>
        <circle cx="154" cy="202" r="2" fill="#707070"/>
        <circle cx="244" cy="202" r="2" fill="#707070"/>
        <circle cx="235.5" cy="173.5" r="3.5" fill="#707070" opacity=".6"/>
        <circle cx="44.5" cy="182.5" r="2.5" fill="#707070" opacity=".6"/>
    </g>
    <defs>
        <linearGradient id="b" x1="27.71" x2="12.86" y1="47.15" y2="73.31" gradientUnits="userSpaceOnUse">
            <stop stop-color="#faff69" stop-opacity="0"/>
            <stop offset="1" stop-color="#faff69"/>
        </linearGradient>
        <linearGradient id="c" x1="46.19" x2="77.9" y1="67.11" y2="44.19" gradientUnits="userSpaceOnUse">
            <stop stop-color="#faff69" stop-opacity="0"/>
            <stop offset="1" stop-color="#faff69"/>
        </linearGradient>
        <linearGradient id="d" x1="53.37" x2="61.88" y1="36.63" y2="14.27" gradientUnits="userSpaceOnUse">
            <stop stop-color="#faff69" stop-opacity="0"/>
            <stop offset="1" stop-color="#faff69"/>
        </linearGradient>
        <clipPath id="a">
            <path fill="#fff" d="M0 0h288v233H0z"/>
        </clipPath>
    </defs>
</svg>
