<svg width="25" height="25" viewBox="0 0 25 25" fill="none" xmlns="http://www.w3.org/2000/svg">
<path d="M17.4146 12.0562C17.4146 18.7147 18.7147 24.1125 12.0562 24.1125C5.39776 24.1125 0 18.7147 0 12.0562C0 5.39776 5.39776 0 12.0562 0C18.7147 0 17.4146 5.39776 17.4146 12.0562Z" fill="#0D9373"/>
<g style="mix-blend-mode:hard-light">
<path d="M17.8961 11.928C17.8961 17.7442 19.0318 22.4592 13.2155 22.4592C7.39931 22.4592 2.68433 17.7442 2.68433 11.928C2.68433 6.11177 7.39931 1.39679 13.2155 1.39679C19.0318 1.39679 17.8961 6.11177 17.8961 11.928Z" fill="#0D9373"/>
</g>
<g style="mix-blend-mode:hard-light">
<path d="M21.2825 11.928C21.2825 17.7442 22.4182 22.4592 16.602 22.4592C10.7858 22.4592 6.0708 17.7442 6.0708 11.928C6.0708 6.11177 10.7858 1.39679 16.602 1.39679C22.4182 1.39679 21.2825 6.11177 21.2825 11.928Z" fill="#0D9373"/>
</g>
<g style="mix-blend-mode:screen">
<path d="M24.669 11.928C24.669 17.7442 25.8047 22.4592 19.9885 22.4592C14.1723 22.4592 9.45728 17.7442 9.45728 11.928C9.45728 6.11177 14.1723 1.39679 19.9885 1.39679C25.8047 1.39679 24.669 6.11177 24.669 11.928Z" fill="#0D9373"/>
</g>
</svg>
