<?xml version="1.0" encoding="UTF-8"?>
<svg version="1.1" xmlns="http://www.w3.org/2000/svg" width="64" height="64">
<path d="M0 0 C2.97 0 5.94 0 9 0 C9 0.66 9 1.32 9 2 C10.98 2.66 12.96 3.32 15 4 C15 4.99 15 5.98 15 7 C16.60875 7.185625 16.60875 7.185625 18.25 7.375 C21.3831871 7.89719785 23.38649726 8.29117129 26 10 C27.66577625 13.33155251 27.12007856 17.06536059 27.09765625 20.7265625 C27.0962413 21.58937836 27.09482635 22.45219421 27.09336853 23.34115601 C27.08776188 26.1024723 27.07520827 28.86370812 27.0625 31.625 C27.05748586 33.4947905 27.0529228 35.36458226 27.04882812 37.234375 C27.03779029 41.82294777 27.0205212 46.41146023 27 51 C25.02 51.495 25.02 51.495 23 52 C23 52.66 23 53.32 23 54 C21.906875 54.53625 20.81375 55.0725 19.6875 55.625 C17.15497521 56.87330123 14.70303184 58.17393849 12.265625 59.6015625 C6.90730381 62.72478286 3.25053017 64.83340402 -3 64 C-3 63.34 -3 62.68 -3 62 C-4.485 61.6596875 -4.485 61.6596875 -6 61.3125 C-11.6330316 59.70960483 -17.18838673 56.49815689 -21 52 C-21.26172754 48.98703764 -21.34860113 46.18519432 -21.29296875 43.17578125 C-21.28872391 42.31438034 -21.28447906 41.45297943 -21.28010559 40.56547546 C-21.26331248 37.81416569 -21.22565956 35.06358838 -21.1875 32.3125 C-21.17245396 30.4472762 -21.15876541 28.58204093 -21.14648438 26.71679688 C-21.11340693 22.14424902 -21.0616206 17.5722487 -21 13 C-19.68 12.67 -18.36 12.34 -17 12 C-17 11.34 -17 10.68 -17 10 C-14.47946405 8.73973202 -13.1457902 9.08125555 -10.375 9.4375 C-9.55773438 9.53933594 -8.74046875 9.64117187 -7.8984375 9.74609375 C-7.27195312 9.82988281 -6.64546875 9.91367188 -6 10 C-5.34 7.69 -4.68 5.38 -4 3 C-2.68 2.67 -1.36 2.34 0 2 C0 1.34 0 0.68 0 0 Z " fill="#5F7276" transform="translate(29,0)"/>
<path d="M0 0 C0.04936158 5.09031755 0.08570105 10.18049643 0.10986328 15.27099609 C0.11993376 17.00344265 0.13359089 18.73587216 0.15087891 20.46826172 C0.17508162 22.95544639 0.18647239 25.44240675 0.1953125 27.9296875 C0.20563507 28.70682098 0.21595764 29.48395447 0.22659302 30.28463745 C0.22699271 32.19125493 0.1223214 34.09731036 0 36 C-0.66 36.66 -1.32 37.32 -2 38 C-2.99 38 -3.98 38 -5 38 C-5 38.66 -5 39.32 -5 40 C-6.98 40.66 -8.96 41.32 -11 42 C-11 42.66 -11 43.32 -11 44 C-11.969375 44.28875 -12.93875 44.5775 -13.9375 44.875 C-17.10664203 45.64214682 -17.10664203 45.64214682 -18 48 C-19.32 48 -20.64 48 -22 48 C-22 48.66 -22 49.32 -22 50 C-22.99 49.67 -23.98 49.34 -25 49 C-24.93117243 44.06989247 -24.84323172 39.14063713 -24.73754883 34.21118164 C-24.70429137 32.53419441 -24.67626192 30.85709503 -24.65356445 29.17993164 C-24.62003263 26.76920775 -24.56772022 24.35951238 -24.51171875 21.94921875 C-24.50532883 21.19912033 -24.4989389 20.44902191 -24.49235535 19.67619324 C-24.34596552 14.49557223 -24.34596552 14.49557223 -22.63598633 12.04614258 C-20.4913129 10.67471658 -18.50258497 10.33818716 -16 10 C-16 12.64 -16 15.28 -16 18 C-15.01 18 -14.02 18 -13 18 C-13 17.34 -13 16.68 -13 16 C-11.35 15.34 -9.7 14.68 -8 14 C-7.99742188 13.32453125 -7.99484375 12.6490625 -7.9921875 11.953125 C-7.8722922 9.18754018 -7.66613079 6.68981927 -7 4 C-2.42857143 0 -2.42857143 0 0 0 Z " fill="#233C42" transform="translate(54,13)"/>
<path d="M0 0 C0 0.66 0 1.32 0 2 C0.66 2.33 1.32 2.66 2 3 C1.34 3.474375 0.68 3.94875 0 4.4375 C-2.89658976 8.14875563 -2.34969446 11.45397207 -2 16 C-0.35 15.34 1.3 14.68 3 14 C3 16.31 3 18.62 3 21 C3.66 21 4.32 21 5 21 C5 18.36 5 15.72 5 13 C7.475 13.99 7.475 13.99 10 15 C10 25.89 10 36.78 10 48 C8.02 47.34 6.04 46.68 4 46 C3.67 45.34 3.34 44.68 3 44 C1.38158416 43.26928667 -0.27064574 42.6122162 -1.9375 42 C-6.78587699 40.21412301 -6.78587699 40.21412301 -9 38 C-9.17495606 35.49079154 -9.23169569 33.09375059 -9.1953125 30.5859375 C-9.1924826 29.85629791 -9.18965271 29.12665833 -9.18673706 28.37490845 C-9.17553002 26.04143972 -9.1504251 23.70835297 -9.125 21.375 C-9.11497085 19.79427637 -9.10584489 18.21354673 -9.09765625 16.6328125 C-9.07558905 12.75506086 -9.04105615 8.87759522 -9 5 C-8.34 4.67 -7.68 4.34 -7 4 C-7 3.34 -7 2.68 -7 2 C-4 0 -4 0 0 0 Z " fill="#FAFBFB" transform="translate(19,12)"/>
<path d="M0 0 C0.33 0.99 0.66 1.98 1 3 C0.34 3 -0.32 3 -1 3 C-1.66 6.96 -2.32 10.92 -3 15 C-1.35 14.67 0.3 14.34 2 14 C2.061875 13.05125 2.12375 12.1025 2.1875 11.125 C3 8 3 8 5.3125 6.5625 C8.88726342 5.8142937 10.79974293 6.39987146 14 8 C14 8.99 14 9.98 14 11 C13.01 11.66 12.02 12.32 11 13 C10.49218893 15.36094226 10.49218893 15.36094226 10.4375 18 C10.20763359 22.79236641 10.20763359 22.79236641 8 25 C6.68 25 5.36 25 4 25 C4 25.66 4 26.32 4 27 C3.01 27 2.02 27 1 27 C1 24.36 1 21.72 1 19 C-0.36125 19.7734375 -0.36125 19.7734375 -1.75 20.5625 C-5 22 -5 22 -7.1875 21.8125 C-9 21 -9 21 -12 19 C-12 18.34 -12 17.68 -12 17 C-12.66 17 -13.32 17 -14 17 C-14 15.68 -14 14.36 -14 13 C-12.68 12.67 -11.36 12.34 -10 12 C-10.03480469 11.38511719 -10.06960937 10.77023437 -10.10546875 10.13671875 C-10.13253906 9.32847656 -10.15960937 8.52023437 -10.1875 7.6875 C-10.23970703 6.48673828 -10.23970703 6.48673828 -10.29296875 5.26171875 C-9.93312505 2.48372541 -9.16758647 1.70572785 -7 0 C-4.3333581 -1.33332095 -2.83319697 -0.67102033 0 0 Z " fill="#79888C" transform="translate(37,4)"/>
<path d="M0 0 C0.33 0.99 0.66 1.98 1 3 C0.34 3 -0.32 3 -1 3 C-1.66 6.96 -2.32 10.92 -3 15 C-2.34 15.33 -1.68 15.66 -1 16 C-1.66 16 -2.32 16 -3 16 C-2.67 17.32 -2.34 18.64 -2 20 C-5 22 -5 22 -7 21.75 C-9 21 -9 21 -12 19 C-12 18.34 -12 17.68 -12 17 C-12.66 17 -13.32 17 -14 17 C-14 15.68 -14 14.36 -14 13 C-12.68 12.67 -11.36 12.34 -10 12 C-10.03480469 11.38511719 -10.06960937 10.77023437 -10.10546875 10.13671875 C-10.13253906 9.32847656 -10.15960937 8.52023437 -10.1875 7.6875 C-10.23970703 6.48673828 -10.23970703 6.48673828 -10.29296875 5.26171875 C-9.93312505 2.48372541 -9.16758647 1.70572785 -7 0 C-4.3333581 -1.33332095 -2.83319697 -0.67102033 0 0 Z " fill="#6A7B7F" transform="translate(37,4)"/>
<path d="M0 0 C3.465 1.98 3.465 1.98 7 4 C6.67 15.88 6.34 27.76 6 40 C6.66 40.33 7.32 40.66 8 41 C8 40.34 8 39.68 8 39 C9.98 38.505 9.98 38.505 12 38 C12.33 38.66 12.66 39.32 13 40 C9.36576791 42.32590854 6.22911669 42.16265833 2 42 C2 41.34 2 40.68 2 40 C0.515 39.6596875 0.515 39.6596875 -1 39.3125 C-4.88353676 38.2209968 -7.95543308 36.33599028 -11.30078125 34.12109375 C-13.00760476 32.94649738 -13.00760476 32.94649738 -15 32 C-15 31.34 -15 30.68 -15 30 C-9.34388537 29.43438854 -5.77357872 31.28608722 -1 34 C-1 34.66 -1 35.32 -1 36 C0.98 36.66 2.96 37.32 5 38 C4.67 27.11 4.34 16.22 4 5 C2.68 4.34 1.36 3.68 0 3 C0 5.64 0 8.28 0 11 C-0.33 11 -0.66 11 -1 11 C-1.0270043 9.54176788 -1.04639787 8.08339325 -1.0625 6.625 C-1.07410156 5.81289063 -1.08570313 5.00078125 -1.09765625 4.1640625 C-1 2 -1 2 0 0 Z " fill="#7E8D90" transform="translate(24,22)"/>
<path d="M0 0 C0.66 0 1.32 0 2 0 C2 12.87 2 25.74 2 39 C0.02 39.495 0.02 39.495 -2 40 C-2 40.66 -2 41.32 -2 42 C-2.51949219 42.25394531 -3.03898437 42.50789063 -3.57421875 42.76953125 C-6.75050565 44.33712571 -9.8468753 45.90679366 -12.875 47.75 C-15 49 -15 49 -17 49 C-17 48.34 -17 47.68 -17 47 C-15.02 46.34 -13.04 45.68 -11 45 C-11 44.34 -11 43.68 -11 43 C-9.02 42.34 -7.04 41.68 -5 41 C-5 40.34 -5 39.68 -5 39 C-3.68 38.34 -2.36 37.68 -1 37 C-0.67 24.79 -0.34 12.58 0 0 Z " fill="#475D61" transform="translate(54,12)"/>
<path d="M0 0 C1.32 0.66 2.64 1.32 4 2 C3.01 2.33 2.02 2.66 1 3 C1 4.32 1 5.64 1 7 C1.66 7.33 2.32 7.66 3 8 C2.67 8.66 2.34 9.32 2 10 C1.77532169 11.53668865 1.59203195 13.07968054 1.4375 14.625 C1.31181641 15.85089844 1.31181641 15.85089844 1.18359375 17.1015625 C1.12300781 17.72804688 1.06242187 18.35453125 1 19 C0.67 19 0.34 19 0 19 C-0.33 17.02 -0.66 15.04 -1 13 C-2.65 13.66 -4.3 14.32 -6 15 C-6.10824843 13.3973218 -6.18570645 11.79254252 -6.25 10.1875 C-6.29640625 9.29417969 -6.3428125 8.40085937 -6.390625 7.48046875 C-6 5 -6 5 -4.109375 3.17578125 C-2 2 -2 2 0 2 C0 1.34 0 0.68 0 0 Z " fill="#294248" transform="translate(22,14)"/>
<path d="M0 0 C0 0.66 0 1.32 0 2 C0.66 2.33 1.32 2.66 2 3 C1.360625 3.45375 0.72125 3.9075 0.0625 4.375 C-2.98225157 8.25013836 -2.81649865 12.1922647 -3 17 C-3.33 17 -3.66 17 -4 17 C-4 13.7 -4 10.4 -4 7 C-5.32 6.67 -6.64 6.34 -8 6 C-8 16.56 -8 27.12 -8 38 C-8.33 38 -8.66 38 -9 38 C-9 27.11 -9 16.22 -9 5 C-8.34 4.67 -7.68 4.34 -7 4 C-7 3.34 -7 2.68 -7 2 C-4 0 -4 0 0 0 Z " fill="#95A1A4" transform="translate(19,12)"/>
<path d="M0 0 C1.52185819 3.04371638 1.08000393 6.19342794 1.02734375 9.52734375 C1.0146976 11.05663836 1.00233663 12.58593536 0.99023438 14.11523438 C0.96540296 16.52929054 0.93742088 18.94322389 0.90405273 21.35717773 C0.87386785 23.68474112 0.8560809 26.01214718 0.83984375 28.33984375 C0.82638412 29.06179428 0.8129245 29.78374481 0.79905701 30.52757263 C0.78036354 34.25671065 0.87352865 35.81029298 3 39 C1.35 38.67 -0.3 38.34 -2 38 C-2 25.79 -2 13.58 -2 1 C-1.34 0.67 -0.68 0.34 0 0 Z " fill="#2A4349" transform="translate(10,14)"/>
<path d="M0 0 C0.66 0 1.32 0 2 0 C2 2.31 2 4.62 2 7 C1.34 7 0.68 7 0 7 C-0.33 8.98 -0.66 10.96 -1 13 C-2.65 13.33 -4.3 13.66 -6 14 C-6.05399736 12.54207116 -6.09279177 11.08357288 -6.125 9.625 C-6.15980469 8.40683594 -6.15980469 8.40683594 -6.1953125 7.1640625 C-6 5 -6 5 -4 3 C-2.68 3 -1.36 3 0 3 C0 2.01 0 1.02 0 0 Z " fill="#213B41" transform="translate(40,5)"/>
<path d="M0 0 C4.875 1.875 4.875 1.875 6 3 C6.14115161 5.67058851 6.04247107 8.32432238 6 11 C4 10 2 9 0 8 C0 5.36 0 2.72 0 0 Z " fill="#E5E8E8" transform="translate(40,15)"/>
<path d="M0 0 C1.98 0.66 3.96 1.32 6 2 C6 4.64 6 7.28 6 10 C4.02 9.34 2.04 8.68 0 8 C0 5.36 0 2.72 0 0 Z " fill="#EDEFF0" transform="translate(27,8)"/>
<path d="M0 0 C0 0.66 0 1.32 0 2 C-1.32 2.33 -2.64 2.66 -4 3 C-4 3.66 -4 4.32 -4 5 C-4.51949219 5.25394531 -5.03898437 5.50789063 -5.57421875 5.76953125 C-8.75050565 7.33712571 -11.8468753 8.90679366 -14.875 10.75 C-17 12 -17 12 -19 12 C-19 11.34 -19 10.68 -19 10 C-17.02 9.34 -15.04 8.68 -13 8 C-13 7.34 -13 6.68 -13 6 C-11.02 5.34 -9.04 4.68 -7 4 C-7 3.34 -7 2.68 -7 2 C-4.35261084 0.5393715 -3.10551666 0 0 0 Z " fill="#6F7F83" transform="translate(56,49)"/>
<path d="M0 0 C0.66 0.33 1.32 0.66 2 1 C2 1.99 2 2.98 2 4 C-4.625 5.25 -4.625 5.25 -8 3 C-8 2.34 -8 1.68 -8 1 C-4.92477747 -0.86709939 -3.39885889 -1.24624826 0 0 Z " fill="#E0E3E4" transform="translate(49,11)"/>
<path d="M0 0 C2.4375 1 2.4375 1 4 2 C2.25 5.875 2.25 5.875 0 7 C0 6.01 0 5.02 0 4 C-4.53140653 3.06619039 -4.53140653 3.06619039 -9 4 C-9 3.01 -9 2.02 -9 1 C-5.97562661 -0.5121867 -3.33758466 -0.17263369 0 0 Z " fill="#5B6E72" transform="translate(51,8)"/>
<path d="M0 0 C5.65611463 -0.56561146 9.22642128 1.28608722 14 4 C12.68 4.33 11.36 4.66 10 5 C10.66 5.33 11.32 5.66 12 6 C12 6.66 12 7.32 12 8 C8 6 4 4 0 2 C0 1.34 0 0.68 0 0 Z " fill="#7B8A8E" transform="translate(9,52)"/>
<path d="M0 0 C0.928125 0.20625 1.85625 0.4125 2.8125 0.625 C3.1425 1.615 3.4725 2.605 3.8125 3.625 C0.8125 5.625 0.8125 5.625 -1.1875 5.4375 C-3.43219451 4.52559285 -4.60953265 3.43966246 -6.1875 1.625 C-3.1875 -0.375 -3.1875 -0.375 0 0 Z " fill="#E9EBEC" transform="translate(31.1875,20.375)"/>
<path d="M0 0 C0.66 0.33 1.32 0.66 2 1 C1.67 1.66 1.34 2.32 1 3 C0.77532169 4.53668865 0.59203195 6.07968054 0.4375 7.625 C0.35371094 8.44226562 0.26992188 9.25953125 0.18359375 10.1015625 C0.12300781 10.72804688 0.06242187 11.35453125 0 12 C0.66 12.33 1.32 12.66 2 13 C0.68 12.67 -0.64 12.34 -2 12 C-3.04293785 8.61045199 -3.30754089 5.53672026 -3 2 C-2.01 1.34 -1.02 0.68 0 0 Z " fill="#51656A" transform="translate(27,4)"/>
<path d="M0 0 C1.98 0.66 3.96 1.32 6 2 C6 2.99 6 3.98 6 5 C7.65 5 9.3 5 11 5 C11 5.33 11 5.66 11 6 C8.69 6.33 6.38 6.66 4 7 C4 5.68 4 4.36 4 3 C3.34 3 2.68 3 2 3 C2 3.99 2 4.98 2 6 C0.68 5.67 -0.64 5.34 -2 5 C-1.34 5 -0.68 5 0 5 C-0.33 4.01 -0.66 3.02 -1 2 C-0.67 1.34 -0.34 0.68 0 0 Z " fill="#77878A" transform="translate(38,2)"/>
<path d="M0 0 C0.33 0.99 0.66 1.98 1 3 C-5.75 4.125 -5.75 4.125 -8 3 C-7.67 2.01 -7.34 1.02 -7 0 C-4.3333581 -1.33332095 -2.83319697 -0.67102033 0 0 Z " fill="#F1F3F3" transform="translate(37,4)"/>
<path d="M0 0 C0 0.66 0 1.32 0 2 C0.66 2.33 1.32 2.66 2 3 C-1 5 -1 5 -4.1875 4.625 C-5.115625 4.41875 -6.04375 4.2125 -7 4 C-7 3.34 -7 2.68 -7 2 C-4 0 -4 0 0 0 Z " fill="#E1E5E5" transform="translate(19,12)"/>
<path d="M0 0 C2.64 0 5.28 0 8 0 C8 0.99 8 1.98 8 3 C6.02253397 3.73080266 4.01927511 4.39421747 2 5 C1.34 4.67 0.68 4.34 0 4 C0 2.68 0 1.36 0 0 Z " fill="#99A5A8" transform="translate(23,17)"/>
<path d="M0 0 C2.475 0.99 2.475 0.99 5 2 C5 2.99 5 3.98 5 5 C4.34 5 3.68 5 3 5 C3 5.66 3 6.32 3 7 C2.01 7 1.02 7 0 7 C0 4.69 0 2.38 0 0 Z " fill="#E2E6E6" transform="translate(38,24)"/>
<path d="M0 0 C0 2.31 0 4.62 0 7 C-1.98 6.01 -3.96 5.02 -6 4 C-2.17391304 0 -2.17391304 0 0 0 Z " fill="#ABB4B7" transform="translate(22,26)"/>
<path d="M0 0 C2.31 0 4.62 0 7 0 C6.51917969 0.38800781 6.03835937 0.77601562 5.54296875 1.17578125 C3.54250502 3.54088647 3.51123932 5.12691453 3.3125 8.1875 C3.24675781 9.08855469 3.18101563 9.98960938 3.11328125 10.91796875 C3.07589844 11.60503906 3.03851562 12.29210938 3 13 C2.67 13 2.34 13 2 13 C2 9.7 2 6.4 2 3 C1.34 3 0.68 3 0 3 C0 2.01 0 1.02 0 0 Z " fill="#818F93" transform="translate(13,16)"/>
<path d="M0 0 C0.99 0.33 1.98 0.66 3 1 C0.28817788 3.60334924 -0.89133813 3.99456691 -4.75 4.1875 C-5.8225 4.125625 -6.895 4.06375 -8 4 C-8 3.34 -8 2.68 -8 2 C-5.03 2.495 -5.03 2.495 -2 3 C-2 2.34 -2 1.68 -2 1 C-1.34 0.67 -0.68 0.34 0 0 Z " fill="#738387" transform="translate(34,60)"/>
</svg>
