<svg width="502" height="502" viewBox="0 0 502 502" fill="none" xmlns="http://www.w3.org/2000/svg">
<path d="M501.402 185.33V29.9622C501.402 13.2897 487.876 0 471.453 0H316.156C291.763 0 267.611 4.83243 245.15 14.0144C222.689 23.438 202.16 36.9695 185.012 54.3668L183.804 55.575C161.101 78.5299 144.92 107.042 136.708 138.454C151.441 134.588 166.656 132.655 181.871 132.413C222.447 131.93 262.298 144.978 294.661 169.383C323.885 191.13 346.104 221.092 358.18 255.645C370.739 290.681 372.188 328.859 362.769 364.862C393.925 356.647 422.666 340.457 445.611 317.744L446.818 316.536C463.966 299.38 477.732 278.841 487.151 256.37C496.571 233.898 501.16 209.735 501.16 185.33H501.402Z" fill="#18E299"/>
<path d="M132.071 182.706C132.312 135.044 151.32 89.3068 184.764 55.1246L55.5569 184.391C55.0756 184.873 54.5942 185.113 54.113 185.595C22.5932 216.888 3.58552 258.774 0.457596 303.066C-2.42971 344.47 8.39746 385.392 31.4959 419.575C33.6992 422.835 39.6774 423.907 43.0459 420.778L122.206 341.822C146.989 317.028 154.689 280.198 142.899 247.219C135.44 226.758 131.831 204.852 132.071 182.706Z" fill="#0C8C5E"/>
<path d="M446.067 316.547C421.284 340.86 390.245 357.71 356.56 365.172C322.634 372.635 287.506 370.468 254.783 358.914C254.783 358.914 254.542 358.914 254.301 358.914C221.338 347.118 184.525 354.821 159.742 379.375L80.5808 458.331C77.2123 461.701 77.6935 467.238 81.7838 469.885C115.95 492.754 156.855 503.827 198.24 500.938C242.512 497.809 284.137 478.792 315.656 447.258L316.859 446.054L446.067 316.788V316.547Z" fill="#0C8C5E"/>
</svg>
