<svg width="32" height="32" viewBox="0 0 32 32" fill="none" xmlns="http://www.w3.org/2000/svg">
<rect width="32" height="32" transform="matrix(0 -1 1 0 0 32)" fill="#61CCC0"/>
<g clip-path="url(#clip0_222_1910)">
<mask id="mask0_222_1910" style="mask-type:luminance" maskUnits="userSpaceOnUse" x="5" y="11" width="25" height="11">
<path d="M30 11H5V22H30V11Z" fill="white"/>
</mask>
<g mask="url(#mask0_222_1910)">
<path d="M7.26693 21.3581C6.63759 21.3581 6.21224 21.2416 5.99089 21.0086C5.77387 20.7718 5.66537 20.4109 5.66537 19.9258V14.5691H5.00781V13.005H5.66537V11.1831H7.93099V13.005H8.58854V14.5691H7.93099V19.4445C7.93099 19.5859 7.95704 19.6852 8.00912 19.7425C8.0612 19.7998 8.16103 19.8284 8.30859 19.8284C8.41276 19.8284 8.50608 19.8207 8.58854 19.8055V21.2034C8.53646 21.2187 8.3737 21.2474 8.10026 21.2893C7.82682 21.3352 7.54904 21.3581 7.26693 21.3581ZM12.0716 21.3581C11.3771 21.3581 10.8238 21.2436 10.4115 21.0143C9.99914 20.7852 9.70399 20.4548 9.52604 20.0232C9.34809 19.5916 9.25912 19.0722 9.25912 18.4649V15.0102C9.25912 14.2119 9.51954 13.6085 10.0404 13.1998C10.5612 12.7873 11.2773 12.581 12.1888 12.581C14.0638 12.581 15.0013 13.3907 15.0013 15.0102V15.6347C15.0013 16.3909 14.9926 16.8989 14.9753 17.1586H11.5898V18.8201C11.5898 18.9729 11.6007 19.1237 11.6224 19.2727C11.6441 19.4179 11.6918 19.5381 11.7656 19.6336C11.8437 19.7291 11.9675 19.7769 12.1367 19.7769C12.3798 19.7769 12.5317 19.6852 12.5925 19.5019C12.6532 19.3147 12.6836 19.0722 12.6836 18.7743V17.9493H15.0013V18.4362C15.0013 19.0779 14.9101 19.6164 14.7279 20.0519C14.5499 20.4835 14.2461 20.81 13.8164 21.0316C13.3911 21.2493 12.8095 21.3581 12.0716 21.3581ZM11.5768 16.1388H12.6836V14.9816C12.6836 14.6722 12.6402 14.4506 12.5534 14.3169C12.4666 14.1794 12.3364 14.1107 12.1628 14.1107C11.9761 14.1107 11.8307 14.1756 11.7266 14.3055C11.6267 14.4354 11.5768 14.6607 11.5768 14.9816V16.1388ZM17.625 21.3581C17.0825 21.3581 16.668 21.2474 16.3815 21.0258C16.0994 20.8043 15.9062 20.5006 15.8021 20.1149C15.6979 19.7291 15.6458 19.2918 15.6458 18.8029C15.6458 18.2796 15.7045 17.8519 15.8216 17.5195C15.9388 17.1835 16.1385 16.9085 16.4206 16.6945C16.7071 16.4807 17.0998 16.2993 17.599 16.1503L19.0443 15.7149V14.8326C19.0443 14.3705 18.8728 14.1393 18.53 14.1393C18.2175 14.1393 18.0612 14.3265 18.0612 14.7008V15.2164H15.7956C15.7912 15.1859 15.7891 15.1477 15.7891 15.1019C15.7891 15.0522 15.7891 14.9968 15.7891 14.9357C15.7891 14.0801 16.017 13.4748 16.4726 13.1195C16.9327 12.7605 17.6597 12.581 18.6536 12.581C19.1745 12.581 19.6411 12.6631 20.0534 12.8274C20.4657 12.9878 20.7912 13.2265 21.03 13.5436C21.273 13.8605 21.3946 14.252 21.3946 14.718V21.2664H19.0768V20.2467C18.964 20.6057 18.7773 20.8807 18.517 21.0717C18.2565 21.2626 17.9592 21.3581 17.625 21.3581ZM18.543 19.7654C18.734 19.7654 18.8641 19.6948 18.9336 19.5534C19.0031 19.4121 19.0378 19.2593 19.0378 19.0951V16.7003C18.7166 16.8149 18.4671 16.96 18.2891 17.1357C18.1111 17.3076 18.0221 17.5616 18.0221 17.8977V19.0034C18.0221 19.5114 18.1957 19.7654 18.543 19.7654ZM22.293 21.2664V11.1831H24.6628V21.2664H22.293Z" fill="white"/>
<path d="M27.6136 21.3917C27.1757 21.3917 26.7999 21.2536 26.4861 20.9775C26.1725 20.7015 26.0156 20.3708 26.0156 19.9853C26.0156 19.6 26.1725 19.2692 26.4861 18.9932C26.7999 18.7171 27.1757 18.5791 27.6136 18.5791C28.0516 18.5791 28.4275 18.7171 28.7411 18.9932C29.0548 19.2692 29.2116 19.6 29.2116 19.9853C29.2116 20.2406 29.1377 20.475 28.9897 20.6885C28.8476 20.902 28.6553 21.0739 28.4126 21.2041C28.1759 21.3291 27.9095 21.3917 27.6136 21.3917Z" fill="white"/>
</g>
</g>
<defs>
<clipPath id="clip0_222_1910">
<rect width="25" height="11" fill="white" transform="translate(5 11)"/>
</clipPath>
</defs>
</svg>
