<?xml version="1.0" encoding="UTF-8"?>
<svg version="1.1" xmlns="http://www.w3.org/2000/svg" width="32" height="32">
<path d="M0 0 C10.56 0 21.12 0 32 0 C32 10.56 32 21.12 32 32 C21.44 32 10.88 32 0 32 C0 21.44 0 10.88 0 0 Z " fill="#313132" transform="translate(0,0)"/>
<path d="M0 0 C0.99 0.33 1.98 0.66 3 1 C3 2.65 3 4.3 3 6 C3.5775 5.649375 4.155 5.29875 4.75 4.9375 C7.35801776 3.85082593 8.39417629 4.06934867 11 5 C10.67 6.32 10.34 7.64 10 9 C9.360625 9.12375 8.72125 9.2475 8.0625 9.375 C7.381875 9.58125 6.70125 9.7875 6 10 C5.67 10.66 5.34 11.32 5 12 C7.31 12 9.62 12 12 12 C12.33 13.32 12.66 14.64 13 16 C11.35 16 9.7 16 8 16 C8 15.34 8 14.68 8 14 C6.68 14 5.36 14 4 14 C4 15.32 4 16.64 4 18 C4.99 18.33 5.98 18.66 7 19 C7 20.32 7 21.64 7 23 C5.68 22.67 4.36 22.34 3 22 C2.67 20.35 2.34 18.7 2 17 C1.34 17.33 0.68 17.66 0 18 C-0.65555119 20.52733235 -0.65555119 20.52733235 -1 23 C-2.32 22.67 -3.64 22.34 -5 22 C-4.67 20.68 -4.34 19.36 -4 18 C-3.34 18 -2.68 18 -2 18 C-2 17.01 -2 16.02 -2 15 C-2.86625 15.2165625 -2.86625 15.2165625 -3.75 15.4375 C-5.83333333 15.95833333 -7.91666667 16.47916667 -10 17 C-10.33 15.68 -10.66 14.36 -11 13 C-8.33333333 12.33333333 -5.66666667 11.66666667 -3 11 C-4.98 10.01 -6.96 9.02 -9 8 C-8.67 6.68 -8.34 5.36 -8 4 C-6.68 4.33 -5.36 4.66 -4 5 C-2.68 3.35 -1.36 1.7 0 0 Z " fill="#6A8090" transform="translate(15,4)"/>
<path d="M0 0 C0.99 0.33 1.98 0.66 3 1 C3 2.65 3 4.3 3 6 C3.5775 5.649375 4.155 5.29875 4.75 4.9375 C7.35801776 3.85082593 8.39417629 4.06934867 11 5 C10.67 6.32 10.34 7.64 10 9 C9.38125 9.103125 8.7625 9.20625 8.125 9.3125 C5.63473516 9.87525373 5.63473516 9.87525373 4 13 C3.67 11.68 3.34 10.36 3 9 C0.69 8.67 -1.62 8.34 -4 8 C-1.125 1.125 -1.125 1.125 0 0 Z " fill="#586670" transform="translate(15,4)"/>
<path d="M0 0 C1.32 0.33 2.64 0.66 4 1 C4 1.99 4 2.98 4 4 C6.31 4.33 8.62 4.66 11 5 C9.68 5.33 8.36 5.66 7 6 C7 7.32 7 8.64 7 10 C4.02588876 11.23921302 1.14737182 12.30058404 -2 13 C-2.33 11.68 -2.66 10.36 -3 9 C1 8 1 8 5 7 C3.02 6.01 1.04 5.02 -1 4 C-0.67 2.68 -0.34 1.36 0 0 Z " fill="#718999" transform="translate(7,8)"/>
<path d="M0 0 C1.98 0.495 1.98 0.495 4 1 C3.67 2.32 3.34 3.64 3 5 C1.68 4.67 0.36 4.34 -1 4 C-0.67 2.68 -0.34 1.36 0 0 Z " fill="#94B5CD" transform="translate(5,16)"/>
<path d="M0 0 C1.98 0.495 1.98 0.495 4 1 C4 1.99 4 2.98 4 4 C2.35 4 0.7 4 -1 4 C-0.67 2.68 -0.34 1.36 0 0 Z " fill="#9BBED7" transform="translate(24,16)"/>
<path d="M0 0 C1.32 0 2.64 0 4 0 C3.67 1.65 3.34 3.3 3 5 C2.01 4.67 1.02 4.34 0 4 C0 2.68 0 1.36 0 0 Z " fill="#9AC4E1" transform="translate(14,14)"/>
<path d="M0 0 C1.98 0.495 1.98 0.495 4 1 C4 1.99 4 2.98 4 4 C2.35 4 0.7 4 -1 4 C-0.67 2.68 -0.34 1.36 0 0 Z " fill="#9BBFD9" transform="translate(22,8)"/>
<path d="M0 0 C0.99 0.33 1.98 0.66 3 1 C3 2.32 3 3.64 3 5 C1.68 4.67 0.36 4.34 -1 4 C-0.67 2.68 -0.34 1.36 0 0 Z " fill="#9DC3DF" transform="translate(19,22)"/>
</svg>
