<?xml version="1.0" encoding="UTF-8"?>
<svg id="Layer_1" data-name="Layer 1" xmlns="http://www.w3.org/2000/svg" xmlns:xlink="http://www.w3.org/1999/xlink" viewBox="0 0 177.7 179.23">
  <defs>
    <style>
      .cls-1 {
        fill: url(#linear-gradient-2);
      }

      .cls-2 {
        fill: url(#linear-gradient-3);
      }

      .cls-3 {
        fill: url(#linear-gradient);
      }
    </style>
    <linearGradient id="linear-gradient" x1="153.15" y1="154.66" x2="9.41" y2="44" gradientUnits="userSpaceOnUse">
      <stop offset="0" stop-color="#00a45f"/>
      <stop offset=".23" stop-color="#01a367"/>
      <stop offset=".59" stop-color="#06a27f"/>
      <stop offset="1" stop-color="#0da1a1"/>
    </linearGradient>
    <linearGradient id="linear-gradient-2" x1="151.66" y1="152.8" x2="-7.71" y2="66.38" gradientUnits="userSpaceOnUse">
      <stop offset="0" stop-color="#00a45f"/>
      <stop offset=".22" stop-color="#01a364"/>
      <stop offset=".51" stop-color="#04a275"/>
      <stop offset=".84" stop-color="#09a191"/>
      <stop offset="1" stop-color="#0da1a1"/>
    </linearGradient>
    <linearGradient id="linear-gradient-3" x1="133.27" y1="163.66" x2="39.18" y2="7.27" gradientUnits="userSpaceOnUse">
      <stop offset="0" stop-color="#00a45f"/>
      <stop offset=".22" stop-color="#01a364"/>
      <stop offset=".5" stop-color="#04a374"/>
      <stop offset=".82" stop-color="#09a18f"/>
      <stop offset="1" stop-color="#0da1a1"/>
    </linearGradient>
  </defs>
  <path class="cls-3" d="m95.97,104.81c-4.14,9.55-15.28,13.96-24.82,9.82-13.08-5.67-16.5-24.45-1.58-34.33,1.21-.8,2.58-1.34,4-1.59,17.71-3.08,28.08,13.01,22.4,26.1Z"/>
  <path class="cls-1" d="m113.45,67.64c-7.75-9.02-18.55-14.48-30.42-15.38-11.86-.9-23.37,2.87-32.39,10.62-1.19,1.03-2.35,2.14-3.42,3.28-1.25,1.33-2.41,2.71-3.46,4.15-4.93,6.7-7.87,14.65-8.5,22.99l-4.2,55.32-.26,3.24c15.12,14.21,35.47,22.91,57.86,22.91.79,0,1.57-.01,2.36-.04l-17.28-14.1c-3.56-2.9-4.93-7.73-3.42-12.07s5.57-7.29,10.16-7.36c23.11-.37,41.87-18.07,43.62-41.16.9-11.86-2.87-23.37-10.63-32.39Zm-4.41,42.84c-9.66,22.27-41.02,28.58-58.67,4.92-2.63-3.53-4.28-7.72-4.76-12.09-3.18-29.25,23.97-46.03,46.21-36.38,16.76,7.26,24.47,26.8,17.21,43.55Z"/>
  <path class="cls-2" d="m173.17,90.24c0,28.39-13.99,53.51-35.46,68.84-9.84,7.02-23.17,6.59-32.54-1.05h0c7.3-3.04,14.06-7.38,19.95-12.9,12.15-11.38,19.54-26.81,20.8-43.42,1.35-17.69-4.28-34.85-15.85-48.31-11.56-13.46-27.67-21.62-45.37-22.96-17.69-1.34-34.84,4.29-48.32,15.85-1.8,1.55-3.53,3.21-5.11,4.9-1.82,1.93-3.56,4.01-5.14,6.17-7.37,10-11.75,21.86-12.7,34.3l-2.43,31.99c-8.8-20.43-9.75-45.02.86-70.05,7.68-18.13,22.27-32.55,40.41-40.22,61.68-26.07,120.92,18.49,120.92,76.89Z"/>
</svg>