<svg width="180" height="181" viewBox="0 0 180 181" fill="none" xmlns="http://www.w3.org/2000/svg">
<rect x="180" y="180.5" width="180" height="180" rx="90" transform="rotate(-180 180 180.5)" fill="white"/>
<g clip-path="url(#clip0_5156_196)">
<path d="M90.1898 60.2272C73.4559 60.2272 59.8843 73.7969 59.8843 90.5327C59.8843 107.268 73.4541 120.838 90.1898 120.838C106.926 120.838 120.495 107.268 120.495 90.5327C120.495 73.7969 106.924 60.2272 90.1898 60.2272Z" fill="#0407FF"/>
<path d="M44.3635 82.0092C46.0631 72.9109 50.4893 64.5358 57.2426 57.8477L57.3493 57.7428C57.4939 57.6017 57.6386 57.4607 57.7832 57.3215C57.9206 57.1913 58.058 57.0611 58.1954 56.9309L58.3292 56.8062C66.9647 48.8162 78.2093 44.4153 89.9927 44.4135H90.0017C101.774 44.4135 113.013 48.8054 121.647 56.7791L121.808 56.9291C121.938 57.0503 122.068 57.1732 122.197 57.2962C122.334 57.4282 122.472 57.5602 122.609 57.6958L122.737 57.8205C129.509 64.5141 133.944 72.8982 135.647 82.0074H155.813C155.54 79.8974 155.233 77.8072 154.757 75.7442L154.318 74.05C153.506 70.9256 152.45 67.8302 151.179 64.8522C147.832 57.0087 143.044 49.9662 136.94 43.9163L136.913 43.8909C130.82 37.8411 123.723 33.0894 115.82 29.7697C112.816 28.5095 109.697 27.4608 106.548 26.658L104.841 26.2222C100.006 25.1265 95.0228 24.6401 90.0035 24.6401H89.9891C84.9445 24.6401 79.9378 25.1337 75.0795 26.2403L73.3708 26.6779C70.2374 27.4825 67.1365 28.5257 64.1531 29.7806C56.2517 33.102 49.1568 37.8555 43.0671 43.909C42.6874 44.2869 42.3023 44.6793 41.9244 45.0716C36.359 50.8594 31.9491 57.5204 28.8156 64.8721C27.5445 67.8519 26.4904 70.9491 25.6804 74.0753L25.241 75.7695C24.7691 77.8253 24.4635 79.9082 24.1923 82.0092H44.3635Z" fill="#0407FF"/>
<path d="M155.86 98.5788H135.709C134.249 106.701 130.606 114.345 125.091 120.67L125.072 120.694C124.916 120.871 124.759 121.048 124.603 121.222C124.498 121.337 124.394 121.453 124.285 121.569C124.222 121.637 124.157 121.708 124.093 121.775C119.783 126.393 114.673 130.029 108.911 132.585C102.946 135.231 96.5868 136.574 90.0089 136.576H89.9999C77.9308 136.576 66.4838 131.991 57.7741 123.666C57.6639 123.561 57.5554 123.455 57.4451 123.348L57.2371 123.145C50.3844 116.356 45.9293 107.833 44.2857 98.5806H24.1399C24.4183 100.848 24.7456 103.095 25.2573 105.31L25.6985 107.006C26.5085 110.116 27.5608 113.194 28.8247 116.155C32.1715 123.997 36.9611 131.04 43.0598 137.084C43.3618 137.382 43.6854 137.697 44.0796 138.071C49.9487 143.665 56.711 148.094 64.1802 151.231C67.1636 152.484 70.2627 153.525 73.3961 154.328L75.1048 154.765C79.9595 155.87 84.9625 156.36 90.0017 156.36H90.0144C95.0391 156.36 100.026 155.87 104.864 154.773L106.571 154.335C109.719 153.53 112.836 152.482 115.838 151.22C123.721 147.905 130.801 143.168 136.882 137.136L136.987 137.05L137.019 137.001C143.086 130.967 147.852 123.945 151.184 116.128C152.446 113.167 153.497 110.089 154.305 106.981L154.746 105.285C155.256 103.077 155.58 100.839 155.858 98.5788H155.86Z" fill="#0407FF"/>
</g>
<defs>
<clipPath id="clip0_5156_196">
<rect width="131.724" height="131.724" fill="white" transform="translate(155.862 156.362) rotate(-180)"/>
</clipPath>
</defs>
</svg>
