<svg width="22" height="26" viewBox="0 0 22 26" fill="none" xmlns="http://www.w3.org/2000/svg">
<path d="M0.670022 17.4487L3.8431 22.5131C4.64601 23.7945 6.05182 24.5727 7.56405 24.5727H14.3485C15.8607 24.5727 17.2665 23.7946 18.0694 22.5131L21.2426 17.4487C22.136 16.0228 22.136 14.2117 21.2426 12.7859L14.6773 2.30761C12.9567 -0.438474 8.95606 -0.438473 7.23545 2.30761L0.670062 12.7859C-0.22334 14.2118 -0.223355 16.0228 0.670022 17.4487Z" fill="url(#paint0_linear_10235_20569)"/>
<path d="M20.3643 15.7501L19.5479 20.6004C19.3413 21.8276 18.5177 22.8622 17.368 23.3388L12.2101 25.4767C11.0604 25.9533 9.74641 25.8047 8.73217 25.0835L4.72373 22.2331C3.59516 21.4306 3.02446 20.0537 3.25436 18.6881L4.9438 8.65298C5.38656 6.02302 8.42807 4.76233 10.6015 6.30787L18.895 12.2052C20.0235 13.0077 20.5942 14.3846 20.3643 15.7501Z" fill="url(#paint1_linear_10235_20569)"/>
<g style="mix-blend-mode:hard-light">
<path d="M1.54766 15.8768L2.35376 20.6655C2.55773 21.8772 3.37086 22.8987 4.50597 23.3692L9.59853 25.48C10.7336 25.9505 12.0309 25.8038 13.0323 25.0917L16.9899 22.2775C18.1042 21.4852 18.6676 20.1258 18.4407 18.7775L16.7726 8.86959C16.3355 6.27299 13.3326 5.02829 11.1866 6.55423L2.9984 12.3768C1.88417 13.1691 1.3207 14.5285 1.54766 15.8768Z" fill="url(#paint2_linear_10235_20569)"/>
</g>
<defs>
<linearGradient id="paint0_linear_10235_20569" x1="10.9563" y1="0.248047" x2="10.9563" y2="24.5727" gradientUnits="userSpaceOnUse">
<stop stop-color="#5D4CFE"/>
<stop offset="1" stop-color="#9265E9"/>
</linearGradient>
<linearGradient id="paint1_linear_10235_20569" x1="4.17268" y1="4.92606" x2="25.7906" y2="34.4725" gradientUnits="userSpaceOnUse">
<stop stop-color="#9265E9"/>
<stop offset="1" stop-color="#5D4CFE"/>
</linearGradient>
<linearGradient id="paint2_linear_10235_20569" x1="9.99416" y1="15.8213" x2="2.13909" y2="25.7519" gradientUnits="userSpaceOnUse">
<stop stop-color="#5D4CFE"/>
<stop offset="1" stop-color="#9265E9"/>
</linearGradient>
</defs>
</svg>
