<svg width="22" height="23" viewBox="0 0 22 23" fill="none" xmlns="http://www.w3.org/2000/svg">
<path d="M21.9126 2.11127C6.30754 0.351878 2.58476 14.682 0.840667 20.8068C1.53423 20.885 2.22718 20.9631 2.91951 21.0411C4.00329 17.6517 5.95283 15.94 8.76814 15.906C12.9881 15.855 16.5197 12.5657 17.9119 9.56193L16.4687 8.34565C16.8545 8.03797 17.2405 7.73029 17.6263 7.4226C18.7839 6.49956 20.0046 5.05684 21.9126 2.11127Z" fill="#52525B"/>
<path d="M18.8447 0.989746C3.14079 0.989746 1.04693 15.6468 0 21.9283C0.697956 21.9283 1.3953 21.9283 2.09202 21.9283C2.78924 18.4388 4.53473 16.5195 7.3285 16.1702C11.5162 15.6468 14.657 11.9825 15.7039 8.84172L14.1335 7.79479C14.4825 7.44581 14.8315 7.09683 15.1805 6.74786C16.2274 5.70093 17.2787 4.13053 18.8447 0.989746Z" fill="#09090B"/>
</svg>
