<svg fill="none" height="27" viewBox="0 0 27 27" width="27" xmlns="http://www.w3.org/2000/svg" xmlns:xlink="http://www.w3.org/1999/xlink"><linearGradient id="a" gradientUnits="userSpaceOnUse" x1="4.24002" x2="38.2676" y1="27.3261" y2="-16.1673"><stop offset="0" stop-color="#7f96ff"/><stop offset=".505785" stop-color="#f58e8e"/><stop offset="1" stop-color="#f2d398"/></linearGradient><g fill="url(#a)"><path d="m12.568 16.8439.9341.1541.5913-.7357-.3359-.8897-.9424-.1485-.5858.7509.3387.8675z"/><path d="m16.614 15.0742-.3276-.8287-.8828-.1568-.551.7023.3053.8342.8981.1513.558-.7009z"/><path d="m16.5112 11.8443-.8605-.1541-.5552.6801.3289.8217.8495.1166.5399-.6662-.3012-.7967z"/><path d="m14.9581 11.085-.3456-.8675-.9341-.154-.5858.7509.3373.8744.9355.1471.5927-.7495z"/><path d="m12.2098 11.0503-.8911-.1499-.5732.7079.3331.8439.8869.1208.5414-.6885-.2971-.8328z"/><path d="m10.7538 13.335-.5399.6746.3206.8217.8495.1166.5385-.6593-.2984-.8259-.8717-.1263z"/><path d="m8.18736 11.1531-.34422.9813.68151.7773 1.02018-.1916.34423-.9882-.68151-.7718-1.02019.1916z"/><path d="m9.77382 14.8743-.64959-.7578-.98826.179-.33174.9494.66208.7523.97438-.1846.33174-.9369z"/><path d="m11.284 18.0862.3193-.912-.6316-.7398-.9299.2041-.33732.898.64402.7204.9369-.1721z"/><path d="m14.1128 19.3159.2998-.8605-.5996-.694-.905.1651-.2998.8606.5927.7204z"/><path d="m16.7527 18.0029.2873-.8217-.5802-.676-.8536.1596-.3123.8342.5858.6885z"/><path d="m17.6563 14.4982-.3442.9813.6759.7898 1.0064-.1916.3636-.9744-.6759-.7967z"/><path d="m18.7404 11.2224-.9938.1791-.3318.9369.6441.7717.9938-.179.3317-.9564z"/><path d="m17.6189 9.47079-.6246-.73287-.9494.17212-.3193.91192.6316.73284.9424-.1721.3179-.91191z"/><path d="m13.0746 7.88984-.2998.86612.5996.70094.905-.16517.2998-.87305-.5996-.69401z"/><path d="m10.1945 8.80176-.31232.83419.59272.66205.8661-.1526.2873-.84812-.5857-.65653-.8481.15962z"/><path d="m17.3704 7.78853-.1208-1.134-1.0451-.46499-.9175.68845.1277 1.13401 1.0382.44555z"/><path d="m11.978 5.84391-.88.65653.1208 1.07016 1.0063.44555.8661-.65653-.1207-1.08265-.9938-.43306z"/><path d="m7.67656 9.64289.94246.41361.84113-.60515-.12769-1.03823-.9494-.41363-.82864.62461.12076 1.02018z"/><path d="m7.67106 13.4016-.10132-.9744-.89805-.4011-.80226.5857.12769.9814.89249.3817.78423-.5733z"/><path d="m7.79178 17.9904.74536-.5538-.10133-.9245-.85362-.3761-.74536.5608.10132.9244z"/><path d="m10.9966 21.0232.8981-.6885-.1208-1.1284-1.0451-.4456-.91751.669.12769 1.134z"/><path d="m15.2218 21.3674.8661-.6371-.1207-1.0826-.9883-.4331-.8855.6371.1207 1.0896 1.0063.4275z"/><path d="m19.5107 17.5754-.9425-.4206-.8286.6177.1027 1.0257.9564.4206.8341-.6246-.1207-1.0202z"/><path d="m20.524 15.1922.7898-.5927-.1208-.9744-.898-.3817-.7773.5857.1013.9744z"/><path d="m20.3519 10.5215-.1013-.92441-.8537-.36921-.7453.55381.1027.92441.8536.3762.7454-.5608z"/><path d="m22.5824 11.0628-1.1784-.3886-.93.8481.2734 1.2103 1.1785.3886.9299-.848z"/><path d="m18.2171 8.2535 1.1215.36921.88-.78977-.2484-1.16038-1.1215-.36921-.88.79672z"/><path d="m13.4577 5.06664.2359 1.09653 1.0646.35117.8287-.75231-.236-1.09652-1.0646-.35117z"/><path d="m9.63365 7.53312.78975-.71344-.2165-1.02573-1.00076-.33174-.78977.70095.20959 1.03823 1.0063.33173z"/><path d="m6.27474 11.21.73981-.676-.20404-.96882-.94246-.30536-.74536.65652.20404.98136.9494.3123z"/><path d="m4.59942 16.1554 1.17842.3887.92996-.8287-.25539-1.2297-1.1923-.3887-.92996.8412.26788 1.2172z"/><path d="m8.97158 18.9648-1.12845-.3692-.87306.8022.24152 1.1604 1.12845.3512.87305-.7898-.24151-1.1534z"/><path d="m13.7241 22.1516-.2165-1.1021-1.0646-.3317-.8411.7329.2359 1.1021 1.0646.3497.8217-.7523z"/><path d="m17.5551 19.6851-.7898.7135.229 1.0382 1.0063.3123.7717-.694-.2109-1.0382z"/><path d="m21.3207 17.9584.7398-.6634-.2041-.9688-.9424-.3123-.7454.6634.2096.9688z"/><path d="m20.8238 18.5886-.8661 1.0702.4914 1.2866 1.3574.2166.8731-1.0702-.4914-1.2867-1.363-.2165z"/><path d="m24.8004 14.3011-.4719-1.2104-1.2811-.1971-.8217 1.0008.4775 1.2297 1.2811.1916.8161-1.0133z"/><path d="m20.753 8.06889.4455 1.1465 1.2048.1846.7773-.94246-.4456-1.14094-1.2103-.20404z"/><path d="m17.4968 5.37893.7204-.89804-.4137-1.07015-1.134-.18461-.7203.89804.4136 1.0771 1.134.17905z"/><path d="m11.4367 5.00278.669-.84113-.3817-.98826-1.0521-.17211-.68155.83419.38165.99381 1.0647.17211z"/><path d="m6.36494 8.62966.86612-1.05766-.49135-1.30057-1.35748-.20403-.86611 1.05766.49135 1.30056z"/><path d="m2.38138 12.9172.47192 1.2104 1.28113.1971.8217-1.0008-.45943-1.2173-1.29362-.2096z"/><path d="m6.42878 19.1438-.44-1.1409-1.20479-.1916-.76479.9564.42751 1.1465 1.21728.1846.76479-.9564z"/><path d="m9.69059 21.8463-.72038.8855.40808 1.0771 1.13401.1791.7204-.8981-.4137-1.0576-1.12841-.1846z"/><path d="m15.7507 22.2155-.669.8411.383.9883 1.0646.1721.6691-.8411-.3831-.9883z"/><path d="m12.8137 24.2614-.7579 1.3255.7579 1.3325h1.5351l.7773-1.3325-.7773-1.3255z"/><path d="m19.9313 22.0309-.7203 1.2492.7203 1.2492h1.4408l.7204-1.2492-.7204-1.2492z"/><path d="m25.6221 16.2248h-1.3505l-.669 1.166.669 1.1728h1.3505l.676-1.1728z"/><path d="m25.5707 10.9101.6371-1.08954-.6371-1.08958h-1.2422l-.6371 1.08958.6371 1.08954z"/><path d="m21.2318 4.94588.5858-1.01324-.5858-.99382h-1.1534l-.5858.99382.5858 1.01324z"/><path d="m14.3751 2.95686.7579-1.33248-.7579-1.325552h-1.5351l-.7648 1.325552.7648 1.33248z"/><path d="m7.25045 5.18739.72037-1.24921-.72037-1.24921h-1.43382l-.72593 1.24921.72593 1.24921z"/><path d="m2.91018 10.9934.67596-1.17284-.67596-1.16593h-1.3436l-.675955 1.16593.675955 1.17284h1.34498z"/><path d="m1.6165 16.3012-.637091 1.0896.637091 1.0965h1.25476l.62461-1.0965-.62461-1.0896z"/><path d="m5.94998 22.2724-.58574 1.0063.58574 1.0132h1.16037l.58574-1.0132-.58574-1.0063z"/></g></svg>