<?xml version="1.0" encoding="UTF-8"?>
<svg id="Layer_1" data-name="Layer 1" xmlns="http://www.w3.org/2000/svg" xmlns:xlink="http://www.w3.org/1999/xlink" viewBox="0 0 567.21 186.89">
  <defs>
    <style>
      .cls-1 {
        fill: url(#linear-gradient-2);
      }

      .cls-2 {
        fill: #fff;
      }

      .cls-3 {
        fill: url(#linear-gradient-3);
      }

      .cls-4 {
        fill: url(#linear-gradient);
      }
    </style>
    <linearGradient id="linear-gradient" x1="155.85" y1="160.27" x2="12.11" y2="49.62" gradientUnits="userSpaceOnUse">
      <stop offset="0" stop-color="#00a45f"/>
      <stop offset=".23" stop-color="#01a367"/>
      <stop offset=".59" stop-color="#06a27f"/>
      <stop offset="1" stop-color="#0da1a1"/>
    </linearGradient>
    <linearGradient id="linear-gradient-2" x1="154.36" y1="158.42" x2="-5" y2="71.99" gradientUnits="userSpaceOnUse">
      <stop offset="0" stop-color="#00a45f"/>
      <stop offset=".22" stop-color="#01a364"/>
      <stop offset=".51" stop-color="#04a275"/>
      <stop offset=".84" stop-color="#09a191"/>
      <stop offset="1" stop-color="#0da1a1"/>
    </linearGradient>
    <linearGradient id="linear-gradient-3" x1="135.97" y1="169.28" x2="41.88" y2="12.89" gradientUnits="userSpaceOnUse">
      <stop offset="0" stop-color="#00a45f"/>
      <stop offset=".22" stop-color="#01a364"/>
      <stop offset=".5" stop-color="#04a374"/>
      <stop offset=".82" stop-color="#09a18f"/>
      <stop offset="1" stop-color="#0da1a1"/>
    </linearGradient>
  </defs>
  <path class="cls-2" d="m243.23,95.58c1.49-.52,2.97-1.17,4.45-1.95,2.51-1.32,4.62-3.29,6.27-5.85,1.68-2.6,2.52-6.05,2.52-10.26,0-6.24-2.04-11.3-6.08-15.04-3.99-3.69-9.36-5.56-15.96-5.56h-30.5v63.51h10.74v-22.84h17.57l14.39,22.84h12.79l-16.19-24.85Zm-28.56-28.28h18.95c3.75,0,6.76.94,8.95,2.8,2.13,1.81,3.16,4.24,3.16,7.42,0,2.54-.6,4.5-1.78,5.82-1.29,1.44-2.83,2.41-4.7,2.96-2.02.61-4.04.91-5.99.91h-18.59v-19.91Z"/>
  <path class="cls-2" d="m314.1,95.95c0-4.61-.98-8.86-2.92-12.64-1.96-3.82-4.79-6.9-8.41-9.15-3.62-2.26-7.99-3.4-12.97-3.4s-9.26,1.14-12.91,3.4c-3.66,2.25-6.51,5.33-8.46,9.15-1.94,3.78-2.92,8.03-2.92,12.64s1.03,8.82,3.07,12.63c2.05,3.85,4.97,6.94,8.68,9.17,3.72,2.26,8.09,3.4,12.99,3.4,5.75,0,10.56-1.42,14.28-4.22,3.68-2.76,6.4-6.37,8.08-10.73l1.06-2.72h-11.48l-.57,1.05c-1.05,1.93-2.48,3.48-4.38,4.72-1.8,1.18-4.12,1.78-6.9,1.78s-4.94-.55-6.93-1.67c-2-1.13-3.54-2.61-4.72-4.52-.8-1.29-1.4-2.7-1.81-4.19h37.22v-4.7Zm-24.3-15.08c3.81,0,6.76,1.08,9.03,3.3,1.8,1.76,3.04,3.79,3.76,6.19h-25.54c.76-2.4,2-4.44,3.78-6.2,2.24-2.21,5.17-3.29,8.97-3.29Z"/>
  <path class="cls-2" d="m372.97,89.32c-.49-2.11-1.22-4.12-2.19-6.01-1.96-3.82-4.76-6.89-8.31-9.14-3.56-2.26-7.78-3.41-12.53-3.41-4.04,0-7.57.79-10.5,2.34-1.3.69-2.5,1.49-3.59,2.4v-4.02h-10.74v66.75h10.74v-21.96c1.09.91,2.27,1.72,3.55,2.42,2.96,1.63,6.5,2.46,10.54,2.46,4.74,0,8.96-1.15,12.53-3.42,3.55-2.24,6.35-5.33,8.31-9.18,1.94-3.81,2.92-8.05,2.92-12.6,0-2.3-.25-4.52-.73-6.63Zm-10.02,6.63c0,2.73-.57,5.3-1.68,7.63-1.1,2.26-2.69,4.1-4.73,5.45-2.04,1.33-4.56,2-7.5,2s-5.34-.67-7.34-1.99c-2.01-1.35-3.55-3.17-4.59-5.43-1.08-2.33-1.62-4.91-1.62-7.66s.54-5.4,1.61-7.69c1.04-2.23,2.59-4.04,4.6-5.39,1.99-1.33,4.46-2,7.34-2s5.44.66,7.49,2.01c2.05,1.36,3.65,3.18,4.74,5.4,1.11,2.3,1.68,4.88,1.68,7.67Z"/>
  <rect class="cls-2" x="385.34" y="53.5" width="10.74" height="66.93"/>
  <polygon class="cls-2" points="454.09 71.48 425.79 138.23 414.1 138.23 423.19 117.77 404.03 71.48 415.85 71.48 428.97 104.91 442.35 71.48 454.09 71.48"/>
  <rect class="cls-2" x="457.88" y="107.26" width="12.72" height="13.17"/>
  <path class="cls-2" d="m515.41,56.92h-11.1l-26.95,63.51h11.81l7.28-17.26h26.83l7.28,17.26h11.81l-26.96-63.51Zm-14.68,36.04l9.13-21.85,9.14,21.85h-18.27Z"/>
  <rect class="cls-2" x="551.64" y="56.92" width="10.74" height="63.51"/>
  <g>
    <path class="cls-4" d="m98.67,110.43c-4.14,9.55-15.28,13.96-24.82,9.82-13.08-5.67-16.5-24.45-1.58-34.33,1.21-.8,2.58-1.34,4-1.59,17.71-3.08,28.08,13.01,22.4,26.1Z"/>
    <path class="cls-1" d="m116.15,73.26c-7.75-9.02-18.55-14.48-30.42-15.38-11.86-.9-23.37,2.87-32.39,10.62-1.19,1.03-2.35,2.14-3.42,3.28-1.25,1.33-2.41,2.71-3.46,4.15-4.93,6.7-7.87,14.65-8.5,22.99l-4.2,55.32-.26,3.24c15.12,14.21,35.47,22.91,57.86,22.91.79,0,1.57-.01,2.36-.04l-17.28-14.1c-3.56-2.9-4.93-7.73-3.42-12.07s5.57-7.29,10.16-7.36c23.11-.37,41.87-18.07,43.62-41.16.9-11.86-2.87-23.37-10.63-32.39Zm-4.41,42.84c-9.66,22.27-41.02,28.58-58.67,4.92-2.63-3.53-4.28-7.72-4.76-12.09-3.18-29.25,23.97-46.03,46.21-36.38,16.76,7.26,24.47,26.8,17.21,43.55Z"/>
    <path class="cls-3" d="m175.87,95.86c0,28.39-13.99,53.51-35.46,68.84-9.84,7.02-23.17,6.59-32.54-1.05h0c7.3-3.04,14.06-7.38,19.95-12.9,12.15-11.38,19.54-26.81,20.8-43.42,1.35-17.69-4.28-34.85-15.85-48.31-11.56-13.46-27.67-21.62-45.37-22.96-17.69-1.34-34.84,4.29-48.32,15.85-1.8,1.55-3.53,3.21-5.11,4.9-1.82,1.93-3.56,4.01-5.14,6.17-7.37,10-11.75,21.86-12.7,34.3l-2.43,31.99c-8.8-20.43-9.75-45.02.86-70.05,7.68-18.13,22.27-32.55,40.41-40.22,61.68-26.07,120.92,18.49,120.92,76.89Z"/>
  </g>
</svg>