<svg width="110" height="25" viewBox="0 0 110 25" fill="none" xmlns="http://www.w3.org/2000/svg">
<path d="M17.4146 12.0562C17.4146 18.7147 18.7147 24.1125 12.0562 24.1125C5.39776 24.1125 0 18.7147 0 12.0562C0 5.39776 5.39776 0 12.0562 0C18.7147 0 17.4146 5.39776 17.4146 12.0562Z" fill="#0D9373"/>
<g style="mix-blend-mode:hard-light">
<path d="M17.8961 11.928C17.8961 17.7442 19.0318 22.4592 13.2155 22.4592C7.39931 22.4592 2.68433 17.7442 2.68433 11.928C2.68433 6.11177 7.39931 1.39679 13.2155 1.39679C19.0318 1.39679 17.8961 6.11177 17.8961 11.928Z" fill="#0D9373"/>
</g>
<g style="mix-blend-mode:hard-light">
<path d="M21.2825 11.928C21.2825 17.7442 22.4182 22.4592 16.602 22.4592C10.7858 22.4592 6.0708 17.7442 6.0708 11.928C6.0708 6.11177 10.7858 1.39679 16.602 1.39679C22.4182 1.39679 21.2825 6.11177 21.2825 11.928Z" fill="#0D9373"/>
</g>
<g style="mix-blend-mode:screen">
<path d="M24.669 11.928C24.669 17.7442 25.8047 22.4592 19.9885 22.4592C14.1723 22.4592 9.45728 17.7442 9.45728 11.928C9.45728 6.11177 14.1723 1.39679 19.9885 1.39679C25.8047 1.39679 24.669 6.11177 24.669 11.928Z" fill="#0D9373"/>
</g>
<path d="M36.8617 14.9187L40.8882 3.81443H45.5124L38.9064 20.2978H34.7541L28.1482 3.81443H32.8667L36.8617 14.9187Z" fill="#FAFAFA"/>
<path d="M60.621 13.3459H48.6674C48.8142 14.4783 49.2336 15.3486 49.9257 15.9568C50.6177 16.544 51.53 16.8376 52.6624 16.8376C53.3754 16.8376 54.0151 16.6908 54.5813 16.3972C55.1685 16.0826 55.5879 15.6317 55.8396 15.0445H60.3379C59.8555 16.7222 58.9014 18.0854 57.4753 19.1339C56.0702 20.1615 54.424 20.6753 52.5366 20.6753C50.1039 20.6753 48.1117 19.8679 46.5598 18.2531C45.0079 16.6383 44.232 14.5622 44.232 12.0247C44.232 9.57103 45.0079 7.52634 46.5598 5.89058C48.1117 4.25483 50.0934 3.43695 52.5051 3.43695C54.9168 3.43695 56.8776 4.25483 58.3876 5.89058C59.9185 7.50537 60.6839 9.55006 60.6839 12.0247L60.621 13.3459ZM52.4737 7.02303C51.4671 7.02303 50.6387 7.30614 49.9886 7.87237C49.3385 8.41762 48.919 9.17258 48.7303 10.1373H56.217C56.0493 9.19355 55.6403 8.43859 54.9902 7.87237C54.3401 7.30614 53.5013 7.02303 52.4737 7.02303Z" fill="#FAFAFA"/>
<path d="M66.2498 3.81443V5.82767C67.1096 4.23386 68.7454 3.43695 71.1571 3.43695C73.1074 3.43695 74.6068 4.03463 75.6554 5.22999C76.704 6.40438 77.2282 7.99819 77.2282 10.0114V20.2978H72.7614V10.5147C72.7614 8.3547 71.8281 7.27468 69.9617 7.27468C68.8922 7.27468 68.0638 7.59974 67.4766 8.24985C66.8894 8.87898 66.5958 9.74929 66.5958 10.8608V20.2978H62.129V3.81443H66.2498Z" fill="#FAFAFA"/>
<path d="M89.9515 13.1886V3.81443H94.4184V20.2978H90.2976V18.2846C89.4378 19.8784 87.823 20.6753 85.4532 20.6753C83.5239 20.6753 82.0349 20.0881 80.9863 18.9137C79.9588 17.7184 79.445 16.1141 79.445 14.1008V3.81443H83.9118V13.5975C83.9118 15.7575 84.8241 16.8376 86.6486 16.8376C87.7391 16.8376 88.557 16.523 89.1022 15.8939C89.6684 15.2647 89.9515 14.363 89.9515 13.1886Z" fill="#FAFAFA"/>
<path d="M102.773 20.6753C98.2851 20.6753 95.9048 18.7669 95.6322 14.9502H100.162C100.204 15.5583 100.445 16.0721 100.885 16.4915C101.347 16.89 102.018 17.0892 102.899 17.0892C103.738 17.0892 104.377 16.9529 104.818 16.6803C105.258 16.4077 105.478 16.0407 105.478 15.5793C105.478 15.076 105.164 14.709 104.534 14.4783C103.905 14.2266 103.14 14.0274 102.238 13.8806C101.357 13.7338 100.466 13.5346 99.5643 13.2829C98.6625 13.0313 97.8971 12.5385 97.268 11.8045C96.6388 11.0705 96.3243 10.0953 96.3243 8.87898C96.3243 7.34808 96.9324 6.05835 98.1488 5.00979C99.3651 3.96123 100.959 3.43695 102.93 3.43695C105.174 3.43695 106.841 4.00317 107.932 5.13562C109.022 6.26807 109.61 7.5578 109.693 9.00481H105.384C105.342 8.43859 105.101 7.96674 104.66 7.58925C104.241 7.21177 103.654 7.02303 102.899 7.02303C102.186 7.02303 101.63 7.18031 101.232 7.49488C100.833 7.78848 100.634 8.16596 100.634 8.62733C100.634 9.13064 100.948 9.49764 101.578 9.72832C102.207 9.959 102.962 10.1477 103.842 10.2945C104.744 10.4204 105.635 10.6091 106.516 10.8608C107.418 11.1124 108.183 11.6157 108.813 12.3707C109.442 13.1257 109.756 14.1323 109.756 15.3905C109.756 16.9214 109.127 18.1902 107.869 19.1968C106.632 20.1825 104.933 20.6753 102.773 20.6753Z" fill="#FAFAFA"/>
</svg>
