<?xml version="1.0" encoding="UTF-8"?>
<svg version="1.1" xmlns="http://www.w3.org/2000/svg" width="3000" height="512">
<path d="M0 0 C168.96 0 337.92 0 512 0 C512 168.96 512 337.92 512 512 C343.04 512 174.08 512 0 512 C0 343.04 0 174.08 0 0 Z " fill="#2F3030" transform="translate(0,0)"/>
<path d="M0 0 C1.715143 1.54632008 3.41676662 3.10791916 5.09765625 4.69140625 C6.88382315 6.46637733 6.88382315 6.46637733 8.98828125 7.40625 C8.98828125 8.06625 8.98828125 8.72625 8.98828125 9.40625 C9.64828125 9.40625 10.30828125 9.40625 10.98828125 9.40625 C13.57102116 11.83086298 15.73648918 14.6774176 17.98828125 17.40625 C18.81972656 18.38980469 19.65117187 19.37335938 20.5078125 20.38671875 C46.48349525 51.73960839 57.8031938 91.58142714 61.98828125 131.40625 C62.12105469 132.64761719 62.25382812 133.88898438 62.390625 135.16796875 C67.20056454 191.89889945 56.91595804 254.30640644 20.17578125 299.46875 C18.78313887 301.11728427 17.38769501 302.76345994 15.98828125 304.40625 C15.00832171 305.63478464 14.02899855 306.86382766 13.05078125 308.09375 C12.37015625 308.856875 11.68953125 309.62 10.98828125 310.40625 C10.32828125 310.40625 9.66828125 310.40625 8.98828125 310.40625 C8.66923828 311.23769531 8.66923828 311.23769531 8.34375 312.0859375 C6.52578427 315.19795952 4.040575 317.26002532 1.30078125 319.53125 C0.72626221 320.00989502 0.15174316 320.48854004 -0.44018555 320.98168945 C-16.2693234 333.92582897 -33.76569853 342.73802308 -53.01171875 349.40625 C-54.006875 349.77492188 -55.00203125 350.14359375 -56.02734375 350.5234375 C-98.05032151 365.017994 -149.47450908 359.66250021 -188.96142578 340.4296875 C-227.21069502 321.33693486 -252.81318983 287.69383652 -268.01171875 248.40625 C-268.47320313 247.22160156 -268.9346875 246.03695313 -269.41015625 244.81640625 C-290.8758492 185.13631089 -287.96555161 110.69919826 -261.01220703 53.27685547 C-253.16622275 37.05933641 -240.14651401 12.16727714 -223.01171875 4.40625 C-223.01171875 3.74625 -223.01171875 3.08625 -223.01171875 2.40625 C-220.71982259 0.45265234 -218.42636294 -1.36440868 -216.01171875 -3.15625 C-215.28984375 -3.6927417 -214.56796875 -4.2292334 -213.82421875 -4.78198242 C-153.6531416 -48.63713924 -57.37134265 -49.40930158 0 0 Z M-167.07421875 64.53125 C-193.47365741 96.98835022 -196.73583118 143.95540197 -192.65966797 183.85205078 C-189.59877567 209.76363845 -182.84782839 235.85682281 -166.01171875 256.40625 C-165.37878906 257.23640625 -164.74585938 258.0665625 -164.09375 258.921875 C-152.02541111 273.32236943 -134.33076652 281.11698636 -116.00195312 283.02270508 C-96.18006371 284.61864041 -78.42259462 278.8638946 -63.01171875 266.40625 C-39.8868557 246.69384712 -31.28832842 216.31253368 -27.01171875 187.40625 C-26.90714355 186.73053955 -26.80256836 186.0548291 -26.69482422 185.35864258 C-25.62832095 177.40947285 -25.76780338 169.34978064 -25.76171875 161.34375 C-25.76104401 160.54623322 -25.76036926 159.74871643 -25.75967407 158.92703247 C-25.80859176 122.396492 -32.5768171 84.64891699 -58.90234375 57.453125 C-74.63421405 42.77885943 -93.33587445 37.71113728 -114.28515625 38.15625 C-135.60444235 39.01347903 -152.81529708 49.2088176 -167.07421875 64.53125 Z " fill="#000000" transform="translate(2191.01171875,95.59375)"/>
<path d="M0 0 C28.71 0 57.42 0 87 0 C87 48.18 87 96.36 87 146 C129.9 146 172.8 146 217 146 C217 97.82 217 49.64 217 0 C238.2540625 -0.0309375 238.2540625 -0.0309375 259.9375 -0.0625 C266.65855103 -0.07615601 266.65855103 -0.07615601 273.51538086 -0.09008789 C278.96984863 -0.09460449 278.96984863 -0.09460449 281.52003479 -0.09544373 C283.3083267 -0.09698339 285.09661755 -0.10050877 286.88490295 -0.10557556 C289.58726822 -0.11285215 292.28956983 -0.11390745 294.99194336 -0.11352539 C295.79402442 -0.1171235 296.59610548 -0.12072161 297.42249203 -0.12442875 C302.88597366 -0.11402634 302.88597366 -0.11402634 304 1 C304.09783036 3.01205108 304.12371244 5.02760336 304.12304783 7.04203129 C304.12420167 7.68307876 304.12535552 8.32412623 304.12654433 8.98459938 C304.12921723 11.15927828 304.12468335 13.33388495 304.12025452 15.50856018 C304.12069008 17.07272275 304.12156472 18.63688525 304.12284368 20.20104736 C304.12509154 24.51999371 304.12106341 28.83891551 304.11606562 33.15785873 C304.11176546 37.80750968 304.11320723 42.45715914 304.1139679 47.10681152 C304.11449341 55.16953932 304.11134378 63.23225905 304.10573006 71.29498482 C304.09761873 82.95247434 304.09500021 94.60995995 304.09374207 106.26745199 C304.09155097 125.1788732 304.08488932 144.09029011 304.07543945 163.00170898 C304.06626683 181.37735981 304.05918527 199.75300946 304.05493164 218.12866211 C304.05453756 219.82637501 304.05453756 219.82637501 304.05413551 221.55838514 C304.05283051 227.2360775 304.0515668 232.91376988 304.05032361 238.59146225 C304.03994919 285.72764532 304.02150992 332.86382044 304 380 C275.29 380 246.58 380 217 380 C217 327.86 217 275.72 217 222 C174.1 222 131.2 222 87 222 C87 274.14 87 326.28 87 380 C58.29 380 29.58 380 0 380 C0 254.6 0 129.2 0 0 Z " fill="#000000" transform="translate(1534,66)"/>
<path d="M0 0 C200.08273894 0 200.08273894 0 252.84765625 50.73828125 C264.88523807 63.2608304 273.91580632 78.20713373 281 94 C281.53109375 95.17433594 282.0621875 96.34867187 282.609375 97.55859375 C294.91407837 126.51270245 298.22966952 158.01329372 298.25 189.1875 C298.25067474 190.11930084 298.25134949 191.05110168 298.25204468 192.01113892 C298.23498845 206.87444549 297.64554747 221.33721446 295 236 C294.82839355 236.96309082 294.65678711 237.92618164 294.47998047 238.91845703 C286.03815789 284.65819813 264.64936627 324.19318433 226 351 C221.49608997 353.96786708 216.80333473 356.5526295 212 359 C211.35627441 359.33338379 210.71254883 359.66676758 210.04931641 360.01025391 C195.34001286 367.55067389 180.19244142 372.26472716 164.0625 375.75 C163.15943115 375.94875732 162.2563623 376.14751465 161.32592773 376.35229492 C110.79938081 386.66446656 41.33803378 380 0 380 C0 254.6 0 129.2 0 0 Z M87 70 C87 149.2 87 228.4 87 310 C122.85637213 310 154.42839191 308.98112791 181 283 C206.04204765 255.87111504 211.02046599 216.72233749 209.8125 181.25 C209.30566355 169.71061151 208.13111319 158.35310867 206 147 C205.86754883 146.2884375 205.73509766 145.576875 205.59863281 144.84375 C202.53592042 129.18164691 196.26059875 114.29659182 186 102 C185.06220703 100.82050781 185.06220703 100.82050781 184.10546875 99.6171875 C168.117271 80.40530019 143.47510892 73.4129705 119.5859375 70.59765625 C108.71664047 69.65080818 97.9432465 70 87 70 Z " fill="#000000" transform="translate(2325,66)"/>
<path d="M0 0 C0.90806396 0.48122314 0.90806396 0.48122314 1.83447266 0.97216797 C14.54961038 7.72590581 25.4474821 16.23823926 36 26 C34.34169154 29.94563047 31.65287668 32.9341957 28.875 36.125 C27.87131939 37.29334696 26.86872225 38.46262553 25.8671875 39.6328125 C25.37573242 40.20676758 24.88427734 40.78072266 24.37792969 41.37207031 C22.5385829 43.54513275 20.7649941 45.76629377 19 48 C15.53121091 52.38014101 11.92705346 56.63568492 8.29272461 60.87817383 C5.78642281 63.82367519 3.35146895 66.8061685 0.9921875 69.87109375 C0.25609253 70.82677246 0.25609253 70.82677246 -0.49487305 71.80175781 C-1.43562201 73.03146588 -2.36972976 74.26629177 -3.29614258 75.50683594 C-7.81538329 81.41877718 -7.81538329 81.41877718 -11 82 C-13.71484375 80.61328125 -13.71484375 80.61328125 -16.9375 78.3125 C-41.50913695 61.53964364 -71.25783364 49.23071862 -101.51171875 54.7265625 C-108.24418022 56.173922 -114.44529091 58.23345572 -120.30078125 61.94921875 C-122 63 -122 63 -125 64 C-125 64.66 -125 65.32 -125 66 C-125.66 66 -126.32 66 -127 66 C-127.28617188 66.58007812 -127.57234375 67.16015625 -127.8671875 67.7578125 C-128.56805523 69.14504726 -129.29737563 70.51877938 -130.0703125 71.8671875 C-133.97019937 79.29141658 -134.50558333 87.64596132 -132.234375 95.72265625 C-127.10515204 107.91473781 -116.90190247 113.27478892 -105.49609375 118.68359375 C-104.57711304 119.11983063 -103.65813232 119.5560675 -102.71130371 120.00552368 C-93.56351414 124.29157335 -84.24130858 128.0768787 -74.83847046 131.76202393 C-70.92065184 133.2982169 -67.00999315 134.85227386 -63.09880066 136.40524292 C-61.14239719 137.18195968 -59.1857053 137.95795036 -57.22871399 138.73318481 C19.69181248 169.20955042 19.69181248 169.20955042 38.75 208.375 C50.03887274 234.56366438 50.34434634 266.1109463 40.75 292.8125 C27.17805037 325.03041081 3.13926847 347.35571769 -29.18359375 360.59375 C-77.78771503 378.98098904 -134.71378953 376.0310028 -182 355 C-199.71189656 346.86806087 -216.24934582 336.44145648 -230.75 323.375 C-231.29333984 322.89039307 -231.83667969 322.40578613 -232.39648438 321.90649414 C-233.859375 320.5234375 -233.859375 320.5234375 -236 318 C-236 313.37820782 -235.5442808 313.0480773 -232.5 309.875 C-229.64976601 306.80589987 -226.91100023 303.72302375 -224.3125 300.4375 C-220.3011157 295.36842648 -216.23257765 290.3484111 -212.15209961 285.33496094 C-209.22191598 281.73445169 -206.29576786 278.13084632 -203.37890625 274.51953125 C-202.49851685 273.43115967 -202.49851685 273.43115967 -201.6003418 272.32080078 C-200.4741602 270.92833229 -199.34926318 269.53482362 -198.22583008 268.14013672 C-197.71560303 267.50994629 -197.20537598 266.87975586 -196.6796875 266.23046875 C-196.23351074 265.67770264 -195.78733398 265.12493652 -195.32763672 264.55541992 C-193.95846906 262.95134358 -192.51011961 261.47110772 -191 260 C-190.23558594 260.61746094 -189.47117187 261.23492187 -188.68359375 261.87109375 C-170.92364077 276.00203449 -151.70021311 285.50243139 -130 292 C-128.4221875 292.47953125 -128.4221875 292.47953125 -126.8125 292.96875 C-105.33566833 298.68067332 -77.9961589 300.02935965 -57.87109375 289.13671875 C-50.20387792 284.47876508 -45.75121017 278.64112489 -43 270 C-41.5622094 261.60027594 -42.14691577 253.39995798 -46.5859375 245.97265625 C-52.61794686 237.55783657 -61.53695567 232.36780886 -70.75 228.0625 C-71.71881104 227.60431885 -72.68762207 227.1461377 -73.68579102 226.67407227 C-87.51048207 220.24025331 -101.65977211 214.53273567 -115.76220703 208.7421875 C-122.61993463 205.92563115 -129.46461916 203.07753708 -136.30126953 200.21020508 C-140.15438037 198.59459291 -144.00430716 196.98492012 -147.90234375 195.48046875 C-163.64743891 189.22210905 -177.5780898 179.41423312 -190 168 C-190.64710937 167.43410156 -191.29421875 166.86820313 -191.9609375 166.28515625 C-211.89952286 147.89110919 -221.07731175 121.04519705 -222.22265625 94.546875 C-223.05367444 64.51704643 -211.46404842 38.94333975 -191.33618164 17.20288086 C-180.32426476 5.81703956 -166.4809974 -2.76426812 -152 -9 C-151.3694873 -9.27392578 -150.73897461 -9.54785156 -150.08935547 -9.83007812 C-102.17195196 -30.21001403 -45.2132432 -24.56542553 0 0 Z " fill="#000000" transform="translate(1423,81)"/>
<path d="M0 0 C30.03 0 60.06 0 91 0 C95.59566123 17.23372962 95.59566123 17.23372962 97.55517578 25.2590332 C97.78082466 26.17781974 98.00647354 27.09660627 98.23896027 28.04323483 C98.97587101 31.04539437 99.71062678 34.0480765 100.4453125 37.05078125 C100.97305881 39.20305178 101.5009243 41.35529309 102.02890015 43.50750732 C103.43759823 49.25170135 104.84431553 54.99637871 106.25057983 60.74116898 C107.42601184 65.54190089 108.60263988 70.34233937 109.77921677 75.14279079 C116.53558418 102.71052946 123.26869736 130.2838272 129.96652222 157.86584473 C135.77099549 181.76642172 141.58877752 205.66373501 147.45581055 229.54904175 C148.21792231 232.65220756 148.97818571 235.75581554 149.73657227 238.8598938 C153.47013949 254.13614564 157.2948698 269.37815987 161.4609375 284.54296875 C161.80186432 285.78830887 162.14279114 287.03364899 162.49404907 288.31672668 C162.8084494 289.44737045 163.12284973 290.57801422 163.44677734 291.74291992 C163.72339203 292.73821213 164.00000671 293.73350433 164.28500366 294.75895691 C164.79441634 296.94732492 164.79441634 296.94732492 166 298 C166.45503654 296.13774529 166.45503654 296.13774529 166.91926575 294.23786926 C182.98598554 228.51663751 199.53531934 162.97287534 217.22901917 97.6672821 C220.9698055 83.85474999 224.66029591 70.02945554 228.3203125 56.1953125 C228.82256767 54.29798298 229.32482593 52.40065427 229.8270874 50.50332642 C231.71961164 43.35202631 233.61099449 36.20042813 235.49707031 29.04742432 C236.5534782 25.04127274 237.61294916 21.0359438 238.67473984 17.03121567 C239.05996 15.5756939 239.44392786 14.11984006 239.82657242 12.66363907 C240.3437028 10.69584552 240.86531573 8.72923155 241.38720703 6.76269531 C241.67661163 5.6661261 241.96601624 4.56955688 242.26419067 3.4397583 C243 1 243 1 244 0 C246.7388842 -0.09516211 249.45247941 -0.12554594 252.19165039 -0.11352539 C253.05011063 -0.11367142 253.90857086 -0.11381744 254.79304504 -0.1139679 C257.64460738 -0.11326847 260.49610525 -0.1054747 263.34765625 -0.09765625 C265.31920842 -0.09579218 267.29076105 -0.09436822 269.26231384 -0.09336853 C274.46226267 -0.08954251 279.66218375 -0.07971152 284.86212158 -0.06866455 C290.16393661 -0.05845222 295.4657561 -0.05387129 300.76757812 -0.04882812 C311.17839763 -0.03808933 321.58919651 -0.02101191 332 0 C329.75781224 9.55058728 326.96209532 18.8939829 324.046875 28.25390625 C323.5534591 29.84688956 323.06035972 31.43997094 322.56755066 33.03314209 C321.51482866 36.43448653 320.46020125 39.83523161 319.40402222 43.23550415 C317.72503157 48.64122728 316.05056996 54.04834604 314.37719727 59.45581055 C314.09451901 60.36927655 313.81184076 61.28274256 313.5205965 62.22388935 C312.94531885 64.08296043 312.37006291 65.94203823 311.79482841 67.80112267 C310.92128169 70.62391493 310.0473448 73.44658619 309.1733551 76.26924133 C303.63675242 94.15410138 298.14300555 112.05199636 292.6600914 129.95337677 C290.74535239 136.20463479 288.82979232 142.45564134 286.91430092 148.70666885 C286.45265015 150.21324173 285.99101947 151.71982075 285.52940941 153.2264061 C281.65831166 165.86036936 277.77398612 178.49022543 273.88317871 191.11813354 C267.22500916 212.72839296 260.60990339 234.35164964 254.00702286 255.9788475 C241.38148966 297.3325879 228.68814775 338.66541558 216 380 C181.68 380 147.36 380 112 380 C110.08108668 375.52253559 108.46144312 371.56768792 107.11254883 366.97314453 C106.76883743 365.81037994 106.42512604 364.64761536 106.07099915 363.44961548 C105.70338974 362.1900705 105.33578033 360.93052551 104.95703125 359.6328125 C104.55716931 358.27457344 104.15690452 356.91645293 103.75627136 355.55844116 C102.89259423 352.6279739 102.03156975 349.69674525 101.17260742 346.76489258 C99.7880276 342.03924785 98.39746549 337.31537657 97.00585938 332.59179688 C95.52904851 327.57818518 94.05253585 322.56448721 92.57791138 317.55023193 C89.06928872 305.62063797 85.54608699 293.69542839 82.01171875 281.7734375 C81.76463984 280.93999439 81.51756092 280.10655128 81.26299477 279.24785233 C80.01209675 275.02867193 78.76092375 270.80957315 77.50961304 266.59051514 C74.97372839 258.03993403 72.44000125 249.48871348 69.90625 240.9375 C69.65684851 240.09582653 69.40744701 239.25415306 69.1504879 238.38697433 C64.14123744 221.48153001 59.13971311 204.57380513 54.14028168 187.66545486 C47.15964868 164.05671167 40.17414438 140.44941792 33.18031693 116.8445797 C31.65443158 111.69431903 30.12934146 106.54382375 28.60490799 101.39313316 C23.74464006 84.97231775 18.87370949 68.55493758 13.95526505 52.15144157 C12.60503447 47.64606349 11.25810044 43.13969844 9.91110802 38.63335133 C8.65748246 34.44121051 7.39781454 30.25094883 6.1334362 26.06203938 C5.18782925 22.92315185 4.25088337 19.78167824 3.3125 16.640625 C2.97316437 15.52390915 2.63382874 14.4071933 2.28421021 13.25663757 C1.98030365 12.23383194 1.67639709 11.21102631 1.36328125 10.15722656 C1.09813721 9.27568909 0.83299316 8.39415161 0.55981445 7.48590088 C0 5 0 5 0 0 Z " fill="#000000" transform="translate(663,66)"/>
<path d="M0 0 C8.4340806 5.95071242 15.7212899 14.35641538 17.75390625 24.75 C19.15162354 37.52912955 17.74885094 48.37691312 9.88671875 58.77734375 C3.57932405 66.20779423 -3.36550413 70.48100733 -13 72 C-10.72781678 97.91807147 -7.81662695 123.59866637 -2 149 C16.83653303 140.69170422 34.6124905 130.4904798 51 118 C53.5090625 116.15019228 56.03404579 114.32317382 58.5625 112.5 C59.1716626 112.05366211 59.7808252 111.60732422 60.40844727 111.14746094 C64.77118472 108 64.77118472 108 67 108 C66.71125 107.28457031 66.4225 106.56914062 66.125 105.83203125 C62.11350264 95.06506092 61.27162127 85.26609422 65.7421875 74.49609375 C71.4377617 63.19338594 80.69756128 56.07497731 92.375 51.75 C103.50209796 49.4478418 114.29129167 51.75520083 123.9375 57.8125 C131.81105858 63.58452375 138.27496437 72.1899489 140 82 C140.99748354 95.45177796 139.74891831 105.77700787 130.6875 116.4375 C122.25507633 125.1203917 113.24351211 129.00618398 101.125 129.5 C91.34193915 129.28686142 83.92587336 125.45486578 76 120 C74.10060649 121.57920115 72.20563991 123.16332705 70.3125 124.75 C69.54583008 125.38615234 69.54583008 125.38615234 68.76367188 126.03515625 C57.54949916 135.45771558 47.08871009 145.7246625 36.73901367 156.07568359 C34.78126178 158.03120259 32.81556643 159.97851523 30.84960938 161.92578125 C29.59326356 163.17920011 28.33738584 164.43308838 27.08203125 165.6875 C26.20717827 166.55157471 26.20717827 166.55157471 25.31465149 167.43310547 C22.66675395 170.09613159 20.36713902 172.45911531 19 176 C19.85078125 176.2578125 20.7015625 176.515625 21.578125 176.78125 C24.51155061 177.82603172 27.15112006 179.04912533 29.89282227 180.51196289 C45.65942933 188.89995537 62.7244301 194.85580263 79.75 200.125 C80.69560791 200.42027588 81.64121582 200.71555176 82.61547852 201.01977539 C89.19821257 203.07152443 89.19821257 203.07152443 96 203 C97.62908152 201.32704332 97.62908152 201.32704332 98.6875 199 C103.42257235 191.14942313 111.61412614 185.67190456 120.2109375 182.62890625 C132.06498872 179.95593392 142.01685089 182.25400414 152.2734375 188.3515625 C160.91608268 194.27889387 166.72787007 202.77541529 169 213 C170.19655248 224.1496936 168.45960812 234.69929475 161.7890625 243.8671875 C155.00319257 251.9568927 147.39660953 256.88911344 137 259 C124.79576195 259.93052841 114.87731289 257.29989959 105 250 C97.39182157 243.38354911 93.21833171 234.21941351 92.1875 224.25 C92.10514294 222.83434891 92.03449972 221.41762494 92 220 C91.30777344 219.89042969 90.61554688 219.78085937 89.90234375 219.66796875 C84.31657335 218.76276485 78.78275882 217.75032393 73.25 216.5625 C53.63692106 212.63589781 33.96543569 211.42059402 14 211 C19.62618349 233.88833737 26.39192939 256.00107332 35.20654297 277.86816406 C35.57150879 278.7753418 35.93647461 279.68251953 36.3125 280.6171875 C36.63863281 281.41753418 36.96476563 282.21788086 37.30078125 283.04248047 C38 285 38 285 38 287 C38.66 286.67 39.32 286.34 40 286 C52.95227686 284.81213687 63.89689802 288.55542766 74.00390625 296.59375 C80.003381 302.08786943 84.47003939 309.84587815 85.17700195 318.05541992 C85.70651674 336.85003032 85.70651674 336.85003032 81 344 C80.443125 345.010625 79.88625 346.02125 79.3125 347.0625 C72.23631172 356.0511716 64.01440807 361.26666635 53 364 C40.35011971 365.17609698 30.91847341 363.17516913 21.10546875 355.046875 C13.26484282 347.42444831 9.03301064 339.06718085 8.65039062 328.17285156 C8.50262344 315.89112501 11.25625377 307.59168567 19 298 C19.5878125 297.53464844 20.175625 297.06929688 20.78125 296.58984375 C22.30735407 294.96887055 22.30735407 294.96887055 21.76538086 292.25976562 C20.95087084 288.79075836 19.76028164 286.32851896 17.97265625 283.25390625 C17.35052246 282.1769751 16.72838867 281.10004395 16.08740234 279.99047852 C15.41918457 278.85924561 14.7509668 277.7280127 14.0625 276.5625 C13.37173506 275.38152991 12.68114367 274.2004583 11.99072266 273.01928711 C7.36844497 265.14881773 2.5688301 257.44416849 -2.64453125 249.953125 C-4.27590329 247.60244482 -5.88812178 245.23908805 -7.5 242.875 C-10.65834159 238.24426278 -13.82608576 233.62007479 -17 229 C-19.31214239 231.16073449 -20.98224266 233.35450091 -22.64453125 236.04296875 C-23.14944092 236.85725342 -23.65435059 237.67153809 -24.17456055 238.51049805 C-24.98534058 239.83561401 -24.98534058 239.83561401 -25.8125 241.1875 C-26.38073486 242.11151611 -26.94896973 243.03553223 -27.53442383 243.98754883 C-33.63018594 253.94993244 -39.53522957 264.02117111 -45.35302734 274.14794922 C-46.94344748 276.90206841 -48.55732717 279.64119495 -50.17578125 282.37890625 C-51.11810599 284.00207129 -52.05956725 285.62573805 -53 287.25 C-53.43981201 287.9824292 -53.87962402 288.7148584 -54.33276367 289.46948242 C-56.56718171 293.14627196 -56.56718171 293.14627196 -56.45703125 297.265625 C-54.92756908 299.08621804 -53.35987136 300.80908794 -51.6875 302.5 C-44.10420206 311.14622882 -41.93594976 320.58859697 -42.52734375 331.8125 C-43.55362421 343.08872446 -48.6980334 351.51003013 -57 359 C-64.35185818 365.04162603 -73.94476933 367.71411118 -83.40625 367.33984375 C-94.29442237 365.9132308 -104.14425844 360.93874059 -111.13671875 352.38671875 C-118.22140149 341.88594161 -120.36716205 331.61995742 -119 319 C-116.12408844 307.70938425 -109.1144067 299.26439661 -99.2734375 293.21875 C-90.6814652 288.61274423 -81.49658066 287.47298027 -72 290 C-71.60296875 288.79859375 -71.2059375 287.5971875 -70.796875 286.359375 C-69.48595295 282.4204687 -68.13199622 278.49811773 -66.765625 274.578125 C-61.10311856 258.16809145 -56.47486679 241.83761707 -52.66015625 224.89550781 C-51.82866478 221.2485075 -50.92603867 217.62401671 -50 214 C-68.35091344 215.80495476 -86.59429791 217.8630599 -104.75 221.125 C-105.82287262 221.31681854 -105.82287262 221.31681854 -106.91741943 221.51251221 C-115.85932732 223.11548302 -115.85932732 223.11548302 -124.703125 225.1796875 C-128 226 -128 226 -132 226 C-131.9175 226.928125 -131.835 227.85625 -131.75 228.8125 C-131.78544862 237.58603398 -136.41191145 246.44545711 -142 253 C-152.03729646 262.40414603 -161.69122289 265.49002268 -175.3359375 265.33203125 C-185.78381334 264.38526212 -194.3164587 258.93002768 -201 251 C-208.06306195 239.5494963 -210.12717329 227.13610888 -207.3515625 213.91015625 C-203.35100638 203.08813904 -195.98259838 196.3696484 -186 191 C-185.34257812 190.63777344 -184.68515625 190.27554688 -184.0078125 189.90234375 C-175.63461211 186.0391719 -165.63484742 187.06537322 -157.1875 190.0625 C-146.45615066 194.74361107 -140.70666849 200.85277275 -135 211 C-108.43510543 206.07070369 -82.47690008 191.82990989 -59 179 C-60.71025466 175.33565049 -62.75997924 173.0654411 -65.6875 170.25 C-68.72632706 167.28053276 -71.65198671 164.32339246 -74.375 161.0625 C-78.65869232 156.06485896 -83.58313327 151.75949298 -88.47558594 147.37597656 C-89.90558112 146.08522499 -91.3167982 144.77375526 -92.7265625 143.4609375 C-97.82427313 138.72412674 -103.06513136 134.21728473 -108.5 129.875 C-109.09989746 129.38902344 -109.69979492 128.90304688 -110.31787109 128.40234375 C-113.73580877 125.61470194 -113.73580877 125.61470194 -118 125 C-120.15023224 126.02170133 -120.15023224 126.02170133 -122.375 127.375 C-131.91701408 132.98216291 -142.29723836 133.69672847 -153.12109375 131.3125 C-163.79300132 127.31677798 -172.4352275 119.35963019 -177.1875 109.0234375 C-181.24503812 98.91860698 -181.08554401 89.07320415 -177.328125 78.859375 C-172.71701757 68.93193195 -164.23360211 60.91284787 -154 57 C-143.53538694 54.29363455 -131.57921755 54.9681761 -122 60 C-112.44610608 65.63563027 -106.61270399 74.4129129 -103.4140625 84.92578125 C-101.50737412 94.47721079 -103.75744035 103.02505812 -107 112 C-106.26080322 112.27602051 -105.52160645 112.55204102 -104.76000977 112.83642578 C-102.21510283 113.90931622 -100.12829193 115.08652681 -97.83984375 116.6171875 C-97.05681885 117.13555176 -96.27379395 117.65391602 -95.46704102 118.18798828 C-94.63229248 118.74470215 -93.79754395 119.30141602 -92.9375 119.875 C-66.67984089 137.78554761 -66.67984089 137.78554761 -38 151 C-37.85304687 149.7934375 -37.85304687 149.7934375 -37.703125 148.5625 C-36.65970398 140.35905196 -35.38814155 132.21479307 -34 124.0625 C-31.07915225 106.75654391 -29.36281934 89.49316662 -28 72 C-28.67401855 71.8138916 -29.34803711 71.6277832 -30.04248047 71.43603516 C-30.93338379 71.18128418 -31.82428711 70.9265332 -32.7421875 70.6640625 C-33.62245605 70.4160791 -34.50272461 70.1680957 -35.40966797 69.91259766 C-39.6465048 68.41992131 -42.70917653 65.99948296 -46 63 C-47.03833984 62.07767578 -47.03833984 62.07767578 -48.09765625 61.13671875 C-55.50186861 53.78786499 -59.09761553 43.67492489 -59.5625 33.3125 C-58.92481312 22.00194841 -54.03962074 11.75254553 -45.86328125 3.96484375 C-43.65131206 2.14662824 -41.40720731 0.54866409 -39 -1 C-38.34773437 -1.43441406 -37.69546875 -1.86882812 -37.0234375 -2.31640625 C-25.98799967 -8.43063532 -10.48632366 -5.96827996 0 0 Z " fill="#A1C8E3" transform="translate(276,70)"/>
<path d="M0 0 C28.71 0 57.42 0 87 0 C87 125.4 87 250.8 87 380 C58.29 380 29.58 380 0 380 C0 254.6 0 129.2 0 0 Z " fill="#000000" transform="translate(2695,66)"/>
<path d="M0 0 C28.71 0 57.42 0 87 0 C87 125.4 87 250.8 87 380 C58.29 380 29.58 380 0 380 C0 254.6 0 129.2 0 0 Z " fill="#000000" transform="translate(1035,66)"/>
<path d="M0 0 C3.36657902 1.32080197 6.50868426 2.77660899 9.6875 4.5 C14.67381365 7.04189523 19.48388816 8.21366065 25 9 C23.3087028 12.55517575 21.29316563 15.8904539 19.25 19.25 C7.77157328 38.27657144 -3.21253526 57.5756262 -14 77 C-18.75 76.125 -18.75 76.125 -21 75 C-20.27179784 70.27602187 -18.57994226 66.06024406 -16.875 61.625 C-9.33757432 41.46067548 -4.20536778 21.0922194 0 0 Z " fill="#2F3335" transform="translate(229,287)"/>
<path d="M0 0 C2.96252034 2.96252034 3.34321406 6.66460942 4.3125 10.625 C9.42817652 30.71086065 15.67781649 50.96777614 24.1875 69.890625 C25 72 25 72 25 75 C21.535 75.99 21.535 75.99 18 77 C17.6282666 76.35675781 17.2565332 75.71351563 16.87353516 75.05078125 C-0.50646415 44.56025012 -0.50646415 44.56025012 -20.67407227 15.87597656 C-22 14 -22 14 -22 12 C-21.16597656 11.72027344 -20.33195312 11.44054687 -19.47265625 11.15234375 C-11.89498437 8.45285239 -5.99593493 5.37620006 0 0 Z " fill="#303435" transform="translate(285,284)"/>
<path d="M0 0 C2.31 0 4.62 0 7 0 C7.02916504 0.65967773 7.05833008 1.31935547 7.08837891 1.99902344 C7.8274921 17.29840542 9.44244086 32.22116909 12 47.3125 C12.13142395 48.09403442 12.2628479 48.87556885 12.39825439 49.68078613 C13.88033686 58.75120527 13.88033686 58.75120527 16.08984375 67.66088867 C16.90451979 70.64970956 17.18586106 72.93329245 17 76 C16.35973877 75.99476318 15.71947754 75.98952637 15.05981445 75.98413086 C12.14405305 75.96327571 9.22830738 75.95031271 6.3125 75.9375 C5.30509766 75.92912109 4.29769531 75.92074219 3.25976562 75.91210938 C2.28330078 75.90888672 1.30683594 75.90566406 0.30078125 75.90234375 C-1.04246216 75.89448853 -1.04246216 75.89448853 -2.4128418 75.88647461 C-5.03641759 76.00159802 -7.44293053 76.41765715 -10 77 C-9.88390381 76.39446289 -9.76780762 75.78892578 -9.64819336 75.16503906 C-8.06867604 66.7253926 -6.78452132 58.24734894 -5.5625 49.75 C-5.45394684 48.99874847 -5.34539368 48.24749695 -5.23355103 47.47348022 C-2.96868912 31.69440785 -1.35935582 15.88059396 0 0 Z " fill="#303435" transform="translate(252,143)"/>
<path d="M0 0 C0.17015625 0.96679688 0.3403125 1.93359375 0.515625 2.9296875 C0.75987726 4.24489196 1.00470016 5.55999053 1.25 6.875 C1.48203125 8.15117187 1.7140625 9.42734375 1.953125 10.7421875 C3.02367678 15.72289365 5.00240021 20.32974119 7 25 C5.76894531 25.07476562 4.53789062 25.14953125 3.26953125 25.2265625 C-22.69593312 27.03925518 -48.5085982 31.85938517 -74 37 C-74 35.02 -74 33.04 -74 31 C-69.3605648 29.03434456 -64.68917599 27.20755841 -59.90234375 25.6328125 C-49.3637719 22.14319683 -39.18602995 18.03940485 -29.0625 13.5 C-27.86713623 12.96640869 -26.67177246 12.43281738 -25.44018555 11.88305664 C-18.29378139 8.64026269 -11.38850431 5.13147774 -4.54467773 1.30273438 C-2 0 -2 0 0 0 Z " fill="#2F3335" transform="translate(217,255)"/>
<path d="M0 0 C1.17691406 0.54527344 2.35382813 1.09054688 3.56640625 1.65234375 C25.80441983 11.86362986 48.43847066 20.37331987 72 27 C73.125 31.75 73.125 31.75 72 34 C65.08355763 33.42772631 58.36960791 32.39306958 51.5625 31.0625 C32.74994508 27.54898802 14.11434605 26.55053613 -5 26 C-4.79721436 25.37818848 -4.59442871 24.75637695 -4.38549805 24.11572266 C-2.62773995 18.53300255 -1.4139737 13.19108514 -0.8125 7.375 C-0.73064453 6.65699219 -0.64878906 5.93898438 -0.56445312 5.19921875 C-0.36814082 3.46705131 -0.1828283 1.73364251 0 0 Z " fill="#303334" transform="translate(296,251)"/>
<path d="M0 0 C5.0283812 1.65956455 9.05075064 4.59485988 13.375 7.5625 C30.79295195 19.33053019 49.06186637 29.86513554 68 39 C67.13375 39.99 66.2675 40.98 65.375 42 C61.27651481 46.77832871 57.49176778 51.76234833 54 57 C51.02363795 55.66420352 48.96048142 54.20765397 46.6875 51.875 C46.07648438 51.24851563 45.46546875 50.62203125 44.8359375 49.9765625 C43.10245576 48.11030343 41.45466127 46.1965619 39.8125 44.25 C36.30555672 40.17307948 32.39393735 36.59387665 28.40576172 33.00146484 C25.66437705 30.53155543 22.99674659 28.03291633 20.4375 25.375 C13.34803426 18.1647891 5.00574017 12.14761776 -3 6 C-2 4 -1 2 0 0 Z " fill="#303435" transform="translate(166,185)"/>
<path d="M0 0 C2.0625 0.75 2.0625 0.75 4 2 C4.495 3.485 4.495 3.485 5 5 C4.12859375 5.73863281 3.2571875 6.47726563 2.359375 7.23828125 C1.15614957 8.26290291 -0.04696952 9.28764945 -1.25 10.3125 C-1.8171875 10.79267578 -2.384375 11.27285156 -2.96875 11.76757812 C-13.36546171 20.6386854 -23.20754453 30.04114143 -32.84887695 39.71850586 C-34.58884712 41.46392971 -36.33422664 43.20382024 -38.08007812 44.94335938 C-39.20084231 46.06478298 -40.32129699 47.18651599 -41.44140625 48.30859375 C-41.956996 48.82215927 -42.47258575 49.33572479 -43.00379944 49.86485291 C-45.06987965 51.94445654 -46.99013824 53.98651224 -48.72241211 56.35571289 C-49.14401611 56.89832764 -49.56562012 57.44094238 -50 58 C-50.66 58 -51.32 58 -52 58 C-53.2265625 56.27734375 -53.2265625 56.27734375 -54.625 53.9375 C-57.38410879 49.60761145 -60.45252425 46.58536 -64.4609375 43.41015625 C-64.96882813 42.94480469 -65.47671875 42.47945312 -66 42 C-66 41.34 -66 40.68 -66 40 C-64.51113281 39.27296875 -64.51113281 39.27296875 -62.9921875 38.53125 C-48.29794653 31.30529095 -34.50484458 23.24794976 -21 14 C-20.18112305 13.43958008 -19.36224609 12.87916016 -18.51855469 12.30175781 C-13.34040094 8.75713151 -13.34040094 8.75713151 -8.16918945 5.20239258 C-7.39534912 4.67025146 -6.62150879 4.13811035 -5.82421875 3.58984375 C-5.13416748 3.11409912 -4.44411621 2.63835449 -3.7331543 2.14819336 C-2 1 -2 1 0 0 Z " fill="#303435" transform="translate(344,182)"/>
</svg>
