<svg width="2990" height="516" viewBox="0 0 2990 516" fill="none" xmlns="http://www.w3.org/2000/svg">
<rect y="3.45898" width="444" height="444" rx="127.319" fill="url(#paint0_linear_3620_904)"/>
<path d="M301.432 269.079C302.592 274.564 306.044 280.742 311.977 280.742C317.91 280.742 321.36 274.564 322.521 269.079C323.681 263.594 341.203 170.36 341.203 170.36C344.492 153.433 357.657 143.403 371.272 143.373L426.64 143.373V170.361H371.732C368.709 170.427 365.854 172.851 365.296 176.104L346.4 272.992C343.125 292.216 331.577 307.545 311.977 307.545C294.577 307.545 280.816 292.152 277.552 272.992L258.657 176.104C258.093 172.821 255.191 170.383 252.137 170.36C249.076 170.372 246.162 172.815 245.598 176.104L226.702 272.992C223.82 289.91 211.827 307.545 192.279 307.545C175.381 307.471 161.246 292.169 157.979 272.992L139.083 176.104C138.521 172.825 135.623 170.387 132.572 170.36C129.516 170.38 126.611 172.82 126.047 176.104L107.151 272.993C103.877 292.216 89.6806 307.545 72.7282 307.545L17.3599 307.545V280.74L72.779 280.742C78.6808 280.707 82.115 274.549 83.2719 269.079C84.4322 263.594 101.954 170.36 101.954 170.36C105.241 153.444 118.914 143.417 132.521 143.373C146.129 143.417 159.89 153.444 163.176 170.36C163.176 170.36 180.698 263.594 181.859 269.079C183.015 274.545 186.445 280.699 192.341 280.742C198.236 280.699 201.666 274.545 202.822 269.079C203.983 263.594 221.505 170.36 221.505 170.36C224.793 153.435 238.479 143.405 252.094 143.373C265.731 143.373 279.456 153.407 282.75 170.36C282.75 170.36 300.272 263.594 301.432 269.079Z" fill="white"/>
<path fill-rule="evenodd" clip-rule="evenodd" d="M949.615 403.323H1003.78V280.021C1003.78 239.689 1004.93 156.719 1079.83 156.719C1116.71 156.719 1140.33 177.462 1140.33 228.741V403.323H1194.49V216.066C1194.49 152.686 1163.95 109.473 1098.84 109.473C1033.74 109.473 1008.96 151.534 1003.78 165.362V106.016V-0.000233391H949.615V403.323ZM2094.83 403.323H2148.99V280.021C2148.99 239.689 2150.14 156.719 2225.05 156.719C2261.92 156.719 2285.54 177.462 2285.54 228.741V403.323H2339.7V216.066C2339.7 152.686 2309.17 109.473 2244.06 109.473C2178.95 109.473 2154.18 151.534 2148.99 165.362V106.016V-0.000233391H2094.83V403.323ZM2483.77 403.322H2554.06V356.652H2494.14C2474.55 356.652 2465.91 348.009 2465.91 328.419V162.481H2543.11V117.539H2465.91V28.2319H2411.75V117.539H2346.64V162.481H2411.75V333.029C2411.75 380.275 2436.52 403.322 2483.77 403.322ZM1981.45 515.689H1848.35C1792.46 515.689 1772.29 491.49 1772.29 458.072C1772.29 429.263 1792.46 408.52 1809.17 398.149C1793.04 388.354 1783.82 374.526 1783.82 351.479C1783.82 323.247 1806.86 303.657 1826.45 290.981C1809.74 276 1794.76 250.072 1794.76 216.078C1794.76 155.579 1843.16 109.485 1910 109.485C1963.01 109.485 1994.7 137.718 2007.95 160.189C2013.14 135.413 2025.81 117.552 2055.2 117.552H2084.58V162.494H2060.96C2036.76 162.494 2027.54 168.255 2025.23 201.097L2024.08 214.926C2018.9 279.457 1974.53 320.942 1910.58 320.942C1890.99 320.942 1872.55 318.637 1856.42 309.994C1840.86 316.332 1831.06 326.704 1831.06 337.075C1831.06 346.294 1836.83 355.512 1856.42 355.512H1980.29C2036.18 355.512 2072.48 387.778 2072.48 435.601C2072.48 489.185 2031 515.689 1981.45 515.689ZM1910.58 278.305C1948.03 278.305 1972.23 253.529 1972.23 215.502C1972.23 178.05 1948.03 152.122 1910.58 152.122C1873.12 152.122 1848.92 178.05 1848.92 215.502C1848.92 253.529 1873.12 278.305 1910.58 278.305ZM1863.33 469.595H1974.53C1997.58 469.595 2017.74 463.257 2017.74 436.177C2017.74 409.097 1997.58 403.335 1974.53 403.335H1840.86C1831.64 409.097 1820.12 421.772 1820.12 439.634C1820.12 462.681 1835.67 469.595 1863.33 469.595ZM1509.47 304.807C1509.47 368.186 1538.28 411.4 1603.39 411.4C1662.16 411.4 1689.24 371.067 1698.45 354.358V403.333H1751.46V117.55H1697.3V242.004C1697.3 286.369 1693.85 364.153 1622.4 364.153C1586.68 364.153 1563.63 343.411 1563.63 292.131V117.55H1509.47V304.807ZM1352.38 411.402C1275.17 411.402 1216.4 346.87 1216.4 261.02C1216.4 174.017 1273.44 109.485 1352.38 109.485C1431.32 109.485 1487.78 174.017 1487.78 261.02C1487.78 348.022 1429.01 411.402 1352.38 411.402ZM1352.38 364.731C1399.05 364.731 1431.32 331.313 1431.32 261.596C1431.32 191.302 1399.05 156.156 1352.38 156.156C1305.13 156.156 1272.87 191.302 1272.87 261.596C1272.87 331.313 1305.13 364.731 1352.38 364.731ZM934.423 403.322H864.13C816.883 403.322 792.108 380.275 792.108 333.029V162.481H727V117.539H792.108V28.2319H846.268V117.539H923.476V162.481H846.268V328.419C846.268 348.009 854.911 356.652 874.501 356.652H934.423V403.322ZM2571.84 333.152C2571.84 380.665 2603.75 408.838 2642.48 408.838C2677.29 408.838 2702.13 380.327 2708.22 344.574L2739.28 164.372C2740.33 158.239 2745.78 153.689 2751.48 153.689C2759.02 153.689 2762.65 159.694 2763.93 163.513L2841.6 394.402L2825.21 441.015C2817.15 462.91 2805.62 467.519 2786.03 467.519H2728.42V515.918H2787.76C2837.89 515.918 2859.21 498.057 2877.65 443.896L2990 117.781H2932.96L2883.98 265.858C2878.95 280.509 2873.63 296.551 2869.72 308.327C2868.6 311.705 2867.59 314.732 2866.74 317.274L2810.69 153.689C2797.93 117.781 2779.88 102.84 2751.48 102.84C2723.09 102.84 2697.02 125.49 2691.83 158.239L2661.33 336.812C2659.09 347.511 2656.51 357.732 2643.85 357.732C2633.54 357.733 2626 350.918 2626 333.152V-0.000233391H2571.84V333.152Z" fill="white"/>
<defs>
<linearGradient id="paint0_linear_3620_904" x1="-122.808" y1="447.459" x2="-31.6169" y2="-86.6217" gradientUnits="userSpaceOnUse">
<stop stop-color="#32CB08"/>
<stop offset="1" stop-color="#72FA4C"/>
</linearGradient>
</defs>
</svg>
