<?xml version="1.0" encoding="UTF-8"?>
<svg width="293px" height="120px" viewBox="0 0 293 120" version="1.1" xmlns="http://www.w3.org/2000/svg" xmlns:xlink="http://www.w3.org/1999/xlink">
    <title>brand/nameplate-google-admin-dark-bg</title>
    <g id="brand/nameplate-google-admin-dark-bg" stroke="none" fill="none" fill-rule="nonzero">
        <path d="M131.211499,76.5773456 C128.163438,76.5773456 125.426955,76.2181451 123.002051,75.4997439 C120.577146,74.7813428 118.424659,73.7368612 116.544588,72.3662993 C114.664518,70.9957374 112.982988,69.3523607 111.5,67.436169 L118.282208,59.7935962 C120.452652,62.7020283 122.642248,64.6648273 124.850998,65.6819932 C127.059747,66.6991591 129.345451,67.207742 131.708108,67.207742 C132.894225,67.207742 133.96474,67.0520429 134.919653,66.7406447 C135.874566,66.4292465 136.620335,65.9778556 137.156961,65.3864722 C137.693587,64.7950887 137.961899,64.0722487 137.961899,63.2179523 C137.961899,62.556914 137.799099,61.9645062 137.473498,61.4407289 C137.147898,60.9169517 136.692672,60.4525859 136.107822,60.0476316 C135.522972,59.6426774 134.841502,59.2814281 134.063412,58.9638839 C133.285322,58.6463397 132.459008,58.3707932 131.584469,58.1372445 C130.70993,57.9036959 129.80478,57.6933655 128.86902,57.5062534 C126.354507,56.9503803 124.158925,56.2540023 122.282275,55.4171196 C120.405624,54.5802369 118.8385,53.5591444 117.580901,52.3538421 C116.323303,51.1485398 115.391134,49.7731976 114.784395,48.2278157 C114.177656,46.6824337 113.874286,44.9451595 113.874286,43.0159929 C113.874286,40.9543454 114.341995,39.0615428 115.277413,37.3375849 C116.212831,35.613627 117.480006,34.1286809 119.078938,32.8827465 C120.67787,31.6368122 122.522029,30.6782042 124.611415,30.0069225 C126.7008,29.3356408 128.899802,29 131.20842,29 C134.20039,29 136.781939,29.3120811 138.953066,29.9362433 C141.124194,30.5604055 142.988361,31.4672846 144.545567,32.6568804 C146.102773,33.8464762 147.422789,35.2651819 148.505617,36.9129975 L141.630038,43.5609397 C140.703854,42.4198292 139.706189,41.4704402 138.637042,40.7127728 C137.567895,39.9551054 136.433081,39.3876232 135.232599,39.010326 C134.032117,38.6330288 132.800854,38.4443802 131.538809,38.4443802 C130.23367,38.4443802 129.10963,38.6000793 128.166687,38.9114775 C127.223745,39.2228757 126.485329,39.6727301 125.951439,40.2610405 C125.41755,40.849351 125.150605,41.576459 125.150605,42.4423646 C125.150605,43.1593999 125.369667,43.7874888 125.807792,44.3266311 C126.245917,44.8657734 126.838804,45.3362852 127.586454,45.7381664 C128.334105,46.1400477 129.188807,46.4825174 130.15056,46.7655757 C131.112313,47.0486339 132.107585,47.2898651 133.136373,47.4892693 C135.544177,47.9631955 137.727104,48.5919672 139.685155,49.3755844 C141.643205,50.1592017 143.335337,51.1161025 144.761551,52.2462868 C146.187764,53.3764711 147.277945,54.7256927 148.032094,56.2939515 C148.786242,57.8622103 149.163317,59.6587253 149.163317,61.6834966 C149.163317,64.8630363 148.390528,67.561138 146.844951,69.7778016 C145.299373,71.9944653 143.178351,73.6818885 140.481885,74.8400714 C137.785418,75.9982542 134.69529,76.5773456 131.211499,76.5773456 Z M169.297156,76.5394452 C166.401636,76.5394452 163.801618,75.7590717 161.497104,74.1983247 C159.192589,72.6375777 157.365018,70.4960321 156.014391,67.7736878 C154.663764,65.0513435 153.98845,61.9481168 153.98845,58.4640078 C153.98845,54.9361938 154.662225,51.8157241 156.009774,49.1025988 C157.357323,46.3894736 159.208151,44.2619272 161.562258,42.7199597 C163.916365,41.1779922 166.603768,40.4070084 169.624467,40.4070084 C171.293513,40.4070084 172.82216,40.6441423 174.21041,41.11841 C175.598659,41.5926776 176.819491,42.2555939 177.872905,43.1071588 C178.926319,43.9587237 179.820524,44.9400378 180.55552,46.0511012 C181.290515,47.1621645 181.845781,48.3541505 182.221316,49.627059 L180.032746,49.3658533 L180.032746,41.1281412 L190.444103,41.1281412 L190.444103,75.9217704 L179.843952,75.9217704 L179.843952,67.5017265 L182.212082,67.4566557 C181.848859,68.6865421 181.274954,69.8524075 180.490365,70.9542518 C179.705777,72.0560962 178.746076,73.0189722 177.611261,73.84288 C176.476447,74.6667878 175.210469,75.3221923 173.813327,75.8090935 C172.416186,76.2959946 170.910795,76.5394452 169.297156,76.5394452 Z M172.238849,67.676888 C173.84428,67.676888 175.240225,67.2997615 176.426684,66.5455086 C177.613143,65.7912557 178.529408,64.7235559 179.175479,63.3424092 C179.82155,61.9612625 180.144586,60.3351287 180.144586,58.4640078 C180.144586,56.611325 179.82155,54.9928737 179.175479,53.608654 C178.529408,52.2244343 177.613143,51.155198 176.426684,50.400945 C175.240225,49.6466921 173.84428,49.2695656 172.238849,49.2695656 C170.652572,49.2695656 169.277148,49.6466921 168.112578,50.400945 C166.948009,51.155198 166.042688,52.2244343 165.396617,53.608654 C164.750546,54.9928737 164.42751,56.611325 164.42751,58.4640078 C164.42751,60.3351287 164.750546,61.9612625 165.396617,63.3424092 C166.042688,64.7235559 166.948009,65.7912557 168.112578,66.5455086 C169.277148,67.2997615 170.652572,67.676888 172.238849,67.676888 Z M215.708743,91 C212.854948,91 210.024753,90.5861682 207.218157,89.7585045 C204.41156,88.9308408 202.125857,87.8549463 200.361046,86.530821 L204.025081,79.1791597 C204.95058,79.809468 205.966714,80.3571464 207.073483,80.8221951 C208.180252,81.2872437 209.34619,81.6430298 210.571297,81.8895534 C211.796404,82.136077 213.056397,82.2593388 214.351275,82.2593388 C216.557972,82.2593388 218.370666,81.9349657 219.789354,81.2862194 C221.208043,80.6374731 222.264194,79.6486472 222.957805,78.3197416 C223.651417,76.990836 223.998223,75.3153634 223.998223,73.2933236 L223.998223,67.4628017 L226.002104,67.808003 C225.707968,69.2386593 224.965277,70.5453709 223.77403,71.7281379 C222.582783,72.9109048 221.102189,73.8579036 219.332248,74.5691344 C217.562307,75.2803652 215.711137,75.6359806 213.778738,75.6359806 C210.595922,75.6359806 207.774277,74.9042631 205.313803,73.4408281 C202.853328,71.977393 200.910327,69.9519388 199.484797,67.3644654 C198.059268,64.7769921 197.346504,61.7691994 197.346504,58.3410874 C197.346504,54.8385404 198.048324,51.7433377 199.451964,49.0554794 C200.855604,46.3676211 202.775006,44.2542447 205.210171,42.7153502 C207.645337,41.1764557 210.410549,40.4070084 213.505808,40.4070084 C214.819155,40.4070084 216.076241,40.551952 217.277064,40.8418392 C218.477888,41.1317263 219.591155,41.5341198 220.616866,42.0490194 C221.642577,42.5639191 222.558671,43.1583756 223.365148,43.8323889 C224.171626,44.5064021 224.831206,45.2367538 225.343891,46.0234441 C225.856575,46.8101343 226.191239,47.6159455 226.347883,48.4408776 L224.187016,49.0032382 L224.601542,41.1281412 L234.569644,41.1281412 L234.569644,73.0710427 C234.569644,75.9248435 234.139557,78.4617829 233.279382,80.681861 C232.419208,82.9019391 231.172725,84.7817668 229.539933,86.3213442 C227.907141,87.8609216 225.927202,89.0255919 223.600114,89.8153551 C221.273027,90.6051184 218.64257,91 215.708743,91 Z M216.009376,67.5263106 C217.701679,67.5263106 219.172355,67.1491841 220.421403,66.3949312 C221.670451,65.6406783 222.628955,64.5839047 223.296916,63.2246105 C223.964876,61.8653163 224.298856,60.2627422 224.298856,58.4168883 C224.298856,56.5703515 223.960259,54.9565098 223.283064,53.5753631 C222.605869,52.1942164 221.647365,51.1265165 220.407551,50.3722636 C219.167737,49.6180107 217.701679,49.2408842 216.009376,49.2408842 C214.334858,49.2408842 212.884191,49.6227909 211.657374,50.3866043 C210.430557,51.1504177 209.47838,52.2228978 208.800843,53.6040445 C208.123306,54.9851912 207.784538,56.5894725 207.784538,58.4168883 C207.784538,60.2443042 208.123306,61.8422687 208.800843,63.210782 C209.47838,64.5792952 210.430557,65.6406783 211.657374,66.3949312 C212.884191,67.1491841 214.334858,67.5263106 216.009376,67.5263106 Z M260.303022,76.5773456 C256.455324,76.5773456 253.106801,75.8046547 250.257453,74.2592727 C247.408104,72.7138908 245.20021,70.5986364 243.633769,67.9135097 C242.067329,65.2283829 241.284109,62.143765 241.284109,58.659656 C241.284109,55.9997962 241.721891,53.5553885 242.597456,51.3264328 C243.473021,49.0974772 244.700351,47.1635303 246.279446,45.5245923 C247.858541,43.8856543 249.731601,42.618209 251.898624,41.7222562 C254.065647,40.8263034 256.431383,40.378327 258.99583,40.378327 C261.429627,40.378327 263.66608,40.8170844 265.705189,41.6945991 C267.744298,42.5721138 269.506714,43.7977321 270.992439,45.3714541 C272.478163,46.945176 273.61674,48.8046877 274.408168,50.9499893 C275.199597,53.0952908 275.560767,55.432314 275.49168,57.9610587 L275.426012,60.770813 L247.631271,60.770813 L246.120921,54.9054637 L266.866681,54.9054637 L265.73084,56.1326185 L265.73084,54.7856163 C265.675434,53.6943568 265.351201,52.7248225 264.758142,51.8770136 C264.165084,51.0292046 263.3846,50.3654347 262.41669,49.8857039 C261.44878,49.4059731 260.35877,49.1661077 259.14666,49.1661077 C257.410579,49.1661077 255.946402,49.5073824 254.754129,50.1899318 C253.561855,50.8724812 252.656535,51.8573805 252.038167,53.1446297 C251.419799,54.4318789 251.110615,56.004235 251.110615,57.8616981 C251.110615,59.788816 251.519839,61.4680446 252.338287,62.8993837 C253.156735,64.3307229 254.3408,65.4393962 255.890482,66.2254035 C257.440164,67.0114109 259.293386,67.4044146 261.450149,67.4044146 C262.931085,67.4044146 264.254009,67.1893039 265.41892,66.7590827 C266.583832,66.3288615 267.831512,65.5838276 269.161961,64.523981 L274.121899,71.4925405 C272.744937,72.6671127 271.288626,73.6226477 269.752967,74.3591455 C268.217308,75.0956433 266.657024,75.6494677 265.072115,76.0206189 C263.487205,76.3917701 261.897507,76.5773456 260.303022,76.5773456 Z" id="Combined-Shape" fill="#F1F2F6"></path>
        <path d="M37.7564103,86.2096774 C38.6475364,87.5427375 39.4743502,88.9179496 40.3836958,90.239661 C43.0493241,94.1134657 45.916591,97.823931 49.0362122,101.3489 C50.6309662,103.150767 52.3098837,104.908455 54.0525696,106.570356 C54.6361389,107.126845 55.2300417,107.695493 55.834142,108.22996 C56.1597823,108.517999 56.4878701,108.81536 56.819493,109.096239 C57.0335047,109.277547 57.5004145,109.532486 57.6076923,109.791208 C57.5546653,109.862543 57.5628233,109.886861 57.469822,109.901317 C57.3822594,109.914963 57.4177468,109.912531 57.3346711,109.909423 L57.2936091,109.954953 C57.0636893,110.012237 56.7916199,109.988729 56.553678,109.98981 C56.2234148,109.991431 55.8412122,110.02953 55.5219623,109.947117 L55.5142122,109.87889 C51.9740458,109.696231 48.4466603,108.68377 45.6828641,106.404044 C45.2450512,106.042914 44.7884748,105.550194 44.4057284,105.127998 C42.4783997,103.001884 41.3542265,100.255512 40.3843757,97.6043888 C39.5126928,95.2219847 38.8041701,92.7804056 38.3274706,90.2889736 C38.068182,88.9332162 37.9887774,87.5646241 37.7564103,86.2096774 Z M38.5666667,79.3548387 C38.6748035,79.3670273 38.7574723,79.3730547 38.8419117,79.4487313 C39.2605673,79.8234982 39.6323728,80.2669767 40.0410864,80.6513873 C40.9911651,81.5449076 41.9840083,82.4136487 42.9579207,83.2823898 C43.6239019,83.8764181 44.2702714,84.5019224 44.9523233,85.0778686 C50.4822826,89.7475866 56.1312741,94.2155896 62.3371566,98.0142895 C65.9869788,100.248425 69.8216141,102.099757 73.8738851,103.511361 C74.3788868,103.687225 75.3337322,104.127088 75.8384615,104.011898 L75.772953,104.148786 C75.4625703,104.698078 74.8023092,105.273622 74.2992142,105.661783 C74.1436824,105.781794 73.9746675,105.93596 73.7857685,105.994493 C73.7346964,106.064678 73.6847137,106.114772 73.6128041,106.164732 C71.3750255,107.718983 68.5758616,108.277249 65.888784,107.839664 C64.5321708,107.618795 63.1036479,107.144644 61.9352526,106.427524 C61.4945338,106.156963 61.1029804,105.829477 60.7018936,105.507885 C60.0081291,104.951628 59.3012902,104.364163 58.6519244,103.759152 C58.2775313,103.410236 57.9359606,103.028504 57.5645637,102.677311 C54.3859675,99.6712733 51.5710052,96.4170434 48.8225049,93.0296762 C46.2492842,89.8582219 43.7156956,86.6633279 41.3148946,83.3624865 C40.8383572,82.7073813 40.3543291,82.0541511 39.9061197,81.3800262 C39.4543692,80.7005437 39.0482433,80.0140962 38.5666667,79.3548387 Z M39.7820513,74.516129 C40.077623,74.5331007 40.4572551,74.7674714 40.7366404,74.8818281 C41.3200306,75.1203744 41.911038,75.3497614 42.4989169,75.5779361 C44.4695762,76.3428735 46.4522052,77.0780432 48.4217763,77.8455399 C52.0016895,79.2404497 55.6459401,80.5323171 59.2753646,81.8096374 C62.5953433,82.9779889 65.9366772,84.0920579 69.3147365,85.0849006 C72.2684131,85.9530151 75.2429008,86.7452958 78.2904313,87.2199638 C80.3844608,87.5461971 82.4480218,87.6854725 84.5621823,87.7653471 C85.6303482,87.8057559 86.6798793,87.7891883 87.7477732,87.7658859 C88.5082616,87.7493183 89.261949,87.7557837 90.0179487,87.6559741 C89.1192639,89.5217804 88.1835816,91.2526215 86.8363024,92.8458035 C86.6528113,93.0626637 86.41396,93.4047911 86.1598745,93.52925 C86.0713254,93.7217303 85.8373708,93.8965655 85.6801315,94.0367838 C85.1474768,94.5114518 84.58721,94.9299517 83.9868172,95.3158551 C80.6029091,97.4902495 76.7592529,97.9373049 72.8546598,97.1144482 C69.9831393,96.5093947 67.3240823,95.2165843 64.8013174,93.7616003 C60.8873389,91.5042333 57.3144988,88.7533409 53.7400264,86.0117425 C49.7872822,82.9798746 45.8767041,79.9042306 42.1096273,76.6494412 C41.6516476,76.2537049 41.2201919,75.8400541 40.767653,75.4413545 C40.4339956,75.147583 40.0281117,74.8909875 39.7820513,74.516129 Z M31.3361149,10 C32.4596396,10.9625819 33.7351499,11.8106413 34.9932748,12.5904346 C38.6729814,14.8711632 42.6516335,16.337393 46.9543584,16.9092369 C48.33907,17.0932808 49.725819,17.143721 51.1201741,17.185923 C52.8692978,17.2388575 54.6749238,17.2511136 56.4217386,17.1230784 C57.772902,17.0240587 59.1316716,16.8949449 60.4634124,16.6420025 C64.5042713,15.8745327 68.2186126,14.3093776 71.6447383,12.0569366 C72.6202163,11.4157357 73.5147441,10.72187 74.425299,10 L74.5190166,10 C75.7840685,11.3060982 77.0200544,12.5767089 78.0858545,14.0545341 C81.3044433,18.5174704 83.6203548,23.7636517 85.0940303,29.0411945 C85.8421413,31.7202804 86.4187083,34.5848932 86.3653301,37.3740008 C86.3306953,39.1841029 85.7988139,40.8302508 84.9932499,42.4395899 C84.4566147,43.5117635 83.7506087,44.600791 82.8797141,45.433775 C82.0714336,46.2067594 81.1588414,46.6783971 80.1650273,47.1600123 C80.5120541,45.7239307 80.8249894,44.2072202 80.9333759,42.7341949 C81.1585698,39.6746169 80.6378258,36.591848 78.99899,33.955908 C77.8692175,32.1389296 76.0794827,30.3439287 74.1311072,29.407934 L76.7872544,25.7177529 C75.1200317,26.0305601 73.4532165,26.6970282 71.935127,27.4384621 C69.8459034,28.458726 67.9111101,29.6781347 66.1554669,31.2049575 C65.8749932,31.4488662 65.6214124,31.7403701 65.3546567,32.0001889 C64.2352067,33.0905647 63.2559255,34.2166706 62.3713128,35.5043037 C60.9258884,37.6077973 59.7184253,39.884818 58.6162247,42.1808498 C57.4139228,44.6853298 56.3215015,47.2553376 55.3408621,49.8532554 C54.8809667,51.0715855 54.4364193,52.2939605 54.0125169,53.5250995 C53.8199204,54.0843772 53.6301762,54.6447336 53.4502112,55.2081911 C53.3912642,55.3927743 53.326341,55.754525 53.2043723,55.8858501 C53.1648479,55.8441874 53.1205697,55.8018506 53.0974798,55.7477835 C53.040706,55.6153797 53.0264446,55.4375381 52.9851545,55.2954265 C52.8902145,54.9677879 52.7835938,54.6432505 52.6779238,54.3188478 C52.3257357,53.2373709 51.9351098,52.1572422 51.533754,51.0930236 C50.16765,47.4707971 48.708915,43.888885 46.9165997,40.4505675 C45.8933121,38.4875675 44.831315,36.5291517 43.5112549,34.7417013 C41.2741204,31.7124602 38.2469058,29.2767438 34.8650583,27.6132027 C33.2187523,26.8034096 31.4334997,26.0542903 29.6205121,25.7234158 L32.2488429,29.3735522 C31.6900686,29.7358423 31.1132299,30.0900425 30.5901227,30.5020851 C30.1513477,30.8476561 29.7699578,31.2892266 29.3802963,31.687921 C29.0553135,32.0205483 28.7103783,32.3276926 28.4122205,32.6860726 C27.1431618,34.2111425 26.2430245,36.1794009 25.8359506,38.1119292 C25.5854801,39.3011359 25.5127335,40.4544776 25.5120543,41.6657965 C25.5101528,45.0282043 26.3334417,48.4733981 28.2065579,51.3057864 C31.4249429,56.172635 36.7475599,58.5163969 42.3166949,59.6569297 C45.7452654,60.3589931 49.2795059,60.5681155 52.7732712,60.5663627 C54.5196785,60.5654189 56.2664933,60.550183 58.0088259,60.4162961 C66.3161451,59.7778728 74.485061,57.5198632 81.8443382,53.6201552 C83.2184557,52.8920695 84.647038,52.1507703 85.9313768,51.2763933 L95.5641889,43.895222 C95.778517,44.6971949 96.0521996,45.4657299 96.2130136,46.2846915 C96.8862863,49.711009 96.3827919,53.1659106 94.6194067,56.2024326 C91.8643806,60.9467201 86.4506267,64.0890841 81.2305558,65.4570763 C78.0384525,66.2937007 74.7606451,66.6368448 71.4626001,66.5078119 C69.9035504,66.4468491 68.3550339,66.2713491 66.8083389,66.077816 L64.9526218,65.8430966 C61.0774665,65.3606724 57.1961992,64.86881 53.2853225,64.8597763 C51.6231253,64.8558662 49.9664967,64.8880908 48.3176101,65.1217524 C45.3879161,65.5368961 42.509563,66.5502835 40.0856725,68.25333 C38.327177,69.4887836 36.8014814,70.9868874 35.7087884,72.8431015 C33.2081581,77.0910772 32.9380069,82.4627319 33.2729455,87.2554236 C33.4454402,89.7241736 33.7966775,92.1961594 34.4335498,94.5916963 C34.5157225,94.9004586 34.5930056,95.1962771 34.7357551,95.483871 C34.4403409,95.416186 34.2021081,95.0855811 33.9858784,94.8813126 C33.1555947,94.0968677 32.4005568,93.2188502 31.6707818,92.3424507 C30.4244734,90.8455604 29.2586671,89.2704683 28.2225035,87.6222979 C23.9687019,80.8559546 21.0943556,73.422469 19.3731841,65.6399067 C18.7568306,62.8529563 18.2382014,60.0143658 17.9316457,57.1761798 C17.8554342,56.470476 17.7742503,55.76248 17.7228971,55.0546189 C17.7002202,54.7420814 17.6800438,54.4295438 17.6627943,54.1166018 C17.6561987,53.9968721 17.6674082,53.7959744 17.6230338,53.6859526 C17.6110812,53.6562898 17.5265579,53.5898183 17.5,53.5633915 L17.5,46.4115672 C17.662356,46.2106694 17.6845823,45.8803343 17.6870423,45.5693747 L17.6873715,45.2703854 C17.6878142,45.2234674 17.6888223,45.1784656 17.690953,45.1360688 C17.760137,43.7597172 17.9751429,42.3619274 18.1547139,40.9951487 C19.3676562,31.7638307 22.7607362,22.6479277 27.7465402,14.7739772 C28.2023745,14.0540757 28.6980456,13.3687178 29.1808951,12.6676117 C29.8166129,11.7445338 30.4304632,10.7565471 31.2710558,10 L31.3361149,10 Z M59.7763672,69.9247528 C65.8028889,70.6215878 71.8144659,71.4766603 77.8674806,71.9276167 C81.088337,72.1674558 84.3303878,72.427561 87.552467,72.0714933 C90.6263219,71.7316654 93.6715101,70.8549846 96.5,69.6305574 L96.5,71.6711353 C96.3164518,71.9270799 96.301643,72.3278406 96.2387393,72.6363968 C95.7227393,75.1673898 94.3599177,77.6025546 92.1327485,79.0450784 C90.7465588,79.9428307 89.3211054,80.621547 87.7199836,81.062169 C83.9022898,82.1126559 79.8408614,81.8467795 75.9714046,81.2503359 C73.861891,80.9251373 71.724526,80.4839784 69.6761498,79.8872664 C67.5054988,79.2549879 65.3632427,78.511715 63.217726,77.801056 C58.5074255,76.2410957 53.8533715,74.5322928 49.1646729,72.9130103 C47.845191,72.4572221 46.5378007,71.9625122 45.2260629,71.48525 C44.5337153,71.2333317 43.794088,70.9114884 43.0733455,70.7629144 L43.0230769,70.7528484 C43.6972191,70.5495153 44.352205,70.2979997 45.0279775,70.09923 C45.978461,69.8196638 46.9464706,69.6187466 47.9299683,69.4917809 C51.8829796,68.9812338 55.843735,69.4700383 59.7763672,69.9247528 Z M68.1658643,38.7313871 C68.8892011,38.9384889 69.7356619,39.4476718 70.0919861,40.1292553 C70.2752148,40.4798629 70.4477551,40.8355858 70.5193809,41.2283604 C70.6720714,42.0652011 70.4902308,43.0223212 69.9859356,43.7200801 C69.4384706,44.477564 68.680015,44.9069754 67.7627613,45.0601589 C66.960303,45.1439397 66.1443803,44.9729217 65.4783719,44.5070117 C64.8020916,44.0339127 64.275448,43.3028349 64.1409415,42.4796812 C63.9985229,41.6084157 64.1460774,40.6989927 64.6736927,39.9752423 C65.2498913,39.1848544 66.0386074,38.7962274 66.9872321,38.6402789 C67.3800632,38.6169143 67.784832,38.6223061 68.1658643,38.7313871 Z M39.8778407,38.7517134 C40.5690855,38.9454167 41.3689643,39.4866791 41.7168701,40.1252082 C41.9571105,40.5657448 42.1415809,40.9978415 42.1963822,41.5029921 C42.2849501,42.3190364 42.0108048,43.2551767 41.49033,43.8919071 C40.9416242,44.5630891 40.1409151,44.9792744 39.2826368,45.0712835 C38.7274268,45.1060117 38.2232817,45.0487309 37.7079272,44.8215446 C37.5296844,44.7429564 37.356977,44.6671354 37.1949254,44.557278 C36.5085242,44.0916983 35.9356006,43.3650342 35.7890484,42.5341854 C35.6239523,41.5988752 35.8078691,40.6945575 36.3632175,39.9225115 C36.9156597,39.1546163 37.7380957,38.7886554 38.6453631,38.6352147 C39.0740871,38.6166746 39.4625403,38.6354915 39.8778407,38.7517134 Z" id="Combined-Shape" fill="#F1F2F6"></path>
    </g>
</svg>