<?xml version="1.0" encoding="UTF-8"?>
<svg id="_图层_1" data-name="图层_1" xmlns="http://www.w3.org/2000/svg" xmlns:xlink="http://www.w3.org/1999/xlink" version="1.1" viewBox="0 0 1638 313.4">
  <!-- Generator: Adobe Illustrator 29.8.2, SVG Export Plug-In . SVG Version: 2.1.1 Build 3)  -->
  <defs>
    <style>
      .st0 {
        fill: url(#_未命名的渐变_2161);
      }

      .st1 {
        fill: url(#_未命名的渐变_216);
      }

      .st2 {
        fill: #fff;
      }
    </style>
    <linearGradient id="_未命名的渐变_216" data-name="未命名的渐变 216" x1="-17.9" y1="271.5" x2="268.1" y2="44.1" gradientUnits="userSpaceOnUse">
      <stop offset="0" stop-color="#eb4bc2"/>
      <stop offset="1" stop-color="#6facf9"/>
    </linearGradient>
    <linearGradient id="_未命名的渐变_2161" data-name="未命名的渐变 216" x1="-30.9" y1="255.2" x2="255.1" y2="27.8" xlink:href="#_未命名的渐变_216"/>
  </defs>
  <g>
    <polygon class="st1" points="170.4 178.2 183 178.2 225.2 135.6 225.2 59.4 174.7 9 25.4 9 68.6 59.4 157.5 59.4 174.5 76.4 174.5 118.9 157.8 135.6 133.8 135.6 110.3 135.6 79.3 135.6 173 244.9 173.1 244.9 173.1 253.9 144.4 253.9 186.9 304.3 227.6 304.3 227.6 284 227.6 253.9 227.6 244.9 170.4 178.2"/>
    <polygon class="st0" points="56.4 253.9 56.4 107.7 6 48.8 6 253.9 6 304.3 48.1 304.3 110.3 304.3 130 304.3 87.5 253.9 56.4 253.9"/>
  </g>
  <g>
    <path class="st2" d="M432.8,167.9c-1.5-.7-3.2-1.2-4.8-1.7,6.6-3.5,12-8.2,16-14.1,4.4-6.6,6.6-14.3,6.6-23.3,0-13.3-5.4-24-16.2-32.1-10.8-8.1-26.9-12.2-48.3-12.2h-83.3v170.4h88.1c22.4,0,39.4-4.1,50.9-12.3,11.5-8.2,17.3-19.6,17.3-34.2s-2.3-18.3-6.9-25.1c-4.6-6.8-11.1-12-19.4-15.5ZM381.2,114.2c9.6,0,16.9,1.7,22,5,5.1,3.3,7.7,8.3,7.7,15s-2.6,11.9-7.7,15.2c-5.1,3.3-12.5,5-22,5h-39.2v-40.2h39.2ZM411.3,220.2c-5.3,3.3-13,5-23.3,5h-46v-42.1h46c10.2,0,18,1.7,23.3,5.2,5.3,3.5,7.9,8.8,7.9,15.9s-2.6,12.6-7.9,15.9Z"/>
    <rect class="st2" x="486.4" y="74.3" width="38" height="180.7"/>
    <path class="st2" d="M659,130.6c-10.9-5.8-23.2-8.6-37-8.6s-26.3,2.9-37.1,8.6c-10.8,5.8-19.3,13.7-25.6,23.9-6.3,10.1-9.4,21.8-9.4,34.9s3.1,24.6,9.4,34.7c6.2,10.1,14.8,18.1,25.6,24,10.8,5.8,23.2,8.8,37.1,8.8s26.1-2.9,37-8.8c10.9-5.8,19.4-13.8,25.6-24,6.2-10.1,9.3-21.7,9.3-34.7s-3.1-25-9.3-35.1c-6.2-10.1-14.7-18-25.6-23.7ZM651,208.8c-2.9,5.4-6.9,9.6-11.9,12.5-5,2.9-10.7,4.4-17,4.4s-12-1.5-17-4.4c-5-2.9-9.1-7.1-12.1-12.5-3-5.4-4.5-11.9-4.5-19.4s1.5-14.1,4.5-19.5c3-5.4,7-9.5,12.1-12.4,5-2.9,10.7-4.4,17-4.4s12,1.5,17,4.4c5,2.9,9,7.1,11.9,12.4,2.9,5.4,4.4,11.9,4.4,19.5s-1.5,13.9-4.4,19.4Z"/>
    <path class="st2" d="M764.7,157.5c5.2-2.9,11-4.4,17.5-4.4s11.6,1.5,16.7,4.4,9.4,7.5,12.8,13.6l29.5-15.8c-4.9-10.7-12.4-19-22.6-24.7-10.2-5.8-22.2-8.6-36-8.6s-26.7,2.9-37.7,8.6c-11,5.8-19.7,13.7-25.9,23.9-6.3,10.1-9.4,21.8-9.4,34.9s3.1,24.6,9.4,34.8c6.2,10.2,14.9,18.2,25.9,24,11,5.8,23.6,8.6,37.7,8.6s25.8-2.9,36-8.6c10.2-5.8,17.8-13.9,22.6-24.5l-29.5-16.1c-3.4,6.3-7.7,10.9-12.8,13.8-5.1,2.8-10.7,4.3-16.7,4.3s-12.3-1.5-17.5-4.4c-5.2-2.9-9.3-7.1-12.3-12.4-3-5.4-4.5-11.8-4.5-19.5s1.5-14.1,4.5-19.5c3-5.4,7.1-9.5,12.3-12.4Z"/>
    <polygon class="st2" points="1000.9 123.9 955.6 123.9 900.1 176.6 900.1 74.3 862.1 74.3 862.1 254.9 900.1 254.9 900.1 221.7 918.4 203.6 959.7 254.9 1005.7 254.9 946.3 179.4 1000.9 123.9"/>
    <path class="st2" d="M1138.7,200.2c11-4.9,19.6-11.9,25.6-21.1,6-9.2,9-20.1,9-32.7s-3-23.9-9-33.1c-6-9.3-14.5-16.4-25.6-21.3-11-5-24.2-7.4-39.4-7.4h-73.8v170.4h39.4v-47.5h34.3c.6,0,1.2,0,1.8,0l32.7,47.5h42.6l-38.1-54.6c.1,0,.2,0,.3-.1ZM1124.3,124.4c6,5.2,9,12.5,9,21.9s-3,16.5-9,21.8c-6,5.3-15.1,7.9-27.3,7.9h-32.1v-59.4h32.1c12.2,0,21.3,2.6,27.3,7.8Z"/>
    <path class="st2" d="M1295.7,188.7c0,8-1.3,14.6-3.9,19.8-2.6,5.3-6.2,9.2-10.7,11.7-4.5,2.5-9.7,3.8-15.6,3.8-8.4,0-15-2.6-19.6-7.7-4.6-5.1-6.9-13.1-6.9-24v-68.4h-38v74c0,13.5,2.4,24.6,7.1,33.2,4.7,8.7,11.3,15.1,19.8,19.4,8.5,4.2,18.2,6.3,29.1,6.3s19.4-2.3,27.9-6.9c5-2.7,9.2-6.3,12.8-10.6v15.5h36V123.9h-38v64.8Z"/>
    <path class="st2" d="M1459.2,186.2c-4.6-2.7-9.8-4.7-15.5-6.2-5.7-1.5-11.3-2.6-16.9-3.3-5.6-.7-10.8-1.6-15.5-2.6-4.7-1-8.5-2.3-11.3-3.9s-4.3-4.1-4.3-7.3,1.9-6.5,5.8-8.8c3.9-2.3,10.1-3.4,18.5-3.4s12.2.7,18.6,2.1c6.4,1.4,12.8,3.9,19.1,7.7l12.7-27c-6.2-3.7-13.9-6.6-23.1-8.5-9.3-1.9-18.3-2.9-27.3-2.9-12.7,0-23.5,1.8-32.6,5.5-9.1,3.6-16,8.6-20.8,15-4.8,6.3-7.2,13.6-7.2,21.9s1.4,13.6,4.3,18.3c2.8,4.7,6.6,8.4,11.3,11.2,4.7,2.8,9.9,4.8,15.6,6.2,5.7,1.4,11.3,2.5,16.9,3.3,5.6.8,10.8,1.6,15.5,2.4,4.7.8,8.5,2,11.3,3.5,2.8,1.5,4.3,3.9,4.3,6.9s-1.8,6.7-5.5,8.8c-3.7,2.1-9.9,3.2-18.6,3.2s-16-1.2-24.2-3.5c-8.2-2.3-15.3-5.4-21.3-9.1l-12.7,27.3c6,4.1,14.2,7.4,24.5,10.1,10.3,2.7,21.1,4,32.3,4s24.3-1.8,33.5-5.4c9.2-3.6,16.2-8.5,21.1-14.7,4.9-6.2,7.3-13.4,7.3-21.5s-1.5-13.5-4.4-18.1c-2.9-4.6-6.7-8.3-11.3-11Z"/>
    <path class="st2" d="M1625.1,147.2c-4.7-8.5-11.2-14.9-19.4-19-8.2-4.1-17.5-6.2-27.9-6.2s-21.2,2.4-29.9,7.1c-4.4,2.4-8.3,5.3-11.7,8.7v-63.4h-38v180.7h38v-64.8c0-8.1,1.3-14.8,4-20,2.7-5.2,6.4-9,11.2-11.6,4.8-2.5,10.2-3.8,16.2-3.8s15,2.5,19.6,7.5c4.6,5,6.9,12.8,6.9,23.4v69.1h38v-75c0-13.3-2.4-24.2-7.1-32.7Z"/>
  </g>
</svg>