<svg width="819" height="89" viewBox="0 0 819 89" fill="none" xmlns="http://www.w3.org/2000/svg">
<path d="M47.243 88.7774H27.5879V66.3514C27.5879 42.8528 46.7053 23.7368 70.2024 23.7368H78.0315V43.3919H70.2024C57.5428 43.3919 47.243 53.6917 47.243 66.3514V88.7774Z" fill="#0F58C7"/>
<path d="M8.35322 43.3919H0.52417V23.7368H8.35322C21.0128 23.7368 31.3126 13.437 31.3126 0.777344H50.9677C50.9677 24.2759 31.8503 43.3919 8.35322 43.3919Z" fill="#0F58C7"/>
<path d="M146.484 84.7773V15.7671H121.838V4.53287H183.511V15.7671H158.865V84.7773H146.484ZM189.001 84.7773V4.53287H222.704C227.672 4.53287 232.028 5.41174 235.772 7.16948C239.594 8.85079 242.536 11.2963 244.599 14.5061C246.739 17.7159 247.809 21.5371 247.809 25.9696V27.2306C247.809 32.2745 246.586 36.325 244.141 39.3819C241.772 42.3624 238.868 44.4641 235.428 45.6868V47.521C238.333 47.6738 240.663 48.6673 242.421 50.5015C244.179 52.2592 245.058 54.8194 245.058 58.182V84.7773H232.563V59.9016C232.563 57.8381 232.028 56.195 230.958 54.9723C229.888 53.7495 228.168 53.1381 225.799 53.1381H201.382V84.7773H189.001ZM201.382 41.9039H221.328C225.761 41.9039 229.2 40.7957 231.646 38.5795C234.091 36.2868 235.314 33.1916 235.314 29.294V28.3769C235.314 24.4794 234.091 21.4224 231.646 19.2062C229.276 16.9134 225.837 15.7671 221.328 15.7671H201.382V41.9039ZM285.734 86.3822C279.391 86.3822 273.927 85.2359 269.342 82.9432C264.833 80.6505 261.317 77.3643 258.795 73.0846C256.35 68.7285 255.127 63.4552 255.127 57.265V4.53287H267.622V57.6089C267.622 63.2642 269.189 67.6203 272.322 70.6772C275.456 73.7342 279.926 75.2626 285.734 75.2626C291.543 75.2626 296.013 73.7342 299.147 70.6772C302.28 67.6203 303.847 63.2642 303.847 57.6089V4.53287H316.227V57.265C316.227 63.4552 315.005 68.7285 312.559 73.0846C310.113 77.3643 306.598 80.6505 302.013 82.9432C297.427 85.2359 292.001 86.3822 285.734 86.3822ZM326.653 84.7773V4.53287H376.175V15.7671H339.033V38.9234H373.195V50.1576H339.033V84.7773H326.653ZM381.324 86.3822C378.649 86.3822 376.395 85.5034 374.56 83.7456C372.803 81.9879 371.924 79.7334 371.924 76.9822C371.924 74.2309 372.803 72.0147 374.56 70.3333C376.395 68.5756 378.649 67.6967 381.324 67.6967C383.999 67.6967 386.215 68.5756 387.973 70.3333C389.807 72.0911 390.724 74.3074 390.724 76.9822C390.724 79.7334 389.807 81.9879 387.973 83.7456C386.215 85.5034 383.999 86.3822 381.324 86.3822ZM405.898 84.7773V28.2623H417.476V36.7453H419.31C420.38 34.4526 422.291 32.3127 425.042 30.3257C427.793 28.3387 431.882 27.3452 437.308 27.3452C441.588 27.3452 445.37 28.3005 448.657 30.2111C452.019 32.1217 454.656 34.8347 456.566 38.3502C458.477 41.7892 459.432 45.9543 459.432 50.8454V84.7773H447.625V51.7625C447.625 46.8714 446.402 43.2795 443.957 40.9868C441.511 38.6177 438.148 37.4331 433.869 37.4331C428.978 37.4331 425.042 39.038 422.061 42.2478C419.157 45.4576 417.705 50.1194 417.705 56.2332V84.7773H405.898ZM496.601 86.3822C490.869 86.3822 485.863 85.1977 481.584 82.8285C477.304 80.383 473.941 76.9822 471.496 72.626C469.127 68.1935 467.942 63.0731 467.942 57.265V55.8893C467.942 50.0047 469.127 44.8844 471.496 40.5283C473.865 36.0957 477.151 32.6949 481.354 30.3257C485.634 27.8802 490.563 26.6574 496.142 26.6574C501.568 26.6574 506.307 27.8802 510.357 30.3257C514.484 32.6949 517.694 36.0193 519.986 40.299C522.279 44.5787 523.426 49.5844 523.426 55.3162V59.7869H479.979C480.132 64.7544 481.775 68.7284 484.908 71.709C488.118 74.613 492.092 76.0651 496.83 76.0651C501.263 76.0651 504.587 75.0716 506.803 73.0846C509.096 71.0976 510.854 68.8049 512.077 66.2065L521.821 71.2504C520.751 73.3903 519.184 75.6448 517.121 78.0139C515.134 80.383 512.497 82.37 509.211 83.9749C505.925 85.5798 501.721 86.3822 496.601 86.3822ZM480.093 50.7308H511.389C511.083 46.4511 509.555 43.1266 506.803 40.7575C504.052 38.312 500.46 37.0892 496.028 37.0892C491.595 37.0892 487.965 38.312 485.137 40.7575C482.386 43.1266 480.705 46.4511 480.093 50.7308ZM550.987 84.7773C547.548 84.7773 544.797 83.7456 542.733 81.6822C540.746 79.6188 539.753 76.8675 539.753 73.4285V38.2356H524.163V28.2623H539.753V9.57682H551.56V28.2623H568.412V38.2356H551.56V71.3651C551.56 73.6578 552.63 74.8041 554.77 74.8041H566.578V84.7773H550.987ZM582.742 84.7773L573.113 28.2623H584.92L592.027 76.8675H593.862L603.72 28.2623H622.864L632.608 76.8675H634.442L641.55 28.2623H653.357L643.728 84.7773H623.896L614.152 36.2868H612.318L602.574 84.7773H582.742ZM687.419 86.3822C681.764 86.3822 676.72 85.2359 672.287 82.9432C667.931 80.5741 664.492 77.2114 661.97 72.8553C659.448 68.4992 658.187 63.3406 658.187 57.3796V55.6601C658.187 49.699 659.448 44.5787 661.97 40.299C664.492 35.9429 667.931 32.5802 672.287 30.2111C676.72 27.842 681.764 26.6574 687.419 26.6574C693.074 26.6574 698.118 27.842 702.551 30.2111C706.983 32.5802 710.461 35.9429 712.982 40.299C715.504 44.5787 716.765 49.699 716.765 55.6601V57.3796C716.765 63.3406 715.504 68.4992 712.982 72.8553C710.461 77.2114 706.983 80.5741 702.551 82.9432C698.118 85.2359 693.074 86.3822 687.419 86.3822ZM687.419 75.8358C692.616 75.8358 696.819 74.1927 700.029 70.9065C703.315 67.5439 704.958 62.9203 704.958 57.0357V56.004C704.958 50.1194 703.353 45.534 700.143 42.2478C696.934 38.8852 692.692 37.2038 687.419 37.2038C682.299 37.2038 678.095 38.8852 674.809 42.2478C671.599 45.534 669.994 50.1194 669.994 56.004V57.0357C669.994 62.9203 671.599 67.5439 674.809 70.9065C678.095 74.1927 682.299 75.8358 687.419 75.8358ZM725.734 84.7773V28.2623H737.312V34.9111H739.146C740.063 32.542 741.515 30.8225 743.502 29.7526C745.566 28.6062 748.088 28.033 751.068 28.033H757.832V38.6941H750.61C746.788 38.6941 743.655 39.764 741.21 41.9039C738.764 43.9673 737.541 47.1771 737.541 51.5332V84.7773H725.734ZM764.334 84.7773V4.53287H776.141V50.2722H777.975L800.214 28.2623H815.919L787.375 55.6601L816.836 84.7773H801.246L777.975 61.2772H776.141V84.7773H764.334Z" fill="#F8FAFB"/>
</svg>
