<svg width="140" height="30" viewBox="0 0 140 30" fill="none" xmlns="http://www.w3.org/2000/svg">
<path d="M10.7705 4C12.4466 4 13.8943 4.28606 15.1133 4.85742C16.3511 5.42878 17.475 6.25729 18.4844 7.34277L15.3701 10.3711C14.8368 9.76164 14.1989 9.2564 13.4561 8.85645C12.7133 8.43746 11.8273 8.22852 10.7988 8.22852C9.90377 8.22855 9.06596 8.38085 8.28516 8.68555C7.52338 8.99025 6.85651 9.42772 6.28516 9.99902C5.71378 10.5704 5.26617 11.2567 4.94238 12.0566C4.61871 12.8374 4.45703 13.7134 4.45703 14.6846C4.45704 15.6557 4.61873 16.5411 4.94238 17.3408C5.26612 18.1216 5.7139 18.7978 6.28516 19.3691C6.85654 19.9405 7.52331 20.3789 8.28516 20.6836C9.06595 20.9883 9.90379 21.1406 10.7988 21.1406C11.8845 21.1406 12.828 20.9214 13.6279 20.4834C14.4276 20.0454 15.1514 19.4173 15.7988 18.5986L18.9697 21.5977C16.8747 24.1116 14.1417 25.3691 10.7705 25.3691C9.24684 25.3691 7.82784 25.0924 6.51367 24.54C5.19961 23.9877 4.05722 23.2354 3.08594 22.2832C2.13364 21.3119 1.38046 20.1789 0.828125 18.8838C0.275883 17.5888 1.41462e-05 16.189 0 14.6846C0 13.1802 0.275925 11.7803 0.828125 10.4854C1.38046 9.19027 2.13364 8.06653 3.08594 7.11426C4.05727 6.14298 5.19953 5.38043 6.51367 4.82812C7.82782 4.27583 9.24686 4 10.7705 4ZM44.8643 10.4561C46.0261 10.4561 47.0458 10.6464 47.9219 11.0273C48.817 11.4082 49.56 11.9321 50.1504 12.5986C50.7408 13.2461 51.1875 14.018 51.4922 14.9131C51.7969 15.7891 51.9502 16.7318 51.9502 17.7412C51.9502 17.8935 51.9399 18.0459 51.9209 18.1982C51.9209 18.3506 51.9116 18.4844 51.8926 18.5986C51.8736 18.7318 51.8643 18.8555 51.8643 18.9697H41.5508C41.7603 19.8838 42.1884 20.5507 42.8359 20.9697C43.4835 21.3887 44.2079 21.5977 45.0078 21.5977C45.8075 21.5976 46.4644 21.4266 46.9785 21.084C47.5118 20.7412 47.9306 20.3028 48.2354 19.7695L51.7217 21.5127C51.036 22.7125 50.1305 23.6552 49.0068 24.3408C47.9022 25.0263 46.5592 25.3691 44.9785 25.3691C43.893 25.3691 42.8833 25.188 41.9502 24.8262C41.0361 24.4453 40.2364 23.9214 39.5508 23.2549C38.8651 22.5883 38.3321 21.8072 37.9512 20.9121C37.5703 19.9981 37.3799 18.9985 37.3799 17.9131C37.3799 16.9037 37.5703 15.9508 37.9512 15.0557C38.3321 14.1416 38.8559 13.3511 39.5225 12.6846C40.2081 11.999 40.9985 11.4566 41.8936 11.0566C42.8077 10.6567 43.7978 10.4561 44.8643 10.4561ZM61.2432 10.4561C62.8428 10.4561 64.2138 10.8091 65.3564 11.5137C66.5183 12.2184 67.3754 13.1898 67.9277 14.4277L63.9854 16.084C63.6807 15.5319 63.3091 15.122 62.8711 14.8555C62.4522 14.589 61.9095 14.4561 61.2432 14.4561C60.31 14.4561 59.5289 14.7701 58.9004 15.3984C58.2909 16.0079 57.9863 16.8465 57.9863 17.9131C57.9864 18.9794 58.291 19.8267 58.9004 20.4551C59.5289 21.0645 60.3099 21.3691 61.2432 21.3691C61.9096 21.3691 62.481 21.227 62.957 20.9414C63.4332 20.6367 63.8334 20.1983 64.1572 19.627L68.0996 21.3408C67.414 22.5978 66.4992 23.5878 65.3564 24.3115C64.2328 25.0161 62.8619 25.3691 61.2432 25.3691C60.1576 25.3691 59.148 25.188 58.2148 24.8262C57.3006 24.4453 56.5001 23.9307 55.8145 23.2832C55.148 22.6167 54.624 21.8261 54.2432 20.9121C53.8814 19.9981 53.7012 18.9984 53.7012 17.9131C53.7012 16.8276 53.8813 15.8272 54.2432 14.9131C54.6241 13.999 55.1479 13.2178 55.8145 12.5703C56.5001 11.9037 57.3006 11.3892 58.2148 11.0273C59.148 10.6465 60.1577 10.4561 61.2432 10.4561ZM91.6582 10.4561C93.9436 10.4561 95.6673 10.9706 96.8291 11.999C97.9909 13.0084 98.5722 14.5511 98.5723 16.627V24.9121H94.2861V23.6553H94.001C93.5439 24.1504 93.02 24.5601 92.4297 24.8838C91.8583 25.2075 91.1153 25.3691 90.2012 25.3691C89.4965 25.3691 88.8297 25.2549 88.2012 25.0264C87.5918 24.7978 87.0493 24.4736 86.5732 24.0547C86.1162 23.6357 85.7539 23.1313 85.4873 22.541C85.2207 21.9506 85.0869 21.2931 85.0869 20.5693C85.0869 19.8647 85.23 19.2266 85.5156 18.6553C85.8013 18.0649 86.1923 17.5606 86.6875 17.1416C87.1826 16.7227 87.7632 16.3985 88.4297 16.1699C89.1153 15.9414 89.8583 15.8272 90.6582 15.8271C91.5153 15.8271 92.2201 15.8848 92.7725 15.999C93.3436 16.1133 93.8482 16.2462 94.2861 16.3984V16.0273C94.2861 15.418 94.0298 14.9033 93.5156 14.4844C93.0204 14.0463 92.3434 13.8271 91.4863 13.8271C90.2485 13.8273 89.1822 14.3325 88.2871 15.3418L85.373 13.2852C86.173 12.3329 87.097 11.628 88.1445 11.1709C89.2111 10.6948 90.3822 10.4561 91.6582 10.4561ZM105.824 10.4561L105.539 12.4561H105.824C106.148 11.9039 106.643 11.4375 107.31 11.0566C107.995 10.6567 108.853 10.4561 109.881 10.4561C110.776 10.4561 111.633 10.6373 112.452 10.999C113.271 11.3608 113.985 11.8755 114.595 12.542C115.223 13.1895 115.719 13.9706 116.081 14.8848C116.443 15.7989 116.624 16.8086 116.624 17.9131C116.624 19.0176 116.443 20.0273 116.081 20.9414C115.719 21.8555 115.223 22.646 114.595 23.3125C113.985 23.9598 113.271 24.4644 112.452 24.8262C111.633 25.188 110.776 25.3691 109.881 25.3691C108.853 25.3691 107.995 25.1787 107.31 24.7979C106.643 24.3979 106.148 23.9214 105.824 23.3691H105.539V24.9121H101.539V4.45703H105.824V10.4561ZM132.915 10.4561C134.077 10.4561 135.096 10.6466 135.972 11.0273C136.867 11.4082 137.61 11.9322 138.2 12.5986C138.791 13.2462 139.238 14.018 139.543 14.9131C139.848 15.7891 140 16.7318 140 17.7412C140 17.8935 139.991 18.0459 139.972 18.1982C139.972 18.3506 139.962 18.4844 139.943 18.5986C139.924 18.7319 139.914 18.8555 139.914 18.9697H129.602C129.811 19.8839 130.239 20.5507 130.887 20.9697C131.534 21.3886 132.258 21.5976 133.058 21.5977C133.858 21.5977 134.515 21.4268 135.029 21.084C135.563 20.7412 135.981 20.3028 136.286 19.7695L139.771 21.5127C139.086 22.7124 138.181 23.6553 137.058 24.3408C135.953 25.0264 134.61 25.3691 133.029 25.3691C131.944 25.3691 130.934 25.188 130.001 24.8262C129.087 24.4453 128.287 23.9214 127.602 23.2549C126.916 22.5883 126.382 21.8072 126.001 20.9121C125.62 19.9981 125.43 18.9984 125.43 17.9131C125.43 16.9037 125.62 15.9508 126.001 15.0557C126.382 14.1416 126.906 13.3511 127.572 12.6846C128.258 11.9989 129.049 11.4566 129.944 11.0566C130.858 10.6568 131.849 10.4561 132.915 10.4561ZM25.6133 9.82812L25.3281 12.6846H25.6133C26.0513 11.999 26.6327 11.4566 27.3564 11.0566C28.0801 10.6568 28.8994 10.4561 29.8135 10.4561C31.5845 10.4562 32.9081 10.9902 33.7842 12.0566C34.6602 13.1232 35.0986 14.6278 35.0986 16.5703V24.9121H30.8125V17.0557C30.8125 16.2941 30.6321 15.6753 30.2705 15.1992C29.9087 14.7041 29.3466 14.4561 28.585 14.4561C27.6136 14.4561 26.8707 14.8276 26.3564 15.5703C25.8612 16.3131 25.6133 17.2845 25.6133 18.4844V24.9121H21.3281V4.45703H25.6133V9.82812ZM74.6602 14.8564H74.9463L78.9463 10.9141H84.1738V11.1992L79.1172 16.0557L84.6885 24.626V24.9121H79.6602L76.0889 18.998L74.6602 20.3691V24.9121H70.375V4.45703H74.6602V14.8564ZM123.178 24.9121H118.893V4.45703H123.178V24.9121ZM91.6582 18.8555C90.8966 18.8555 90.3253 19.0172 89.9443 19.3408C89.5634 19.6455 89.373 20.0458 89.373 20.541C89.3731 21.0361 89.5532 21.4365 89.915 21.7412C90.2769 22.0269 90.7534 22.1689 91.3438 22.1689C91.8198 22.1689 92.2388 22.0927 92.6006 21.9404C92.9814 21.7691 93.2964 21.5507 93.5439 21.2842C93.7915 21.0176 93.9726 20.7221 94.0869 20.3984C94.2202 20.0557 94.2861 19.7222 94.2861 19.3984C93.8482 19.2271 93.4105 19.0932 92.9727 18.998C92.5536 18.9028 92.1153 18.8555 91.6582 18.8555ZM108.938 14.4561C108.481 14.4561 108.043 14.5415 107.624 14.7129C107.224 14.8652 106.863 15.0939 106.539 15.3984C106.234 15.7032 105.986 16.0654 105.796 16.4844C105.624 16.9034 105.539 17.3798 105.539 17.9131C105.539 18.4462 105.625 18.9322 105.796 19.3701C105.986 19.789 106.234 20.1504 106.539 20.4551C106.863 20.7406 107.224 20.9693 107.624 21.1406C108.043 21.293 108.481 21.3691 108.938 21.3691C109.395 21.3691 109.824 21.2929 110.224 21.1406C110.643 20.9692 111.005 20.7408 111.31 20.4551C111.633 20.1504 111.881 19.789 112.053 19.3701C112.243 18.9322 112.338 18.4462 112.338 17.9131C112.338 17.3799 112.243 16.9034 112.053 16.4844C111.881 16.0654 111.633 15.7032 111.31 15.3984C111.005 15.0938 110.643 14.8652 110.224 14.7129C109.824 14.5416 109.395 14.4561 108.938 14.4561ZM44.8643 13.8271C44.1979 13.8272 43.579 14.0177 43.0078 14.3984C42.4365 14.7793 42.0176 15.3321 41.751 16.0557H47.9219C47.8838 15.8272 47.788 15.58 47.6357 15.3135C47.5024 15.0469 47.3028 14.8081 47.0361 14.5986C46.7885 14.3701 46.4737 14.189 46.0928 14.0557C45.731 13.9034 45.3212 13.8271 44.8643 13.8271ZM132.915 13.8271C132.248 13.8272 131.629 14.0175 131.058 14.3984C130.486 14.7793 130.067 15.332 129.801 16.0557H135.972C135.934 15.8273 135.839 15.5799 135.687 15.3135C135.553 15.0468 135.353 14.8081 135.086 14.5986C134.838 14.3702 134.524 14.1889 134.144 14.0557C133.782 13.9033 133.372 13.8271 132.915 13.8271Z" fill="white"/>
</svg>
