<svg width="239" height="65" viewBox="0 0 239 65" fill="none" xmlns="http://www.w3.org/2000/svg">
<g clip-path="url(#clip0_230_2055)">
<mask id="mask0_230_2055" style="mask-type:luminance" maskUnits="userSpaceOnUse" x="0" y="0" width="120" height="56">
<path d="M120 0H0V56H120V0Z" fill="white"/>
</mask>
<g mask="url(#mask0_230_2055)">
<path d="M10.875 52.7331C7.85416 52.7331 5.81248 52.1399 4.75 50.9538C3.70833 49.7483 3.18753 47.9108 3.18753 45.4415V18.1707H0.03125V10.2082H3.18753V0.933105H14.0625V10.2082H17.2188V18.1707H14.0625V42.9913C14.0625 43.7108 14.1875 44.2166 14.4375 44.5082C14.6875 44.7998 15.1667 44.9457 15.875 44.9457C16.375 44.9457 16.8229 44.9065 17.2188 44.8289V51.9457C16.9688 52.0234 16.1875 52.1694 14.875 52.3829C13.5625 52.6166 12.2292 52.7331 10.875 52.7331ZM33.9376 52.7331C30.604 52.7331 27.948 52.15 25.9688 50.9829C23.9896 49.8166 22.5729 48.1344 21.7188 45.9373C20.8646 43.7399 20.4375 41.0956 20.4375 38.004V20.4166C20.4375 16.3525 21.6875 13.2804 24.1876 11.1998C26.6876 9.09977 30.1248 8.04959 34.5 8.04959C43.5 8.04959 48 12.1719 48 20.4166V23.5956C48 27.4457 47.9584 30.0318 47.8752 31.3538H31.6248V39.8124C31.6248 40.5901 31.6772 41.358 31.7812 42.1163C31.8856 42.8555 32.1144 43.4677 32.4688 43.9538C32.8436 44.4399 33.4376 44.6833 34.25 44.6833C35.4168 44.6833 36.146 44.2166 36.4376 43.2833C36.7292 42.3302 36.8752 41.0956 36.8752 39.5791V35.3791H48V37.858C48 41.1247 47.5624 43.8664 46.6876 46.0833C45.8332 48.2804 44.3752 49.9428 42.3124 51.0707C40.2708 52.1791 37.4792 52.7331 33.9376 52.7331ZM31.5624 26.1622H36.8752V20.2707C36.8752 18.6956 36.6668 17.5677 36.25 16.8871C35.8332 16.1871 35.2084 15.8373 34.3752 15.8373C33.4792 15.8373 32.7812 16.1677 32.2812 16.8289C31.802 17.4901 31.5624 18.6373 31.5624 20.2707V26.1622ZM60.5936 52.7331C57.9896 52.7331 56 52.1694 54.6248 51.0415C53.2708 49.9137 52.3436 48.3677 51.8436 46.404C51.3436 44.4399 51.0936 42.2137 51.0936 39.7247C51.0936 37.0609 51.3752 34.8833 51.9376 33.1913C52.5 31.4804 53.4584 30.0804 54.8124 28.9913C56.1876 27.9027 58.0728 26.9791 60.4688 26.2205L67.4064 24.004V19.5124C67.4064 17.1597 66.5832 15.9829 64.9376 15.9829C63.4376 15.9829 62.6876 16.936 62.6876 18.8415V21.4664H51.8124C51.7916 21.3108 51.7812 21.1163 51.7812 20.8833C51.7812 20.6302 51.7812 20.3483 51.7812 20.0373C51.7812 15.6816 52.8752 12.5998 55.0624 10.7913C57.2708 8.96351 60.7604 8.04959 65.5312 8.04959C68.0312 8.04959 70.2708 8.46772 72.25 9.30399C74.2292 10.1205 75.7916 11.336 76.9376 12.95C78.104 14.5635 78.6876 16.5567 78.6876 18.9289V52.2664H67.5624V47.0749C67.0208 48.9027 66.1248 50.3027 64.8752 51.2749C63.6248 52.247 62.198 52.7331 60.5936 52.7331ZM65 44.6247C65.9168 44.6247 66.5416 44.2652 66.8752 43.5457C67.2084 42.8263 67.3752 42.0483 67.3752 41.2124V29.0205C65.8332 29.604 64.6356 30.3428 63.7812 31.2373C62.9272 32.1124 62.5 33.4053 62.5 35.1163V40.7457C62.5 43.3318 63.3332 44.6247 65 44.6247ZM83 52.2664V0.933105H94.3752V52.2664H83Z" fill="white"/>
<path d="M108.534 52.9029C106.432 52.9029 104.628 52.1999 103.122 50.7947C101.616 49.3895 100.863 47.7058 100.863 45.7435C100.863 43.7816 101.616 42.0979 103.122 40.6927C104.628 39.2871 106.432 38.5845 108.534 38.5845C110.636 38.5845 112.44 39.2871 113.946 40.6927C115.451 42.0979 116.204 43.7816 116.204 45.7435C116.204 47.0431 115.849 48.2363 115.139 49.323C114.457 50.4102 113.534 51.2853 112.369 51.9483C111.232 52.5845 109.954 52.9029 108.534 52.9029Z" fill="white"/>
</g>
</g>
<path d="M132.068 53.4439C129.997 53.4439 128.121 52.9112 126.44 51.8459C124.771 50.7687 123.445 49.1884 122.462 47.1051C121.492 45.0099 121.006 42.4413 121.006 39.3991C121.006 36.2741 121.509 33.6759 122.516 31.6044C123.522 29.5211 124.859 27.9645 126.528 26.9347C128.209 25.893 130.05 25.3722 132.05 25.3722C133.577 25.3722 134.85 25.6326 135.868 26.1534C136.898 26.6624 137.726 27.3016 138.354 28.071C138.993 28.8286 139.478 29.5743 139.81 30.3082H140.04V16.6364H147.587V53H140.129V48.6321H139.81C139.455 49.3897 138.951 50.1413 138.3 50.8871C137.661 51.621 136.827 52.2306 135.797 52.7159C134.779 53.2012 133.536 53.4439 132.068 53.4439ZM134.465 47.4247C135.684 47.4247 136.714 47.0933 137.555 46.4304C138.407 45.7557 139.058 44.8146 139.508 43.6072C139.969 42.3999 140.2 40.9853 140.2 39.3636C140.2 37.742 139.975 36.3333 139.526 35.1378C139.076 33.9422 138.425 33.0189 137.572 32.3679C136.72 31.7169 135.684 31.3913 134.465 31.3913C133.222 31.3913 132.175 31.7287 131.322 32.4034C130.47 33.0781 129.825 34.0133 129.387 35.2088C128.949 36.4044 128.73 37.7893 128.73 39.3636C128.73 40.9498 128.949 42.3525 129.387 43.5717C129.837 44.7791 130.482 45.7261 131.322 46.4126C132.175 47.0874 133.222 47.4247 134.465 47.4247ZM163.628 53.5327C160.87 53.5327 158.485 52.9467 156.472 51.7749C154.472 50.5911 152.927 48.9458 151.838 46.8388C150.749 44.7199 150.205 42.2637 150.205 39.4702C150.205 36.6529 150.749 34.1908 151.838 32.0838C152.927 29.965 154.472 28.3196 156.472 27.1477C158.485 25.964 160.87 25.3722 163.628 25.3722C166.386 25.3722 168.765 25.964 170.766 27.1477C172.778 28.3196 174.329 29.965 175.418 32.0838C176.507 34.1908 177.051 36.6529 177.051 39.4702C177.051 42.2637 176.507 44.7199 175.418 46.8388C174.329 48.9458 172.778 50.5911 170.766 51.7749C168.765 52.9467 166.386 53.5327 163.628 53.5327ZM163.664 47.6733C164.918 47.6733 165.966 47.3182 166.806 46.608C167.647 45.8859 168.28 44.9034 168.706 43.6605C169.144 42.4176 169.363 41.0031 169.363 39.4169C169.363 37.8307 169.144 36.4162 168.706 35.1733C168.28 33.9304 167.647 32.9479 166.806 32.2259C165.966 31.5038 164.918 31.1428 163.664 31.1428C162.397 31.1428 161.332 31.5038 160.468 32.2259C159.615 32.9479 158.97 33.9304 158.532 35.1733C158.106 36.4162 157.893 37.8307 157.893 39.4169C157.893 41.0031 158.106 42.4176 158.532 43.6605C158.97 44.9034 159.615 45.8859 160.468 46.608C161.332 47.3182 162.397 47.6733 163.664 47.6733ZM191.792 53.5327C188.999 53.5327 186.596 52.9408 184.583 51.7571C182.583 50.5616 181.044 48.9044 179.967 46.7855C178.901 44.6667 178.369 42.2282 178.369 39.4702C178.369 36.6766 178.907 34.2263 179.985 32.1193C181.074 30.0005 182.618 28.3492 184.619 27.1655C186.619 25.9699 188.999 25.3722 191.757 25.3722C194.136 25.3722 196.219 25.8042 198.007 26.6683C199.794 27.5324 201.209 28.7457 202.25 30.3082C203.292 31.8707 203.866 33.7055 203.972 35.8125H196.835C196.633 34.4512 196.101 33.3563 195.237 32.5277C194.384 31.6873 193.266 31.267 191.881 31.267C190.709 31.267 189.685 31.5866 188.809 32.2259C187.945 32.8532 187.27 33.7706 186.785 34.978C186.3 36.1854 186.057 37.6473 186.057 39.3636C186.057 41.1037 186.294 42.5833 186.767 43.8026C187.253 45.0218 187.933 45.951 188.809 46.5902C189.685 47.2294 190.709 47.549 191.881 47.549C192.745 47.549 193.52 47.3714 194.207 47.0163C194.905 46.6612 195.479 46.1463 195.929 45.4716C196.391 44.785 196.693 43.9624 196.835 43.0036H203.972C203.854 45.0869 203.286 46.9216 202.268 48.5078C201.262 50.0821 199.871 51.3132 198.095 52.201C196.32 53.0888 194.219 53.5327 191.792 53.5327ZM229.007 33.5043L222.082 33.9304C221.964 33.3385 221.71 32.8059 221.319 32.3324C220.928 31.8471 220.413 31.4624 219.774 31.1783C219.147 30.8823 218.395 30.7344 217.519 30.7344C216.347 30.7344 215.359 30.983 214.554 31.4801C213.749 31.9654 213.347 32.6165 213.347 33.4332C213.347 34.0843 213.607 34.6347 214.128 35.0845C214.649 35.5343 215.542 35.8954 216.809 36.1676L221.745 37.1619C224.397 37.7064 226.373 38.5824 227.675 39.7898C228.978 40.9972 229.629 42.5833 229.629 44.5483C229.629 46.3357 229.102 47.9041 228.048 49.2536C227.007 50.603 225.574 51.6565 223.751 52.4141C221.94 53.1598 219.851 53.5327 217.484 53.5327C213.873 53.5327 210.997 52.781 208.854 51.2777C206.724 49.7625 205.475 47.7029 205.108 45.0987L212.548 44.7081C212.772 45.8089 213.317 46.6494 214.181 47.2294C215.045 47.7976 216.152 48.0817 217.501 48.0817C218.827 48.0817 219.893 47.8272 220.697 47.3182C221.514 46.7973 221.929 46.1286 221.94 45.3118C221.929 44.6252 221.638 44.063 221.07 43.625C220.502 43.1752 219.626 42.8319 218.442 42.5952L213.719 41.6541C211.056 41.1214 209.073 40.1982 207.771 38.8842C206.481 37.5703 205.836 35.8954 205.836 33.8594C205.836 32.1075 206.309 30.5982 207.256 29.3317C208.215 28.0651 209.559 27.0885 211.287 26.402C213.027 25.7154 215.063 25.3722 217.395 25.3722C220.839 25.3722 223.55 26.1001 225.527 27.5561C227.516 29.0121 228.676 30.9948 229.007 33.5043Z" fill="#61CCC0"/>
<defs>
<clipPath id="clip0_230_2055">
<rect width="120" height="56" fill="white"/>
</clipPath>
</defs>
</svg>
