<svg width="1194" height="148" viewBox="0 0 1194 148" fill="none" xmlns="http://www.w3.org/2000/svg">
<path d="M74.8128 40.0054C56.1087 40.0054 40.9392 55.1728 40.9392 73.879C40.9392 92.5852 56.1066 107.753 74.8128 107.753C93.519 107.753 108.686 92.5852 108.686 73.879C108.686 55.1728 93.517 40.0054 74.8128 40.0054Z" fill="white"/>
<path d="M23.591 64.352C25.4907 54.1824 30.4381 44.8213 37.9864 37.3457L38.1057 37.2285C38.2674 37.0708 38.429 36.9132 38.5907 36.7576C38.7443 36.6121 38.8979 36.4666 39.0515 36.321L39.201 36.1816C48.8532 27.2509 61.4217 22.3318 74.5925 22.3298H74.6026C87.7612 22.3298 100.324 27.2388 109.974 36.1513L110.154 36.319C110.299 36.4544 110.445 36.5919 110.588 36.7293C110.742 36.8768 110.895 37.0243 111.049 37.1759L111.192 37.3154C118.761 44.797 123.718 54.1683 125.622 64.35H148.162C147.857 61.9915 147.513 59.6553 146.982 57.3493L146.491 55.4557C145.583 51.9634 144.403 48.5035 142.982 45.175C139.242 36.4079 133.89 28.5362 127.067 21.774L127.037 21.7457C120.226 14.9836 112.294 9.67243 103.46 5.96191C100.103 4.55329 96.6171 3.38112 93.0965 2.48381L91.1887 1.99675C85.7846 0.772037 80.2148 0.228394 74.6046 0.228394H74.5884C68.9499 0.228394 63.3538 0.780121 57.9234 2.01696L56.0136 2.50604C52.5112 3.40537 49.0452 4.57148 45.7106 5.97404C36.8789 9.68657 28.9486 14.9997 22.142 21.766C21.7176 22.1883 21.2871 22.6269 20.8647 23.0654C14.6441 29.5346 9.71495 36.9799 6.21259 45.1972C4.79184 48.5278 3.61361 51.9897 2.70821 55.484L2.21711 57.3776C1.68964 59.6755 1.34809 62.0036 1.04494 64.352H23.591Z" fill="white"/>
<path d="M148.215 82.8724H125.691C124.06 91.9506 119.988 100.495 113.824 107.565L113.801 107.591C113.628 107.789 113.452 107.987 113.278 108.181C113.161 108.31 113.044 108.44 112.922 108.569C112.852 108.646 112.779 108.725 112.708 108.8C107.89 113.961 102.179 118.025 95.738 120.883C89.0707 123.84 81.963 125.341 74.6106 125.343H74.6005C61.1105 125.343 48.3157 120.218 38.5806 110.913C38.4573 110.796 38.3361 110.677 38.2128 110.558L37.9804 110.331C30.3209 102.743 25.3412 93.2158 23.5041 82.8744H0.986328C1.29756 85.4087 1.66336 87.9208 2.23529 90.3965L2.72841 92.2922C3.63381 95.7683 4.81002 99.208 6.22269 102.518C9.96352 111.283 15.3171 119.155 22.1339 125.911C22.4714 126.245 22.8331 126.596 23.2737 127.015C29.8338 133.268 37.3923 138.217 45.7409 141.723C49.0756 143.124 52.5395 144.288 56.0419 145.185L57.9517 145.674C63.378 146.909 68.9701 147.457 74.6026 147.457H74.6167C80.233 147.457 85.8069 146.909 91.215 145.682L93.1228 145.193C96.6413 144.294 100.126 143.122 103.48 141.711C112.292 138.007 120.206 132.712 127.003 125.97L127.12 125.873L127.156 125.818C133.937 119.074 139.264 111.225 142.988 102.488C144.399 99.1777 145.573 95.7379 146.477 92.2639L146.97 90.3682C147.54 87.9006 147.901 85.3986 148.213 82.8724H148.215Z" fill="white"/>
<path d="M186.417 45.3893V27.0835H265.241V45.3893H236.963V120.343H214.741V45.3893H186.417Z" fill="white"/>
<path d="M273.685 120.343V27.0835H312.209C319.191 27.0835 325.217 28.3434 330.287 30.8631C335.387 33.3524 339.318 36.9346 342.081 41.6097C344.843 46.2545 346.225 51.7644 346.225 58.1395C346.225 64.6057 344.813 70.1005 341.99 74.6238C339.167 79.1168 335.159 82.5472 329.968 84.9151C324.777 87.2526 318.63 88.4214 311.526 88.4214H287.164V70.6621H307.336C310.737 70.6621 313.575 70.2219 315.852 69.3416C318.159 68.4308 319.905 67.0647 321.088 65.2433C322.272 63.3914 322.864 61.0235 322.864 58.1395C322.864 55.2556 322.272 52.8725 321.088 50.9903C319.905 49.0777 318.159 47.6509 315.852 46.7098C313.545 45.7384 310.706 45.2527 307.336 45.2527H296.225V120.343H273.685ZM326.189 77.7203L349.412 120.343H324.822L302.054 77.7203H326.189Z" fill="white"/>
<path d="M412.443 27.0835H434.938V87.2375C434.938 94.1894 433.284 100.246 429.975 105.407C426.666 110.537 422.051 114.514 416.132 117.337C410.212 120.13 403.336 121.527 395.504 121.527C387.58 121.527 380.659 120.13 374.739 117.337C368.819 114.514 364.22 110.537 360.941 105.407C357.663 100.246 356.023 94.1894 356.023 87.2375V27.0835H378.564V85.2794C378.564 88.4973 379.262 91.3661 380.659 93.8858C382.085 96.4055 384.074 98.3788 386.624 99.8056C389.174 101.232 392.134 101.946 395.504 101.946C398.873 101.946 401.818 101.232 404.338 99.8056C406.888 98.3788 408.876 96.4055 410.303 93.8858C411.73 91.3661 412.443 88.4973 412.443 85.2794V27.0835Z" fill="white"/>
<path d="M446.501 120.343V27.0835H510.162V45.3893H469.042V64.5147H506.109V82.8659H469.042V120.343H446.501Z" fill="white"/>
<path d="M527.087 121.663C523.808 121.663 521 120.51 518.662 118.202C516.355 115.895 515.217 113.102 515.247 109.824C515.217 106.606 516.355 103.858 518.662 101.582C521 99.2743 523.808 98.1207 527.087 98.1207C530.183 98.1207 532.915 99.2743 535.283 101.582C537.682 103.858 538.896 106.606 538.926 109.824C538.896 112.009 538.319 113.998 537.196 115.789C536.103 117.58 534.661 119.007 532.87 120.069C531.109 121.132 529.181 121.663 527.087 121.663Z" fill="white"/>
<path d="M630.44 27.0835V120.343H611.315L574.203 66.5183H573.611V120.343H551.07V27.0835H570.469L607.171 80.8168H607.945V27.0835H630.44Z" fill="white"/>
<path d="M642.049 120.343V27.0835H707.075V45.3893H664.59V64.5147H703.751V82.8659H664.59V102.037H707.075V120.343H642.049Z" fill="white"/>
<path d="M715.576 45.3893V27.0835H794.4V45.3893H766.122V120.343H743.9V45.3893H715.576Z" fill="white"/>
<path d="M825.202 120.343L798.063 27.0835H822.971L837.042 88.1937H837.816L853.891 27.0835H874.2L890.274 88.3303H891.048L905.165 27.0835H930.028L902.933 120.343H881.212L864.409 63.7861H863.681L846.878 120.343H825.202Z" fill="white"/>
<path d="M1019.29 73.7131C1019.29 83.974 1017.31 92.6715 1013.37 99.8056C1009.42 106.94 1004.08 112.359 997.339 116.062C990.63 119.766 983.101 121.618 974.753 121.618C966.374 121.618 958.83 119.751 952.121 116.017C945.412 112.283 940.084 106.864 936.138 99.76C932.222 92.626 930.264 83.9436 930.264 73.7131C930.264 63.4521 932.222 54.7547 936.138 47.6206C940.084 40.4865 945.412 35.0676 952.121 31.364C958.83 27.6603 966.374 25.8085 974.753 25.8085C983.101 25.8085 990.63 27.6603 997.339 31.364C1004.08 35.0676 1009.42 40.4865 1013.37 47.6206C1017.31 54.7547 1019.29 63.4521 1019.29 73.7131ZM996.246 73.7131C996.246 67.6415 995.381 62.5111 993.651 58.3217C991.951 54.1323 989.492 50.9599 986.274 48.8045C983.086 46.6491 979.246 45.5714 974.753 45.5714C970.29 45.5714 966.45 46.6491 963.232 48.8045C960.014 50.9599 957.54 54.1323 955.81 58.3217C954.11 62.5111 953.26 67.6415 953.26 73.7131C953.26 79.7846 954.11 84.9151 955.81 89.1045C957.54 93.2938 960.014 96.4662 963.232 98.6216C966.45 100.777 970.29 101.855 974.753 101.855C979.246 101.855 983.086 100.777 986.274 98.6216C989.492 96.4662 991.951 93.2938 993.651 89.1045C995.381 84.9151 996.246 79.7846 996.246 73.7131Z" fill="white"/>
<path d="M1029.88 120.343V27.0835H1068.41C1075.39 27.0835 1081.42 28.3434 1086.49 30.8631C1091.59 33.3524 1095.52 36.9346 1098.28 41.6097C1101.04 46.2545 1102.42 51.7644 1102.42 58.1395C1102.42 64.6057 1101.01 70.1005 1098.19 74.6238C1095.36 79.1168 1091.36 82.5472 1086.17 84.9151C1080.98 87.2526 1074.83 88.4214 1067.72 88.4214H1043.36V70.6621H1063.53C1066.93 70.6621 1069.77 70.2219 1072.05 69.3416C1074.36 68.4308 1076.1 67.0647 1077.29 65.2433C1078.47 63.3914 1079.06 61.0235 1079.06 58.1395C1079.06 55.2556 1078.47 52.8725 1077.29 50.9903C1076.1 49.0777 1074.36 47.6509 1072.05 46.7098C1069.74 45.7384 1066.9 45.2527 1063.53 45.2527H1052.42V120.343H1029.88ZM1082.39 77.7203L1105.61 120.343H1081.02L1058.25 77.7203H1082.39Z" fill="white"/>
<path d="M1112.22 120.343V27.0835H1134.76V66.5183H1135.99L1166.82 27.0835H1193.37L1160.31 68.704L1193.96 120.343H1167L1143.78 83.6856L1134.76 95.0698V120.343H1112.22Z" fill="white"/>
</svg>
