<svg width="1682" height="367" viewBox="0 0 1682 367" fill="none" xmlns="http://www.w3.org/2000/svg">
<path d="M1562.69 366.037H1506.17L1546 276.14L1466.34 97.1046H1523.24L1569.66 209.337C1571.28 213.26 1576.84 213.253 1578.45 209.325L1624.52 97.1046H1681.79L1562.69 366.037Z" fill="white"/>
<path d="M1391.02 286.761V142.622H1352.71V97.1041H1391.02V72.4488C1391.02 49.9429 1397.85 32.2416 1411.5 19.345C1425.16 6.44832 1442.48 0 1463.47 0C1476.37 0 1487.37 1.39081 1496.47 4.17244V50.0693C1490.4 47.7934 1483.32 46.6555 1475.23 46.6555C1463.85 46.6555 1455.63 49.1843 1450.57 54.2418C1445.51 59.0464 1442.99 67.2648 1442.99 78.8971V97.1041H1496.47V142.622H1442.99V286.761H1391.02Z" fill="white"/>
<path d="M1306.22 66.0005C1297.37 66.0005 1289.66 62.8395 1283.08 56.5176C1276.51 49.9429 1273.22 42.1037 1273.22 33.0002C1273.22 23.8967 1276.51 16.184 1283.08 9.86215C1289.66 3.28738 1297.37 0 1306.22 0C1315.58 0 1323.42 3.28738 1329.74 9.86215C1336.31 16.184 1339.6 23.8967 1339.6 33.0002C1339.6 42.1037 1336.31 49.9429 1329.74 56.5176C1323.42 62.8395 1315.58 66.0005 1306.22 66.0005ZM1280.43 286.761V97.1041H1332.39V286.761H1280.43Z" fill="white"/>
<path d="M1189.94 286.761V2.27612H1241.91V286.761H1189.94Z" fill="white"/>
<path d="M1131.24 289.037C1110 289.037 1092.55 283.221 1078.89 271.588C1065.49 259.703 1058.79 242.634 1058.79 220.381V142.622H1020.48V97.1044H1058.79V44.3799H1110.76V97.1044H1164.24V142.622H1110.76V210.14C1110.76 221.772 1113.29 230.117 1118.34 235.174C1123.4 239.979 1131.62 242.381 1143 242.381C1151.09 242.381 1158.17 241.243 1164.24 238.967V284.864C1155.14 287.646 1144.14 289.037 1131.24 289.037Z" fill="white"/>
<path d="M825.979 286.761V97.1041H877.945V110.967C877.945 113.311 881.135 114.347 882.688 112.591C894.273 99.4847 910.773 92.9316 932.187 92.9316C954.946 92.9316 972.774 100.518 985.67 115.69C998.82 130.61 1005.39 150.587 1005.39 175.622V286.761H953.429V184.346C953.429 170.438 950.521 159.691 944.704 152.104C938.888 144.265 930.67 140.346 920.049 140.346C907.405 140.346 897.164 144.898 889.325 154.001C881.738 163.105 877.945 176.507 877.945 194.208V286.761H825.979Z" fill="white"/>
<path d="M761.286 66.0005C752.436 66.0005 744.723 62.8395 738.148 56.5176C731.574 49.9429 728.286 42.1037 728.286 33.0002C728.286 23.8967 731.574 16.184 738.148 9.86215C744.723 3.28738 752.436 0 761.286 0C770.643 0 778.482 3.28738 784.804 9.86215C791.379 16.184 794.666 23.8967 794.666 33.0002C794.666 42.1037 791.379 49.9429 784.804 56.5176C778.482 62.8395 770.643 66.0005 761.286 66.0005ZM735.493 286.761V97.1041H787.459V286.761H735.493Z" fill="white"/>
<path d="M647.273 286.761V185.484C647.273 155.392 637.411 140.346 617.686 140.346C606.307 140.346 597.204 144.645 590.376 153.242C583.801 161.84 580.261 174.61 579.755 191.553V286.761H527.789V185.484C527.789 155.392 517.927 140.346 498.203 140.346C486.571 140.346 477.341 144.898 470.513 154.001C463.685 163.105 460.272 176.507 460.272 194.208V286.761H408.306V97.1041H460.272V111.103C460.272 113.435 463.407 114.462 464.939 112.704C476.419 99.5223 491.68 92.9316 510.72 92.9316C535.742 92.9316 554.588 103.262 567.259 123.923C568.258 125.553 570.718 125.527 571.712 123.894C577.189 114.891 584.802 107.731 594.548 102.414C605.675 96.0926 616.928 92.9316 628.307 92.9316C650.813 92.9316 668.261 100.391 680.652 115.311C693.043 130.231 699.239 150.714 699.239 176.76V286.761H647.273Z" fill="white"/>
<path d="M331.569 124.833V22.0898C331.569 11.0646 322.625 2.27625 311.764 2.27625H209.069C192.938 2.27625 176.967 5.47186 162.113 11.5438C147.26 17.7754 133.685 26.7236 122.345 38.2283L121.546 39.0272C106.533 54.2069 95.8326 73.0617 90.4023 93.8339C100.145 91.2774 110.206 89.9991 120.268 89.8393C147.1 89.5197 173.453 98.1483 194.855 114.287C214.18 128.668 228.873 148.481 236.859 171.331C245.164 194.5 246.122 219.746 239.893 243.554C260.496 238.122 279.503 227.416 294.675 212.396L295.474 211.597C306.813 200.252 315.917 186.67 322.145 171.81C328.374 156.95 331.409 140.971 331.409 124.833H331.569Z" fill="#18E299"/>
<path d="M87.3368 123.098C87.4959 91.5794 100.066 61.3343 122.182 38.7301L36.739 124.212C36.4207 124.531 36.1024 124.69 35.7841 125.008C14.9405 145.702 2.37105 173.4 0.302602 202.69C-1.60673 230.07 5.55312 257.131 20.8278 279.736C22.2848 281.892 26.2381 282.601 28.4656 280.532L80.8131 228.319C97.2016 211.923 102.293 187.568 94.4968 165.759C89.5644 152.229 87.1777 137.743 87.3368 123.098Z" fill="#0C8C5E"/>
<path d="M294.976 211.605C278.587 227.683 258.062 238.826 235.786 243.761C213.351 248.695 190.121 247.263 168.482 239.622C168.482 239.622 168.323 239.622 168.164 239.622C146.365 231.822 122.022 236.916 105.633 253.153L53.285 305.365C51.0575 307.594 51.3757 311.255 54.0806 313.006C76.6744 328.129 103.724 335.451 131.091 333.541C160.368 331.472 187.894 318.896 208.737 298.043L209.533 297.247L294.976 211.765V211.605Z" fill="#0C8C5E"/>
</svg>
