<?xml version="1.0" encoding="UTF-8"?>
<svg version="1.1" xmlns="http://www.w3.org/2000/svg" width="1536" height="512">
<path d="M0 0 C168.96 0 337.92 0 512 0 C512 168.96 512 337.92 512 512 C343.04 512 174.08 512 0 512 C0 343.04 0 174.08 0 0 Z " fill="#2F3030" transform="translate(0,0)"/>
<path d="M0 0 C8.4340806 5.95071242 15.7212899 14.35641538 17.75390625 24.75 C19.15162354 37.52912955 17.74885094 48.37691312 9.88671875 58.77734375 C3.57932405 66.20779423 -3.36550413 70.48100733 -13 72 C-10.72781678 97.91807147 -7.81662695 123.59866637 -2 149 C16.83653303 140.69170422 34.6124905 130.4904798 51 118 C53.5090625 116.15019228 56.03404579 114.32317382 58.5625 112.5 C59.1716626 112.05366211 59.7808252 111.60732422 60.40844727 111.14746094 C64.77118472 108 64.77118472 108 67 108 C66.71125 107.28457031 66.4225 106.56914062 66.125 105.83203125 C62.11350264 95.06506092 61.27162127 85.26609422 65.7421875 74.49609375 C71.4377617 63.19338594 80.69756128 56.07497731 92.375 51.75 C103.50209796 49.4478418 114.29129167 51.75520083 123.9375 57.8125 C131.81105858 63.58452375 138.27496437 72.1899489 140 82 C140.99748354 95.45177796 139.74891831 105.77700787 130.6875 116.4375 C122.25507633 125.1203917 113.24351211 129.00618398 101.125 129.5 C91.34193915 129.28686142 83.92587336 125.45486578 76 120 C74.10060649 121.57920115 72.20563991 123.16332705 70.3125 124.75 C69.54583008 125.38615234 69.54583008 125.38615234 68.76367188 126.03515625 C57.54949916 135.45771558 47.08871009 145.7246625 36.73901367 156.07568359 C34.78126178 158.03120259 32.81556643 159.97851523 30.84960938 161.92578125 C29.59326356 163.17920011 28.33738584 164.43308838 27.08203125 165.6875 C26.20717827 166.55157471 26.20717827 166.55157471 25.31465149 167.43310547 C22.66675395 170.09613159 20.36713902 172.45911531 19 176 C19.85078125 176.2578125 20.7015625 176.515625 21.578125 176.78125 C24.51155061 177.82603172 27.15112006 179.04912533 29.89282227 180.51196289 C45.65942933 188.89995537 62.7244301 194.85580263 79.75 200.125 C80.69560791 200.42027588 81.64121582 200.71555176 82.61547852 201.01977539 C89.19821257 203.07152443 89.19821257 203.07152443 96 203 C97.62908152 201.32704332 97.62908152 201.32704332 98.6875 199 C103.42257235 191.14942313 111.61412614 185.67190456 120.2109375 182.62890625 C132.06498872 179.95593392 142.01685089 182.25400414 152.2734375 188.3515625 C160.91608268 194.27889387 166.72787007 202.77541529 169 213 C170.19655248 224.1496936 168.45960812 234.69929475 161.7890625 243.8671875 C155.00319257 251.9568927 147.39660953 256.88911344 137 259 C124.79576195 259.93052841 114.87731289 257.29989959 105 250 C97.39182157 243.38354911 93.21833171 234.21941351 92.1875 224.25 C92.10514294 222.83434891 92.03449972 221.41762494 92 220 C91.30777344 219.89042969 90.61554688 219.78085937 89.90234375 219.66796875 C84.31657335 218.76276485 78.78275882 217.75032393 73.25 216.5625 C53.63692106 212.63589781 33.96543569 211.42059402 14 211 C19.62618349 233.88833737 26.39192939 256.00107332 35.20654297 277.86816406 C35.57150879 278.7753418 35.93647461 279.68251953 36.3125 280.6171875 C36.63863281 281.41753418 36.96476563 282.21788086 37.30078125 283.04248047 C38 285 38 285 38 287 C38.66 286.67 39.32 286.34 40 286 C52.95227686 284.81213687 63.89689802 288.55542766 74.00390625 296.59375 C80.003381 302.08786943 84.47003939 309.84587815 85.17700195 318.05541992 C85.70651674 336.85003032 85.70651674 336.85003032 81 344 C80.443125 345.010625 79.88625 346.02125 79.3125 347.0625 C72.23631172 356.0511716 64.01440807 361.26666635 53 364 C40.35011971 365.17609698 30.91847341 363.17516913 21.10546875 355.046875 C13.26484282 347.42444831 9.03301064 339.06718085 8.65039062 328.17285156 C8.50262344 315.89112501 11.25625377 307.59168567 19 298 C19.5878125 297.53464844 20.175625 297.06929688 20.78125 296.58984375 C22.30735407 294.96887055 22.30735407 294.96887055 21.76538086 292.25976562 C20.95087084 288.79075836 19.76028164 286.32851896 17.97265625 283.25390625 C17.35052246 282.1769751 16.72838867 281.10004395 16.08740234 279.99047852 C15.41918457 278.85924561 14.7509668 277.7280127 14.0625 276.5625 C13.37173506 275.38152991 12.68114367 274.2004583 11.99072266 273.01928711 C7.36844497 265.14881773 2.5688301 257.44416849 -2.64453125 249.953125 C-4.27590329 247.60244482 -5.88812178 245.23908805 -7.5 242.875 C-10.65834159 238.24426278 -13.82608576 233.62007479 -17 229 C-19.31214239 231.16073449 -20.98224266 233.35450091 -22.64453125 236.04296875 C-23.14944092 236.85725342 -23.65435059 237.67153809 -24.17456055 238.51049805 C-24.98534058 239.83561401 -24.98534058 239.83561401 -25.8125 241.1875 C-26.38073486 242.11151611 -26.94896973 243.03553223 -27.53442383 243.98754883 C-33.63018594 253.94993244 -39.53522957 264.02117111 -45.35302734 274.14794922 C-46.94344748 276.90206841 -48.55732717 279.64119495 -50.17578125 282.37890625 C-51.11810599 284.00207129 -52.05956725 285.62573805 -53 287.25 C-53.43981201 287.9824292 -53.87962402 288.7148584 -54.33276367 289.46948242 C-56.56718171 293.14627196 -56.56718171 293.14627196 -56.45703125 297.265625 C-54.92756908 299.08621804 -53.35987136 300.80908794 -51.6875 302.5 C-44.10420206 311.14622882 -41.93594976 320.58859697 -42.52734375 331.8125 C-43.55362421 343.08872446 -48.6980334 351.51003013 -57 359 C-64.35185818 365.04162603 -73.94476933 367.71411118 -83.40625 367.33984375 C-94.29442237 365.9132308 -104.14425844 360.93874059 -111.13671875 352.38671875 C-118.22140149 341.88594161 -120.36716205 331.61995742 -119 319 C-116.12408844 307.70938425 -109.1144067 299.26439661 -99.2734375 293.21875 C-90.6814652 288.61274423 -81.49658066 287.47298027 -72 290 C-71.60296875 288.79859375 -71.2059375 287.5971875 -70.796875 286.359375 C-69.48595295 282.4204687 -68.13199622 278.49811773 -66.765625 274.578125 C-61.10311856 258.16809145 -56.47486679 241.83761707 -52.66015625 224.89550781 C-51.82866478 221.2485075 -50.92603867 217.62401671 -50 214 C-68.35091344 215.80495476 -86.59429791 217.8630599 -104.75 221.125 C-105.82287262 221.31681854 -105.82287262 221.31681854 -106.91741943 221.51251221 C-115.85932732 223.11548302 -115.85932732 223.11548302 -124.703125 225.1796875 C-128 226 -128 226 -132 226 C-131.9175 226.928125 -131.835 227.85625 -131.75 228.8125 C-131.78544862 237.58603398 -136.41191145 246.44545711 -142 253 C-152.03729646 262.40414603 -161.69122289 265.49002268 -175.3359375 265.33203125 C-185.78381334 264.38526212 -194.3164587 258.93002768 -201 251 C-208.06306195 239.5494963 -210.12717329 227.13610888 -207.3515625 213.91015625 C-203.35100638 203.08813904 -195.98259838 196.3696484 -186 191 C-185.34257812 190.63777344 -184.68515625 190.27554688 -184.0078125 189.90234375 C-175.63461211 186.0391719 -165.63484742 187.06537322 -157.1875 190.0625 C-146.45615066 194.74361107 -140.70666849 200.85277275 -135 211 C-108.43510543 206.07070369 -82.47690008 191.82990989 -59 179 C-60.71025466 175.33565049 -62.75997924 173.0654411 -65.6875 170.25 C-68.72632706 167.28053276 -71.65198671 164.32339246 -74.375 161.0625 C-78.65869232 156.06485896 -83.58313327 151.75949298 -88.47558594 147.37597656 C-89.90558112 146.08522499 -91.3167982 144.77375526 -92.7265625 143.4609375 C-97.82427313 138.72412674 -103.06513136 134.21728473 -108.5 129.875 C-109.09989746 129.38902344 -109.69979492 128.90304688 -110.31787109 128.40234375 C-113.73580877 125.61470194 -113.73580877 125.61470194 -118 125 C-120.15023224 126.02170133 -120.15023224 126.02170133 -122.375 127.375 C-131.91701408 132.98216291 -142.29723836 133.69672847 -153.12109375 131.3125 C-163.79300132 127.31677798 -172.4352275 119.35963019 -177.1875 109.0234375 C-181.24503812 98.91860698 -181.08554401 89.07320415 -177.328125 78.859375 C-172.71701757 68.93193195 -164.23360211 60.91284787 -154 57 C-143.53538694 54.29363455 -131.57921755 54.9681761 -122 60 C-112.44610608 65.63563027 -106.61270399 74.4129129 -103.4140625 84.92578125 C-101.50737412 94.47721079 -103.75744035 103.02505812 -107 112 C-106.26080322 112.27602051 -105.52160645 112.55204102 -104.76000977 112.83642578 C-102.21510283 113.90931622 -100.12829193 115.08652681 -97.83984375 116.6171875 C-97.05681885 117.13555176 -96.27379395 117.65391602 -95.46704102 118.18798828 C-94.63229248 118.74470215 -93.79754395 119.30141602 -92.9375 119.875 C-66.67984089 137.78554761 -66.67984089 137.78554761 -38 151 C-37.85304687 149.7934375 -37.85304687 149.7934375 -37.703125 148.5625 C-36.65970398 140.35905196 -35.38814155 132.21479307 -34 124.0625 C-31.07915225 106.75654391 -29.36281934 89.49316662 -28 72 C-28.67401855 71.8138916 -29.34803711 71.6277832 -30.04248047 71.43603516 C-30.93338379 71.18128418 -31.82428711 70.9265332 -32.7421875 70.6640625 C-33.62245605 70.4160791 -34.50272461 70.1680957 -35.40966797 69.91259766 C-39.6465048 68.41992131 -42.70917653 65.99948296 -46 63 C-47.03833984 62.07767578 -47.03833984 62.07767578 -48.09765625 61.13671875 C-55.50186861 53.78786499 -59.09761553 43.67492489 -59.5625 33.3125 C-58.92481312 22.00194841 -54.03962074 11.75254553 -45.86328125 3.96484375 C-43.65131206 2.14662824 -41.40720731 0.54866409 -39 -1 C-38.34773437 -1.43441406 -37.69546875 -1.86882812 -37.0234375 -2.31640625 C-25.98799967 -8.43063532 -10.48632366 -5.96827996 0 0 Z " fill="#A1C8E3" transform="translate(276,70)"/>
<path d="M0 0 C4.7278126 3.96798557 8.79288872 8.34644324 12.6875 13.125 C13.14769531 13.66382813 13.60789062 14.20265625 14.08203125 14.7578125 C18.6013253 20.46790466 21.04904779 27.40893983 23.6875 34.125 C24.08324219 35.13046875 24.47898437 36.1359375 24.88671875 37.171875 C34.31233008 63.10106602 32.52390244 97.55688831 21.0859375 122.63671875 C11.64328032 140.85371719 -1.64649389 155.77794009 -21.56176758 162.3347168 C-39.53461964 167.95961881 -60.52688095 168.91220727 -78.3125 162.125 C-79.72402344 161.61646484 -79.72402344 161.61646484 -81.1640625 161.09765625 C-86.87408111 158.78567465 -91.85009163 155.5792302 -96.875 152.0625 C-97.48351807 151.63888184 -98.09203613 151.21526367 -98.71899414 150.77880859 C-101.87701887 148.48426079 -103.72654682 146.66775113 -105.3125 143.125 C-106.3025 142.795 -107.2925 142.465 -108.3125 142.125 C-110.05387237 139.8641674 -111.63673687 137.63614532 -113.1875 135.25 C-113.63440186 134.56454102 -114.08130371 133.87908203 -114.54174805 133.17285156 C-130.73305271 107.9029461 -133.23470606 76.03260498 -127.33984375 47.0859375 C-122.69946309 26.5945082 -112.31450529 7.78792227 -94.3125 -3.875 C-64.83961624 -21.55541776 -27.66063021 -21.08075303 0 0 Z M-74.3125 30.125 C-74.95316406 30.71539062 -75.59382813 31.30578125 -76.25390625 31.9140625 C-88.10723485 44.6445824 -87.93935119 64.87662436 -87.6015625 81.125 C-87.20857224 91.66638584 -85.44803401 101.79268551 -80.3125 111.125 C-79.94253906 111.80949219 -79.57257813 112.49398437 -79.19140625 113.19921875 C-73.56813242 122.87862452 -66.80070794 127.62893069 -56.3125 131.125 C-47.78726498 131.79343102 -40.68751927 131.66457497 -33.3125 127.125 C-32.63832031 126.74730469 -31.96414063 126.36960937 -31.26953125 125.98046875 C-21.98239194 120.03454397 -16.87157978 109.04631767 -14.05859375 98.70703125 C-11.64703112 87.12900545 -10.78208759 75.88731251 -12.3125 64.125 C-12.43753906 62.95066406 -12.56257813 61.77632812 -12.69140625 60.56640625 C-13.5720952 53.1955951 -14.99178848 46.77738249 -18.3125 40.125 C-18.94478516 38.84302734 -18.94478516 38.84302734 -19.58984375 37.53515625 C-24.16418948 29.10872991 -30.99136902 22.92996465 -40.3125 20.125 C-43.42793654 19.67315877 -46.48003646 19.60084658 -49.625 19.625 C-50.46369629 19.62927002 -51.30239258 19.63354004 -52.16650391 19.63793945 C-61.60383674 19.89698554 -68.05840437 22.95118442 -74.3125 30.125 Z " fill="#FFFFFF" transform="translate(1232.3125,160.875)"/>
<path d="M0 0 C0.81463715 0.00045822 1.62927429 0.00091644 2.46859741 0.00138855 C4.18838968 0.00440732 5.9081793 0.01228243 7.62792969 0.0246582 C10.27027995 0.0429469 12.91228047 0.04516763 15.5546875 0.04492188 C17.22396138 0.04983592 18.89323288 0.05566374 20.5625 0.0625 C21.35725739 0.06361282 22.15201477 0.06472565 22.97085571 0.06587219 C28.5323789 0.11441015 28.5323789 0.11441015 29.6484375 1.23046875 C29.77224588 3.28525328 29.82641953 5.34425835 29.85375977 7.40258789 C29.86365936 8.04646957 29.87355896 8.69035126 29.88375854 9.35374451 C29.91545278 11.49100006 29.94016199 13.62827788 29.96484375 15.765625 C29.98540646 17.24393811 30.00640274 18.72224524 30.02781677 20.20054626 C30.08310809 24.09839046 30.13248607 27.99628833 30.18066406 31.89422607 C30.23964173 36.56737411 30.30590838 41.24042368 30.37096405 45.9134903 C30.46906237 53.01908984 30.55785743 60.12475146 30.6484375 67.23046875 C49.7884375 67.56046875 68.9284375 67.89046875 88.6484375 68.23046875 C88.6484375 46.12046875 88.6484375 24.01046875 88.6484375 1.23046875 C91.8564005 -0.37351275 95.34444028 0.08866097 98.8671875 0.09765625 C99.68086792 0.09669952 100.49454834 0.0957428 101.33288574 0.09475708 C103.05444415 0.09407612 104.77600511 0.09592458 106.49755859 0.10009766 C109.13775379 0.1054471 111.77777886 0.10014986 114.41796875 0.09375 C116.08854204 0.0944108 117.75911523 0.09569199 119.4296875 0.09765625 C120.22242065 0.09563202 121.01515381 0.09360779 121.83190918 0.09152222 C127.41851723 0.11550861 127.41851723 0.11550861 129.6484375 1.23046875 C129.67176408 23.89997834 129.68941549 46.56948595 129.70024967 69.23900509 C129.70541314 79.76407713 129.71245681 90.28914172 129.72387695 100.81420898 C129.73382223 109.98435472 129.74029055 119.15449507 129.74252599 128.32464606 C129.74383337 133.18332019 129.74692089 138.04197891 129.75416756 142.90064812 C129.76092532 147.46827449 129.76305496 152.03587901 129.76154518 156.6035099 C129.76182162 158.28498834 129.76382819 159.96646746 129.76764297 161.64794159 C129.77257642 163.93348889 129.7714371 166.21895233 129.76869202 168.50450134 C129.77007471 170.4278224 129.77007471 170.4278224 129.77148533 172.38999844 C129.6484375 175.23046875 129.6484375 175.23046875 128.6484375 176.23046875 C125.77579694 176.33153749 122.92770122 176.37016547 120.0546875 176.36328125 C118.7618988 176.36471634 118.7618988 176.36471634 117.44299316 176.36618042 C115.61710538 176.36686225 113.79121519 176.36500779 111.96533203 176.36083984 C109.16042672 176.35549161 106.35568155 176.36078474 103.55078125 176.3671875 C101.78124964 176.36652672 100.01171814 176.36524556 98.2421875 176.36328125 C97.39740845 176.36530548 96.55262939 176.36732971 95.68225098 176.36941528 C89.76338781 176.34541906 89.76338781 176.34541906 88.6484375 175.23046875 C88.55410765 173.02179044 88.53101319 170.81005354 88.53491211 168.59936523 C88.53476608 167.9067157 88.53462006 167.21406616 88.5344696 166.50042725 C88.53516876 164.20077429 88.54296122 161.90120138 88.55078125 159.6015625 C88.55264542 158.01115463 88.55406933 156.42074618 88.55506897 154.83033752 C88.55889421 150.63650945 88.56872455 146.4427158 88.57977295 142.24890137 C88.59178153 137.2212317 88.59638928 132.19355056 88.60222626 127.16587067 C88.61193631 119.52071273 88.63109279 111.87563037 88.6484375 104.23046875 C59.9384375 104.72546875 59.9384375 104.72546875 30.6484375 105.23046875 C30.3184375 128.66046875 29.9884375 152.09046875 29.6484375 176.23046875 C16.4484375 176.23046875 3.2484375 176.23046875 -10.3515625 176.23046875 C-11.81266879 173.30825616 -11.4843211 170.73829377 -11.49200439 167.47363281 C-11.49497552 166.77096409 -11.49794664 166.06829536 -11.5010078 165.34433365 C-11.50971355 162.97824178 -11.5112046 160.61220039 -11.51269531 158.24609375 C-11.51732205 156.55448294 -11.52234652 154.86287318 -11.52774048 153.17126465 C-11.54087784 148.56809021 -11.5473117 143.96493037 -11.55175114 139.36174011 C-11.55467889 136.48892011 -11.55878306 133.61610412 -11.56325531 130.74328613 C-11.57693194 121.7635538 -11.58659856 112.78383062 -11.5904572 103.80408859 C-11.59494262 93.42161826 -11.61251222 83.03927928 -11.6414578 72.65684891 C-11.66303226 64.64155428 -11.67315916 56.62629673 -11.67449832 48.61097336 C-11.67554913 43.8187633 -11.6815155 39.02667668 -11.69931793 34.23449707 C-11.71572624 29.72998057 -11.71798965 25.22568126 -11.70917892 20.72114563 C-11.70840472 19.06426921 -11.71280131 17.40738146 -11.72263718 15.75053406 C-11.73524142 13.49586101 -11.72954396 11.24197083 -11.71905518 8.98730469 C-11.72052174 7.72335876 -11.7219883 6.45941284 -11.7234993 5.15716553 C-11.60076015 4.19135559 -11.47802101 3.22554565 -11.3515625 2.23046875 C-7.5275827 -0.31885112 -4.42853079 -0.04024399 0 0 Z " fill="#FFFFFF" transform="translate(941.3515625,147.76953125)"/>
<path d="M0 0 C1.1462233 -0.00960754 2.29244659 -0.01921509 3.47340393 -0.02911377 C4.72217819 -0.03336365 5.97095245 -0.03761353 7.25756836 -0.04199219 C8.54618271 -0.04769226 9.83479706 -0.05339233 11.16246033 -0.05926514 C13.9038838 -0.06979023 16.64527791 -0.0756194 19.38671875 -0.07910156 C22.16712852 -0.08344809 24.9472213 -0.09718367 27.72753906 -0.12011719 C57.17434866 -0.35839696 57.17434866 -0.35839696 71.53491211 3.16113281 C73.4408313 3.61129761 73.4408313 3.61129761 75.38525391 4.07055664 C94.46738131 8.78867259 109.61876581 20.83161197 119.95678711 37.44628906 C132.9613232 61.48862585 134.29501878 94.35365658 126.91113281 120.35498047 C120.45625265 141.54913281 108.44004391 156.96800978 88.94897461 167.56738281 C81.1634319 171.40170415 72.96133417 173.29671839 64.53491211 175.16113281 C63.39049652 175.42928299 63.39049652 175.42928299 62.22296143 175.70285034 C59.08173977 176.23839365 56.11179492 176.28833827 52.92456055 176.29052734 C51.60679626 176.2936795 50.28903198 176.29683167 48.93133545 176.30007935 C47.50231899 176.2982901 46.07330284 176.29623928 44.64428711 176.29394531 C43.17409245 176.29461918 41.70389789 176.29558991 40.23370361 176.29684448 C37.16059299 176.29831567 34.08751152 176.29618426 31.0144043 176.29150391 C27.06757178 176.28578682 23.12080697 176.28910173 19.1739769 176.29507637 C16.14234908 176.29868048 13.11073748 176.29754445 10.07910919 176.29494858 C8.6229883 176.29427993 7.16686596 176.29510557 5.71074677 176.29742813 C3.68305996 176.29995432 1.65536801 176.29542452 -0.37231445 176.29052734 C-1.52749573 176.28973175 -2.682677 176.28893616 -3.87286377 176.28811646 C-6.46508789 176.16113281 -6.46508789 176.16113281 -7.46508789 175.16113281 C-7.5621343 172.92088638 -7.58695445 170.67751227 -7.58534241 168.43516541 C-7.58662404 167.3680766 -7.58662404 167.3680766 -7.58793157 166.27943045 C-7.58958846 163.87791233 -7.58406163 161.47646293 -7.57861328 159.07495117 C-7.57833143 157.36053977 -7.57848911 155.64612825 -7.57905579 153.93171692 C-7.57934384 149.26249308 -7.57344593 144.5932947 -7.56648183 139.9240768 C-7.5602495 135.05001754 -7.55964459 130.17595777 -7.55845642 125.30189514 C-7.55534275 116.06543852 -7.54712887 106.82899366 -7.53710693 97.59254223 C-7.52594691 87.08002416 -7.52043563 76.56750554 -7.5154115 66.05498302 C-7.50494629 44.42369304 -7.48734615 22.79241366 -7.46508789 1.16113281 C-4.85611057 -0.14335585 -2.92194767 0.01975007 0 0 Z M33.53491211 34.16113281 C33.43940513 35.57792192 33.41302728 36.99944522 33.41465759 38.41944885 C33.41328293 39.33796631 33.41190826 40.25648376 33.41049194 41.20283508 C33.41408722 42.21847031 33.4176825 43.23410553 33.42138672 44.28051758 C33.42124069 45.3438028 33.42109467 46.40708801 33.42094421 47.50259399 C33.42164386 51.03592939 33.42943868 54.56921282 33.43725586 58.10253906 C33.43911985 60.5449165 33.44054384 62.9872943 33.44154358 65.42967224 C33.44537022 71.87247746 33.45520174 78.31526029 33.46624756 84.75805664 C33.47645855 91.32665708 33.48104053 97.89526111 33.48608398 104.46386719 C33.49682388 117.3629653 33.51371107 130.26204787 33.53491211 143.16113281 C35.28938043 143.16918823 37.0438595 143.17492459 38.79833984 143.1796875 C39.77536362 143.18313171 40.75238739 143.18657593 41.75901794 143.19012451 C55.00890382 143.05174146 66.49054895 140.16494438 76.20288086 130.92675781 C89.34154261 115.3452293 89.75425664 94.43127735 88.26147461 75.08691406 C86.94017327 62.95836494 83.26253413 50.97857302 73.84350586 42.66894531 C67.44496258 37.83067322 41.0055258 26.69051912 33.53491211 34.16113281 Z " fill="#FFFFFF" transform="translate(1301.465087890625,147.8388671875)"/>
<path d="M0 0 C1.17691406 0.42410156 2.35382813 0.84820312 3.56640625 1.28515625 C12.76746107 4.91103845 21.94332378 9.94332378 29 17 C28.88008911 21.89921624 25.99387414 24.78635674 22.875 28.25 C21.87488413 29.39329242 20.87619008 30.53783013 19.87890625 31.68359375 C19.38922363 32.24288574 18.89954102 32.80217773 18.39501953 33.37841797 C15.44997249 36.80176456 12.72496136 40.40081895 10 44 C6.51046816 43.44264422 3.9991269 42.60102364 1 40.75 C-8.1513072 35.60426497 -16.26395721 32.54919528 -26.8125 32.4375 C-27.60060059 32.42291748 -28.38870117 32.40833496 -29.20068359 32.39331055 C-34.81298919 32.49080796 -39.35458785 33.76463996 -44 37 C-47.03661612 41.27024142 -47.64702587 44.82379306 -47 50 C-44.24114632 55.19316143 -41.04929631 57.5411861 -35.83203125 59.93359375 C-35.13108841 60.26910751 -34.43014557 60.60462128 -33.70796204 60.95030212 C-25.12816544 64.9934536 -16.30269516 68.46625694 -7.47729492 71.92993164 C8.68676212 78.29715677 23.31830165 85.52370707 31 102 C31.76763672 103.63775391 31.76763672 103.63775391 32.55078125 105.30859375 C37.57826419 118.11444651 36.39308853 130.98380442 31.62109375 143.6640625 C24.28752127 159.88627825 11.67127644 168.65801169 -4.53125 174.921875 C-13.43703686 177.68988983 -21.88152953 178.35768733 -31.1875 178.3125 C-32.38133301 178.30758545 -33.57516602 178.3026709 -34.80517578 178.29760742 C-56.40213379 178.01115614 -75.62934299 171.33682793 -92 157 C-94.5625 154.0625 -94.5625 154.0625 -96 152 C-89.18212313 143.17937179 -82.31682077 134.41434388 -75 126 C-74.29875 126.45890625 -73.5975 126.9178125 -72.875 127.390625 C-63.07531517 133.72846465 -54.26838196 137.8251781 -43 141 C-42.37996094 141.19722656 -41.75992188 141.39445313 -41.12109375 141.59765625 C-32.44330679 143.24371897 -20.88013475 143.33684231 -13 139 C-10.64944804 137.17832223 -9.41085603 135.95866406 -8.25 133.25 C-7.5756733 127.18105973 -7.15627743 122.98260334 -11 118 C-13.63569561 114.81958673 -17.02313223 113.3739197 -20.7109375 111.7109375 C-21.70376236 111.25550064 -21.70376236 111.25550064 -22.71664429 110.79086304 C-27.36396895 108.68133079 -32.0586524 106.70390526 -36.7890625 104.7890625 C-37.75607086 104.39675446 -37.75607086 104.39675446 -38.74261475 103.996521 C-41.35780289 102.93818437 -43.97321886 101.8813909 -46.59863281 100.84863281 C-63.79339442 94.0610028 -77.54610939 85.06160973 -85.7734375 67.89453125 C-90.26132107 57.30369774 -91.1776531 43.91853838 -87.375 32.875 C-86.63656084 31.2251307 -85.84490248 29.59796774 -85 28 C-84.56429687 27.14277344 -84.12859375 26.28554687 -83.6796875 25.40234375 C-76.30568654 12.04452233 -64.10915753 3.71832212 -49.828125 -1.2109375 C-33.44874655 -5.78087458 -16.05961389 -5.9050814 0 0 Z " fill="#FFFFFF" transform="translate(867,149)"/>
<path d="M0 0 C0.8816835 -0.0033284 1.763367 -0.0066568 2.67176819 -0.01008606 C4.54053219 -0.01515908 6.40930529 -0.01749427 8.27807617 -0.01733398 C11.14451969 -0.01951933 14.01057785 -0.0376678 16.87695312 -0.05664062 C18.68880076 -0.05957464 20.50065023 -0.06155938 22.3125 -0.0625 C23.60473732 -0.07327827 23.60473732 -0.07327827 24.92308044 -0.08427429 C30.99383465 -0.06085285 30.99383465 -0.06085285 33.22265625 2.16796875 C34.01718886 4.8932062 34.71482315 7.58654372 35.359375 10.34765625 C35.55954727 11.17898575 35.75971954 12.01031525 35.96595764 12.86683655 C36.62048868 15.5907105 37.26525433 18.31680057 37.91015625 21.04296875 C38.58699298 23.86995389 39.26624769 26.69635156 39.94552612 29.52275085 C40.39895783 31.41049507 40.85153191 33.29844549 41.30325317 35.18659973 C43.13579276 42.84115904 45.0398667 50.47557037 46.97265625 58.10546875 C49.38213696 67.65558557 51.62939561 77.23298177 53.80029297 86.83984375 C56.40349956 98.21438629 59.35798481 109.49809884 62.32763672 120.78149414 C62.51946533 121.51558502 62.71129395 122.2496759 62.90893555 123.00601196 C63.27069555 124.3900379 63.63544861 125.77328611 64.00366211 127.15560913 C64.72597513 129.92548444 65.22265625 132.28951829 65.22265625 135.16796875 C65.88265625 135.16796875 66.54265625 135.16796875 67.22265625 135.16796875 C67.35768555 134.14791748 67.49271484 133.12786621 67.63183594 132.0769043 C68.16723569 128.53463757 68.8585279 125.11117665 69.67578125 121.625 C69.96283936 120.39587891 70.24989746 119.16675781 70.5456543 117.90039062 C70.85442181 116.59369489 71.16342726 115.28705536 71.47265625 113.98046875 C71.79017588 112.63087242 72.10763961 111.28126293 72.42504883 109.93164062 C75.73083813 95.90928161 79.08639048 81.9230879 83.1328125 68.09375 C84.59022078 62.96613607 85.82469246 57.78121086 87.09765625 52.60546875 C89.449472 43.06862503 92.02098052 33.6197069 94.7734375 24.19140625 C95.77093015 20.76933165 96.72302425 17.33888645 97.640625 13.89453125 C97.86548584 13.05647949 98.09034668 12.21842773 98.32202148 11.35498047 C98.745937 9.76716632 99.16373057 8.17770109 99.57446289 6.58642578 C100.06435408 4.7632333 100.63587632 2.96232477 101.22265625 1.16796875 C104.5015755 -0.47149088 108.12879159 0.04766697 111.73046875 0.0703125 C112.57108856 0.07172745 113.41170837 0.0731424 114.27780151 0.07460022 C116.967789 0.08020638 119.65769384 0.09275989 122.34765625 0.10546875 C124.16926963 0.11048296 125.99088432 0.115046 127.8125 0.11914062 C132.28258402 0.13017781 136.75260611 0.14744655 141.22265625 0.16796875 C142.18254383 3.85627883 142.22989035 6.1310125 141 9.73046875 C140.71205566 10.59808838 140.42411133 11.46570801 140.12744141 12.35961914 C139.8082373 13.28637451 139.4890332 14.21312988 139.16015625 15.16796875 C138.49734464 17.16578766 137.83724698 19.16450876 137.1796875 21.1640625 C136.84662598 22.1732373 136.51356445 23.18241211 136.17041016 24.22216797 C134.78501472 28.52824251 133.55912191 32.87286608 132.34765625 37.23046875 C129.6621551 46.80735937 126.72718615 56.29851357 123.75708008 65.79052734 C120.94539089 74.7919318 118.22333907 83.81660575 115.53515625 92.85546875 C112.91189647 101.66489806 110.20237889 110.42478589 107.24267578 119.12670898 C105.23513978 125.05109958 103.45630981 131.03220679 101.71484375 137.0390625 C99.88700861 143.34207794 98.02230472 149.63408362 96.14736938 155.92321777 C95.74143828 157.28728873 95.33694194 158.65178753 94.93392944 160.01672363 C94.36309088 161.9496838 93.78710023 163.88112014 93.2109375 165.8125 C92.87618408 166.94018799 92.54143066 168.06787598 92.1965332 169.22973633 C91.22265625 172.16796875 91.22265625 172.16796875 89.22265625 176.16796875 C73.38265625 176.16796875 57.54265625 176.16796875 41.22265625 176.16796875 C39.34070013 171.14941911 37.60058901 166.33578639 36.0847168 161.22851562 C35.89191352 160.58173922 35.69911024 159.93496281 35.50046444 159.26858711 C34.86734472 157.142106 34.23831238 155.01444024 33.609375 152.88671875 C33.15861917 151.36926771 32.70763534 149.85188439 32.25643921 148.33456421 C31.05282828 144.28401152 29.85294163 140.23236482 28.65394974 136.18044281 C27.65905577 132.81977171 26.66207266 129.45972178 25.66517162 126.09964561 C17.46454674 98.45600241 9.35869414 70.78530956 1.33071899 43.09103394 C0.39746173 39.87283926 -0.53747467 36.65513595 -1.47265625 33.4375 C-1.75854111 32.45026947 -2.04442596 31.46303894 -2.338974 30.44589233 C-4.40190331 23.35502373 -6.60793443 16.32255189 -8.9296875 9.3125 C-9.71364888 6.40425619 -10.0449854 4.15572353 -9.77734375 1.16796875 C-7.6590034 -0.9503716 -2.93131001 0.00377762 0 0 Z " fill="#FFFFFF" transform="translate(540.77734375,147.83203125)"/>
<path d="M0 0 C0.81368042 -0.00095673 1.62736084 -0.00191345 2.46569824 -0.00289917 C4.18725665 -0.00358013 5.90881761 -0.00173167 7.63037109 0.00244141 C10.27056629 0.00779085 12.91059136 0.00249361 15.55078125 -0.00390625 C17.22135454 -0.00324545 18.89192773 -0.00196426 20.5625 0 C21.35523315 -0.00202423 22.14796631 -0.00404846 22.96472168 -0.00613403 C28.55132973 0.01785236 28.55132973 0.01785236 30.78125 1.1328125 C30.80457658 23.80232209 30.82222799 46.4718297 30.83306217 69.14134884 C30.83822564 79.66642088 30.84526931 90.19148547 30.85668945 100.71655273 C30.86663473 109.88669847 30.87310305 119.05683882 30.87533849 128.22698981 C30.87664587 133.08566394 30.87973339 137.94432266 30.88698006 142.80299187 C30.89373782 147.37061824 30.89586746 151.93822276 30.89435768 156.50585365 C30.89463412 158.18733209 30.89664069 159.86881121 30.90045547 161.55028534 C30.90538892 163.83583264 30.9042496 166.12129608 30.90150452 168.40684509 C30.90242631 169.68905913 30.9033481 170.97127317 30.90429783 172.29234219 C30.78125 175.1328125 30.78125 175.1328125 29.78125 176.1328125 C26.90860944 176.23388124 24.06051372 176.27250922 21.1875 176.265625 C20.32564087 176.26658173 19.46378174 176.26753845 18.57580566 176.26852417 C16.74991788 176.269206 14.92402769 176.26735154 13.09814453 176.26318359 C10.29323922 176.25783536 7.48849405 176.26312849 4.68359375 176.26953125 C2.91406214 176.26887047 1.14453064 176.26758931 -0.625 176.265625 C-1.46977905 176.26764923 -2.31455811 176.26967346 -3.18493652 176.27175903 C-9.10379969 176.24776281 -9.10379969 176.24776281 -10.21875 175.1328125 C-10.31579641 172.89256607 -10.34061656 170.64919196 -10.33900452 168.40684509 C-10.34028615 167.33975629 -10.34028615 167.33975629 -10.34159368 166.25111014 C-10.34325057 163.84959202 -10.33772374 161.44814262 -10.33227539 159.04663086 C-10.33199354 157.33221946 -10.33215122 155.61780794 -10.3327179 153.90339661 C-10.33300594 149.23417277 -10.32710804 144.56497438 -10.32014394 139.89575648 C-10.31391161 135.02169723 -10.3133067 130.14763745 -10.31211853 125.27357483 C-10.30900486 116.0371182 -10.30079098 106.80067335 -10.29076904 97.56422192 C-10.27960902 87.05170385 -10.27409774 76.53918522 -10.26907361 66.02666271 C-10.2586084 44.39537272 -10.24100826 22.76409335 -10.21875 1.1328125 C-7.010787 -0.471169 -3.52274722 -0.00899528 0 0 Z " fill="#FFFFFF" transform="translate(1474.21875,147.8671875)"/>
<path d="M0 0 C0.81368042 -0.00095673 1.62736084 -0.00191345 2.46569824 -0.00289917 C4.18725665 -0.00358013 5.90881761 -0.00173167 7.63037109 0.00244141 C10.27056629 0.00779085 12.91059136 0.00249361 15.55078125 -0.00390625 C17.22135454 -0.00324545 18.89192773 -0.00196426 20.5625 0 C21.35523315 -0.00202423 22.14796631 -0.00404846 22.96472168 -0.00613403 C28.55132973 0.01785236 28.55132973 0.01785236 30.78125 1.1328125 C30.80457658 23.80232209 30.82222799 46.4718297 30.83306217 69.14134884 C30.83822564 79.66642088 30.84526931 90.19148547 30.85668945 100.71655273 C30.86663473 109.88669847 30.87310305 119.05683882 30.87533849 128.22698981 C30.87664587 133.08566394 30.87973339 137.94432266 30.88698006 142.80299187 C30.89373782 147.37061824 30.89586746 151.93822276 30.89435768 156.50585365 C30.89463412 158.18733209 30.89664069 159.86881121 30.90045547 161.55028534 C30.90538892 163.83583264 30.9042496 166.12129608 30.90150452 168.40684509 C30.90242631 169.68905913 30.9033481 170.97127317 30.90429783 172.29234219 C30.78125 175.1328125 30.78125 175.1328125 29.78125 176.1328125 C26.90860944 176.23388124 24.06051372 176.27250922 21.1875 176.265625 C20.32564087 176.26658173 19.46378174 176.26753845 18.57580566 176.26852417 C16.74991788 176.269206 14.92402769 176.26735154 13.09814453 176.26318359 C10.29323922 176.25783536 7.48849405 176.26312849 4.68359375 176.26953125 C2.91406214 176.26887047 1.14453064 176.26758931 -0.625 176.265625 C-1.46977905 176.26764923 -2.31455811 176.26967346 -3.18493652 176.27175903 C-9.10379969 176.24776281 -9.10379969 176.24776281 -10.21875 175.1328125 C-10.31579641 172.89256607 -10.34061656 170.64919196 -10.33900452 168.40684509 C-10.34028615 167.33975629 -10.34028615 167.33975629 -10.34159368 166.25111014 C-10.34325057 163.84959202 -10.33772374 161.44814262 -10.33227539 159.04663086 C-10.33199354 157.33221946 -10.33215122 155.61780794 -10.3327179 153.90339661 C-10.33300594 149.23417277 -10.32710804 144.56497438 -10.32014394 139.89575648 C-10.31391161 135.02169723 -10.3133067 130.14763745 -10.31211853 125.27357483 C-10.30900486 116.0371182 -10.30079098 106.80067335 -10.29076904 97.56422192 C-10.27960902 87.05170385 -10.27409774 76.53918522 -10.26907361 66.02666271 C-10.2586084 44.39537272 -10.24100826 22.76409335 -10.21875 1.1328125 C-7.010787 -0.471169 -3.52274722 -0.00899528 0 0 Z " fill="#FFFFFF" transform="translate(711.21875,147.8671875)"/>
<path d="M0 0 C3.36657902 1.32080197 6.50868426 2.77660899 9.6875 4.5 C14.67381365 7.04189523 19.48388816 8.21366065 25 9 C23.3087028 12.55517575 21.29316563 15.8904539 19.25 19.25 C7.77157328 38.27657144 -3.21253526 57.5756262 -14 77 C-18.75 76.125 -18.75 76.125 -21 75 C-20.27179784 70.27602187 -18.57994226 66.06024406 -16.875 61.625 C-9.33757432 41.46067548 -4.20536778 21.0922194 0 0 Z " fill="#2F3335" transform="translate(229,287)"/>
<path d="M0 0 C2.96252034 2.96252034 3.34321406 6.66460942 4.3125 10.625 C9.42817652 30.71086065 15.67781649 50.96777614 24.1875 69.890625 C25 72 25 72 25 75 C21.535 75.99 21.535 75.99 18 77 C17.6282666 76.35675781 17.2565332 75.71351563 16.87353516 75.05078125 C-0.50646415 44.56025012 -0.50646415 44.56025012 -20.67407227 15.87597656 C-22 14 -22 14 -22 12 C-21.16597656 11.72027344 -20.33195312 11.44054687 -19.47265625 11.15234375 C-11.89498437 8.45285239 -5.99593493 5.37620006 0 0 Z " fill="#303435" transform="translate(285,284)"/>
<path d="M0 0 C2.31 0 4.62 0 7 0 C7.02916504 0.65967773 7.05833008 1.31935547 7.08837891 1.99902344 C7.8274921 17.29840542 9.44244086 32.22116909 12 47.3125 C12.13142395 48.09403442 12.2628479 48.87556885 12.39825439 49.68078613 C13.88033686 58.75120527 13.88033686 58.75120527 16.08984375 67.66088867 C16.90451979 70.64970956 17.18586106 72.93329245 17 76 C16.35973877 75.99476318 15.71947754 75.98952637 15.05981445 75.98413086 C12.14405305 75.96327571 9.22830738 75.95031271 6.3125 75.9375 C5.30509766 75.92912109 4.29769531 75.92074219 3.25976562 75.91210938 C2.28330078 75.90888672 1.30683594 75.90566406 0.30078125 75.90234375 C-1.04246216 75.89448853 -1.04246216 75.89448853 -2.4128418 75.88647461 C-5.03641759 76.00159802 -7.44293053 76.41765715 -10 77 C-9.88390381 76.39446289 -9.76780762 75.78892578 -9.64819336 75.16503906 C-8.06867604 66.7253926 -6.78452132 58.24734894 -5.5625 49.75 C-5.45394684 48.99874847 -5.34539368 48.24749695 -5.23355103 47.47348022 C-2.96868912 31.69440785 -1.35935582 15.88059396 0 0 Z " fill="#303435" transform="translate(252,143)"/>
<path d="M0 0 C0.17015625 0.96679688 0.3403125 1.93359375 0.515625 2.9296875 C0.75987726 4.24489196 1.00470016 5.55999053 1.25 6.875 C1.48203125 8.15117187 1.7140625 9.42734375 1.953125 10.7421875 C3.02367678 15.72289365 5.00240021 20.32974119 7 25 C5.76894531 25.07476562 4.53789062 25.14953125 3.26953125 25.2265625 C-22.69593312 27.03925518 -48.5085982 31.85938517 -74 37 C-74 35.02 -74 33.04 -74 31 C-69.3605648 29.03434456 -64.68917599 27.20755841 -59.90234375 25.6328125 C-49.3637719 22.14319683 -39.18602995 18.03940485 -29.0625 13.5 C-27.86713623 12.96640869 -26.67177246 12.43281738 -25.44018555 11.88305664 C-18.29378139 8.64026269 -11.38850431 5.13147774 -4.54467773 1.30273438 C-2 0 -2 0 0 0 Z " fill="#2F3335" transform="translate(217,255)"/>
<path d="M0 0 C1.17691406 0.54527344 2.35382813 1.09054688 3.56640625 1.65234375 C25.80441983 11.86362986 48.43847066 20.37331987 72 27 C73.125 31.75 73.125 31.75 72 34 C65.08355763 33.42772631 58.36960791 32.39306958 51.5625 31.0625 C32.74994508 27.54898802 14.11434605 26.55053613 -5 26 C-4.79721436 25.37818848 -4.59442871 24.75637695 -4.38549805 24.11572266 C-2.62773995 18.53300255 -1.4139737 13.19108514 -0.8125 7.375 C-0.73064453 6.65699219 -0.64878906 5.93898438 -0.56445312 5.19921875 C-0.36814082 3.46705131 -0.1828283 1.73364251 0 0 Z " fill="#303334" transform="translate(296,251)"/>
<path d="M0 0 C5.0283812 1.65956455 9.05075064 4.59485988 13.375 7.5625 C30.79295195 19.33053019 49.06186637 29.86513554 68 39 C67.13375 39.99 66.2675 40.98 65.375 42 C61.27651481 46.77832871 57.49176778 51.76234833 54 57 C51.02363795 55.66420352 48.96048142 54.20765397 46.6875 51.875 C46.07648438 51.24851563 45.46546875 50.62203125 44.8359375 49.9765625 C43.10245576 48.11030343 41.45466127 46.1965619 39.8125 44.25 C36.30555672 40.17307948 32.39393735 36.59387665 28.40576172 33.00146484 C25.66437705 30.53155543 22.99674659 28.03291633 20.4375 25.375 C13.34803426 18.1647891 5.00574017 12.14761776 -3 6 C-2 4 -1 2 0 0 Z " fill="#303435" transform="translate(166,185)"/>
<path d="M0 0 C2.0625 0.75 2.0625 0.75 4 2 C4.495 3.485 4.495 3.485 5 5 C4.12859375 5.73863281 3.2571875 6.47726563 2.359375 7.23828125 C1.15614957 8.26290291 -0.04696952 9.28764945 -1.25 10.3125 C-1.8171875 10.79267578 -2.384375 11.27285156 -2.96875 11.76757812 C-13.36546171 20.6386854 -23.20754453 30.04114143 -32.84887695 39.71850586 C-34.58884712 41.46392971 -36.33422664 43.20382024 -38.08007812 44.94335938 C-39.20084231 46.06478298 -40.32129699 47.18651599 -41.44140625 48.30859375 C-41.956996 48.82215927 -42.47258575 49.33572479 -43.00379944 49.86485291 C-45.06987965 51.94445654 -46.99013824 53.98651224 -48.72241211 56.35571289 C-49.14401611 56.89832764 -49.56562012 57.44094238 -50 58 C-50.66 58 -51.32 58 -52 58 C-53.2265625 56.27734375 -53.2265625 56.27734375 -54.625 53.9375 C-57.38410879 49.60761145 -60.45252425 46.58536 -64.4609375 43.41015625 C-64.96882813 42.94480469 -65.47671875 42.47945312 -66 42 C-66 41.34 -66 40.68 -66 40 C-64.51113281 39.27296875 -64.51113281 39.27296875 -62.9921875 38.53125 C-48.29794653 31.30529095 -34.50484458 23.24794976 -21 14 C-20.18112305 13.43958008 -19.36224609 12.87916016 -18.51855469 12.30175781 C-13.34040094 8.75713151 -13.34040094 8.75713151 -8.16918945 5.20239258 C-7.39534912 4.67025146 -6.62150879 4.13811035 -5.82421875 3.58984375 C-5.13416748 3.11409912 -4.44411621 2.63835449 -3.7331543 2.14819336 C-2 1 -2 1 0 0 Z " fill="#303435" transform="translate(344,182)"/>
</svg>
