<svg width="444" height="444" viewBox="0 0 444 444" fill="none" xmlns="http://www.w3.org/2000/svg">
<rect width="444" height="444" rx="127.319" fill="url(#paint0_linear_3620_888)"/>
<path d="M301.432 265.62C302.592 271.105 306.044 277.283 311.977 277.283C317.91 277.283 321.36 271.105 322.521 265.62C323.681 260.135 341.203 166.901 341.203 166.901C344.492 149.974 357.657 139.944 371.272 139.914L426.64 139.914V166.902H371.732C368.709 166.968 365.854 169.392 365.296 172.645L346.4 269.533C343.125 288.757 331.577 304.086 311.977 304.086C294.577 304.086 280.816 288.693 277.552 269.533L258.657 172.645C258.093 169.362 255.191 166.924 252.137 166.901C249.076 166.913 246.162 169.356 245.598 172.645L226.702 269.533C223.82 286.451 211.827 304.086 192.279 304.086C175.381 304.012 161.246 288.71 157.979 269.533L139.083 172.645C138.521 169.366 135.623 166.928 132.572 166.901C129.516 166.921 126.611 169.361 126.047 172.645L107.151 269.534C103.877 288.757 89.6806 304.086 72.7282 304.086L17.3599 304.086V277.281L72.779 277.283C78.6808 277.248 82.115 271.09 83.2719 265.62C84.4322 260.135 101.954 166.901 101.954 166.901C105.241 149.985 118.914 139.958 132.521 139.914C146.129 139.958 159.89 149.985 163.176 166.901C163.176 166.901 180.698 260.135 181.859 265.62C183.015 271.086 186.445 277.241 192.341 277.283C198.236 277.241 201.666 271.086 202.822 265.62C203.983 260.135 221.505 166.901 221.505 166.901C224.793 149.976 238.479 139.946 252.094 139.914C265.731 139.914 279.456 149.948 282.75 166.901C282.75 166.901 300.272 260.135 301.432 265.62Z" fill="white"/>
<defs>
<linearGradient id="paint0_linear_3620_888" x1="-122.808" y1="444" x2="-31.6169" y2="-90.0806" gradientUnits="userSpaceOnUse">
<stop stop-color="#32CB08"/>
<stop offset="1" stop-color="#72FA4C"/>
</linearGradient>
</defs>
</svg>
