<svg width="1483" height="322" viewBox="0 0 1483 322" fill="none" xmlns="http://www.w3.org/2000/svg">
<path fill-rule="evenodd" clip-rule="evenodd" d="M126.155 40.9766C56.4815 40.9766 0 97.458 0 167.132C0 236.805 56.4815 293.286 126.155 293.286H294.362C364.035 293.286 420.516 236.805 420.516 167.132C420.516 97.458 364.035 40.9766 294.362 40.9766H126.155ZM294.368 230.199C259.531 230.199 231.29 201.959 231.29 167.122C231.29 132.285 259.531 104.044 294.368 104.044C329.205 104.044 357.445 132.285 357.445 167.122C357.445 201.959 329.205 230.199 294.368 230.199Z" fill="white"/>
<path d="M552.583 255V102.403H582.86V255H552.583ZM568.024 73.6397C562.171 73.6397 557.326 71.8231 553.491 68.1898C549.858 64.5565 548.041 59.914 548.041 54.2623C548.041 48.8124 549.858 44.3717 553.491 40.9403C557.326 37.3071 562.171 35.4904 568.024 35.4904C573.676 35.4904 578.419 37.3071 582.255 40.9403C586.09 44.3717 588.007 48.8124 588.007 54.2623C588.007 59.914 586.09 64.5565 582.255 68.1898C578.419 71.8231 573.676 73.6397 568.024 73.6397ZM611.018 321.61V102.403H638.267L641.295 126.019C644.525 121.377 648.562 117.037 653.406 113C658.25 108.761 664.003 105.33 670.664 102.706C677.527 100.082 685.5 98.7697 694.583 98.7697C709.116 98.7697 721.832 102.302 732.732 109.367C743.834 116.431 752.412 126.019 758.468 138.13C764.725 150.039 767.854 163.664 767.854 179.004C767.854 194.345 764.725 208.07 758.468 220.181C752.21 232.09 743.531 241.476 732.429 248.339C721.53 255.202 708.813 258.633 694.28 258.633C682.371 258.633 671.875 256.312 662.792 251.67C653.709 246.825 646.543 240.164 641.295 231.687V321.61H611.018ZM689.436 232.292C698.721 232.292 706.896 230.072 713.96 225.631C721.227 221.19 726.879 214.933 730.915 206.859C735.154 198.785 737.274 189.399 737.274 178.702C737.274 168.004 735.154 158.719 730.915 150.847C726.879 142.773 721.227 136.515 713.96 132.075C706.896 127.432 698.721 125.111 689.436 125.111C679.949 125.111 671.572 127.432 664.306 132.075C657.241 136.515 651.69 142.773 647.653 150.847C643.616 158.719 641.598 168.004 641.598 178.702C641.598 189.399 643.616 198.785 647.653 206.859C651.69 214.933 657.241 221.19 664.306 225.631C671.572 230.072 679.949 232.292 689.436 232.292ZM788.068 255V37.0043H818.346V255H788.068ZM895.342 258.633C882.827 258.633 872.432 256.514 864.156 252.275C855.881 248.036 849.724 242.385 845.687 235.32C841.65 228.053 839.632 220.282 839.632 212.006C839.632 201.914 842.256 193.335 847.504 186.271C852.752 179.004 860.22 173.453 869.909 169.618C879.598 165.783 891.204 163.866 904.728 163.866H944.391C944.391 154.984 943.079 147.617 940.455 141.763C937.831 135.91 933.895 131.57 928.647 128.744C923.601 125.716 917.141 124.203 909.269 124.203C900.186 124.203 892.415 126.423 885.956 130.864C879.497 135.102 875.46 141.461 873.845 149.938H843.568C844.779 139.24 848.412 130.157 854.468 122.689C860.725 115.019 868.698 109.165 878.387 105.128C888.075 100.889 898.37 98.7697 909.269 98.7697C923.601 98.7697 935.61 101.293 945.299 106.339C954.988 111.385 962.254 118.551 967.099 127.836C972.145 136.919 974.668 147.819 974.668 160.535V255H948.327L945.905 229.264C943.684 233.301 941.06 237.136 938.033 240.77C935.005 244.403 931.372 247.532 927.133 250.156C923.096 252.78 918.352 254.798 912.903 256.211C907.655 257.826 901.801 258.633 895.342 258.633ZM901.094 234.109C907.554 234.109 913.407 232.797 918.655 230.173C923.903 227.549 928.344 224.016 931.977 219.576C935.812 214.933 938.638 209.786 940.455 204.134C942.473 198.281 943.583 192.326 943.785 186.271V185.362H907.755C899.076 185.362 892.011 186.473 886.561 188.693C881.313 190.711 877.478 193.537 875.056 197.171C872.634 200.804 871.423 205.043 871.423 209.887C871.423 214.933 872.533 219.273 874.753 222.906C877.176 226.338 880.607 229.063 885.048 231.081C889.488 233.1 894.837 234.109 901.094 234.109ZM998.175 255V102.403H1025.42L1027.24 128.441C1032.09 119.358 1038.95 112.193 1047.83 106.945C1056.71 101.495 1066.9 98.7697 1078.41 98.7697C1090.52 98.7697 1100.92 101.192 1109.6 106.036C1118.27 110.881 1125.04 118.248 1129.88 128.139C1134.73 137.827 1137.15 150.039 1137.15 164.774V255H1106.87V167.802C1106.87 153.672 1103.74 142.974 1097.48 135.708C1091.23 128.441 1082.14 124.808 1070.24 124.808C1062.36 124.808 1055.3 126.726 1049.04 130.561C1042.78 134.194 1037.74 139.644 1033.9 146.91C1030.27 154.177 1028.45 163.058 1028.45 173.554V255H998.175ZM1160.74 255V102.403H1187.99L1190.71 131.166C1194.14 124.304 1198.58 118.551 1204.03 113.908C1209.48 109.064 1215.84 105.33 1223.11 102.706C1230.58 100.082 1239.05 98.7697 1248.54 98.7697V130.864H1237.64C1231.38 130.864 1225.43 131.671 1219.78 133.286C1214.13 134.699 1209.08 137.222 1204.64 140.855C1200.4 144.488 1197.07 149.434 1194.65 155.691C1192.23 161.948 1191.02 169.719 1191.02 179.004V255H1160.74ZM1263.33 255V102.403H1293.61V255H1263.33ZM1278.77 73.6397C1272.92 73.6397 1268.07 71.8231 1264.24 68.1898C1260.6 64.5565 1258.79 59.914 1258.79 54.2623C1258.79 48.8124 1260.6 44.3717 1264.24 40.9403C1268.07 37.3071 1272.92 35.4904 1278.77 35.4904C1284.42 35.4904 1289.16 37.3071 1293 40.9403C1296.83 44.3717 1298.75 48.8124 1298.75 54.2623C1298.75 59.914 1296.83 64.5565 1293 68.1898C1289.16 71.8231 1284.42 73.6397 1278.77 73.6397ZM1391.4 258.633C1377.07 258.633 1364.15 255.303 1352.65 248.642C1341.34 241.981 1332.36 232.696 1325.7 220.787C1319.24 208.676 1316.01 194.748 1316.01 179.004C1316.01 162.856 1319.34 148.828 1326 136.919C1332.66 124.808 1341.75 115.422 1353.25 108.761C1364.76 102.1 1377.67 98.7697 1392.01 98.7697C1406.54 98.7697 1419.46 102.1 1430.76 108.761C1442.06 115.422 1450.95 124.707 1457.4 136.616C1464.07 148.525 1467.4 162.554 1467.4 178.702C1467.4 194.849 1464.07 208.878 1457.4 220.787C1450.95 232.696 1441.96 241.981 1430.46 248.642C1418.95 255.303 1405.93 258.633 1391.4 258.633ZM1391.4 232.595C1399.68 232.595 1407.14 230.576 1413.81 226.539C1420.67 222.502 1426.12 216.548 1430.16 208.676C1434.39 200.602 1436.51 190.611 1436.51 178.702C1436.51 166.792 1434.49 156.902 1430.46 149.03C1426.42 140.956 1420.97 134.901 1414.11 130.864C1407.45 126.827 1400.08 124.808 1392.01 124.808C1383.93 124.808 1376.46 126.827 1369.6 130.864C1362.74 134.901 1357.19 140.956 1352.95 149.03C1348.91 156.902 1346.89 166.792 1346.89 178.702C1346.89 190.611 1348.91 200.602 1352.95 208.676C1357.19 216.548 1362.64 222.502 1369.3 226.539C1376.16 230.576 1383.53 232.595 1391.4 232.595Z" fill="white"/>
</svg>
