<svg width="819" height="88" viewBox="0 0 819 88" fill="none" xmlns="http://www.w3.org/2000/svg">
<g clip-path="url(#clip0_788_139)">
<path d="M46.7191 88H27.064V65.574C27.064 42.0754 46.1814 22.9594 69.6785 22.9594H77.5075V42.6145H69.6785C57.0189 42.6145 46.7191 52.9143 46.7191 65.574V88Z" fill="#0F58C7"/>
<path d="M7.82905 42.6145H0V22.9594H7.82905C20.4887 22.9594 30.7885 12.6596 30.7885 0H50.4436C50.4436 23.4985 31.3261 42.6145 7.82905 42.6145Z" fill="#0F58C7"/>
<path fill-rule="evenodd" clip-rule="evenodd" d="M143.094 14.3095V83.3198H155.475V14.3095H180.121V3.07532H118.448V14.3095H143.094ZM185.611 83.3198V3.07532H219.314C224.282 3.07532 228.638 3.95419 232.382 5.71192C236.204 7.39324 239.146 9.83878 241.209 13.0486C243.349 16.2583 244.419 20.0795 244.419 24.5121V25.773C244.419 30.817 243.196 34.8674 240.751 37.9243C238.382 40.9049 235.478 43.0065 232.038 44.2293V46.0634C234.943 46.2163 237.273 47.2098 239.031 49.0439C240.789 50.8017 241.668 53.3619 241.668 56.7245V83.3198H229.173V58.444C229.173 56.3806 228.638 54.7375 227.568 53.5147C226.498 52.2919 224.778 51.6805 222.409 51.6805H197.992V83.3198H185.611ZM197.992 40.4463H217.938C222.371 40.4463 225.81 39.3382 228.256 37.1219C230.701 34.8292 231.924 31.7341 231.924 27.8365V26.9194C231.924 23.0218 230.701 19.9649 228.256 17.7486C225.886 15.4559 222.447 14.3095 217.938 14.3095H197.992V40.4463ZM265.952 81.4856C270.537 83.7783 276.001 84.9247 282.344 84.9247C288.611 84.9247 294.037 83.7783 298.623 81.4856C303.208 79.1929 306.723 75.9067 309.169 71.627C311.614 67.2709 312.837 61.9977 312.837 55.8074V3.07532H300.457V56.1513C300.457 61.8066 298.89 66.1628 295.757 69.2197C292.623 72.2766 288.153 73.8051 282.344 73.8051C276.536 73.8051 272.065 72.2766 268.932 69.2197C265.799 66.1628 264.232 61.8066 264.232 56.1513V3.07532H251.737V55.8074C251.737 61.9977 252.96 67.2709 255.405 71.627C257.927 75.9067 261.443 79.1929 265.952 81.4856ZM323.263 83.3198V3.07532H372.785V14.3095H335.643V37.4658H369.804V48.7H335.643V83.3198H323.263ZM402.164 83.3198V3.07532H426.008L447.789 75.0661H449.623V3.07532H461.889V83.3198H438.045L416.264 11.2144H414.43V83.3198H402.164ZM766.877 3.07532V83.3198H778.684V59.8196H780.518L803.789 83.3198H819.38L789.919 54.2025L818.463 26.8048H802.758L780.518 48.8147H778.684V3.07532H766.877ZM728.277 26.8048V83.3198H740.085V50.0757C740.085 45.7195 741.307 42.5098 743.753 40.4463C746.199 38.3065 749.332 37.2365 753.153 37.2365H760.375V26.5755H753.612C750.631 26.5755 748.109 27.1487 746.046 28.295C744.059 29.365 742.607 31.0845 741.69 33.4536H739.855V26.8048H728.277ZM689.962 84.9247C684.307 84.9247 679.263 83.7784 674.83 81.4857C670.474 79.1165 667.035 75.7539 664.513 71.3978C661.991 67.0416 660.73 61.8831 660.73 55.9221V54.2025C660.73 48.2415 661.991 43.1212 664.513 38.8414C667.035 34.4853 670.474 31.1227 674.83 28.7536C679.263 26.3845 684.307 25.1999 689.962 25.1999C695.617 25.1999 700.661 26.3845 705.094 28.7536C709.526 31.1227 713.004 34.4853 715.526 38.8414C718.047 43.1212 719.308 48.2415 719.308 54.2025V55.9221C719.308 61.8831 718.047 67.0416 715.526 71.3978C713.004 75.7539 709.526 79.1165 705.094 81.4857C700.661 83.7784 695.617 84.9247 689.962 84.9247ZM689.962 74.3783C695.159 74.3783 699.362 72.7352 702.572 69.449C705.858 66.0864 707.501 61.4627 707.501 55.5782V54.5464C707.501 48.6618 705.896 44.0764 702.686 40.7902C699.477 37.4276 695.235 35.7463 689.962 35.7463C684.842 35.7463 680.638 37.4276 677.352 40.7902C674.142 44.0764 672.537 48.6618 672.537 54.5464V55.5782C672.537 61.4627 674.142 66.0864 677.352 69.449C680.638 72.7352 684.842 74.3783 689.962 74.3783ZM575.656 26.8047L585.285 83.3198H605.117L614.861 34.8292H616.695L626.439 83.3198H646.271L655.9 26.8047H644.093L636.985 75.41H635.151L625.407 26.8047H606.263L596.405 75.41H594.571L587.463 26.8047H575.656ZM553.531 83.3198C550.092 83.3198 547.34 82.2881 545.277 80.2246C543.29 78.1612 542.296 75.41 542.296 71.9709V36.778H526.706V26.8048H542.296V8.11926H554.104V26.8048H570.955V36.778H554.104V69.9075C554.104 72.2002 555.174 73.3465 557.314 73.3465H569.121V83.3198H553.531ZM484.127 81.371C488.407 83.7401 493.412 84.9247 499.144 84.9247C504.264 84.9247 508.468 84.1223 511.754 82.5174C515.04 80.9125 517.677 78.9255 519.664 76.5564C521.727 74.1872 523.294 71.9327 524.364 69.7929L514.62 64.749C513.397 67.3473 511.639 69.64 509.347 71.627C507.13 73.6141 503.806 74.6076 499.373 74.6076C494.635 74.6076 490.661 73.1555 487.451 70.2514C484.318 67.2709 482.675 63.2969 482.522 58.3294H525.969V53.8586C525.969 48.1269 524.822 43.1212 522.53 38.8414C520.237 34.5617 517.027 31.2373 512.9 28.8682C508.85 26.4227 504.112 25.1999 498.686 25.1999C493.107 25.1999 488.177 26.4227 483.898 28.8682C479.694 31.2373 476.408 34.6382 474.039 39.0707C471.67 43.4268 470.485 48.5472 470.485 54.4318V55.8074C470.485 61.6156 471.67 66.736 474.039 71.1685C476.485 75.5246 479.847 78.9255 484.127 81.371ZM513.932 49.2732H482.637C483.248 44.9935 484.929 41.6691 487.681 39.3C490.508 36.8544 494.138 35.6317 498.571 35.6317C503.003 35.6317 506.595 36.8544 509.347 39.3C512.098 41.6691 513.626 44.9935 513.932 49.2732ZM371.17 82.2881C373.004 84.0458 375.259 84.9247 377.934 84.9247C380.609 84.9247 382.825 84.0458 384.583 82.2881C386.417 80.5304 387.334 78.2759 387.334 75.5246C387.334 72.8498 386.417 70.6335 384.583 68.8758C382.825 67.1181 380.609 66.2392 377.934 66.2392C375.259 66.2392 373.004 67.1181 371.17 68.8758C369.413 70.5571 368.534 72.7734 368.534 75.5246C368.534 78.2759 369.413 80.5304 371.17 82.2881Z" fill="#272835"/>
</g>
<defs>
<clipPath id="clip0_788_139">
<rect width="819" height="88" fill="white"/>
</clipPath>
</defs>
</svg>
