<svg width="213" height="52" viewBox="0 0 213 52" fill="none" xmlns="http://www.w3.org/2000/svg">
<path d="M49.779 39.3516V13.6523H53.9977V35.7656H64.9138V39.3516H49.779Z" fill="#213B41"/>
<path d="M73.5081 19.5234C75.969 19.5234 77.8264 20.0684 79.0803 21.1582C80.3459 22.248 80.9788 23.9473 80.9788 26.2559V39.3516H78.0432L77.2522 36.5918H77.1116C76.5608 37.2949 75.9924 37.875 75.4065 38.332C74.8206 38.7891 74.1409 39.1289 73.3674 39.3516C72.6057 39.5859 71.6741 39.7031 70.5725 39.7031C69.4124 39.7031 68.3752 39.4922 67.4612 39.0703C66.5471 38.6367 65.8264 37.9805 65.2991 37.1016C64.7717 36.2227 64.5081 35.1094 64.5081 33.7617C64.5081 31.7578 65.2522 30.252 66.7405 29.2441C68.2405 28.2363 70.5022 27.6797 73.5256 27.5742L76.9006 27.4512V26.4316C76.9006 25.084 76.5842 24.123 75.9514 23.5488C75.3303 22.9746 74.4514 22.6875 73.3147 22.6875C72.342 22.6875 71.3987 22.8281 70.4846 23.1094C69.5706 23.3906 68.6799 23.7363 67.8127 24.1465L66.4768 21.2285C67.426 20.7246 68.5041 20.3145 69.7112 19.998C70.9299 19.6816 72.1956 19.5234 73.5081 19.5234ZM76.8831 30.0527L74.3694 30.1406C72.3069 30.2109 70.8596 30.5625 70.0276 31.1953C69.1956 31.8281 68.7795 32.6953 68.7795 33.7969C68.7795 34.7578 69.0666 35.4609 69.6409 35.9062C70.2151 36.3398 70.9709 36.5566 71.9084 36.5566C73.3381 36.5566 74.5217 36.1523 75.4592 35.3438C76.4084 34.5234 76.8831 33.3223 76.8831 31.7402V30.0527Z" fill="#213B41"/>
<path d="M93.8445 19.5234C96.0359 19.5234 97.741 20.0918 98.9598 21.2285C100.19 22.3535 100.805 24.1641 100.805 26.6602V39.3516H96.6746V27.4336C96.6746 25.9219 96.3641 24.791 95.743 24.041C95.1219 23.2793 94.1609 22.8984 92.8602 22.8984C90.9734 22.8984 89.6609 23.4785 88.9227 24.6387C88.1961 25.7988 87.8328 27.4805 87.8328 29.6836V39.3516H83.702V19.8926H86.9188L87.4988 22.5293H87.7274C88.1492 21.8496 88.6707 21.293 89.2918 20.8594C89.9246 20.4141 90.6277 20.0801 91.4012 19.8574C92.1863 19.6348 93.0008 19.5234 93.8445 19.5234Z" fill="#213B41"/>
<path d="M109.083 48C106.447 48 104.425 47.5254 103.019 46.5762C101.613 45.627 100.91 44.2969 100.91 42.5859C100.91 41.3906 101.285 40.377 102.035 39.5449C102.785 38.7246 103.857 38.1562 105.251 37.8398C104.724 37.6055 104.267 37.2422 103.88 36.75C103.505 36.2461 103.318 35.6895 103.318 35.0801C103.318 34.3535 103.523 33.7324 103.933 33.2168C104.343 32.7012 104.958 32.2031 105.779 31.7227C104.759 31.2891 103.939 30.5859 103.318 29.6133C102.708 28.6289 102.404 27.4746 102.404 26.1504C102.404 24.7441 102.703 23.5488 103.3 22.5645C103.898 21.5684 104.771 20.8125 105.919 20.2969C107.068 19.7695 108.456 19.5059 110.085 19.5059C110.437 19.5059 110.818 19.5293 111.228 19.5762C111.65 19.6113 112.036 19.6582 112.388 19.7168C112.751 19.7637 113.027 19.8164 113.214 19.875H119.947V22.1777L116.642 22.793C116.958 23.2383 117.21 23.748 117.398 24.3223C117.585 24.8848 117.679 25.5 117.679 26.168C117.679 28.1836 116.982 29.7715 115.587 30.9316C114.204 32.0801 112.294 32.6543 109.857 32.6543C109.271 32.6309 108.703 32.584 108.152 32.5137C107.73 32.7715 107.408 33.0586 107.185 33.375C106.962 33.6797 106.851 34.0254 106.851 34.4121C106.851 34.7285 106.962 34.9863 107.185 35.1855C107.408 35.373 107.736 35.5137 108.169 35.6074C108.615 35.7012 109.154 35.748 109.786 35.748H113.144C115.277 35.748 116.906 36.1992 118.031 37.1016C119.156 38.0039 119.718 39.3281 119.718 41.0742C119.718 43.2891 118.804 44.9941 116.976 46.1895C115.148 47.3965 112.517 48 109.083 48ZM109.242 45.0996C110.683 45.0996 111.896 44.959 112.88 44.6777C113.865 44.3965 114.609 43.9922 115.113 43.4648C115.617 42.9492 115.869 42.334 115.869 41.6191C115.869 40.9863 115.71 40.5 115.394 40.1602C115.078 39.8203 114.603 39.5859 113.97 39.457C113.337 39.3281 112.552 39.2637 111.615 39.2637H108.556C107.794 39.2637 107.12 39.3809 106.535 39.6152C105.949 39.8613 105.492 40.2129 105.163 40.6699C104.847 41.127 104.689 41.6777 104.689 42.3223C104.689 43.2129 105.081 43.8984 105.867 44.3789C106.663 44.8594 107.788 45.0996 109.242 45.0996ZM110.05 29.9473C111.257 29.9473 112.154 29.6191 112.74 28.9629C113.326 28.2949 113.619 27.3574 113.619 26.1504C113.619 24.8379 113.314 23.8535 112.704 23.1973C112.107 22.541 111.216 22.2129 110.033 22.2129C108.872 22.2129 107.988 22.5469 107.378 23.2148C106.781 23.8828 106.482 24.873 106.482 26.1855C106.482 27.3691 106.781 28.2949 107.378 28.9629C107.988 29.6191 108.878 29.9473 110.05 29.9473Z" fill="#213B41"/>
<path d="M151.252 13.6523L144.537 39.3516H139.932L135.643 23.9531C135.537 23.5781 135.42 23.1328 135.291 22.6172C135.162 22.1016 135.033 21.5742 134.904 21.0352C134.787 20.4961 134.682 20.0039 134.588 19.5586C134.506 19.1016 134.447 18.75 134.412 18.5039C134.389 18.75 134.336 19.0957 134.254 19.541C134.172 19.9863 134.072 20.4785 133.955 21.0176C133.85 21.5449 133.732 22.0723 133.603 22.5996C133.475 23.1152 133.357 23.5723 133.252 23.9707L129.033 39.3516H124.445L117.748 13.6523H121.984L125.693 28.7168C125.81 29.1973 125.928 29.7188 126.045 30.2812C126.174 30.832 126.291 31.3887 126.396 31.9512C126.514 32.5137 126.619 33.0645 126.713 33.6035C126.807 34.1309 126.883 34.6113 126.941 35.0449C127 34.5996 127.076 34.1074 127.17 33.5684C127.264 33.0176 127.363 32.4609 127.469 31.8984C127.586 31.3242 127.703 30.7734 127.82 30.2461C127.949 29.7188 128.078 29.2441 128.207 28.8223L132.391 13.6523H136.504L140.775 28.875C140.904 29.3086 141.027 29.7949 141.144 30.334C141.273 30.873 141.396 31.4238 141.514 31.9863C141.631 32.5488 141.736 33.0938 141.83 33.6211C141.924 34.1484 142 34.623 142.059 35.0449C142.141 34.4707 142.246 33.8145 142.375 33.0762C142.504 32.3379 142.65 31.5879 142.814 30.8262C142.978 30.0645 143.143 29.3613 143.307 28.7168L146.998 13.6523H151.252Z" fill="#D5691B"/>
<path d="M159.038 19.5234C161.499 19.5234 163.356 20.0684 164.61 21.1582C165.875 22.248 166.508 23.9473 166.508 26.2559V39.3516H163.573L162.782 36.5918H162.641C162.09 37.2949 161.522 37.875 160.936 38.332C160.35 38.7891 159.67 39.1289 158.897 39.3516C158.135 39.5859 157.204 39.7031 156.102 39.7031C154.942 39.7031 153.905 39.4922 152.991 39.0703C152.077 38.6367 151.356 37.9805 150.829 37.1016C150.301 36.2227 150.038 35.1094 150.038 33.7617C150.038 31.7578 150.782 30.252 152.27 29.2441C153.77 28.2363 156.032 27.6797 159.055 27.5742L162.43 27.4512V26.4316C162.43 25.084 162.114 24.123 161.481 23.5488C160.86 22.9746 159.981 22.6875 158.844 22.6875C157.872 22.6875 156.928 22.8281 156.014 23.1094C155.1 23.3906 154.209 23.7363 153.342 24.1465L152.006 21.2285C152.956 20.7246 154.034 20.3145 155.241 19.998C156.459 19.6816 157.725 19.5234 159.038 19.5234ZM162.413 30.0527L159.899 30.1406C157.836 30.2109 156.389 30.5625 155.557 31.1953C154.725 31.8281 154.309 32.6953 154.309 33.7969C154.309 34.7578 154.596 35.4609 155.17 35.9062C155.745 36.3398 156.5 36.5566 157.438 36.5566C158.868 36.5566 160.051 36.1523 160.989 35.3438C161.938 34.5234 162.413 33.3223 162.413 31.7402V30.0527Z" fill="#D5691B"/>
<path d="M176.474 36.3633C177.013 36.3633 177.546 36.3164 178.073 36.2227C178.601 36.1172 179.081 35.9941 179.515 35.8535V38.9824C179.058 39.1816 178.466 39.3516 177.739 39.4922C177.013 39.6328 176.257 39.7031 175.472 39.7031C174.37 39.7031 173.38 39.5215 172.501 39.1582C171.622 38.7832 170.925 38.1445 170.409 37.2422C169.894 36.3398 169.636 35.0918 169.636 33.498V23.0391H166.981V21.1934L169.829 19.7344L171.183 15.5684H173.784V19.8926H179.356V23.0391H173.784V33.4453C173.784 34.4297 174.03 35.1621 174.523 35.6426C175.015 36.123 175.665 36.3633 176.474 36.3633Z" fill="#D5691B"/>
<path d="M188.25 39.7031C186.41 39.7031 184.816 39.3457 183.468 38.6309C182.121 37.916 181.084 36.8203 180.357 35.3438C179.63 33.8672 179.267 31.9922 179.267 29.7188C179.267 27.3516 179.666 25.418 180.463 23.918C181.259 22.418 182.361 21.3105 183.767 20.5957C185.185 19.8809 186.808 19.5234 188.636 19.5234C189.796 19.5234 190.845 19.6406 191.783 19.875C192.732 20.0977 193.535 20.373 194.191 20.7012L192.961 24.0059C192.246 23.7129 191.513 23.4668 190.763 23.2676C190.013 23.0684 189.293 22.9688 188.601 22.9688C187.464 22.9688 186.515 23.2207 185.754 23.7246C185.004 24.2285 184.441 24.9785 184.066 25.9746C183.703 26.9707 183.521 28.207 183.521 29.6836C183.521 31.1133 183.709 32.3203 184.084 33.3047C184.459 34.2773 185.015 35.0156 185.754 35.5195C186.492 36.0117 187.4 36.2578 188.478 36.2578C189.545 36.2578 190.5 36.1289 191.343 35.8711C192.187 35.6133 192.984 35.2793 193.734 34.8691V38.4551C192.996 38.877 192.205 39.1875 191.361 39.3867C190.517 39.5977 189.48 39.7031 188.25 39.7031Z" fill="#D5691B"/>
<path d="M199.375 12V18.873C199.375 19.5879 199.352 20.2852 199.305 20.9648C199.27 21.6445 199.229 22.1719 199.182 22.5469H199.41C199.82 21.8672 200.324 21.3105 200.922 20.877C201.52 20.4316 202.188 20.0977 202.926 19.875C203.676 19.6523 204.473 19.541 205.317 19.541C206.805 19.541 208.07 19.793 209.113 20.2969C210.156 20.7891 210.953 21.5566 211.504 22.5996C212.067 23.6426 212.348 24.9961 212.348 26.6602V39.3516H208.217V27.4336C208.217 25.9219 207.906 24.791 207.285 24.041C206.664 23.2793 205.703 22.8984 204.403 22.8984C203.149 22.8984 202.153 23.1621 201.414 23.6895C200.688 24.2051 200.166 24.9727 199.85 25.9922C199.533 27 199.375 28.2305 199.375 29.6836V39.3516H195.244V12H199.375Z" fill="#D5691B"/>
<path d="M0 12.383V41.035C0 41.392 0.190002 41.723 0.500002 41.901L17.095 51.481C17.25 51.571 17.422 51.616 17.595 51.616C17.768 51.616 17.94 51.571 18.095 51.481L37.279 40.409C37.589 40.23 37.779 39.9 37.779 39.543V10.887C37.779 10.53 37.589 10.199 37.279 10.021L31.168 6.49498C31.014 6.40598 30.841 6.36098 30.669 6.36098C30.496 6.36098 30.323 6.40498 30.169 6.49498L27.295 8.15398V4.83698C27.295 4.47998 27.105 4.14898 26.795 3.97098L20.684 0.441982C20.529 0.352982 20.357 0.307983 20.184 0.307983C20.011 0.307983 19.839 0.352982 19.684 0.441982L13.781 3.85098C13.471 4.02998 13.281 4.35998 13.281 4.71698V12.157L12.921 12.365V11.872C12.921 11.515 12.731 11.185 12.421 11.006L7.405 8.10698C7.25 8.01798 7.077 7.97298 6.905 7.97298C6.733 7.97298 6.56 8.01798 6.405 8.10698L0.501001 11.517C0.191001 11.695 0 12.025 0 12.383Z" fill="white"/>
<path d="M0 12.383V41.035C0 41.392 0.190002 41.723 0.500002 41.901L17.095 51.481C17.25 51.571 17.422 51.616 17.595 51.616C17.768 51.616 17.94 51.571 18.095 51.481L37.279 40.409C37.589 40.23 37.779 39.9 37.779 39.543V10.887C37.779 10.53 37.589 10.199 37.279 10.021L31.168 6.49498C31.014 6.40598 30.841 6.36098 30.669 6.36098C30.496 6.36098 30.323 6.40498 30.169 6.49498L27.295 8.15398V4.83698C27.295 4.47998 27.105 4.14898 26.795 3.97098L20.684 0.441982C20.529 0.352982 20.357 0.307983 20.184 0.307983C20.011 0.307983 19.839 0.352982 19.684 0.441982L13.781 3.85098C13.471 4.02998 13.281 4.35998 13.281 4.71698V12.157L12.921 12.365V11.872C12.921 11.515 12.731 11.185 12.421 11.006L7.405 8.10698C7.25 8.01798 7.077 7.97298 6.905 7.97298C6.733 7.97298 6.56 8.01798 6.405 8.10698L0.501001 11.517C0.191001 11.695 0 12.025 0 12.383ZM1.5 13.248L5.519 15.566V23.294C5.519 23.304 5.524 23.313 5.525 23.323C5.526 23.345 5.529 23.366 5.534 23.388C5.538 23.411 5.544 23.433 5.552 23.455C5.559 23.476 5.567 23.496 5.577 23.516C5.582 23.525 5.581 23.535 5.587 23.544C5.591 23.551 5.6 23.554 5.604 23.561C5.617 23.581 5.63 23.6 5.646 23.618C5.669 23.644 5.695 23.665 5.724 23.686C5.741 23.698 5.751 23.716 5.77 23.727L11.236 26.886C11.243 26.89 11.252 26.888 11.26 26.892C11.328 26.927 11.402 26.952 11.484 26.952C11.566 26.952 11.641 26.928 11.709 26.893C11.728 26.883 11.743 26.87 11.761 26.858C11.812 26.823 11.855 26.781 11.89 26.731C11.898 26.719 11.911 26.715 11.919 26.702C11.924 26.693 11.924 26.682 11.929 26.674C11.944 26.644 11.951 26.613 11.96 26.58C11.969 26.547 11.978 26.515 11.98 26.481C11.98 26.471 11.986 26.462 11.986 26.452V20.138V19.302L17.096 22.251V49.749L1.5 40.747V13.248ZM35.778 10.887L30.879 13.718L25.768 10.766L26.544 10.317L30.668 7.93698L35.778 10.887ZM25.293 4.83598L20.391 7.66498L15.281 4.71598L20.183 1.88398L25.293 4.83598ZM10.92 11.872L6.019 14.701L2.001 12.383L6.904 9.55098L10.92 11.872ZM20.956 16.51L24.268 14.601V18.788C24.268 18.809 24.278 18.827 24.28 18.848C24.284 18.883 24.29 18.917 24.301 18.95C24.311 18.98 24.325 19.007 24.342 19.034C24.358 19.061 24.373 19.088 24.395 19.112C24.417 19.138 24.444 19.159 24.471 19.18C24.489 19.193 24.499 19.21 24.518 19.221L29.878 22.314L23.998 25.708V18.557C23.998 18.547 23.993 18.538 23.992 18.528C23.991 18.506 23.988 18.485 23.984 18.463C23.979 18.44 23.973 18.418 23.965 18.396C23.958 18.375 23.95 18.355 23.941 18.336C23.936 18.327 23.937 18.316 23.931 18.308C23.925 18.299 23.917 18.294 23.911 18.286C23.898 18.267 23.886 18.251 23.871 18.234C23.855 18.216 23.84 18.2 23.822 18.185C23.805 18.17 23.788 18.157 23.769 18.144C23.76 18.138 23.756 18.129 23.747 18.124L20.956 16.51ZM25.268 11.633L30.379 14.585V21.448L25.268 18.499V13.736V11.633ZM12.486 18.437L17.389 15.604L22.498 18.556L17.595 21.385L12.486 18.437ZM10.985 25.587L7.019 23.295L10.985 21.005V25.587ZM12.42 14.385L14.28 13.311L16.822 14.777L12.42 17.32V14.385ZM14.78 5.58198L19.891 8.53098V15.394L14.78 12.445V5.58198Z" fill="#213B41"/>
</svg>
