<svg width="1032" height="64" viewBox="0 0 1032 64" fill="none" xmlns="http://www.w3.org/2000/svg">
<g clip-path="url(#clip0_614_1916)">
<circle cx="32.0146" cy="32.0148" r="32" fill="white"/>
<path d="M35.0602 49.6181H27.3682V40.8416C27.3682 31.6454 34.8498 24.1643 44.0455 24.1643H47.1094V31.8564H44.0455C39.0911 31.8564 35.0602 35.8872 35.0602 40.8416V49.6181Z" fill="#0F58C7"/>
<path d="M19.841 31.8572H16.7771V24.1652H19.841C24.7954 24.1652 28.8262 20.1343 28.8262 15.1799H36.5183C36.5183 24.3761 29.0367 31.8572 19.841 31.8572Z" fill="#0F58C7"/>
<path d="M81.4858 15.4652V6.59094H123.297V15.4652H107.711V57.5H97.0717V15.4652H81.4858ZM125.983 57.5V6.59094H146.068C149.912 6.59094 153.194 7.27867 155.912 8.65415C158.646 10.013 160.726 11.9437 162.151 14.446C163.593 16.9318 164.313 19.8568 164.313 23.2209C164.313 26.6016 163.584 29.5099 162.126 31.946C160.668 34.3655 158.555 36.2216 155.787 37.5142C153.036 38.8068 149.705 39.4531 145.794 39.4531H132.346V30.8026H144.054C146.109 30.8026 147.816 30.5208 149.175 29.9574C150.534 29.3939 151.545 28.5488 152.208 27.4219C152.887 26.295 153.227 24.8946 153.227 23.2209C153.227 21.5305 152.887 20.1053 152.208 18.9453C151.545 17.7853 150.526 16.907 149.15 16.3104C147.791 15.6972 146.076 15.3906 144.005 15.3906H136.746V57.5H125.983ZM153.475 34.3324L166.128 57.5H154.246L141.867 34.3324H153.475ZM199.165 6.59094H209.929V39.652C209.929 43.3641 209.042 46.6122 207.269 49.3963C205.512 52.1804 203.051 54.3513 199.886 55.9091C196.721 57.4503 193.034 58.2209 188.824 58.2209C184.599 58.2209 180.903 57.4503 177.738 55.9091C174.573 54.3513 172.112 52.1804 170.355 49.3963C168.598 46.6122 167.72 43.3641 167.72 39.652V6.59094H178.484V38.7322C178.484 40.6712 178.906 42.3946 179.751 43.9027C180.613 45.4107 181.823 46.5956 183.381 47.4574C184.938 48.3191 186.753 48.75 188.824 48.75C190.912 48.75 192.727 48.3191 194.268 47.4574C195.826 46.5956 197.028 45.4107 197.873 43.9027C198.734 42.3946 199.165 40.6712 199.165 38.7322V6.59094ZM214.584 57.5V6.59094H248.292V15.4652H225.348V27.5959H246.055V36.4702H225.348V57.5H214.584ZM305.915 6.59094V57.5H296.618L274.469 25.4581H274.096V57.5H263.333V6.59094H272.779L294.753 38.608H295.201V6.59094H305.915ZM327.809 58.2457C323.882 58.2457 320.501 57.4503 317.667 55.8594C314.85 54.2519 312.679 51.9815 311.154 49.0483C309.63 46.0985 308.867 42.6101 308.867 38.5831C308.867 34.6555 309.63 31.2086 311.154 28.2422C312.679 25.2758 314.825 22.964 317.593 21.3068C320.377 19.6496 323.641 18.821 327.387 18.821C329.906 18.821 332.251 19.227 334.421 20.0391C336.609 20.8345 338.515 22.036 340.139 23.6435C341.779 25.2509 343.055 27.2727 343.967 29.7088C344.878 32.1283 345.334 34.9621 345.334 38.2102V41.1186H313.093V34.5561H335.366C335.366 33.0315 335.035 31.6809 334.372 30.5043C333.709 29.3277 332.789 28.4079 331.613 27.745C330.452 27.0656 329.102 26.7259 327.561 26.7259C325.953 26.7259 324.528 27.0987 323.285 27.8445C322.059 28.5736 321.098 29.5597 320.402 30.8026C319.706 32.0289 319.349 33.3961 319.333 34.9041V41.1435C319.333 43.0327 319.681 44.665 320.377 46.0405C321.089 47.416 322.092 48.4766 323.385 49.2223C324.677 49.968 326.21 50.3409 327.983 50.3409C329.16 50.3409 330.237 50.1752 331.215 49.8438C332.193 49.5123 333.029 49.0152 333.725 48.3523C334.421 47.6894 334.952 46.8774 335.316 45.9162L345.11 46.5625C344.613 48.9157 343.594 50.9706 342.053 52.7273C340.528 54.4673 338.556 55.8262 336.137 56.804C333.734 57.7652 330.958 58.2457 327.809 58.2457ZM368.354 19.3182V27.2727H345.36V19.3182H368.354ZM350.58 10.1705H361.17V45.767C361.17 46.7448 361.319 47.5071 361.617 48.054C361.915 48.5843 362.33 48.9571 362.86 49.1726C363.407 49.388 364.037 49.4957 364.749 49.4957C365.246 49.4957 365.743 49.4543 366.241 49.3714C366.738 49.272 367.119 49.1974 367.384 49.1477L369.05 57.0277C368.519 57.1934 367.774 57.384 366.812 57.5994C365.851 57.8314 364.683 57.9723 363.307 58.022C360.755 58.1214 358.518 57.7817 356.596 57.0028C354.69 56.224 353.207 55.0142 352.146 53.3736C351.086 51.733 350.564 49.6615 350.58 47.1591V10.1705ZM378.584 57.5L368.193 19.3182H378.907L384.823 44.9716H385.171L391.336 19.3182H401.851L408.115 44.8224H408.438L414.255 19.3182H424.944L414.578 57.5H403.367L396.804 33.4872H396.332L389.77 57.5H378.584ZM442.687 58.2457C438.826 58.2457 435.487 57.4254 432.669 55.7848C429.869 54.1276 427.706 51.8241 426.181 48.8743C424.657 45.9079 423.894 42.4692 423.894 38.5582C423.894 34.6141 424.657 31.1671 426.181 28.2173C427.706 25.2509 429.869 22.9474 432.669 21.3068C435.487 19.6496 438.826 18.821 442.687 18.821C446.548 18.821 449.879 19.6496 452.68 21.3068C455.497 22.9474 457.668 25.2509 459.193 28.2173C460.717 31.1671 461.48 34.6141 461.48 38.5582C461.48 42.4692 460.717 45.9079 459.193 48.8743C457.668 51.8241 455.497 54.1276 452.68 55.7848C449.879 57.4254 446.548 58.2457 442.687 58.2457ZM442.737 50.0426C444.493 50.0426 445.96 49.5455 447.137 48.5511C448.313 47.5402 449.2 46.1648 449.796 44.4247C450.41 42.6847 450.716 40.7043 450.716 38.4837C450.716 36.263 450.41 34.2827 449.796 32.5426C449.2 30.8026 448.313 29.4271 447.137 28.4162C445.96 27.4053 444.493 26.8999 442.737 26.8999C440.964 26.8999 439.472 27.4053 438.262 28.4162C437.069 29.4271 436.166 30.8026 435.553 32.5426C434.956 34.2827 434.658 36.263 434.658 38.4837C434.658 40.7043 434.956 42.6847 435.553 44.4247C436.166 46.1648 437.069 47.5402 438.262 48.5511C439.472 49.5455 440.964 50.0426 442.737 50.0426ZM464.165 57.5V19.3182H474.432V25.9801H474.829C475.525 23.6103 476.694 21.8205 478.334 20.6108C479.975 19.3845 481.864 18.7713 484.002 18.7713C484.532 18.7713 485.104 18.8044 485.717 18.8707C486.33 18.937 486.869 19.0282 487.333 19.1442V28.5405C486.836 28.3913 486.148 28.2588 485.27 28.1428C484.391 28.0268 483.588 27.9688 482.858 27.9688C481.301 27.9688 479.909 28.3085 478.682 28.9879C477.473 29.6508 476.511 30.5788 475.799 31.772C475.103 32.9652 474.755 34.3407 474.755 35.8984V57.5H464.165ZM498.203 46.5128L498.228 33.8104H499.769L511.999 19.3182H524.155L507.724 38.5085H505.213L498.203 46.5128ZM488.608 57.5V6.59094H499.197V57.5H488.608ZM512.472 57.5L501.236 40.87L508.295 33.3878L524.876 57.5H512.472Z" fill="black"/>
<path d="M559.875 57.5H544.165V6.59094H560.571C565.509 6.59094 569.735 7.61011 573.249 9.64847C576.762 11.6702 579.455 14.5786 581.327 18.3736C583.2 22.152 584.136 26.6761 584.136 31.946C584.136 37.2491 583.192 41.8146 581.303 45.6428C579.413 49.4543 576.662 52.3875 573.05 54.4425C569.437 56.4808 565.045 57.5 559.875 57.5ZM550.33 52.0312H559.477C563.687 52.0312 567.175 51.2192 569.942 49.5952C572.71 47.9711 574.773 45.6593 576.132 42.6598C577.491 39.6603 578.17 36.089 578.17 31.946C578.17 27.8362 577.499 24.2981 576.157 21.3317C574.815 18.3487 572.809 16.0618 570.141 14.4709C567.473 12.8634 564.151 12.0597 560.173 12.0597H550.33V52.0312ZM604.293 58.2955C600.846 58.2955 597.822 57.4751 595.22 55.8345C592.635 54.1939 590.613 51.8987 589.155 48.9489C587.713 45.9991 586.992 42.5521 586.992 38.608C586.992 34.6307 587.713 31.1589 589.155 28.1925C590.613 25.2261 592.635 22.9226 595.22 21.282C597.822 19.6413 600.846 18.821 604.293 18.821C607.74 18.821 610.756 19.6413 613.341 21.282C615.943 22.9226 617.965 25.2261 619.407 28.1925C620.865 31.1589 621.594 34.6307 621.594 38.608C621.594 42.5521 620.865 45.9991 619.407 48.9489C617.965 51.8987 615.943 54.1939 613.341 55.8345C610.756 57.4751 607.74 58.2955 604.293 58.2955ZM604.293 53.0256C606.912 53.0256 609.066 52.3544 610.756 51.0121C612.447 49.6697 613.698 47.9048 614.51 45.7173C615.322 43.5298 615.728 41.16 615.728 38.608C615.728 36.0559 615.322 33.6778 614.51 31.4737C613.698 29.2696 612.447 27.4882 610.756 26.1293C609.066 24.7704 606.912 24.0909 604.293 24.0909C601.675 24.0909 599.52 24.7704 597.83 26.1293C596.14 27.4882 594.889 29.2696 594.077 31.4737C593.265 33.6778 592.859 36.0559 592.859 38.608C592.859 41.16 593.265 43.5298 594.077 45.7173C594.889 47.9048 596.14 49.6697 597.83 51.0121C599.52 52.3544 601.675 53.0256 604.293 53.0256ZM641.161 58.2955C637.581 58.2955 634.499 57.4503 631.914 55.7599C629.328 54.0696 627.34 51.7412 625.948 48.7749C624.556 45.8085 623.86 42.4195 623.86 38.608C623.86 34.7301 624.572 31.308 625.997 28.3416C627.439 25.3587 629.444 23.0303 632.013 21.3565C634.598 19.6662 637.614 18.821 641.061 18.821C643.746 18.821 646.165 19.3182 648.32 20.3125C650.474 21.3068 652.239 22.6989 653.615 24.4886C654.99 26.2784 655.844 28.3665 656.175 30.7528H650.308C649.861 29.0128 648.867 27.4716 647.326 26.1293C645.801 24.7704 643.746 24.0909 641.161 24.0909C638.874 24.0909 636.869 24.6875 635.145 25.8807C633.438 27.0573 632.104 28.7228 631.143 30.8771C630.198 33.0149 629.726 35.5256 629.726 38.4091C629.726 41.3589 630.19 43.9276 631.118 46.1151C632.063 48.3026 633.389 50.0012 635.095 51.2109C636.819 52.4207 638.841 53.0256 641.161 53.0256C642.685 53.0256 644.069 52.7604 645.312 52.2301C646.555 51.6998 647.607 50.9375 648.469 49.9432C649.331 48.9489 649.944 47.7557 650.308 46.3636H656.175C655.844 48.6174 655.023 50.6475 653.714 52.4538C652.421 54.2436 650.706 55.6688 648.568 56.7294C646.447 57.7734 643.978 58.2955 641.161 58.2955ZM686.896 27.8693L681.627 29.3608C681.295 28.4825 680.806 27.629 680.16 26.8004C679.53 25.9553 678.668 25.2592 677.575 24.7124C676.481 24.1655 675.081 23.892 673.374 23.892C671.037 23.892 669.09 24.4306 667.532 25.5078C665.991 26.5684 665.22 27.919 665.22 29.5597C665.22 31.018 665.751 32.1697 666.811 33.0149C667.872 33.8601 669.529 34.5644 671.783 35.1278L677.45 36.5199C680.864 37.3485 683.408 38.6162 685.082 40.3232C686.756 42.0135 687.592 44.1927 687.592 46.8608C687.592 49.0483 686.963 51.0038 685.703 52.7273C684.46 54.4508 682.72 55.8097 680.483 56.804C678.246 57.7983 675.644 58.2955 672.678 58.2955C668.783 58.2955 665.56 57.4503 663.008 55.7599C660.456 54.0696 658.84 51.6004 658.161 48.3523L663.729 46.9602C664.259 49.0152 665.262 50.5563 666.737 51.5838C668.228 52.6113 670.175 53.125 672.578 53.125C675.313 53.125 677.484 52.545 679.091 51.3849C680.715 50.2083 681.527 48.7997 681.527 47.1591C681.527 45.8333 681.063 44.723 680.135 43.8281C679.207 42.9167 677.782 42.2372 675.859 41.7898L669.496 40.2983C665.999 39.4697 663.431 38.1854 661.79 36.4453C660.166 34.6887 659.354 32.4929 659.354 29.858C659.354 27.7036 659.959 25.7978 661.168 24.1406C662.395 22.4834 664.06 21.1825 666.165 20.2379C668.286 19.2933 670.689 18.821 673.374 18.821C677.152 18.821 680.118 19.6496 682.273 21.3068C684.444 22.964 685.985 25.1515 686.896 27.8693Z" fill="black"/>
</g>
<defs>
<clipPath id="clip0_614_1916">
<rect width="1032" height="64" fill="white"/>
</clipPath>
</defs>
</svg>
