<?xml version="1.0" encoding="UTF-8"?>
<svg width="340px" height="128px" viewBox="0 0 340 128" version="1.1" xmlns="http://www.w3.org/2000/svg" xmlns:xlink="http://www.w3.org/1999/xlink">
    <title>brand/nameplate</title>
    <g id="website" stroke="none" stroke-width="1" fill="none" fill-rule="evenodd">
        <g id="home" transform="translate(-694, -120)" fill="#011628" fill-rule="nonzero">
            <g id="Sage" transform="translate(694, 120)">
                <path d="M40.4679317,98.2241975 C34.2102285,98.2241975 28.5921985,97.4826221 23.6138418,95.9994713 C18.635485,94.5163205 14.2164034,92.3599716 10.3565971,89.5304244 C6.49679069,86.7008773 3.04459167,83.3080994 0,79.3520908 L13.9239513,63.5738761 C18.3798966,69.578381 22.8751632,73.6306111 27.409751,75.7305665 C31.9443389,77.8305219 36.6369141,78.8804996 41.4874767,78.8804996 C43.9225883,78.8804996 46.1203678,78.5590563 48.0808152,77.9161696 C50.0412626,77.273283 51.5723355,76.3413793 52.6740339,75.1204586 C53.7757323,73.8995379 54.3265815,72.4072232 54.3265815,70.6435145 C54.3265815,69.2787902 53.9923505,68.0557547 53.3238885,66.9744081 C52.6554265,65.8930615 51.7208436,64.9343709 50.5201398,64.0983363 C49.319436,63.2623017 47.9203702,62.5164968 46.3229427,61.8609216 C44.7255151,61.2053464 43.0290821,60.6364763 41.2336437,60.1543113 C39.4382053,59.6721463 37.579923,59.2379159 35.6587969,58.8516199 C30.4964726,57.7040109 25.9889182,56.2663274 22.1361335,54.5385696 C18.2833488,52.8108117 15.0660243,50.7027497 12.48416,48.2143837 C9.90229567,45.7260176 7.9885423,42.8866016 6.74289986,39.6961356 C5.49725742,36.5056696 4.8744362,32.9190389 4.8744362,28.9362433 C4.8744362,24.679939 5.83464817,20.7722174 7.75507212,17.2130785 C9.67549606,13.6539396 12.277021,10.5882444 15.5596469,8.01599286 C18.8422729,5.44374136 22.6283518,3.46467967 26.9178838,2.0788078 C31.2074157,0.692935935 35.7219918,0 40.4616122,0 C46.6041601,0 51.9041089,0.644296485 56.3614585,1.93288945 C60.8188081,3.22148242 64.6459638,5.0937488 67.8429255,7.54968857 C71.0398872,10.0056283 73.7498967,12.9345691 75.9729542,16.336511 L61.8573116,30.061295 C59.9558462,27.7054538 57.907628,25.7454249 55.7126572,24.1812084 C53.5176863,22.6169919 51.1878996,21.4454155 48.723297,20.6664794 C46.2586945,19.8875433 43.730897,19.4980752 41.1399045,19.4980752 C38.4604391,19.4980752 36.1527707,19.8195186 34.2168991,20.4624052 C32.2810275,21.1052919 30.7650511,22.0340234 29.66897,23.2485998 C28.572889,24.4631762 28.0248484,25.9643024 28.0248484,27.7519785 C28.0248484,29.2323095 28.4745857,30.5290091 29.3740603,31.6420771 C30.273535,32.7551451 31.4907397,33.7265243 33.0256745,34.5562146 C34.5606093,35.3859049 36.3153221,36.0929392 38.2898128,36.6773176 C40.2643035,37.2616959 42.3076065,37.7597216 44.4197218,38.1713946 C49.3629702,39.1498229 53.8445446,40.4479323 57.8644448,42.0657227 C61.884345,43.6835131 65.3583112,45.6590502 68.2863433,47.992334 C71.2143754,50.3256178 73.4525294,53.1111074 75.0008054,56.348803 C76.5490814,59.5864986 77.3232194,63.2954329 77.3232194,67.4756059 C77.3232194,74.0398169 75.7366754,79.6100914 72.5635873,84.1864292 C69.3904993,88.762767 65.036017,92.2464795 59.5001404,94.6375667 C53.9642639,97.0286539 47.6201943,98.2241975 40.4679317,98.2241975 Z" id="Path"></path>
                <path d="M118.658222,98.1459514 C112.713685,98.1459514 107.375819,96.5348577 102.644625,93.3126704 C97.9134302,90.090483 94.1614063,85.6692275 91.3885529,80.0489038 C88.6156995,74.4285801 87.2292727,68.0219186 87.2292727,60.8289193 C87.2292727,53.5456904 88.6125397,47.1034304 91.3790737,41.5021395 C94.1456076,35.9008487 97.9453788,31.5084948 102.778387,28.3250781 C107.611396,25.1416613 113.128665,23.5499529 119.330195,23.5499529 C122.756765,23.5499529 125.895095,24.0395196 128.745187,25.0186528 C131.595279,25.9977861 134.10166,27.3663875 136.264331,29.1244569 C138.427003,30.8825263 140.262816,32.9084651 141.77177,35.2022734 C143.280725,37.4960816 144.420691,39.9569558 145.19167,42.584896 L140.69851,42.0456325 L140.69851,25.038743 L162.073144,25.038743 L162.073144,96.8707519 L140.310914,96.8707519 L140.310914,79.4874354 L145.172711,79.394386 C144.427011,81.9335063 143.248776,84.3404541 141.638008,86.6152296 C140.027239,88.890005 138.056961,90.8778782 135.727175,92.5788491 C133.397388,94.27982 130.79832,95.6329131 127.929972,96.6381284 C125.061624,97.6433437 121.971041,98.1459514 118.658222,98.1459514 Z M124.697551,79.8490591 C127.993518,79.8490591 130.859409,79.0704754 133.295223,77.5133081 C135.731036,75.9561408 137.612139,73.7518573 138.938531,70.9004576 C140.264922,68.049058 140.928118,64.6918786 140.928118,60.8289193 C140.928118,57.0040258 140.264922,53.662707 138.938531,50.8049631 C137.612139,47.9472191 135.731036,45.7397635 133.295223,44.1825962 C130.859409,42.6254289 127.993518,41.8468452 124.697551,41.8468452 C121.440906,41.8468452 118.617145,42.6254289 116.22627,44.1825962 C113.835395,45.7397635 111.976761,47.9472191 110.65037,50.8049631 C109.323978,53.662707 108.660783,57.0040258 108.660783,60.8289193 C108.660783,64.6918786 109.323978,68.049058 110.65037,70.9004576 C111.976761,73.7518573 113.835395,75.9561408 116.22627,77.5133081 C118.617145,79.0704754 121.440906,79.8490591 124.697551,79.8490591 Z" id="Shape"></path>
                <path d="M213.941739,128 C208.082866,128 202.272442,127.145637 196.510468,125.436912 C190.748494,123.728187 186.055919,121.506986 182.432743,118.773308 L189.955047,103.595685 C191.855108,104.896966 193.941243,106.027657 196.213452,106.987758 C198.485661,107.947858 200.879345,108.682384 203.394504,109.191336 C205.909662,109.700288 208.496442,109.954764 211.154842,109.954764 C215.685217,109.954764 219.406697,109.28509 222.319281,107.945743 C225.231865,106.606396 227.400154,104.564949 228.824147,101.821402 C230.248139,99.0778551 230.960135,95.6188147 230.960135,91.4442811 L230.960135,79.4070745 L235.074126,80.1197482 C234.470263,83.0733612 232.94551,85.7710884 230.499866,88.2129298 C228.054222,90.6547711 225.014545,92.6098656 221.380836,94.078213 C217.747127,95.5465605 213.946654,96.2807342 209.979416,96.2807342 C203.44506,96.2807342 197.65219,94.7700916 192.600808,91.7488063 C187.549426,88.7275211 183.560421,84.5459382 180.633794,79.2040577 C177.707166,73.8621772 176.243852,67.6525407 176.243852,60.5751483 C176.243852,53.3440834 177.684696,46.9539875 180.566386,41.4048606 C183.448075,35.8557338 187.38863,31.4926341 192.388052,28.3155617 C197.387474,25.1384892 203.064486,23.5499529 209.419088,23.5499529 C212.115405,23.5499529 214.696216,23.8491913 217.161521,24.447668 C219.626826,25.0461447 221.912376,25.8768924 224.018172,26.9399111 C226.123967,28.0029298 228.004719,29.2301948 229.660426,30.621706 C231.316134,32.0132172 232.670261,33.5210402 233.722808,35.1451749 C234.775354,36.7693096 235.462424,38.4329197 235.784016,40.1360054 L231.347731,41.2970079 L232.198756,25.038743 L252.663384,25.038743 L252.663384,90.9853784 C252.663384,96.8770962 251.78041,102.114649 250.014462,106.698036 C248.248515,111.281423 245.689471,115.162357 242.337331,118.34084 C238.98519,121.519322 234.920352,123.923803 230.142814,125.554282 C225.365277,127.184761 219.964918,128 213.941739,128 Z M214.558943,79.5381896 C218.03326,79.5381896 221.052574,78.7596059 223.616884,77.2024386 C226.181194,75.6452713 228.149014,73.4635452 229.520344,70.6572604 C230.891674,67.8509756 231.577339,64.5424356 231.577339,60.7316404 C231.577339,56.9194354 230.882195,53.5876331 229.491906,50.7362334 C228.101618,47.8848338 226.133798,45.6805503 223.588446,44.123383 C221.043094,42.5662156 218.03326,41.787632 214.558943,41.787632 C211.121138,41.787632 208.142901,42.5760845 205.624232,44.1529896 C203.105562,45.7298946 201.150732,47.944047 199.759741,50.7954467 C198.368751,53.6468463 197.673255,56.9589109 197.673255,60.7316404 C197.673255,64.50437 198.368751,67.8033935 199.759741,70.6287112 C201.150732,73.4540288 203.105562,75.6452713 205.624232,77.2024386 C208.142901,78.7596059 211.121138,79.5381896 214.558943,79.5381896 Z" id="Shape"></path>
                <path d="M305.494302,98.2241975 C297.594935,98.2241975 290.720379,96.6289645 284.870634,93.4384985 C279.02089,90.2480326 274.488057,85.8810558 271.272137,80.3375684 C268.056217,74.7940809 266.448257,68.4258375 266.448257,61.2328382 C266.448257,55.7415148 267.347029,50.6949956 269.144574,46.0932807 C270.942119,41.4915657 273.461842,37.4989013 276.703742,34.1152874 C279.945642,30.7316735 283.791054,28.115012 288.239978,26.2653031 C292.688901,24.4155941 297.545783,23.4907397 302.810624,23.4907397 C307.807237,23.4907397 312.3987,24.3965613 316.585014,26.2082046 C320.771327,28.0198479 324.389589,30.5501567 327.439798,33.799131 C330.490007,37.0481053 332.827517,40.8870972 334.452329,45.3161069 C336.077141,49.7451165 336.818629,54.5699385 336.676791,59.7905728 L336.541975,65.5913559 L279.479053,65.5913559 L276.378288,53.4822476 L318.969569,53.4822476 L316.637676,56.0157285 L316.637676,53.2348208 C316.523925,50.9818979 315.858272,48.9802788 314.640716,47.2299635 C313.42316,45.4796482 311.820818,44.1092846 309.833688,43.1188726 C307.846558,42.1284606 305.608755,41.6332546 303.120279,41.6332546 C299.556085,41.6332546 296.550112,42.3378217 294.102361,43.7469559 C291.654611,45.1560901 289.795978,47.1894306 288.526461,49.8469774 C287.256945,52.5045242 286.622187,55.7506788 286.622187,59.5854412 C286.622187,63.5640072 287.462329,67.0308017 289.142612,69.9858245 C290.822895,72.9408473 293.253794,75.2297212 296.435308,76.852446 C299.616822,78.4751709 303.421508,79.2865333 307.849367,79.2865333 C310.889746,79.2865333 313.605724,78.842434 315.997301,77.9542353 C318.388878,77.0660366 320.95038,75.5279021 323.681805,73.3398318 L333.864616,87.7265353 C331.037696,90.1514586 328.047873,92.124176 324.895148,93.6446875 C321.742423,95.165199 318.539142,96.3085785 315.285305,97.0748261 C312.031467,97.8410737 308.7678,98.2241975 305.494302,98.2241975 Z" id="Path"></path>
            </g>
        </g>
    </g>
</svg>
