<svg width="1194" height="148" viewBox="0 0 1194 148" fill="none" xmlns="http://www.w3.org/2000/svg">
<path d="M74.8128 39.777C56.1087 39.777 40.9392 54.9444 40.9392 73.6506C40.9392 92.3568 56.1066 107.524 74.8128 107.524C93.519 107.524 108.686 92.3568 108.686 73.6506C108.686 54.9444 93.517 39.777 74.8128 39.777Z" fill="#0407FF"/>
<path d="M23.591 64.1236C25.4907 53.954 30.4381 44.5929 37.9864 37.1173L38.1057 37.0001C38.2674 36.8424 38.429 36.6848 38.5907 36.5292C38.7443 36.3837 38.8979 36.2382 39.0515 36.0927L39.201 35.9532C48.8532 27.0225 61.4217 22.1034 74.5925 22.1014H74.6026C87.7612 22.1014 100.324 27.0104 109.974 35.9229L110.154 36.0906C110.299 36.226 110.445 36.3635 110.588 36.5009C110.742 36.6484 110.895 36.796 111.049 36.9475L111.192 37.087C118.761 44.5686 123.718 53.9399 125.622 64.1216H148.162C147.857 61.7631 147.513 59.4269 146.982 57.1209L146.491 55.2273C145.583 51.735 144.403 48.2751 142.982 44.9466C139.242 36.1796 133.89 28.3078 127.067 21.5457L127.037 21.5174C120.226 14.7552 112.294 9.44403 103.46 5.73352C100.103 4.32489 96.6171 3.15273 93.0965 2.25541L91.1887 1.76836C85.7846 0.543643 80.2148 0 74.6046 0H74.5884C68.9499 0 63.3538 0.551727 57.9234 1.78857L56.0136 2.27764C52.5112 3.17698 49.0452 4.34308 45.7106 5.74564C36.8789 9.45818 28.9486 14.7713 22.142 21.5376C21.7176 21.9599 21.2871 22.3985 20.8647 22.8371C14.6441 29.3062 9.71495 36.7515 6.21259 44.9688C4.79184 48.2994 3.61361 51.7613 2.70821 55.2556L2.21711 57.1492C1.68964 59.4471 1.34809 61.7752 1.04494 64.1236H23.591Z" fill="#0407FF"/>
<path d="M148.215 82.644H125.691C124.06 91.7222 119.988 100.267 113.824 107.336L113.801 107.363C113.628 107.561 113.452 107.759 113.278 107.953C113.161 108.082 113.044 108.211 112.922 108.341C112.852 108.418 112.779 108.496 112.708 108.571C107.89 113.733 102.179 117.797 95.738 120.655C89.0707 123.611 81.963 125.113 74.6106 125.115H74.6005C61.1105 125.115 48.3157 119.99 38.5806 110.685C38.4573 110.568 38.3361 110.449 38.2128 110.329L37.9804 110.103C30.3209 102.514 25.3412 92.9874 23.5041 82.646H0.986328C1.29756 85.1803 1.66336 87.6924 2.23529 90.1681L2.72841 92.0638C3.63381 95.5399 4.81002 98.9796 6.22269 102.29C9.96352 111.055 15.3171 118.927 22.1339 125.683C22.4714 126.016 22.8331 126.368 23.2737 126.786C29.8338 133.039 37.3923 137.989 45.7409 141.495C49.0756 142.895 52.5395 144.06 56.0419 144.957L57.9517 145.446C63.378 146.681 68.9701 147.228 74.6026 147.228H74.6167C80.233 147.228 85.8069 146.681 91.215 145.454L93.1228 144.965C96.6413 144.066 100.126 142.893 103.48 141.483C112.292 137.778 120.206 132.483 127.003 125.741L127.12 125.644L127.156 125.59C133.937 118.846 139.264 110.996 142.988 102.26C144.399 98.9493 145.573 95.5096 146.477 92.0355L146.97 90.1398C147.54 87.6722 147.901 85.1702 148.213 82.644H148.215Z" fill="#0407FF"/>
<path d="M186.417 45.1609V26.8552H265.241V45.1609H236.963V120.114H214.741V45.1609H186.417Z" fill="#090909"/>
<path d="M273.685 120.114V26.8552H312.209C319.191 26.8552 325.217 28.115 330.287 30.6347C335.387 33.124 339.318 36.7062 342.081 41.3813C344.843 46.0261 346.225 51.536 346.225 57.9111C346.225 64.3773 344.813 69.8721 341.99 74.3954C339.167 78.8884 335.159 82.3188 329.968 84.6867C324.777 87.0242 318.63 88.193 311.526 88.193H287.164V70.4337H307.336C310.737 70.4337 313.575 69.9935 315.852 69.1132C318.159 68.2024 319.905 66.8363 321.088 65.0149C322.272 63.163 322.864 60.7951 322.864 57.9111C322.864 55.0272 322.272 52.6441 321.088 50.7619C319.905 48.8494 318.159 47.4225 315.852 46.4814C313.545 45.51 310.706 45.0243 307.336 45.0243H296.225V120.114H273.685ZM326.189 77.4919L349.412 120.114H324.822L302.054 77.4919H326.189Z" fill="#090909"/>
<path d="M412.443 26.8552H434.938V87.0091C434.938 93.961 433.284 100.017 429.975 105.178C426.666 110.309 422.051 114.286 416.132 117.109C410.212 119.902 403.336 121.298 395.504 121.298C387.58 121.298 380.659 119.902 374.739 117.109C368.819 114.286 364.22 110.309 360.941 105.178C357.663 100.017 356.023 93.961 356.023 87.0091V26.8552H378.564V85.051C378.564 88.2689 379.262 91.1377 380.659 93.6574C382.085 96.1771 384.074 98.1504 386.624 99.5772C389.174 101.004 392.134 101.717 395.504 101.717C398.873 101.717 401.818 101.004 404.338 99.5772C406.888 98.1504 408.876 96.1771 410.303 93.6574C411.73 91.1377 412.443 88.2689 412.443 85.051V26.8552Z" fill="#090909"/>
<path d="M446.501 120.114V26.8552H510.162V45.1609H469.042V64.2863H506.109V82.6376H469.042V120.114H446.501Z" fill="#090909"/>
<path d="M527.087 121.435C523.808 121.435 521 120.281 518.662 117.974C516.355 115.667 515.217 112.874 515.247 109.595C515.217 106.377 516.355 103.63 518.662 101.353C521 99.0459 523.808 97.8923 527.087 97.8923C530.183 97.8923 532.915 99.0459 535.283 101.353C537.682 103.63 538.896 106.377 538.926 109.595C538.896 111.781 538.319 113.769 537.196 115.561C536.103 117.352 534.661 118.778 532.87 119.841C531.109 120.904 529.181 121.435 527.087 121.435Z" fill="#090909"/>
<path d="M630.44 26.8552V120.114H611.315L574.203 66.2899H573.611V120.114H551.07V26.8552H570.469L607.171 80.5884H607.945V26.8552H630.44Z" fill="#090909"/>
<path d="M642.049 120.114V26.8552H707.075V45.1609H664.59V64.2863H703.751V82.6376H664.59V101.808H707.075V120.114H642.049Z" fill="#090909"/>
<path d="M715.576 45.1609V26.8552H794.4V45.1609H766.122V120.114H743.9V45.1609H715.576Z" fill="#090909"/>
<path d="M825.202 120.114L798.063 26.8552H822.971L837.042 87.9653H837.816L853.891 26.8552H874.2L890.274 88.1019H891.048L905.165 26.8552H930.028L902.933 120.114H881.212L864.409 63.5577H863.681L846.878 120.114H825.202Z" fill="#090909"/>
<path d="M1019.29 73.4847C1019.29 83.7456 1017.31 92.4431 1013.37 99.5772C1009.42 106.711 1004.08 112.13 997.339 115.834C990.63 119.537 983.101 121.389 974.753 121.389C966.374 121.389 958.83 119.522 952.121 115.788C945.412 112.054 940.084 106.635 936.138 99.5316C932.222 92.3976 930.264 83.7152 930.264 73.4847C930.264 63.2238 932.222 54.5263 936.138 47.3922C940.084 40.2581 945.412 34.8392 952.121 31.1356C958.83 27.4319 966.374 25.5801 974.753 25.5801C983.101 25.5801 990.63 27.4319 997.339 31.1356C1004.08 34.8392 1009.42 40.2581 1013.37 47.3922C1017.31 54.5263 1019.29 63.2238 1019.29 73.4847ZM996.246 73.4847C996.246 67.4131 995.381 62.2827 993.651 58.0933C991.951 53.9039 989.492 50.7315 986.274 48.5761C983.086 46.4207 979.246 45.343 974.753 45.343C970.29 45.343 966.45 46.4207 963.232 48.5761C960.014 50.7315 957.54 53.9039 955.81 58.0933C954.11 62.2827 953.26 67.4131 953.26 73.4847C953.26 79.5562 954.11 84.6867 955.81 88.8761C957.54 93.0654 960.014 96.2378 963.232 98.3932C966.45 100.549 970.29 101.626 974.753 101.626C979.246 101.626 983.086 100.549 986.274 98.3932C989.492 96.2378 991.951 93.0654 993.651 88.8761C995.381 84.6867 996.246 79.5562 996.246 73.4847Z" fill="#090909"/>
<path d="M1029.88 120.114V26.8552H1068.41C1075.39 26.8552 1081.42 28.115 1086.49 30.6347C1091.59 33.124 1095.52 36.7062 1098.28 41.3813C1101.04 46.0261 1102.42 51.536 1102.42 57.9111C1102.42 64.3773 1101.01 69.8721 1098.19 74.3954C1095.36 78.8884 1091.36 82.3188 1086.17 84.6867C1080.98 87.0242 1074.83 88.193 1067.72 88.193H1043.36V70.4337H1063.53C1066.93 70.4337 1069.77 69.9935 1072.05 69.1132C1074.36 68.2024 1076.1 66.8363 1077.29 65.0149C1078.47 63.163 1079.06 60.7951 1079.06 57.9111C1079.06 55.0272 1078.47 52.6441 1077.29 50.7619C1076.1 48.8494 1074.36 47.4225 1072.05 46.4814C1069.74 45.51 1066.9 45.0243 1063.53 45.0243H1052.42V120.114H1029.88ZM1082.39 77.4919L1105.61 120.114H1081.02L1058.25 77.4919H1082.39Z" fill="#090909"/>
<path d="M1112.22 120.114V26.8552H1134.76V66.2899H1135.99L1166.82 26.8552H1193.37L1160.31 68.4756L1193.96 120.114H1167L1143.78 83.4572L1134.76 94.8414V120.114H1112.22Z" fill="#090909"/>
</svg>
