<svg width="819" height="89" viewBox="0 0 819 89" fill="none" xmlns="http://www.w3.org/2000/svg">
<path d="M47.243 88.7774H27.5879V66.3514C27.5879 42.8529 46.7053 23.7369 70.2024 23.7369H78.0315V43.392H70.2024C57.5428 43.392 47.243 53.6918 47.243 66.3514V88.7774Z" fill="#0F58C7"/>
<path d="M8.35322 43.392H0.52417V23.7369H8.35322C21.0128 23.7369 31.3126 13.437 31.3126 0.777435H50.9677C50.9677 24.276 31.8503 43.392 8.35322 43.392Z" fill="#0F58C7"/>
<path d="M146.484 84.7774V15.7672H121.838V4.53297H183.511V15.7672H158.865V84.7774H146.484ZM189.001 84.7774V4.53297H222.704C227.672 4.53297 232.028 5.41183 235.772 7.16957C239.594 8.85088 242.536 11.2964 244.599 14.5062C246.739 17.716 247.809 21.5372 247.809 25.9697V27.2307C247.809 32.2746 246.586 36.3251 244.141 39.382C241.772 42.3625 238.868 44.4641 235.428 45.6869V47.5211C238.333 47.6739 240.663 48.6674 242.421 50.5016C244.179 52.2593 245.058 54.8195 245.058 58.1821V84.7774H232.563V59.9017C232.563 57.8382 232.028 56.1951 230.958 54.9723C229.888 53.7496 228.168 53.1382 225.799 53.1382H201.382V84.7774H189.001ZM201.382 41.904H221.328C225.761 41.904 229.2 40.7958 231.646 38.5795C234.091 36.2868 235.314 33.1917 235.314 29.2941V28.377C235.314 24.4794 234.091 21.4225 231.646 19.2062C229.276 16.9135 225.837 15.7672 221.328 15.7672H201.382V41.904ZM285.734 86.3823C279.391 86.3823 273.927 85.236 269.342 82.9433C264.833 80.6506 261.317 77.3644 258.795 73.0847C256.35 68.7285 255.127 63.4553 255.127 57.265V4.53297H267.622V57.609C267.622 63.2643 269.189 67.6204 272.322 70.6773C275.456 73.7343 279.926 75.2627 285.734 75.2627C291.543 75.2627 296.013 73.7343 299.147 70.6773C302.28 67.6204 303.847 63.2643 303.847 57.609V4.53297H316.227V57.265C316.227 63.4553 315.005 68.7285 312.559 73.0847C310.113 77.3644 306.598 80.6506 302.013 82.9433C297.427 85.236 292.001 86.3823 285.734 86.3823ZM326.653 84.7774V4.53297H376.175V15.7672H339.033V38.9235H373.195V50.1577H339.033V84.7774H326.653ZM381.324 86.3823C378.649 86.3823 376.395 85.5035 374.56 83.7457C372.803 81.988 371.924 79.7335 371.924 76.9823C371.924 74.231 372.803 72.0147 374.56 70.3334C376.395 68.5757 378.649 67.6968 381.324 67.6968C383.999 67.6968 386.215 68.5757 387.973 70.3334C389.807 72.0912 390.724 74.3074 390.724 76.9823C390.724 79.7335 389.807 81.988 387.973 83.7457C386.215 85.5035 383.999 86.3823 381.324 86.3823ZM405.898 84.7774V28.2624H417.476V36.7454H419.31C420.38 34.4527 422.291 32.3128 425.042 30.3258C427.793 28.3388 431.882 27.3453 437.308 27.3453C441.588 27.3453 445.37 28.3006 448.657 30.2112C452.019 32.1218 454.656 34.8348 456.566 38.3503C458.477 41.7893 459.432 45.9544 459.432 50.8455V84.7774H447.625V51.7626C447.625 46.8715 446.402 43.2796 443.957 40.9869C441.511 38.6178 438.148 37.4332 433.869 37.4332C428.978 37.4332 425.042 39.0381 422.061 42.2479C419.157 45.4576 417.705 50.1195 417.705 56.2333V84.7774H405.898ZM496.601 86.3823C490.869 86.3823 485.863 85.1978 481.584 82.8286C477.304 80.3831 473.941 76.9823 471.496 72.6261C469.127 68.1936 467.942 63.0732 467.942 57.265V55.8894C467.942 50.0048 469.127 44.8845 471.496 40.5283C473.865 36.0958 477.151 32.695 481.354 30.3258C485.634 27.8803 490.563 26.6575 496.142 26.6575C501.568 26.6575 506.307 27.8803 510.357 30.3258C514.484 32.695 517.694 36.0194 519.986 40.2991C522.279 44.5788 523.426 49.5845 523.426 55.3163V59.787H479.979C480.132 64.7545 481.775 68.7285 484.908 71.7091C488.118 74.6131 492.092 76.0652 496.83 76.0652C501.263 76.0652 504.587 75.0717 506.803 73.0847C509.096 71.0977 510.854 68.805 512.077 66.2066L521.821 71.2505C520.751 73.3904 519.184 75.6449 517.121 78.014C515.134 80.3831 512.497 82.3701 509.211 83.975C505.925 85.5799 501.721 86.3823 496.601 86.3823ZM480.093 50.7309H511.389C511.083 46.4511 509.555 43.1267 506.803 40.7576C504.052 38.3121 500.46 37.0893 496.028 37.0893C491.595 37.0893 487.965 38.3121 485.137 40.7576C482.386 43.1267 480.705 46.4511 480.093 50.7309ZM550.987 84.7774C547.548 84.7774 544.797 83.7457 542.733 81.6823C540.746 79.6189 539.753 76.8676 539.753 73.4286V38.2356H524.163V28.2624H539.753V9.57691H551.56V28.2624H568.412V38.2356H551.56V71.3651C551.56 73.6578 552.63 74.8042 554.77 74.8042H566.578V84.7774H550.987ZM582.742 84.7774L573.113 28.2624H584.92L592.027 76.8676H593.862L603.72 28.2624H622.864L632.608 76.8676H634.442L641.55 28.2624H653.357L643.728 84.7774H623.896L614.152 36.2869H612.318L602.574 84.7774H582.742ZM687.419 86.3823C681.764 86.3823 676.72 85.236 672.287 82.9433C667.931 80.5742 664.492 77.2115 661.97 72.8554C659.448 68.4993 658.187 63.3407 658.187 57.3797V55.6602C658.187 49.6991 659.448 44.5788 661.97 40.2991C664.492 35.9429 667.931 32.5803 672.287 30.2112C676.72 27.8421 681.764 26.6575 687.419 26.6575C693.074 26.6575 698.118 27.8421 702.551 30.2112C706.983 32.5803 710.461 35.9429 712.982 40.2991C715.504 44.5788 716.765 49.6991 716.765 55.6602V57.3797C716.765 63.3407 715.504 68.4993 712.982 72.8554C710.461 77.2115 706.983 80.5742 702.551 82.9433C698.118 85.236 693.074 86.3823 687.419 86.3823ZM687.419 75.8359C692.616 75.8359 696.819 74.1928 700.029 70.9066C703.315 67.544 704.958 62.9204 704.958 57.0358V56.0041C704.958 50.1195 703.353 45.5341 700.143 42.2479C696.934 38.8852 692.692 37.2039 687.419 37.2039C682.299 37.2039 678.095 38.8852 674.809 42.2479C671.599 45.5341 669.994 50.1195 669.994 56.0041V57.0358C669.994 62.9204 671.599 67.544 674.809 70.9066C678.095 74.1928 682.299 75.8359 687.419 75.8359ZM725.734 84.7774V28.2624H737.312V34.9112H739.146C740.063 32.5421 741.515 30.8226 743.502 29.7527C745.566 28.6063 748.088 28.0331 751.068 28.0331H757.832V38.6942H750.61C746.788 38.6942 743.655 39.7641 741.21 41.904C738.764 43.9674 737.541 47.1772 737.541 51.5333V84.7774H725.734ZM764.334 84.7774V4.53297H776.141V50.2723H777.975L800.214 28.2624H815.919L787.375 55.6602L816.836 84.7774H801.246L777.975 61.2773H776.141V84.7774H764.334Z" fill="#272835"/>
</svg>
