<?xml version="1.0" encoding="UTF-8"?>
<svg version="1.1" xmlns="http://www.w3.org/2000/svg" width="2000" height="512">
<path d="M0 0 C168.96 0 337.92 0 512 0 C512 168.96 512 337.92 512 512 C343.04 512 174.08 512 0 512 C0 343.04 0 174.08 0 0 Z " fill="#2F3030" transform="translate(0,0)"/>
<path d="M0 0 C8.4340806 5.95071242 15.7212899 14.35641538 17.75390625 24.75 C19.15162354 37.52912955 17.74885094 48.37691312 9.88671875 58.77734375 C3.57932405 66.20779423 -3.36550413 70.48100733 -13 72 C-10.72781678 97.91807147 -7.81662695 123.59866637 -2 149 C16.83653303 140.69170422 34.6124905 130.4904798 51 118 C53.5090625 116.15019228 56.03404579 114.32317382 58.5625 112.5 C59.1716626 112.05366211 59.7808252 111.60732422 60.40844727 111.14746094 C64.77118472 108 64.77118472 108 67 108 C66.71125 107.28457031 66.4225 106.56914062 66.125 105.83203125 C62.11350264 95.06506092 61.27162127 85.26609422 65.7421875 74.49609375 C71.4377617 63.19338594 80.69756128 56.07497731 92.375 51.75 C103.50209796 49.4478418 114.29129167 51.75520083 123.9375 57.8125 C131.81105858 63.58452375 138.27496437 72.1899489 140 82 C140.99748354 95.45177796 139.74891831 105.77700787 130.6875 116.4375 C122.25507633 125.1203917 113.24351211 129.00618398 101.125 129.5 C91.34193915 129.28686142 83.92587336 125.45486578 76 120 C74.10060649 121.57920115 72.20563991 123.16332705 70.3125 124.75 C69.54583008 125.38615234 69.54583008 125.38615234 68.76367188 126.03515625 C57.54949916 135.45771558 47.08871009 145.7246625 36.73901367 156.07568359 C34.78126178 158.03120259 32.81556643 159.97851523 30.84960938 161.92578125 C29.59326356 163.17920011 28.33738584 164.43308838 27.08203125 165.6875 C26.20717827 166.55157471 26.20717827 166.55157471 25.31465149 167.43310547 C22.66675395 170.09613159 20.36713902 172.45911531 19 176 C19.85078125 176.2578125 20.7015625 176.515625 21.578125 176.78125 C24.51155061 177.82603172 27.15112006 179.04912533 29.89282227 180.51196289 C45.65942933 188.89995537 62.7244301 194.85580263 79.75 200.125 C80.69560791 200.42027588 81.64121582 200.71555176 82.61547852 201.01977539 C89.19821257 203.07152443 89.19821257 203.07152443 96 203 C97.62908152 201.32704332 97.62908152 201.32704332 98.6875 199 C103.42257235 191.14942313 111.61412614 185.67190456 120.2109375 182.62890625 C132.06498872 179.95593392 142.01685089 182.25400414 152.2734375 188.3515625 C160.91608268 194.27889387 166.72787007 202.77541529 169 213 C170.19655248 224.1496936 168.45960812 234.69929475 161.7890625 243.8671875 C155.00319257 251.9568927 147.39660953 256.88911344 137 259 C124.79576195 259.93052841 114.87731289 257.29989959 105 250 C97.39182157 243.38354911 93.21833171 234.21941351 92.1875 224.25 C92.10514294 222.83434891 92.03449972 221.41762494 92 220 C91.30777344 219.89042969 90.61554688 219.78085937 89.90234375 219.66796875 C84.31657335 218.76276485 78.78275882 217.75032393 73.25 216.5625 C53.63692106 212.63589781 33.96543569 211.42059402 14 211 C19.62618349 233.88833737 26.39192939 256.00107332 35.20654297 277.86816406 C35.57150879 278.7753418 35.93647461 279.68251953 36.3125 280.6171875 C36.63863281 281.41753418 36.96476563 282.21788086 37.30078125 283.04248047 C38 285 38 285 38 287 C38.66 286.67 39.32 286.34 40 286 C52.95227686 284.81213687 63.89689802 288.55542766 74.00390625 296.59375 C80.003381 302.08786943 84.47003939 309.84587815 85.17700195 318.05541992 C85.70651674 336.85003032 85.70651674 336.85003032 81 344 C80.443125 345.010625 79.88625 346.02125 79.3125 347.0625 C72.23631172 356.0511716 64.01440807 361.26666635 53 364 C40.35011971 365.17609698 30.91847341 363.17516913 21.10546875 355.046875 C13.26484282 347.42444831 9.03301064 339.06718085 8.65039062 328.17285156 C8.50262344 315.89112501 11.25625377 307.59168567 19 298 C19.5878125 297.53464844 20.175625 297.06929688 20.78125 296.58984375 C22.30735407 294.96887055 22.30735407 294.96887055 21.76538086 292.25976562 C20.95087084 288.79075836 19.76028164 286.32851896 17.97265625 283.25390625 C17.35052246 282.1769751 16.72838867 281.10004395 16.08740234 279.99047852 C15.41918457 278.85924561 14.7509668 277.7280127 14.0625 276.5625 C13.37173506 275.38152991 12.68114367 274.2004583 11.99072266 273.01928711 C7.36844497 265.14881773 2.5688301 257.44416849 -2.64453125 249.953125 C-4.27590329 247.60244482 -5.88812178 245.23908805 -7.5 242.875 C-10.65834159 238.24426278 -13.82608576 233.62007479 -17 229 C-19.31214239 231.16073449 -20.98224266 233.35450091 -22.64453125 236.04296875 C-23.14944092 236.85725342 -23.65435059 237.67153809 -24.17456055 238.51049805 C-24.98534058 239.83561401 -24.98534058 239.83561401 -25.8125 241.1875 C-26.38073486 242.11151611 -26.94896973 243.03553223 -27.53442383 243.98754883 C-33.63018594 253.94993244 -39.53522957 264.02117111 -45.35302734 274.14794922 C-46.94344748 276.90206841 -48.55732717 279.64119495 -50.17578125 282.37890625 C-51.11810599 284.00207129 -52.05956725 285.62573805 -53 287.25 C-53.43981201 287.9824292 -53.87962402 288.7148584 -54.33276367 289.46948242 C-56.56718171 293.14627196 -56.56718171 293.14627196 -56.45703125 297.265625 C-54.92756908 299.08621804 -53.35987136 300.80908794 -51.6875 302.5 C-44.10420206 311.14622882 -41.93594976 320.58859697 -42.52734375 331.8125 C-43.55362421 343.08872446 -48.6980334 351.51003013 -57 359 C-64.35185818 365.04162603 -73.94476933 367.71411118 -83.40625 367.33984375 C-94.29442237 365.9132308 -104.14425844 360.93874059 -111.13671875 352.38671875 C-118.22140149 341.88594161 -120.36716205 331.61995742 -119 319 C-116.12408844 307.70938425 -109.1144067 299.26439661 -99.2734375 293.21875 C-90.6814652 288.61274423 -81.49658066 287.47298027 -72 290 C-71.60296875 288.79859375 -71.2059375 287.5971875 -70.796875 286.359375 C-69.48595295 282.4204687 -68.13199622 278.49811773 -66.765625 274.578125 C-61.10311856 258.16809145 -56.47486679 241.83761707 -52.66015625 224.89550781 C-51.82866478 221.2485075 -50.92603867 217.62401671 -50 214 C-68.35091344 215.80495476 -86.59429791 217.8630599 -104.75 221.125 C-105.82287262 221.31681854 -105.82287262 221.31681854 -106.91741943 221.51251221 C-115.85932732 223.11548302 -115.85932732 223.11548302 -124.703125 225.1796875 C-128 226 -128 226 -132 226 C-131.9175 226.928125 -131.835 227.85625 -131.75 228.8125 C-131.78544862 237.58603398 -136.41191145 246.44545711 -142 253 C-152.03729646 262.40414603 -161.69122289 265.49002268 -175.3359375 265.33203125 C-185.78381334 264.38526212 -194.3164587 258.93002768 -201 251 C-208.06306195 239.5494963 -210.12717329 227.13610888 -207.3515625 213.91015625 C-203.35100638 203.08813904 -195.98259838 196.3696484 -186 191 C-185.34257812 190.63777344 -184.68515625 190.27554688 -184.0078125 189.90234375 C-175.63461211 186.0391719 -165.63484742 187.06537322 -157.1875 190.0625 C-146.45615066 194.74361107 -140.70666849 200.85277275 -135 211 C-108.43510543 206.07070369 -82.47690008 191.82990989 -59 179 C-60.71025466 175.33565049 -62.75997924 173.0654411 -65.6875 170.25 C-68.72632706 167.28053276 -71.65198671 164.32339246 -74.375 161.0625 C-78.65869232 156.06485896 -83.58313327 151.75949298 -88.47558594 147.37597656 C-89.90558112 146.08522499 -91.3167982 144.77375526 -92.7265625 143.4609375 C-97.82427313 138.72412674 -103.06513136 134.21728473 -108.5 129.875 C-109.09989746 129.38902344 -109.69979492 128.90304688 -110.31787109 128.40234375 C-113.73580877 125.61470194 -113.73580877 125.61470194 -118 125 C-120.15023224 126.02170133 -120.15023224 126.02170133 -122.375 127.375 C-131.91701408 132.98216291 -142.29723836 133.69672847 -153.12109375 131.3125 C-163.79300132 127.31677798 -172.4352275 119.35963019 -177.1875 109.0234375 C-181.24503812 98.91860698 -181.08554401 89.07320415 -177.328125 78.859375 C-172.71701757 68.93193195 -164.23360211 60.91284787 -154 57 C-143.53538694 54.29363455 -131.57921755 54.9681761 -122 60 C-112.44610608 65.63563027 -106.61270399 74.4129129 -103.4140625 84.92578125 C-101.50737412 94.47721079 -103.75744035 103.02505812 -107 112 C-106.26080322 112.27602051 -105.52160645 112.55204102 -104.76000977 112.83642578 C-102.21510283 113.90931622 -100.12829193 115.08652681 -97.83984375 116.6171875 C-97.05681885 117.13555176 -96.27379395 117.65391602 -95.46704102 118.18798828 C-94.63229248 118.74470215 -93.79754395 119.30141602 -92.9375 119.875 C-66.67984089 137.78554761 -66.67984089 137.78554761 -38 151 C-37.85304687 149.7934375 -37.85304687 149.7934375 -37.703125 148.5625 C-36.65970398 140.35905196 -35.38814155 132.21479307 -34 124.0625 C-31.07915225 106.75654391 -29.36281934 89.49316662 -28 72 C-28.67401855 71.8138916 -29.34803711 71.6277832 -30.04248047 71.43603516 C-30.93338379 71.18128418 -31.82428711 70.9265332 -32.7421875 70.6640625 C-33.62245605 70.4160791 -34.50272461 70.1680957 -35.40966797 69.91259766 C-39.6465048 68.41992131 -42.70917653 65.99948296 -46 63 C-47.03833984 62.07767578 -47.03833984 62.07767578 -48.09765625 61.13671875 C-55.50186861 53.78786499 -59.09761553 43.67492489 -59.5625 33.3125 C-58.92481312 22.00194841 -54.03962074 11.75254553 -45.86328125 3.96484375 C-43.65131206 2.14662824 -41.40720731 0.54866409 -39 -1 C-38.34773437 -1.43441406 -37.69546875 -1.86882812 -37.0234375 -2.31640625 C-25.98799967 -8.43063532 -10.48632366 -5.96827996 0 0 Z " fill="#A1C8E3" transform="translate(276,70)"/>
<path d="M0 0 C0.99128906 0.31453125 1.98257812 0.6290625 3.00390625 0.953125 C27.21488176 9.38983303 45.9219149 27.3862125 57.375 50.0625 C63.29886091 62.32903598 66.93366513 74.84774024 69.62524414 88.15307617 C69.92573517 89.63399776 70.24665105 91.1107687 70.57421875 92.5859375 C76.65434635 127.05858758 71.7655053 170.81490944 51.80078125 200.38671875 C49.62595803 203.35100659 47.3709148 206.19062836 45 209 C44.2678125 209.87140625 43.535625 210.7428125 42.78125 211.640625 C26.82435732 229.95733984 5.1952973 243.51144876 -19.46704102 245.84106445 C-24.58072257 246.16193257 -29.69027957 246.18452715 -34.8125 246.1875 C-35.91142578 246.19974609 -37.01035156 246.21199219 -38.14257812 246.22460938 C-59.27923917 246.2619753 -81.79560261 240.14451637 -98 226 C-98.7734375 225.34515625 -99.546875 224.6903125 -100.34375 224.015625 C-118.05743477 208.59815863 -130.23559481 189.82571942 -136 167 C-136.32742188 165.85402344 -136.65484375 164.70804688 -136.9921875 163.52734375 C-144.58194097 135.75842872 -144.29985332 103.76903663 -137 76 C-136.81953125 75.29488281 -136.6390625 74.58976562 -136.453125 73.86328125 C-132.27058749 57.93976344 -124.76398881 44.17271863 -115 31 C-114.45988281 30.22140625 -113.91976563 29.4428125 -113.36328125 28.640625 C-112.91339844 28.09921875 -112.46351562 27.5578125 -112 27 C-111.34 27 -110.68 27 -110 27 C-109.75507812 26.42636719 -109.51015625 25.85273438 -109.2578125 25.26171875 C-101.9899597 12.1931263 -81.52722435 3.67440753 -68 -1 C-63.05936223 -2.34573323 -58.05874121 -3.21542671 -53 -4 C-52.236875 -4.13148437 -51.47375 -4.26296875 -50.6875 -4.3984375 C-34.04977276 -6.80310902 -15.90665645 -5.20332521 0 0 Z M-76.375 51.43359375 C-93.11909081 70.46868347 -98.48002557 98.8044267 -97.17285156 123.54736328 C-96.18311927 137.59093754 -94.83763058 151.70085069 -90 165 C-89.63003906 166.04027344 -89.26007813 167.08054687 -88.87890625 168.15234375 C-86.17278986 175.18824636 -82.64082442 181.07618309 -78 187 C-77.18208984 188.06541016 -77.18208984 188.06541016 -76.34765625 189.15234375 C-67.06951054 200.52625884 -54.36315429 206.12857925 -40 208 C-24.65439404 209.26561699 -10.67008007 203.67053364 1 194 C11.83215643 184.43500149 18.21164044 171.87543743 22 158 C22.38285156 156.63875 22.38285156 156.63875 22.7734375 155.25 C30.26069849 125.00443084 29.26399225 88.32680931 13 61 C9.81336286 56.1634289 6.25426943 51.94298142 2 48 C1.49984375 47.51789063 0.9996875 47.03578125 0.484375 46.5390625 C-10.62646914 36.31085551 -23.88012405 33.6970578 -38.51171875 33.8515625 C-53.56484179 34.49212093 -65.93152003 40.73246213 -76.375 51.43359375 Z " fill="#000000" transform="translate(1524,121)"/>
<path d="M0 0 C0.7427417 0.00045319 1.4854834 0.00090637 2.25073242 0.00137329 C3.41931793 -0.00366463 3.41931793 -0.00366463 4.61151123 -0.00880432 C7.20578582 -0.01835567 9.79999598 -0.02026053 12.39428711 -0.02133179 C14.20017524 -0.02454511 16.0060631 -0.02790924 17.81195068 -0.03141785 C21.61186321 -0.03742207 25.41175298 -0.03925679 29.21166992 -0.03866577 C34.04979114 -0.0385649 38.88776309 -0.05213271 43.72584915 -0.06943798 C47.46483001 -0.08064187 51.20377599 -0.08258231 54.94277191 -0.08205605 C56.72391009 -0.08322681 58.50504944 -0.0875971 60.28617096 -0.09538841 C70.32537885 -0.13513797 79.92510262 0.18461375 89.81616211 2.14663696 C90.89794739 2.35855179 91.97973267 2.57046661 93.09429932 2.7888031 C119.83327497 8.25771468 142.38659524 21.45496869 157.90209961 44.20523071 C162.63757803 51.53730047 166.00304829 58.90056286 168.81616211 67.14663696 C169.11264648 67.97163696 169.40913086 68.79663696 169.71459961 69.64663696 C171.24660075 74.01511546 172.41122285 78.38345189 173.34741211 82.91616821 C173.65037812 84.35778146 173.9819172 85.79381309 174.34741211 87.22085571 C180.39641656 111.28343959 178.20517754 140.36030253 171.81616211 164.14663696 C171.41977539 165.69544556 171.41977539 165.69544556 171.01538086 167.27554321 C163.86491005 192.94793841 146.95553427 214.95887689 123.74194336 228.07632446 C102.84242079 239.37812328 80.41921105 242.48265312 57.01928711 242.37710571 C55.25046828 242.37591056 53.48164881 242.37546146 51.71282959 242.37571716 C48.03857347 242.37416621 44.36441671 242.3659764 40.69018555 242.35244751 C35.97582009 242.33530847 31.26156171 242.3316382 26.54716873 242.33239269 C22.90988134 242.33212151 19.27261743 242.32665114 15.63533783 242.31939125 C13.89535448 242.3162083 12.15536848 242.31423805 10.41538239 242.31349754 C7.99847303 242.31133853 5.58167952 242.30260831 3.16479492 242.29190063 C2.44592102 242.29235382 1.72704712 242.29280701 0.98638916 242.29327393 C-3.95484925 242.26113129 -3.95484925 242.26113129 -6.18383789 241.14663696 C-6.20662781 210.58907863 -6.22433583 180.03152222 -6.23490322 149.47395742 C-6.236154 145.8701403 -6.23744831 142.2663232 -6.23876953 138.6625061 C-6.23903184 137.94502087 -6.23929415 137.22753563 -6.23956441 136.48830842 C-6.2439212 124.85570028 -6.2518088 113.22309706 -6.26099069 101.59049184 C-6.27032698 89.66320643 -6.27589345 77.73592361 -6.27792639 65.8086347 C-6.27917795 59.10554798 -6.28219969 52.40247154 -6.28956795 45.6993885 C-6.29632396 39.39828517 -6.29845571 33.09719769 -6.29694557 26.79609108 C-6.29722209 24.47604028 -6.29922968 22.15598899 -6.30304337 19.83594131 C-6.30797407 16.68334754 -6.30683849 13.53081461 -6.30409241 10.3782196 C-6.30700525 9.44730485 -6.30991809 8.51639011 -6.3129192 7.55726582 C-6.29505847 0.0399203 -6.29505847 0.0399203 0 0 Z M37.81616211 36.14663696 C37.79283535 58.16422743 37.77518403 80.18181586 37.76434994 102.19941616 C37.75918651 112.42181752 37.75214291 122.64421122 37.74072266 132.86660767 C37.73077726 141.77306484 37.72430903 150.67951647 37.72207361 159.58597904 C37.72076626 164.30492499 37.71767887 169.02385507 37.71043205 173.74279594 C37.7036741 178.17909836 37.70154469 182.61537826 37.70305443 187.05168533 C37.702778 188.68478708 37.70077154 190.31788954 37.69695663 191.95098686 C37.69202289 194.17084907 37.69316262 196.39062493 37.69590759 198.61048889 C37.6949858 199.85583121 37.69406401 201.10117353 37.69311428 202.3842535 C37.50077802 205.05623291 37.50077802 205.05623291 38.81616211 206.14663696 C51.37191901 206.97487148 64.50685386 206.91101551 76.81616211 204.14663696 C77.81131836 203.95198853 78.80647461 203.75734009 79.83178711 203.55679321 C95.6640869 200.12646159 108.82946182 191.62403069 117.8137207 178.07925415 C134.36515316 151.96292354 134.78767338 117.61543963 128.81616211 88.14663696 C124.88604733 71.09867242 115.66409945 55.79879542 100.81616211 46.14663696 C92.9069909 41.67220491 84.87766138 38.29751745 75.81616211 37.14663696 C75.11289795 37.05503296 74.40963379 36.96342896 73.68505859 36.86904907 C66.18480997 36.00962013 58.73259213 36.03365365 51.19116211 36.08413696 C49.25563477 36.09090454 49.25563477 36.09090454 47.28100586 36.09780884 C44.12600836 36.10949401 40.97111074 36.12587652 37.81616211 36.14663696 Z " fill="#000000" transform="translate(1649.183837890625,120.85336303710938)"/>
<path d="M0 0 C14.19 0 28.38 0 43 0 C43.33 31.68 43.66 63.36 44 96 C75.68 96 107.36 96 140 96 C140 64.32 140 32.64 140 0 C154.19 0 168.38 0 183 0 C184.9317693 1.9317693 184.12297276 4.83962046 184.12908131 7.41062886 C184.12616847 8.3415436 184.12325563 9.27245835 184.12025452 10.23158264 C184.12153615 11.70294313 184.12153615 11.70294313 184.12284368 13.20402807 C184.12450146 16.51762862 184.11897226 19.83117944 184.11352539 23.14477539 C184.11324356 25.50942483 184.11340118 27.87407436 184.1139679 30.23872375 C184.11422605 36.01048361 184.10987474 41.78222696 184.10353024 47.55398304 C184.09639628 54.26749115 184.09488634 60.98099688 184.09374207 67.69450825 C184.09155123 79.66784298 184.08489029 91.64117091 184.07543945 103.61450195 C184.06626615 115.24829067 184.05918492 126.88207754 184.05493164 138.51586914 C184.05466892 139.23248536 184.05440619 139.94910157 184.05413551 140.68743343 C184.05283051 144.28233988 184.05156679 147.87724635 184.05032361 151.47215283 C184.03995001 181.31477332 184.02225671 211.15738587 184 241 C180.57246776 242.71376612 176.64203256 242.1414536 172.87109375 242.1328125 C171.96625748 242.13376923 171.0614212 242.13472595 170.12916565 242.13571167 C168.21509736 242.13639273 166.30102676 242.13454361 164.38696289 242.13037109 C161.44607396 242.12501561 158.50533733 242.13032178 155.56445312 242.13671875 C153.70833299 242.13605808 151.85221296 242.13477714 149.99609375 242.1328125 C148.66800941 242.13584885 148.66800941 242.13584885 147.31309509 242.13894653 C141.11495408 242.11495408 141.11495408 242.11495408 140 241 C139.89258229 239.63438234 139.85321012 238.26332757 139.84178162 236.89353943 C139.82709839 235.56624817 139.82709839 235.56624817 139.81211853 234.21214294 C139.80636307 233.23391068 139.8006076 232.25567841 139.79467773 231.24780273 C139.78477814 230.2235318 139.77487854 229.19926086 139.76467896 228.14395142 C139.73295829 224.7405228 139.70826493 221.33708019 139.68359375 217.93359375 C139.66303334 215.58089321 139.64203712 213.22819644 139.62062073 210.87550354 C139.56530576 204.66947474 139.51593819 198.46341208 139.46777344 192.25732422 C139.40881742 184.81840545 139.34253782 177.37954883 139.27747345 169.94068146 C139.17934544 158.62715878 139.09057044 147.31359708 139 136 C107.65 136 76.3 136 44 136 C43.93941406 143.56808594 43.87882812 151.13617188 43.81640625 158.93359375 C43.77593463 163.71419872 43.73517303 168.49479766 43.69335938 173.27539062 C43.62694771 180.8714804 43.56163843 188.4675689 43.50268555 196.0637207 C43.45511573 202.1845268 43.40277588 208.30527486 43.34705925 214.42601204 C43.32660213 216.76689277 43.30789475 219.10778943 43.29092598 221.44869804 C43.26695603 224.71512519 43.23689171 227.98144148 43.20532227 231.24780273 C43.1995668 232.226035 43.19381134 233.20426727 43.18788147 234.21214294 C43.17319824 235.5394342 43.17319824 235.5394342 43.15821838 236.89353943 C43.15176583 237.66692374 43.14531328 238.44030806 43.1386652 239.23712826 C43 241 43 241 42 242 C38.99360697 242.10116109 36.01066703 242.13968674 33.00390625 242.1328125 C32.1000267 242.13376923 31.19614716 242.13472595 30.26487732 242.13571167 C28.34902884 242.1363936 26.43317806 242.13453841 24.51733398 242.13037109 C21.57856058 242.12502919 18.63994045 242.13031245 15.70117188 242.13671875 C13.84374966 242.13605785 11.98632754 242.13477644 10.12890625 242.1328125 C8.80385826 242.13584885 8.80385826 242.13584885 7.45204163 242.13894653 C1.22990815 242.11495408 1.22990815 242.11495408 -1 241 C-1.02278992 210.44244166 -1.04049794 179.88488526 -1.05106533 149.32732046 C-1.05231611 145.72350334 -1.05361042 142.11968624 -1.05493164 138.51586914 C-1.05519395 137.79838391 -1.05545626 137.08089867 -1.05572652 136.34167146 C-1.06008331 124.70906332 -1.06797091 113.07646009 -1.0771528 101.44385488 C-1.08648909 89.51656947 -1.09205556 77.58928665 -1.09408849 65.66199774 C-1.09534006 58.95891102 -1.0983618 52.25583457 -1.10573006 45.55275154 C-1.11248607 39.25164821 -1.11461782 32.95056072 -1.11310768 26.64945412 C-1.1133842 24.32940332 -1.11539179 22.00935203 -1.11920547 19.68930435 C-1.12413618 16.53671057 -1.1230006 13.38417765 -1.12025452 10.23158264 C-1.12316736 9.30066789 -1.1260802 8.36975314 -1.12908131 7.41062886 C-1.11412121 1.11412121 -1.11412121 1.11412121 0 0 Z " fill="#000000" transform="translate(1151,121)"/>
<path d="M0 0 C29.43601452 -0.62770401 54.76606825 9.5893697 76.73046875 29.11328125 C76.12298961 32.44700824 74.98308596 34.37202468 72.85546875 36.98828125 C72.23542969 37.76171875 71.61539062 38.53515625 70.9765625 39.33203125 C70.23535156 40.24984375 69.49414062 41.16765625 68.73046875 42.11328125 C66.78633666 44.56640991 64.85239544 47.02749725 62.91796875 49.48828125 C62.19794678 50.39876221 62.19794678 50.39876221 61.46337891 51.32763672 C59.45490425 53.87436264 57.53067405 56.41297329 55.73046875 59.11328125 C51.5793985 58.49982259 48.5043594 56.153128 45.10546875 53.86328125 C28.35244226 42.88274374 10.01537974 37.11685763 -10.17578125 40.83203125 C-19.99284572 43.4331338 -26.07969758 46.37862561 -31.32421875 55.1484375 C-34.41219562 61.56683571 -34.1593319 69.25655285 -32.08203125 75.92578125 C-25.08887574 88.22408922 -12.78520032 93.0911132 -0.16549683 98.10974121 C2.09319866 99.00826299 4.34575308 99.92091372 6.59741211 100.83691406 C13.13061625 103.48932188 19.67944951 106.09941185 26.24609375 108.66796875 C37.742416 113.19444317 48.4138014 118.27776869 58.73046875 125.11328125 C59.705 125.7578125 60.67953125 126.40234375 61.68359375 127.06640625 C75.55134853 137.19071802 82.34860655 152.73807872 84.91943359 169.21337891 C87.39742772 186.82287633 83.32107576 204.31017374 72.6796875 218.66796875 C64.74651862 228.62020065 57.09239662 235.56026951 45.79296875 241.30078125 C45.13675537 241.63416504 44.48054199 241.96754883 43.80444336 242.31103516 C16.1922459 255.866424 -16.82988875 253.29095892 -45.26953125 244.11328125 C-46.36007812 243.778125 -47.450625 243.44296875 -48.57421875 243.09765625 C-64.10647422 237.80167092 -77.8361132 227.70644766 -89.26953125 216.11328125 C-87.5542057 212.14659093 -84.93434495 208.91102285 -82.26953125 205.55078125 C-81.78766357 204.93960449 -81.3057959 204.32842773 -80.80932617 203.69873047 C-76.21395536 197.93184366 -71.32138134 192.48292668 -66.26953125 187.11328125 C-63.05640875 188.54373176 -60.81390256 190.33385512 -58.20703125 192.67578125 C-53.39164242 196.60261619 -48.32030702 199.28472109 -42.70703125 201.92578125 C-41.91611084 202.29840088 -41.12519043 202.67102051 -40.31030273 203.05493164 C-21.12630807 211.82731242 -0.82109825 214.97799671 19.73046875 209.11328125 C28.0456531 206.01494823 33.81900535 201.08107706 37.73046875 193.11328125 C39.90122617 186.35822691 39.77722281 177.51146477 36.73046875 171.11328125 C29.49403416 157.50878423 11.6421158 151.411032 -2.01171875 146.37890625 C-6.21183492 144.74720644 -10.26457339 142.84737017 -14.32788086 140.90771484 C-17.78194637 139.26283784 -21.24891275 137.67502382 -24.765625 136.16796875 C-38.4862511 130.28293538 -50.57237378 123.79209025 -61.26953125 113.11328125 C-61.99011719 112.40429688 -62.71070313 111.6953125 -63.453125 110.96484375 C-68.82248524 105.34173302 -72.15953885 99.20485628 -75.26953125 92.11328125 C-75.63046875 91.30761719 -75.99140625 90.50195312 -76.36328125 89.671875 C-81.97380202 73.83182713 -80.00180018 55.63874725 -73.15234375 40.6328125 C-63.6117936 22.79871357 -47.70872125 10.48593874 -28.47851562 4.54638672 C-18.87362127 1.7458053 -9.98428051 0.34593087 0 0 Z " fill="#000000" transform="translate(1022.26953125,115.88671875)"/>
<path d="M0 0 C15.18 0 30.36 0 46 0 C47.87376651 5.62129952 49.68517221 11.17339564 51.25 16.875 C51.45689453 17.62330078 51.66378906 18.37160156 51.87695312 19.14257812 C54.14708264 27.42226333 56.27361207 35.7393642 58.4152832 44.05297852 C60.03410639 50.32257413 61.68255116 56.57963712 63.4375 62.8125 C65.63159307 70.60679806 67.72990168 78.42520286 69.8125 86.25 C69.98339142 86.89207397 70.15428284 87.53414795 70.33035278 88.19567871 C71.38283758 92.1508583 72.43412548 96.10635531 73.48504639 100.06195068 C85.75012511 148.82332585 85.75012511 148.82332585 100 197 C103.61921926 183.6652468 107.18960845 170.32089622 110.625 156.9375 C113.02730998 147.60407596 115.5889492 138.34507894 118.36865234 129.11816406 C119.56985578 125.08814048 120.7211385 121.04378402 121.875 117 C122.12459473 116.12593506 122.37418945 115.25187012 122.63134766 114.35131836 C124.59135025 107.47020728 126.51571515 100.57936289 128.4375 93.6875 C130.90330991 84.85151341 133.43095089 76.03631459 136.01879883 67.23535156 C138.02500366 60.39304465 139.98814257 53.53948593 141.93359375 46.6796875 C142.46394317 44.81241709 142.99429804 42.94514822 143.5246582 41.07788086 C144.31661171 38.2889918 145.10742722 35.49980806 145.89437866 32.70950317 C146.63745348 30.07498702 147.38483104 27.44172041 148.1328125 24.80859375 C148.34727524 24.0434848 148.56173798 23.27837585 148.78269958 22.49008179 C150.94833005 14.89260437 153.49237778 7.52286665 156 0 C170.85 0 185.7 0 201 0 C199.73924955 5.67337704 198.49491805 10.92566069 196.75 16.41015625 C196.53597031 17.08696945 196.32194061 17.76378265 196.10142517 18.46110535 C195.40444153 20.66269504 194.70222288 22.86257646 194 25.0625 C193.50551734 26.62128502 193.01146531 28.1802067 192.51782227 29.73925781 C191.75857994 32.13703493 190.99908287 34.53472734 190.23817444 36.93197632 C188.61151546 42.05819736 186.99941378 47.18870496 185.40234375 52.32421875 C185.19682388 52.98504959 184.99130402 53.64588043 184.77955627 54.32673645 C184.36944255 55.64566324 183.95935223 56.9645973 183.54928589 58.28353882 C178.08940555 75.83321256 172.43522379 93.31828351 166.76757812 110.80175781 C161.48022166 127.00001865 161.48022166 127.00001865 156.5625 143.3125 C154.29976677 151.20138007 151.77771147 159.00544344 149.25 166.8125 C148.92554901 167.81463028 148.92554901 167.81463028 148.59454346 168.83700562 C147.49350751 172.23599104 146.3909433 175.63447854 145.28759766 179.03271484 C143.33048022 185.06119326 141.38150484 191.0922808 139.4375 197.125 C139.07551514 198.24608154 138.71353027 199.36716309 138.34057617 200.5222168 C136.35062712 206.70968008 134.40516739 212.9086632 132.5078125 219.125 C132.19926079 220.13274979 132.19926079 220.13274979 131.88447571 221.16085815 C130.88752992 224.41760199 129.89710606 227.67588985 128.91772461 230.93798828 C128.38804077 232.67411377 128.38804077 232.67411377 127.84765625 234.4453125 C127.53836182 235.47156738 127.22906738 236.49782227 126.91040039 237.55517578 C126 240 126 240 124 242 C121.91944885 242.26069641 121.91944885 242.26069641 119.32250977 242.2746582 C118.35132706 242.28419022 117.38014435 242.29372223 116.37953186 242.30354309 C115.32745041 242.30263168 114.27536896 242.30172028 113.19140625 242.30078125 C112.11374496 242.30506638 111.03608368 242.3093515 109.92576599 242.31376648 C107.64347029 242.31951726 105.36115626 242.32000457 103.07885742 242.31567383 C99.58024919 242.31251602 96.08248783 242.33595702 92.58398438 242.36132812 C90.36979274 242.36360119 88.15559882 242.36430458 85.94140625 242.36328125 C84.89134903 242.372491 83.84129181 242.38170074 82.75941467 242.39118958 C81.29791237 242.38184639 81.29791237 242.38184639 79.80688477 242.37231445 C78.52020653 242.37325859 78.52020653 242.37325859 77.20753479 242.3742218 C74.51331777 241.91749752 73.66144881 241.12611989 72 239 C71.13134766 236.95507812 71.13134766 236.95507812 70.4140625 234.53125 C70.12982422 233.58958984 69.84558594 232.64792969 69.55273438 231.67773438 C69.09350586 230.10475586 69.09350586 230.10475586 68.625 228.5 C68.29048828 227.38431641 67.95597656 226.26863281 67.61132812 225.11914062 C66.84298069 222.55571598 66.07816906 219.99144149 65.31738281 217.42578125 C63.85054952 212.48717145 62.35963042 207.55592115 60.8671875 202.625 C60.59392136 201.72210739 60.32065521 200.81921478 60.03910828 199.88896179 C59.4774483 198.03341129 58.91573614 196.17787657 58.35397339 194.32235718 C57.49413039 191.48060112 56.63564254 188.63843909 55.77758789 185.79614258 C52.60354508 175.28352544 49.40869659 164.77798573 46.16577148 154.28637695 C43.07701524 144.28116369 40.03536473 134.26174173 36.99099731 124.24295044 C31.71180777 106.87046939 26.38874899 89.51341133 20.98828125 72.17822266 C18.70494051 64.8352064 16.4456717 57.48479824 14.19140625 50.1328125 C12.75317189 45.44277031 11.30501164 40.75592198 9.85070801 36.07084656 C8.83533293 32.79643299 7.82441802 29.52065119 6.81414795 26.24465942 C6.31752316 24.63769614 5.81906199 23.0312991 5.31866455 21.42550659 C4.61507451 19.16666982 3.91819213 16.90585897 3.22265625 14.64453125 C2.90759377 13.64140396 2.90759377 13.64140396 2.58616638 12.61801147 C1.27734576 8.33261007 0.64600263 4.52201844 0 0 Z " fill="#000000" transform="translate(616,121)"/>
<path d="M0 0 C14.52 0 29.04 0 44 0 C44 79.86 44 159.72 44 242 C29.48 242 14.96 242 0 242 C0 162.14 0 82.28 0 0 Z " fill="#000000" transform="translate(1874,121)"/>
<path d="M0 0 C14.52 0 29.04 0 44 0 C44 79.86 44 159.72 44 242 C29.48 242 14.96 242 0 242 C0 162.14 0 82.28 0 0 Z " fill="#000000" transform="translate(845,121)"/>
<path d="M0 0 C3.36657902 1.32080197 6.50868426 2.77660899 9.6875 4.5 C14.67381365 7.04189523 19.48388816 8.21366065 25 9 C23.3087028 12.55517575 21.29316563 15.8904539 19.25 19.25 C7.77157328 38.27657144 -3.21253526 57.5756262 -14 77 C-18.75 76.125 -18.75 76.125 -21 75 C-20.27179784 70.27602187 -18.57994226 66.06024406 -16.875 61.625 C-9.33757432 41.46067548 -4.20536778 21.0922194 0 0 Z " fill="#2F3335" transform="translate(229,287)"/>
<path d="M0 0 C2.96252034 2.96252034 3.34321406 6.66460942 4.3125 10.625 C9.42817652 30.71086065 15.67781649 50.96777614 24.1875 69.890625 C25 72 25 72 25 75 C21.535 75.99 21.535 75.99 18 77 C17.6282666 76.35675781 17.2565332 75.71351563 16.87353516 75.05078125 C-0.50646415 44.56025012 -0.50646415 44.56025012 -20.67407227 15.87597656 C-22 14 -22 14 -22 12 C-21.16597656 11.72027344 -20.33195312 11.44054687 -19.47265625 11.15234375 C-11.89498437 8.45285239 -5.99593493 5.37620006 0 0 Z " fill="#303435" transform="translate(285,284)"/>
<path d="M0 0 C2.31 0 4.62 0 7 0 C7.02916504 0.65967773 7.05833008 1.31935547 7.08837891 1.99902344 C7.8274921 17.29840542 9.44244086 32.22116909 12 47.3125 C12.13142395 48.09403442 12.2628479 48.87556885 12.39825439 49.68078613 C13.88033686 58.75120527 13.88033686 58.75120527 16.08984375 67.66088867 C16.90451979 70.64970956 17.18586106 72.93329245 17 76 C16.35973877 75.99476318 15.71947754 75.98952637 15.05981445 75.98413086 C12.14405305 75.96327571 9.22830738 75.95031271 6.3125 75.9375 C5.30509766 75.92912109 4.29769531 75.92074219 3.25976562 75.91210938 C2.28330078 75.90888672 1.30683594 75.90566406 0.30078125 75.90234375 C-1.04246216 75.89448853 -1.04246216 75.89448853 -2.4128418 75.88647461 C-5.03641759 76.00159802 -7.44293053 76.41765715 -10 77 C-9.88390381 76.39446289 -9.76780762 75.78892578 -9.64819336 75.16503906 C-8.06867604 66.7253926 -6.78452132 58.24734894 -5.5625 49.75 C-5.45394684 48.99874847 -5.34539368 48.24749695 -5.23355103 47.47348022 C-2.96868912 31.69440785 -1.35935582 15.88059396 0 0 Z " fill="#303435" transform="translate(252,143)"/>
<path d="M0 0 C0.17015625 0.96679688 0.3403125 1.93359375 0.515625 2.9296875 C0.75987726 4.24489196 1.00470016 5.55999053 1.25 6.875 C1.48203125 8.15117187 1.7140625 9.42734375 1.953125 10.7421875 C3.02367678 15.72289365 5.00240021 20.32974119 7 25 C5.76894531 25.07476562 4.53789062 25.14953125 3.26953125 25.2265625 C-22.69593312 27.03925518 -48.5085982 31.85938517 -74 37 C-74 35.02 -74 33.04 -74 31 C-69.3605648 29.03434456 -64.68917599 27.20755841 -59.90234375 25.6328125 C-49.3637719 22.14319683 -39.18602995 18.03940485 -29.0625 13.5 C-27.86713623 12.96640869 -26.67177246 12.43281738 -25.44018555 11.88305664 C-18.29378139 8.64026269 -11.38850431 5.13147774 -4.54467773 1.30273438 C-2 0 -2 0 0 0 Z " fill="#2F3335" transform="translate(217,255)"/>
<path d="M0 0 C1.17691406 0.54527344 2.35382813 1.09054688 3.56640625 1.65234375 C25.80441983 11.86362986 48.43847066 20.37331987 72 27 C73.125 31.75 73.125 31.75 72 34 C65.08355763 33.42772631 58.36960791 32.39306958 51.5625 31.0625 C32.74994508 27.54898802 14.11434605 26.55053613 -5 26 C-4.79721436 25.37818848 -4.59442871 24.75637695 -4.38549805 24.11572266 C-2.62773995 18.53300255 -1.4139737 13.19108514 -0.8125 7.375 C-0.73064453 6.65699219 -0.64878906 5.93898438 -0.56445312 5.19921875 C-0.36814082 3.46705131 -0.1828283 1.73364251 0 0 Z " fill="#303334" transform="translate(296,251)"/>
<path d="M0 0 C5.0283812 1.65956455 9.05075064 4.59485988 13.375 7.5625 C30.79295195 19.33053019 49.06186637 29.86513554 68 39 C67.13375 39.99 66.2675 40.98 65.375 42 C61.27651481 46.77832871 57.49176778 51.76234833 54 57 C51.02363795 55.66420352 48.96048142 54.20765397 46.6875 51.875 C46.07648438 51.24851563 45.46546875 50.62203125 44.8359375 49.9765625 C43.10245576 48.11030343 41.45466127 46.1965619 39.8125 44.25 C36.30555672 40.17307948 32.39393735 36.59387665 28.40576172 33.00146484 C25.66437705 30.53155543 22.99674659 28.03291633 20.4375 25.375 C13.34803426 18.1647891 5.00574017 12.14761776 -3 6 C-2 4 -1 2 0 0 Z " fill="#303435" transform="translate(166,185)"/>
<path d="M0 0 C2.0625 0.75 2.0625 0.75 4 2 C4.495 3.485 4.495 3.485 5 5 C4.12859375 5.73863281 3.2571875 6.47726563 2.359375 7.23828125 C1.15614957 8.26290291 -0.04696952 9.28764945 -1.25 10.3125 C-1.8171875 10.79267578 -2.384375 11.27285156 -2.96875 11.76757812 C-13.36546171 20.6386854 -23.20754453 30.04114143 -32.84887695 39.71850586 C-34.58884712 41.46392971 -36.33422664 43.20382024 -38.08007812 44.94335938 C-39.20084231 46.06478298 -40.32129699 47.18651599 -41.44140625 48.30859375 C-41.956996 48.82215927 -42.47258575 49.33572479 -43.00379944 49.86485291 C-45.06987965 51.94445654 -46.99013824 53.98651224 -48.72241211 56.35571289 C-49.14401611 56.89832764 -49.56562012 57.44094238 -50 58 C-50.66 58 -51.32 58 -52 58 C-53.2265625 56.27734375 -53.2265625 56.27734375 -54.625 53.9375 C-57.38410879 49.60761145 -60.45252425 46.58536 -64.4609375 43.41015625 C-64.96882813 42.94480469 -65.47671875 42.47945312 -66 42 C-66 41.34 -66 40.68 -66 40 C-64.51113281 39.27296875 -64.51113281 39.27296875 -62.9921875 38.53125 C-48.29794653 31.30529095 -34.50484458 23.24794976 -21 14 C-20.18112305 13.43958008 -19.36224609 12.87916016 -18.51855469 12.30175781 C-13.34040094 8.75713151 -13.34040094 8.75713151 -8.16918945 5.20239258 C-7.39534912 4.67025146 -6.62150879 4.13811035 -5.82421875 3.58984375 C-5.13416748 3.11409912 -4.44411621 2.63835449 -3.7331543 2.14819336 C-2 1 -2 1 0 0 Z " fill="#303435" transform="translate(344,182)"/>
</svg>
