<svg width="76" height="23" viewBox="0 0 76 23" fill="none" xmlns="http://www.w3.org/2000/svg">
<path d="M75.028 16.199V19.103C74.692 19.151 74.34 19.175 73.972 19.175C72.644 19.175 71.7 18.895 71.14 18.335C70.58 17.759 70.3 16.839 70.3 15.575V1.12695H73.708V15.335C73.708 15.639 73.764 15.863 73.876 16.007C73.988 16.151 74.22 16.223 74.572 16.223C74.652 16.223 74.7401 16.223 74.8361 16.223C74.9481 16.207 75.012 16.199 75.028 16.199Z" fill="#09090B"/>
<path d="M68.9043 16.199V19.103C68.5683 19.151 68.2163 19.175 67.8483 19.175C66.5203 19.175 65.5763 18.895 65.0163 18.335C64.4563 17.759 64.1763 16.839 64.1763 15.575V1.12695H67.5843V15.335C67.5843 15.639 67.6403 15.863 67.7523 16.007C67.8643 16.151 68.0963 16.223 68.4483 16.223C68.5283 16.223 68.6163 16.223 68.7123 16.223C68.8243 16.207 68.8883 16.199 68.9043 16.199Z" fill="#09090B"/>
<path d="M56.9272 9.47943V6.55143H61.8472V19.1274H58.4392V9.47943H56.9272ZM61.6312 4.34343C61.2472 4.72743 60.7512 4.91943 60.1432 4.91943C59.5352 4.91943 59.0392 4.72743 58.6552 4.34343C58.2712 3.95943 58.0792 3.47143 58.0792 2.87943C58.0792 2.28743 58.2712 1.79943 58.6552 1.41543C59.0392 1.01543 59.5352 0.81543 60.1432 0.81543C60.7512 0.81543 61.2472 1.01543 61.6312 1.41543C62.0152 1.79943 62.2072 2.28743 62.2072 2.87943C62.2072 3.47143 62.0152 3.95943 61.6312 4.34343Z" fill="#09090B"/>
<path d="M52.2091 13.7028V6.55078H55.6171V19.1268H52.4731V17.5908C51.8171 18.8068 50.5851 19.4148 48.7771 19.4148C47.3051 19.4148 46.1691 18.9668 45.3691 18.0708C44.5851 17.1588 44.1931 15.9348 44.1931 14.3988V6.55078H47.6011V14.0148C47.6011 15.6628 48.2971 16.4868 49.6891 16.4868C50.5211 16.4868 51.1451 16.2468 51.5611 15.7668C51.9931 15.2868 52.2091 14.5988 52.2091 13.7028Z" fill="#09090B"/>
<path d="M42.4588 10.6066C42.4588 13.2946 41.5548 15.4786 39.7468 17.1586L43.2988 22.1026H39.3148L37.0108 18.8866C35.9388 19.2866 34.8028 19.4866 33.6028 19.4866C31.0268 19.4866 28.9068 18.6466 27.2428 16.9666C25.5788 15.2866 24.7468 13.1666 24.7468 10.6066C24.7468 8.04656 25.5788 5.92656 27.2428 4.24656C28.9068 2.56656 31.0268 1.72656 33.6028 1.72656C36.1788 1.72656 38.2988 2.56656 39.9628 4.24656C41.6268 5.92656 42.4588 8.04656 42.4588 10.6066ZM37.3228 14.6386C38.2828 13.6146 38.7628 12.2706 38.7628 10.6066C38.7628 8.94256 38.2828 7.60656 37.3228 6.59856C36.3628 5.57456 35.1228 5.06256 33.6028 5.06256C32.0828 5.06256 30.8428 5.57456 29.8828 6.59856C28.9228 7.60656 28.4428 8.94256 28.4428 10.6066C28.4428 12.2706 28.9228 13.6146 29.8828 14.6386C30.8428 15.6466 32.0828 16.1506 33.6028 16.1506C35.1228 16.1506 36.3628 15.6466 37.3228 14.6386Z" fill="#09090B"/>
<path d="M21.9126 2.11127C6.30754 0.351878 2.58476 14.682 0.840667 20.8068C1.53423 20.885 2.22718 20.9631 2.91951 21.0411C4.00329 17.6517 5.95283 15.94 8.76814 15.906C12.9881 15.855 16.5197 12.5657 17.9119 9.56193L16.4687 8.34565C16.8545 8.03797 17.2405 7.73029 17.6263 7.4226C18.7839 6.49956 20.0046 5.05684 21.9126 2.11127Z" fill="#52525B"/>
<path d="M18.8447 0.989746C3.14079 0.989746 1.04693 15.6468 0 21.9283C0.697956 21.9283 1.3953 21.9283 2.09202 21.9283C2.78924 18.4388 4.53473 16.5195 7.3285 16.1702C11.5162 15.6468 14.657 11.9825 15.7039 8.84172L14.1335 7.79479C14.4825 7.44581 14.8315 7.09683 15.1805 6.74786C16.2274 5.70093 17.2787 4.13053 18.8447 0.989746Z" fill="#09090B"/>
</svg>
