<svg width="98" height="26" viewBox="0 0 98 26" fill="none" xmlns="http://www.w3.org/2000/svg">
<path d="M32.4928 11.8598H36.2848C37.0528 11.8598 37.6288 11.6758 38.0128 11.3078C38.3968 10.9398 38.5888 10.4358 38.5888 9.79584C38.5888 9.15584 38.3968 8.65184 38.0128 8.28384C37.6288 7.89984 37.0528 7.70784 36.2848 7.70784H32.4928V11.8598ZM32.4928 15.0758V21.5318H28.9888V4.49184H36.2848C38.2368 4.49184 39.6928 4.97984 40.6528 5.95584C41.6128 6.93184 42.0928 8.21184 42.0928 9.79584C42.0928 11.3638 41.5968 12.6358 40.6048 13.6118C39.6288 14.5878 38.1888 15.0758 36.2848 15.0758H32.4928Z" fill="#09090B"/>
<path d="M57.8026 21.5318H53.7466L50.5546 15.0758H47.1946V21.5318H43.6906V4.49184H51.4186C53.2266 4.49184 54.6266 4.97984 55.6186 5.95584C56.6106 6.93184 57.1066 8.21984 57.1066 9.81984C57.1066 10.9718 56.8426 11.9718 56.3146 12.8198C55.8026 13.6678 55.0586 14.2918 54.0826 14.6918L57.8026 21.5318ZM53.0506 11.3318C53.4186 10.9638 53.6026 10.4598 53.6026 9.81984C53.6026 9.17984 53.4106 8.66784 53.0266 8.28384C52.6586 7.89984 52.1226 7.70784 51.4186 7.70784H47.1946V11.8598H51.4186C52.1386 11.8598 52.6826 11.6838 53.0506 11.3318Z" fill="#09090B"/>
<path d="M58.2305 7.37184V4.49184H64.8545V7.37184H63.2945V18.6518H64.8545V21.5318H58.2305V18.6518H59.7905V7.37184H58.2305Z" fill="#09090B"/>
<path d="M72.6211 18.7478C73.5651 18.7478 74.3011 18.5798 74.8291 18.2438C75.3571 17.8918 75.6211 17.4038 75.6211 16.7798C75.6211 16.3318 75.4531 15.9638 75.1171 15.6758C74.7811 15.3878 74.3411 15.1638 73.7971 15.0038C73.2691 14.8438 72.6771 14.6998 72.0211 14.5718C71.3811 14.4278 70.7331 14.2518 70.0771 14.0438C69.4371 13.8198 68.8451 13.5398 68.3011 13.2038C67.7731 12.8518 67.3411 12.3558 67.0051 11.7158C66.6691 11.0598 66.5011 10.2838 66.5011 9.38784C66.5011 7.89984 67.0611 6.65184 68.1811 5.64384C69.3011 4.63584 70.8131 4.13184 72.7171 4.13184C74.6371 4.13184 76.1571 4.67584 77.2771 5.76384C78.4131 6.85184 79.0051 8.20384 79.0531 9.81984H75.6211C75.5891 9.05184 75.3091 8.43584 74.7811 7.97184C74.2691 7.49184 73.5651 7.25184 72.6691 7.25184C71.8531 7.25184 71.1971 7.43584 70.7011 7.80384C70.2051 8.15584 69.9571 8.61184 69.9571 9.17184C69.9571 9.63584 70.1251 10.0118 70.4611 10.2998C70.7971 10.5878 71.2371 10.8118 71.7811 10.9718C72.3251 11.1318 72.9251 11.2838 73.5811 11.4278C74.2371 11.5558 74.8931 11.7318 75.5491 11.9558C76.2051 12.1798 76.8051 12.4678 77.3491 12.8198C77.8931 13.1558 78.3331 13.6518 78.6691 14.3078C79.0051 14.9638 79.1731 15.7478 79.1731 16.6598C79.1731 18.1958 78.5491 19.4518 77.3011 20.4278C76.0691 21.3878 74.4451 21.8678 72.4291 21.8678C71.2931 21.8678 70.2931 21.7078 69.4291 21.3878C68.5651 21.0518 67.8851 20.6038 67.3891 20.0438C66.8931 19.4838 66.5171 18.8758 66.2611 18.2198C66.0211 17.5638 65.8851 16.8678 65.8531 16.1318H69.3091C69.3571 16.8838 69.6611 17.5078 70.2211 18.0038C70.7811 18.4998 71.5811 18.7478 72.6211 18.7478Z" fill="#09090B"/>
<path d="M84.5435 4.49184L89.5355 11.0918L94.5275 4.49184H97.7435V21.5318H94.3835V9.91584L89.5835 16.0838H89.4875L84.6875 9.91584V21.5318H81.3275V4.49184H84.5435Z" fill="#09090B"/>
<path d="M0.670022 17.4487L3.8431 22.5131C4.64601 23.7945 6.05182 24.5727 7.56405 24.5727H14.3485C15.8607 24.5727 17.2665 23.7946 18.0694 22.5131L21.2426 17.4487C22.136 16.0228 22.136 14.2117 21.2426 12.7859L14.6773 2.30761C12.9567 -0.438474 8.95606 -0.438473 7.23545 2.30761L0.670062 12.7859C-0.22334 14.2118 -0.223355 16.0228 0.670022 17.4487Z" fill="url(#paint0_linear_10235_18547)"/>
<path d="M20.3643 15.7501L19.5479 20.6004C19.3413 21.8276 18.5177 22.8622 17.368 23.3388L12.2101 25.4767C11.0604 25.9533 9.74641 25.8047 8.73217 25.0835L4.72373 22.2331C3.59516 21.4306 3.02446 20.0537 3.25436 18.6881L4.9438 8.65298C5.38656 6.02302 8.42807 4.76233 10.6015 6.30787L18.895 12.2052C20.0235 13.0077 20.5942 14.3846 20.3643 15.7501Z" fill="url(#paint1_linear_10235_18547)"/>
<g style="mix-blend-mode:hard-light">
<path d="M1.54766 15.8768L2.35376 20.6655C2.55773 21.8772 3.37086 22.8987 4.50597 23.3692L9.59853 25.48C10.7336 25.9505 12.0309 25.8038 13.0323 25.0917L16.9899 22.2775C18.1042 21.4852 18.6676 20.1258 18.4407 18.7775L16.7726 8.86959C16.3355 6.27299 13.3326 5.02829 11.1866 6.55423L2.9984 12.3768C1.88417 13.1691 1.3207 14.5285 1.54766 15.8768Z" fill="url(#paint2_linear_10235_18547)"/>
</g>
<defs>
<linearGradient id="paint0_linear_10235_18547" x1="10.9563" y1="0.248047" x2="10.9563" y2="24.5727" gradientUnits="userSpaceOnUse">
<stop stop-color="#5D4CFE"/>
<stop offset="1" stop-color="#9265E9"/>
</linearGradient>
<linearGradient id="paint1_linear_10235_18547" x1="4.17268" y1="4.92606" x2="25.7906" y2="34.4725" gradientUnits="userSpaceOnUse">
<stop stop-color="#9265E9"/>
<stop offset="1" stop-color="#5D4CFE"/>
</linearGradient>
<linearGradient id="paint2_linear_10235_18547" x1="9.99416" y1="15.8213" x2="2.13909" y2="25.7519" gradientUnits="userSpaceOnUse">
<stop stop-color="#5D4CFE"/>
<stop offset="1" stop-color="#9265E9"/>
</linearGradient>
</defs>
</svg>
