<svg width="172" height="33" viewBox="0 0 172 33" fill="none" xmlns="http://www.w3.org/2000/svg">
<g clip-path="url(#clip0_36_237)">
<rect x="1.875" y="6.375" width="2.24992" height="20.2493" rx="0.236664" fill="#161517"/>
<rect x="6.37512" y="6.375" width="2.24992" height="20.2493" rx="0.236664" fill="#161517"/>
<rect x="10.8752" y="6.375" width="2.24992" height="20.2493" rx="0.236664" fill="#161517"/>
<rect x="15.3742" y="6.375" width="2.24992" height="20.2493" rx="0.236664" fill="#161517"/>
<rect x="19.8754" y="14.2502" width="2.24992" height="4.49985" rx="0.236664" fill="#161517"/>
</g>
<path d="M39.2 11.642C37.916 11.642 36.914 12.086 36.194 12.974C35.474 13.85 35.114 15.056 35.114 16.592C35.114 18.116 35.45 19.316 36.122 20.192C36.794 21.068 37.814 21.506 39.182 21.506C39.734 21.506 40.262 21.458 40.766 21.362C41.282 21.254 41.804 21.116 42.332 20.948V22.622C41.828 22.814 41.312 22.952 40.784 23.036C40.268 23.132 39.656 23.18 38.948 23.18C37.628 23.18 36.536 22.91 35.672 22.37C34.808 21.818 34.16 21.05 33.728 20.066C33.296 19.07 33.08 17.906 33.08 16.574C33.08 15.278 33.314 14.132 33.782 13.136C34.262 12.14 34.958 11.366 35.87 10.814C36.782 10.25 37.898 9.968 39.218 9.968C39.866 9.968 40.496 10.04 41.108 10.184C41.732 10.316 42.302 10.508 42.818 10.76L42.098 12.38C41.678 12.188 41.222 12.02 40.73 11.876C40.25 11.72 39.74 11.642 39.2 11.642ZM46.7926 23H44.8846V9.32H46.7926V23ZM50.7609 9.608C51.0489 9.608 51.3009 9.692 51.5169 9.86C51.7329 10.028 51.8409 10.31 51.8409 10.706C51.8409 11.09 51.7329 11.372 51.5169 11.552C51.3009 11.72 51.0489 11.804 50.7609 11.804C50.4489 11.804 50.1849 11.72 49.9689 11.552C49.7649 11.372 49.6629 11.09 49.6629 10.706C49.6629 10.31 49.7649 10.028 49.9689 9.86C50.1849 9.692 50.4489 9.608 50.7609 9.608ZM51.6969 13.298V23H49.7889V13.298H51.6969ZM58.5992 23.18C57.2552 23.18 56.1752 22.784 55.3592 21.992C54.5432 21.188 54.1352 19.928 54.1352 18.212C54.1352 17.012 54.3332 16.04 54.7292 15.296C55.1252 14.552 55.6712 14.006 56.3672 13.658C57.0632 13.298 57.8552 13.118 58.7432 13.118C59.2832 13.118 59.7872 13.178 60.2552 13.298C60.7352 13.406 61.1312 13.532 61.4432 13.676L60.8672 15.224C60.5312 15.092 60.1712 14.978 59.7872 14.882C59.4152 14.786 59.0612 14.738 58.7252 14.738C56.9732 14.738 56.0972 15.89 56.0972 18.194C56.0972 19.298 56.3132 20.138 56.7452 20.714C57.1772 21.29 57.8132 21.578 58.6532 21.578C59.1932 21.578 59.6672 21.518 60.0752 21.398C60.4952 21.278 60.8792 21.122 61.2272 20.93V22.586C60.8792 22.79 60.5012 22.94 60.0932 23.036C59.6852 23.132 59.1872 23.18 58.5992 23.18ZM65.4074 16.16C65.4074 16.4 65.3954 16.688 65.3714 17.024C65.3474 17.36 65.3294 17.66 65.3174 17.924H65.3714C65.5034 17.744 65.6834 17.51 65.9114 17.222C66.1514 16.922 66.3614 16.676 66.5414 16.484L69.5114 13.298H71.7254L67.8194 17.456L71.9774 23H69.7274L66.5234 18.662L65.4074 19.598V23H63.5174V9.32H65.4074V16.16ZM83.8141 23H81.8701V17.132H75.7321V23H73.7881V10.148H75.7321V15.476H81.8701V10.148H83.8141V23ZM95.587 18.14C95.587 19.748 95.173 20.99 94.345 21.866C93.517 22.742 92.401 23.18 90.997 23.18C90.121 23.18 89.341 22.982 88.657 22.586C87.985 22.19 87.451 21.62 87.055 20.876C86.671 20.12 86.479 19.208 86.479 18.14C86.479 16.532 86.887 15.296 87.703 14.432C88.519 13.556 89.635 13.118 91.051 13.118C91.939 13.118 92.719 13.316 93.391 13.712C94.075 14.096 94.609 14.66 94.993 15.404C95.389 16.148 95.587 17.06 95.587 18.14ZM88.441 18.14C88.441 19.232 88.645 20.084 89.053 20.696C89.473 21.308 90.133 21.614 91.033 21.614C91.933 21.614 92.587 21.308 92.995 20.696C93.415 20.084 93.625 19.232 93.625 18.14C93.625 17.036 93.415 16.19 92.995 15.602C92.575 15.002 91.915 14.702 91.015 14.702C90.115 14.702 89.461 15.002 89.053 15.602C88.645 16.19 88.441 17.036 88.441 18.14ZM106.358 13.298V23H104.828L104.558 21.722H104.468C104.156 22.226 103.724 22.598 103.172 22.838C102.62 23.066 102.038 23.18 101.426 23.18C100.286 23.18 99.4157 22.898 98.8157 22.334C98.2157 21.77 97.9157 20.876 97.9157 19.652V13.298H99.8417V19.364C99.8417 20.864 100.496 21.614 101.804 21.614C102.8 21.614 103.49 21.32 103.874 20.732C104.258 20.144 104.45 19.304 104.45 18.212V13.298H106.358ZM115.788 20.264C115.788 21.212 115.44 21.938 114.744 22.442C114.048 22.934 113.082 23.18 111.846 23.18C111.162 23.18 110.574 23.126 110.082 23.018C109.602 22.922 109.158 22.778 108.75 22.586V20.912C109.17 21.116 109.662 21.302 110.226 21.47C110.802 21.626 111.36 21.704 111.9 21.704C112.62 21.704 113.136 21.59 113.448 21.362C113.772 21.134 113.934 20.828 113.934 20.444C113.934 20.228 113.874 20.036 113.754 19.868C113.634 19.688 113.406 19.508 113.07 19.328C112.746 19.136 112.266 18.92 111.63 18.68C111.006 18.428 110.478 18.182 110.046 17.942C109.626 17.69 109.302 17.396 109.074 17.06C108.846 16.712 108.732 16.268 108.732 15.728C108.732 14.888 109.068 14.246 109.74 13.802C110.424 13.346 111.324 13.118 112.44 13.118C113.028 13.118 113.58 13.178 114.096 13.298C114.624 13.418 115.134 13.586 115.626 13.802L114.996 15.26C114.576 15.08 114.144 14.93 113.7 14.81C113.256 14.678 112.806 14.612 112.35 14.612C111.774 14.612 111.336 14.702 111.036 14.882C110.736 15.062 110.586 15.314 110.586 15.638C110.586 15.866 110.658 16.064 110.802 16.232C110.946 16.4 111.186 16.568 111.522 16.736C111.87 16.904 112.344 17.108 112.944 17.348C113.544 17.576 114.054 17.81 114.474 18.05C114.906 18.29 115.23 18.584 115.446 18.932C115.674 19.28 115.788 19.724 115.788 20.264ZM121.878 13.118C123.15 13.118 124.152 13.514 124.884 14.306C125.616 15.086 125.982 16.154 125.982 17.51V18.554H119.466C119.49 19.55 119.748 20.312 120.24 20.84C120.744 21.368 121.446 21.632 122.346 21.632C122.97 21.632 123.522 21.578 124.002 21.47C124.494 21.35 124.998 21.176 125.514 20.948V22.532C125.022 22.748 124.53 22.91 124.038 23.018C123.546 23.126 122.958 23.18 122.274 23.18C121.326 23.18 120.492 22.994 119.772 22.622C119.064 22.25 118.506 21.698 118.098 20.966C117.702 20.222 117.504 19.31 117.504 18.23C117.504 17.138 117.684 16.214 118.044 15.458C118.416 14.702 118.926 14.126 119.574 13.73C120.234 13.322 121.002 13.118 121.878 13.118ZM121.878 14.594C121.194 14.594 120.642 14.816 120.222 15.26C119.814 15.704 119.574 16.334 119.502 17.15H124.074C124.062 16.394 123.876 15.782 123.516 15.314C123.168 14.834 122.622 14.594 121.878 14.594Z" fill="#161517"/>
<path d="M132.8 23.5V10.576H136.49C140.27 10.576 142.754 13.096 142.754 17.038C142.754 20.98 140.27 23.5 136.49 23.5H132.8ZM133.466 22.906H136.49C139.928 22.906 142.088 20.548 142.088 17.038C142.088 13.51 139.928 11.17 136.472 11.17H133.466V22.906ZM152.711 18.82C152.711 21.7 151.109 23.68 148.679 23.68C146.249 23.68 144.647 21.7 144.647 18.82C144.647 15.94 146.249 13.96 148.679 13.96C151.109 13.96 152.711 15.94 152.711 18.82ZM145.295 18.82C145.295 21.376 146.663 23.104 148.679 23.104C150.695 23.104 152.063 21.376 152.063 18.82C152.063 16.264 150.695 14.536 148.679 14.536C146.663 14.536 145.295 16.264 145.295 18.82ZM155.367 18.82C155.367 21.376 156.735 23.086 158.769 23.086C160.353 23.086 161.253 22.114 161.541 20.728L162.189 20.89C161.811 22.564 160.605 23.68 158.769 23.68C156.321 23.68 154.719 21.718 154.719 18.82C154.719 15.922 156.321 13.96 158.769 13.96C160.605 13.96 161.811 15.076 162.189 16.75L161.541 16.912C161.253 15.526 160.353 14.554 158.769 14.554C156.735 14.554 155.367 16.264 155.367 18.82ZM163.709 21.16L164.321 20.89C164.717 22.33 166.031 23.104 167.471 23.104C168.875 23.104 170.099 22.348 170.099 20.998C170.099 19.612 169.001 19.378 167.363 18.982C165.725 18.586 164.249 18.298 164.249 16.534C164.249 14.968 165.617 13.96 167.291 13.96C169.037 13.96 170.261 14.95 170.567 16.21L169.973 16.426C169.613 15.31 168.749 14.536 167.291 14.536C165.851 14.536 164.879 15.31 164.879 16.534C164.879 17.794 165.977 18.028 167.507 18.406C169.181 18.82 170.729 19.126 170.729 20.98C170.729 22.6 169.289 23.68 167.471 23.68C165.869 23.68 164.213 22.906 163.709 21.16Z" fill="#161517"/>
<defs>
<clipPath id="clip0_36_237">
<rect width="24" height="24" fill="white" transform="translate(0 4.5)"/>
</clipPath>
</defs>
</svg>
