<?xml version="1.0" encoding="UTF-8"?>
<svg version="1.1" xmlns="http://www.w3.org/2000/svg" width="2700" height="512">
<path d="M0 0 C168.96 0 337.92 0 512 0 C512 168.96 512 337.92 512 512 C343.04 512 174.08 512 0 512 C0 343.04 0 174.08 0 0 Z " fill="#2F3030" transform="translate(0,0)"/>
<path d="M0 0 C0.92425781 0.70511719 1.84851562 1.41023438 2.80078125 2.13671875 C3.52652344 2.75160156 4.25226563 3.36648437 5 4 C5 4.66 5 5.32 5 6 C5.99 6.33 6.98 6.66 8 7 C41.41265719 42.15709311 50.94688505 91.23954349 50.18359375 138.19921875 C49.40607905 167.3053127 43.43264106 196.04204139 30 222 C29.69336426 222.59264648 29.38672852 223.18529297 29.07080078 223.79589844 C18.33448148 244.19991428 2.60629692 261.77223922 -17 274 C-18.11117188 274.69480469 -19.22234375 275.38960938 -20.3671875 276.10546875 C-36.55720426 285.66180609 -55.4312869 290.84602928 -74 293 C-75.0828125 293.12890625 -76.165625 293.2578125 -77.28125 293.390625 C-112.9294613 296.95544613 -150.72662519 288.58473492 -179.22265625 266.28515625 C-212.76863798 238.68403204 -230.26458861 198.95339904 -234.53125 156.13671875 C-236.31533167 133.14301466 -236.81870511 108.63020503 -232 86 C-231.82307617 85.15824219 -231.64615234 84.31648438 -231.46386719 83.44921875 C-230.18777388 77.56905133 -228.6873183 71.77502606 -227 66 C-226.79036621 65.28038086 -226.58073242 64.56076172 -226.36474609 63.81933594 C-216.13322648 29.80878806 -193.86960966 1.26499814 -162.80419922 -16.05029297 C-112.76097506 -42.39239608 -42.9996266 -37.66968963 0 0 Z M-140 51.625 C-162.09095345 80.25350834 -164.75015709 118.97345251 -160.75390625 153.7265625 C-157.76261027 176.31905115 -150.49357687 197.85652476 -135 215 C-134.34 215 -133.68 215 -133 215 C-133 215.66 -133 216.32 -133 217 C-120.77842967 227.32332643 -106.10794939 232.80961371 -90.0546875 232.27734375 C-71.32867379 230.5771558 -57.01063438 222.73393508 -44.98046875 208.6328125 C-22.26283639 178.17169823 -20.18974743 136.4933903 -25.39501953 100.24951172 C-29.19135772 77.13275949 -38.28886796 55.42179176 -57.0625 40.5625 C-83.43819884 22.44585837 -119.52202449 27.12177358 -140 51.625 Z " fill="#000000" transform="translate(1923,112)"/>
<path d="M0 0 C1.25908676 0.00222061 2.51817352 0.00444122 3.81541443 0.00672913 C4.50806396 0.0065831 5.2007135 0.00643707 5.91435242 0.00628662 C8.21400537 0.00698577 10.51357828 0.01477823 12.81321716 0.02259827 C14.40362504 0.02446244 15.99403349 0.02588635 17.58444214 0.02688599 C21.77827021 0.03071123 25.97206386 0.04054156 30.1658783 0.05158997 C34.44220006 0.06180395 38.71852736 0.06638358 42.99485779 0.07142639 C51.39135799 0.08216383 59.78783017 0.09924032 68.18431091 0.12025452 C69.14837587 3.01244939 69.30994999 4.82817522 69.31129456 7.83340454 C69.31552429 9.28669662 69.31552429 9.28669662 69.31983948 10.76934814 C69.31680313 12.36145866 69.31680313 12.36145866 69.31370544 13.98573303 C69.31633392 15.66406219 69.31633392 15.66406219 69.3190155 17.376297 C69.32342579 21.08393391 69.32049909 24.79152334 69.31712341 28.49916077 C69.31779664 31.06841033 69.31876682 33.63765983 69.32002258 36.20690918 C69.3214984 41.59461633 69.31944351 46.98230554 69.31468201 52.37001038 C69.30923705 58.60311689 69.31100463 64.8361907 69.31650841 71.06929642 C69.32158825 77.06166383 69.32105697 83.0540152 69.31812668 89.04638481 C69.31745775 91.59857627 69.31828466 94.15076857 69.32060623 96.70295906 C69.32313415 100.26338567 69.31929027 103.82374868 69.31370544 107.38417053 C69.31572968 108.44760178 69.31775391 109.51103302 69.31983948 110.60668945 C69.31701965 111.57273102 69.31419983 112.53877258 69.31129456 113.53408813 C69.31072902 114.79755239 69.31072902 114.79755239 69.31015205 116.08654118 C69.18431091 118.12025452 69.18431091 118.12025452 68.18431091 120.12025452 C103.16431091 119.79025452 138.14431091 119.46025452 174.18431091 119.12025452 C174.67931091 60.21525452 174.67931091 60.21525452 175.18431091 0.12025452 C198.94431091 0.12025452 222.70431091 0.12025452 247.18431091 0.12025452 C247.20633659 39.9775834 247.22480833 79.83490657 247.23537624 119.69223979 C247.23662702 124.39260994 247.23792134 129.09298008 247.23924255 133.79335022 C247.23963602 135.19705039 247.23963602 135.19705039 247.24003743 136.62910814 C247.24439447 151.8021389 247.25228219 166.9751659 247.26146371 182.14819442 C247.27079933 197.70507973 247.27636633 213.26196306 247.27839941 228.81885105 C247.27977483 238.42630903 247.28412643 248.03375635 247.29222738 257.64121104 C247.29749371 264.22010782 247.29911547 270.79899905 247.29781229 277.37789779 C247.29716873 281.17945421 247.29818842 284.98099195 247.30351639 288.78254509 C247.30923716 292.89414568 247.30731214 297.00570595 247.30456543 301.11730957 C247.30893469 302.93974053 247.30893469 302.93974053 247.31339222 304.79898828 C247.31140117 305.89128215 247.30941013 306.98357601 247.30735874 308.10896969 C247.30773846 309.05940968 247.30811818 310.00984966 247.30850941 310.98909086 C247.18431091 313.12025452 247.18431091 313.12025452 246.18431091 314.12025452 C244.01168411 314.21981729 241.83577985 314.2482517 239.66087341 314.24964905 C238.97958374 314.25140137 238.29829407 314.25315369 237.59635925 314.25495911 C235.33398424 314.25937694 233.07168678 314.25643989 230.80931091 314.25306702 C229.24371831 314.25374008 227.67812581 314.25471012 226.11253357 314.25596619 C222.82720446 314.25744307 219.5419025 314.25528893 216.25657654 314.25062561 C212.03610575 314.24492832 207.81569855 314.24820738 203.5952301 314.25419807 C200.36114519 314.25780396 197.12707547 314.25666498 193.89299011 314.25407028 C192.3363901 314.25340109 190.77978873 314.25422917 189.22319031 314.25654984 C187.05133895 314.25907682 184.87959195 314.25523516 182.70774841 314.24964905 C181.46944275 314.24885345 180.23113708 314.24805786 178.95530701 314.24723816 C176.18431091 314.12025452 176.18431091 314.12025452 175.18431091 313.12025452 C175.0760237 311.46307458 175.0374559 309.80130027 175.02609253 308.140625 C175.0114093 306.52304543 175.0114093 306.52304543 174.99642944 304.87278748 C174.99067398 303.67948822 174.98491852 302.48618896 174.97898865 301.25672913 C174.96908905 300.00812607 174.95918945 298.75952301 174.94898987 297.4730835 C174.92273846 294.03937294 174.90090282 290.60568644 174.88098788 287.17193675 C174.85916667 283.58710232 174.83175914 280.00231082 174.80493164 276.41751099 C174.75495233 269.62478522 174.71003301 262.83203568 174.66690928 256.03926331 C174.60836544 246.86329274 174.54205054 237.6873786 174.4761591 228.5114584 C174.37250249 214.04776175 174.27926787 199.58401695 174.18431091 185.12025452 C139.53431091 185.12025452 104.88431091 185.12025452 69.18431091 185.12025452 C69.20751404 194.18107483 69.23071716 203.24189514 69.25462341 212.57728577 C69.26613671 219.03392637 69.27639012 225.4905593 69.28481865 231.94720364 C69.29591495 240.31846819 69.3100172 248.68969302 69.33518982 257.06092834 C69.35510589 263.6872314 69.36802311 270.31350453 69.3724879 276.93983668 C69.37509832 280.44938815 69.38124595 283.958854 69.39577103 287.46837807 C69.41184321 291.38335924 69.41229174 295.29825615 69.41136169 299.21327209 C69.41855225 300.38067932 69.4257428 301.54808655 69.43315125 302.75086975 C69.43040192 303.81517715 69.42765259 304.87948456 69.42481995 305.9760437 C69.42666353 306.90244565 69.42850712 307.8288476 69.43040657 308.78332233 C69.18431091 311.12025452 69.18431091 311.12025452 67.18431091 314.12025452 C64.2930603 314.48774719 64.2930603 314.48774719 60.54734802 314.47669983 C59.52519447 314.47976639 59.52519447 314.47976639 58.48239136 314.4828949 C56.22520805 314.48590828 53.96875137 314.46741169 51.71165466 314.44837952 C50.1474933 314.44532303 48.58332922 314.44344607 47.01916504 314.44270325 C43.73971659 314.43809687 40.46051326 314.42365729 37.18113708 314.40150452 C32.96852837 314.37319849 28.75611271 314.36229115 24.54341793 314.35782242 C21.31360933 314.3536743 18.08384013 314.34386233 14.85405159 314.33194733 C13.30024597 314.32623346 11.74643653 314.32147847 10.19262505 314.31768036 C8.02564136 314.31083809 5.85881356 314.2972162 3.69187927 314.28138733 C2.45658981 314.27455933 1.22130035 314.26773132 -0.05142212 314.26069641 C-2.81568909 314.12025452 -2.81568909 314.12025452 -3.81568909 313.12025452 C-3.91378717 311.45832728 -3.94124477 309.79220026 -3.94153023 308.12738037 C-3.94413797 307.0391866 -3.94674572 305.95099283 -3.94943249 304.82982349 C-3.94720177 303.61944259 -3.94497105 302.40906168 -3.94267273 301.16200256 C-3.94423272 299.88778537 -3.94579271 298.61356817 -3.94739997 297.30073833 C-3.95159773 293.74762843 -3.94950061 290.19454518 -3.94641376 286.64143515 C-3.94416168 282.81590177 -3.9476383 278.99037315 -3.95039368 275.1648407 C-3.95485244 267.66418972 -3.95387444 260.16354872 -3.95098104 252.66289735 C-3.94872742 246.56977395 -3.9484143 240.47665336 -3.94950485 234.38352966 C-3.94965809 233.51804117 -3.94981132 232.65255268 -3.94996919 231.76083726 C-3.9502889 230.00290052 -3.95061312 228.24496378 -3.95094179 226.48702705 C-3.95379689 209.9826771 -3.95050908 193.47833269 -3.94514142 176.97398365 C-3.94067335 162.79650085 -3.94144928 148.61902623 -3.94606018 134.44154358 C-3.95140541 117.99834591 -3.95352219 101.55515311 -3.95044792 85.11195469 C-3.95012935 83.36029625 -3.94981498 81.60863781 -3.94950485 79.85697937 C-3.94935058 78.99501267 -3.9491963 78.13304596 -3.94903735 77.24495906 C-3.94817204 71.15548727 -3.94963537 65.06601855 -3.95198441 58.97654724 C-3.95478204 51.5607835 -3.95404493 44.14503035 -3.94870366 36.72926784 C-3.94606614 32.94188272 -3.94506243 29.15451529 -3.94835281 25.36713028 C-3.95185783 21.27090678 -3.94768763 17.17472838 -3.94267273 13.07850647 C-3.94490345 11.86812556 -3.94713417 10.65774466 -3.94943249 9.41068554 C-3.94682474 8.32249177 -3.944217 7.234298 -3.94153023 6.11312866 C-3.94136788 5.16626851 -3.94120552 4.21940836 -3.94103825 3.24385548 C-3.74771837 -0.03127036 -3.32517678 0.14201409 0 0 Z " fill="#000000" transform="translate(1381.815689086914,85.87974548339844)"/>
<path d="M0 0 C14.19625466 -0.04696085 28.39249708 -0.08197235 42.58881378 -0.10362434 C49.18212088 -0.11402096 55.77537546 -0.1281042 62.36865234 -0.15087891 C68.74236053 -0.1727551 75.11601849 -0.18459955 81.48976135 -0.18975449 C83.91037282 -0.19342388 86.33098182 -0.20058856 88.75157166 -0.21146011 C106.05685591 -0.28602755 122.36273144 0.51600998 139.25 4.625 C140.30775635 4.88079834 141.3655127 5.13659668 142.45532227 5.40014648 C152.71188544 7.99451253 162.36282757 11.66956733 172 16 C173.00160156 16.44214844 174.00320312 16.88429688 175.03515625 17.33984375 C191.75041578 25.20740648 205.87644609 37.40526615 217 52 C217.62390625 52.80953125 218.2478125 53.6190625 218.890625 54.453125 C230.66680587 70.47297466 237.42659837 88.81835435 242 108 C242.30550781 109.2684375 242.30550781 109.2684375 242.6171875 110.5625 C245.78425908 124.98485672 246.32614504 139.54922863 246.26074219 154.25732422 C246.24998579 157.12879409 246.26072547 159.99964223 246.2734375 162.87109375 C246.30575408 199.95796129 236.32328865 242.6308568 209.3125 269.875 C208.21221522 270.92076617 207.10844673 271.96288895 206 273 C204.7934375 274.2375 204.7934375 274.2375 203.5625 275.5 C183.00156372 295.55945003 156.05386462 307.06927883 128 312 C127.06317383 312.1693959 126.12634766 312.33879181 125.16113281 312.51332092 C112.5054775 314.50585369 99.85254098 314.27113638 87.0703125 314.23046875 C84.58307926 314.2292747 82.09584557 314.22882426 79.60861206 314.2290802 C74.42963792 314.22752531 69.25073388 314.21930571 64.07177734 314.20581055 C57.41912263 314.18869728 50.76657751 314.18500027 44.11390877 314.18575573 C38.99432648 314.18548476 33.87476092 314.18001732 28.75518417 314.17275429 C26.29985556 314.16956556 23.84452506 314.16759974 21.38919449 314.16686058 C17.9783423 314.16470622 14.56757285 314.15598542 11.15673828 314.14526367 C10.13661652 314.14571686 9.11649475 314.14617004 8.06546021 314.14663696 C7.14337769 314.14237198 6.22129517 314.13810699 5.27127075 314.13371277 C4.46574831 314.13203692 3.66022587 314.13036108 2.83029366 314.12863445 C1 314 1 314 0 313 C-0.09721248 311.33189848 -0.1237154 309.65964679 -0.12304783 307.98871517 C-0.12503888 306.89642131 -0.12702993 305.80412744 -0.12908131 304.67873377 C-0.12616847 303.46377979 -0.12325563 302.24882582 -0.12025452 300.99705505 C-0.12110894 299.71804874 -0.12196337 298.43904243 -0.12284368 297.12127835 C-0.12509105 293.55483391 -0.12106408 289.98841923 -0.11606562 286.42197859 C-0.11176475 282.58215115 -0.11320728 278.74232551 -0.1139679 274.90249634 C-0.11449336 268.24430885 -0.1113442 261.58613112 -0.10573006 254.92794609 C-0.09761812 245.3012164 -0.09500015 235.67449145 -0.09374207 226.04775871 C-0.09155106 210.43068086 -0.08488967 194.81360822 -0.07543945 179.1965332 C-0.06626658 164.0220543 -0.05918514 148.84757681 -0.05493164 133.6730957 C-0.05466892 132.73842881 -0.05440619 131.80376192 -0.05413551 130.84077179 C-0.05283051 126.15202813 -0.05156679 121.46328446 -0.05032361 116.77454078 C-0.03994949 77.84969021 -0.02232986 38.92484545 0 0 Z M72 58 C72 123.01 72 188.02 72 255 C102.94713383 255 126.05113198 254.36338536 148.6484375 233.41015625 C167.69978909 213.88410321 172.60934041 184.43008644 172.33618164 158.23071289 C172.31240267 155.80256175 172.31568106 153.37550565 172.32226562 150.94726562 C172.30054382 138.12653531 171.53262593 125.43074115 167.625 113.125 C167.40513428 112.41013428 167.18526855 111.69526855 166.95874023 110.95874023 C165.33299593 105.78806018 163.54635576 100.79748186 161 96 C160.58234375 95.2059375 160.1646875 94.411875 159.734375 93.59375 C149.81387511 75.93307987 135.06681787 66.46459958 116 61 C101.64934927 57.8109665 86.69472143 58.41984918 72 58 Z " fill="#000000" transform="translate(2032,86)"/>
<path d="M0 0 C8.4340806 5.95071242 15.7212899 14.35641538 17.75390625 24.75 C19.15162354 37.52912955 17.74885094 48.37691312 9.88671875 58.77734375 C3.57932405 66.20779423 -3.36550413 70.48100733 -13 72 C-10.72781678 97.91807147 -7.81662695 123.59866637 -2 149 C16.83653303 140.69170422 34.6124905 130.4904798 51 118 C53.5090625 116.15019228 56.03404579 114.32317382 58.5625 112.5 C59.1716626 112.05366211 59.7808252 111.60732422 60.40844727 111.14746094 C64.77118472 108 64.77118472 108 67 108 C66.71125 107.28457031 66.4225 106.56914062 66.125 105.83203125 C62.11350264 95.06506092 61.27162127 85.26609422 65.7421875 74.49609375 C71.4377617 63.19338594 80.69756128 56.07497731 92.375 51.75 C103.50209796 49.4478418 114.29129167 51.75520083 123.9375 57.8125 C131.81105858 63.58452375 138.27496437 72.1899489 140 82 C140.99748354 95.45177796 139.74891831 105.77700787 130.6875 116.4375 C122.25507633 125.1203917 113.24351211 129.00618398 101.125 129.5 C91.34193915 129.28686142 83.92587336 125.45486578 76 120 C74.10060649 121.57920115 72.20563991 123.16332705 70.3125 124.75 C69.54583008 125.38615234 69.54583008 125.38615234 68.76367188 126.03515625 C57.54949916 135.45771558 47.08871009 145.7246625 36.73901367 156.07568359 C34.78126178 158.03120259 32.81556643 159.97851523 30.84960938 161.92578125 C29.59326356 163.17920011 28.33738584 164.43308838 27.08203125 165.6875 C26.20717827 166.55157471 26.20717827 166.55157471 25.31465149 167.43310547 C22.66675395 170.09613159 20.36713902 172.45911531 19 176 C19.85078125 176.2578125 20.7015625 176.515625 21.578125 176.78125 C24.51155061 177.82603172 27.15112006 179.04912533 29.89282227 180.51196289 C45.65942933 188.89995537 62.7244301 194.85580263 79.75 200.125 C80.69560791 200.42027588 81.64121582 200.71555176 82.61547852 201.01977539 C89.19821257 203.07152443 89.19821257 203.07152443 96 203 C97.62908152 201.32704332 97.62908152 201.32704332 98.6875 199 C103.42257235 191.14942313 111.61412614 185.67190456 120.2109375 182.62890625 C132.06498872 179.95593392 142.01685089 182.25400414 152.2734375 188.3515625 C160.91608268 194.27889387 166.72787007 202.77541529 169 213 C170.19655248 224.1496936 168.45960812 234.69929475 161.7890625 243.8671875 C155.00319257 251.9568927 147.39660953 256.88911344 137 259 C124.79576195 259.93052841 114.87731289 257.29989959 105 250 C97.39182157 243.38354911 93.21833171 234.21941351 92.1875 224.25 C92.10514294 222.83434891 92.03449972 221.41762494 92 220 C91.30777344 219.89042969 90.61554688 219.78085937 89.90234375 219.66796875 C84.31657335 218.76276485 78.78275882 217.75032393 73.25 216.5625 C53.63692106 212.63589781 33.96543569 211.42059402 14 211 C19.62618349 233.88833737 26.39192939 256.00107332 35.20654297 277.86816406 C35.57150879 278.7753418 35.93647461 279.68251953 36.3125 280.6171875 C36.63863281 281.41753418 36.96476563 282.21788086 37.30078125 283.04248047 C38 285 38 285 38 287 C38.66 286.67 39.32 286.34 40 286 C52.95227686 284.81213687 63.89689802 288.55542766 74.00390625 296.59375 C80.003381 302.08786943 84.47003939 309.84587815 85.17700195 318.05541992 C85.70651674 336.85003032 85.70651674 336.85003032 81 344 C80.443125 345.010625 79.88625 346.02125 79.3125 347.0625 C72.23631172 356.0511716 64.01440807 361.26666635 53 364 C40.35011971 365.17609698 30.91847341 363.17516913 21.10546875 355.046875 C13.26484282 347.42444831 9.03301064 339.06718085 8.65039062 328.17285156 C8.50262344 315.89112501 11.25625377 307.59168567 19 298 C19.5878125 297.53464844 20.175625 297.06929688 20.78125 296.58984375 C22.30735407 294.96887055 22.30735407 294.96887055 21.76538086 292.25976562 C20.95087084 288.79075836 19.76028164 286.32851896 17.97265625 283.25390625 C17.35052246 282.1769751 16.72838867 281.10004395 16.08740234 279.99047852 C15.41918457 278.85924561 14.7509668 277.7280127 14.0625 276.5625 C13.37173506 275.38152991 12.68114367 274.2004583 11.99072266 273.01928711 C7.36844497 265.14881773 2.5688301 257.44416849 -2.64453125 249.953125 C-4.27590329 247.60244482 -5.88812178 245.23908805 -7.5 242.875 C-10.65834159 238.24426278 -13.82608576 233.62007479 -17 229 C-19.31214239 231.16073449 -20.98224266 233.35450091 -22.64453125 236.04296875 C-23.14944092 236.85725342 -23.65435059 237.67153809 -24.17456055 238.51049805 C-24.98534058 239.83561401 -24.98534058 239.83561401 -25.8125 241.1875 C-26.38073486 242.11151611 -26.94896973 243.03553223 -27.53442383 243.98754883 C-33.63018594 253.94993244 -39.53522957 264.02117111 -45.35302734 274.14794922 C-46.94344748 276.90206841 -48.55732717 279.64119495 -50.17578125 282.37890625 C-51.11810599 284.00207129 -52.05956725 285.62573805 -53 287.25 C-53.43981201 287.9824292 -53.87962402 288.7148584 -54.33276367 289.46948242 C-56.56718171 293.14627196 -56.56718171 293.14627196 -56.45703125 297.265625 C-54.92756908 299.08621804 -53.35987136 300.80908794 -51.6875 302.5 C-44.10420206 311.14622882 -41.93594976 320.58859697 -42.52734375 331.8125 C-43.55362421 343.08872446 -48.6980334 351.51003013 -57 359 C-64.35185818 365.04162603 -73.94476933 367.71411118 -83.40625 367.33984375 C-94.29442237 365.9132308 -104.14425844 360.93874059 -111.13671875 352.38671875 C-118.22140149 341.88594161 -120.36716205 331.61995742 -119 319 C-116.12408844 307.70938425 -109.1144067 299.26439661 -99.2734375 293.21875 C-90.6814652 288.61274423 -81.49658066 287.47298027 -72 290 C-71.60296875 288.79859375 -71.2059375 287.5971875 -70.796875 286.359375 C-69.48595295 282.4204687 -68.13199622 278.49811773 -66.765625 274.578125 C-61.10311856 258.16809145 -56.47486679 241.83761707 -52.66015625 224.89550781 C-51.82866478 221.2485075 -50.92603867 217.62401671 -50 214 C-68.35091344 215.80495476 -86.59429791 217.8630599 -104.75 221.125 C-105.82287262 221.31681854 -105.82287262 221.31681854 -106.91741943 221.51251221 C-115.85932732 223.11548302 -115.85932732 223.11548302 -124.703125 225.1796875 C-128 226 -128 226 -132 226 C-131.9175 226.928125 -131.835 227.85625 -131.75 228.8125 C-131.78544862 237.58603398 -136.41191145 246.44545711 -142 253 C-152.03729646 262.40414603 -161.69122289 265.49002268 -175.3359375 265.33203125 C-185.78381334 264.38526212 -194.3164587 258.93002768 -201 251 C-208.06306195 239.5494963 -210.12717329 227.13610888 -207.3515625 213.91015625 C-203.35100638 203.08813904 -195.98259838 196.3696484 -186 191 C-185.34257812 190.63777344 -184.68515625 190.27554688 -184.0078125 189.90234375 C-175.63461211 186.0391719 -165.63484742 187.06537322 -157.1875 190.0625 C-146.45615066 194.74361107 -140.70666849 200.85277275 -135 211 C-108.43510543 206.07070369 -82.47690008 191.82990989 -59 179 C-60.71025466 175.33565049 -62.75997924 173.0654411 -65.6875 170.25 C-68.72632706 167.28053276 -71.65198671 164.32339246 -74.375 161.0625 C-78.65869232 156.06485896 -83.58313327 151.75949298 -88.47558594 147.37597656 C-89.90558112 146.08522499 -91.3167982 144.77375526 -92.7265625 143.4609375 C-97.82427313 138.72412674 -103.06513136 134.21728473 -108.5 129.875 C-109.09989746 129.38902344 -109.69979492 128.90304688 -110.31787109 128.40234375 C-113.73580877 125.61470194 -113.73580877 125.61470194 -118 125 C-120.15023224 126.02170133 -120.15023224 126.02170133 -122.375 127.375 C-131.91701408 132.98216291 -142.29723836 133.69672847 -153.12109375 131.3125 C-163.79300132 127.31677798 -172.4352275 119.35963019 -177.1875 109.0234375 C-181.24503812 98.91860698 -181.08554401 89.07320415 -177.328125 78.859375 C-172.71701757 68.93193195 -164.23360211 60.91284787 -154 57 C-143.53538694 54.29363455 -131.57921755 54.9681761 -122 60 C-112.44610608 65.63563027 -106.61270399 74.4129129 -103.4140625 84.92578125 C-101.50737412 94.47721079 -103.75744035 103.02505812 -107 112 C-106.26080322 112.27602051 -105.52160645 112.55204102 -104.76000977 112.83642578 C-102.21510283 113.90931622 -100.12829193 115.08652681 -97.83984375 116.6171875 C-97.05681885 117.13555176 -96.27379395 117.65391602 -95.46704102 118.18798828 C-94.63229248 118.74470215 -93.79754395 119.30141602 -92.9375 119.875 C-66.67984089 137.78554761 -66.67984089 137.78554761 -38 151 C-37.85304687 149.7934375 -37.85304687 149.7934375 -37.703125 148.5625 C-36.65970398 140.35905196 -35.38814155 132.21479307 -34 124.0625 C-31.07915225 106.75654391 -29.36281934 89.49316662 -28 72 C-28.67401855 71.8138916 -29.34803711 71.6277832 -30.04248047 71.43603516 C-30.93338379 71.18128418 -31.82428711 70.9265332 -32.7421875 70.6640625 C-33.62245605 70.4160791 -34.50272461 70.1680957 -35.40966797 69.91259766 C-39.6465048 68.41992131 -42.70917653 65.99948296 -46 63 C-47.03833984 62.07767578 -47.03833984 62.07767578 -48.09765625 61.13671875 C-55.50186861 53.78786499 -59.09761553 43.67492489 -59.5625 33.3125 C-58.92481312 22.00194841 -54.03962074 11.75254553 -45.86328125 3.96484375 C-43.65131206 2.14662824 -41.40720731 0.54866409 -39 -1 C-38.34773437 -1.43441406 -37.69546875 -1.86882812 -37.0234375 -2.31640625 C-25.98799967 -8.43063532 -10.48632366 -5.96827996 0 0 Z " fill="#A1C8E3" transform="translate(276,70)"/>
<path d="M0 0 C0.61697754 0.47219971 1.23395508 0.94439941 1.86962891 1.4309082 C6.25483133 4.88949399 6.25483133 4.88949399 7.375 8.25 C5.8203125 10.5625 5.8203125 10.5625 3.5 13.25 C2.24123047 14.73113281 2.24123047 14.73113281 0.95703125 16.2421875 C0.10496094 17.23476562 -0.74710938 18.22734375 -1.625 19.25 C-3.02605387 20.95405443 -4.4219589 22.66235616 -5.8125 24.375 C-9.82428361 29.27829108 -13.84817933 34.17155247 -17.875 39.0625 C-18.76094849 40.13878662 -18.76094849 40.13878662 -19.66479492 41.23681641 C-22.97209433 45.25198737 -26.29050611 49.25738231 -29.625 53.25 C-33.51052 51.86879181 -36.48109236 50.03822747 -39.8125 47.625 C-58.88921356 34.73532868 -83.08866621 27.2813504 -106.12109375 30.78125 C-116.22475966 33.14949781 -123.60666118 36.51527582 -129.625 45.25 C-132.5014878 51.00297561 -132.140393 56.96220535 -131.625 63.25 C-127.78261585 74.00867561 -118.13485144 79.15491546 -108.32885742 83.81713867 C-94.42447461 89.86640444 -80.33082734 95.44722979 -66.24536133 101.05883789 C-28.19185645 116.23301561 -28.19185645 116.23301561 -18.8125 123.5625 C-18.25498047 123.97822266 -17.69746094 124.39394531 -17.12304688 124.82226562 C-15.61347528 125.95130312 -14.11847696 127.09975714 -12.625 128.25 C-11.83738281 128.80042969 -11.04976562 129.35085937 -10.23828125 129.91796875 C-9.70589844 130.35753906 -9.17351562 130.79710937 -8.625 131.25 C-8.625 131.91 -8.625 132.57 -8.625 133.25 C-7.635 133.58 -6.645 133.91 -5.625 134.25 C5.4327115 146.37095299 11.93766901 160.28304313 15.375 176.25 C15.66503906 177.5803125 15.66503906 177.5803125 15.9609375 178.9375 C17.69145119 192.78160951 17.54794239 207.8798926 13.375 221.25 C13.01148438 222.43722656 12.64796875 223.62445313 12.2734375 224.84765625 C8.51480213 236.18418551 2.83438241 245.03013075 -4.625 254.25 C-5.388125 255.260625 -6.15125 256.27125 -6.9375 257.3125 C-7.494375 257.951875 -8.05125 258.59125 -8.625 259.25 C-9.285 259.25 -9.945 259.25 -10.625 259.25 C-10.955 260.24 -11.285 261.23 -11.625 262.25 C-34.98515018 285.19485862 -70.1370193 292.83308466 -101.6875 293.4375 C-146.13839407 292.956661 -184.4333016 277.25138431 -217.625 248.25 C-217.13983317 243.89404568 -214.28477262 241.20344847 -211.5 238.0625 C-210.48172784 236.88788345 -209.46479825 235.71210167 -208.44921875 234.53515625 C-207.95728027 233.96684082 -207.4653418 233.39852539 -206.95849609 232.81298828 C-205.34523069 230.92208291 -203.81794678 228.97759204 -202.3125 227 C-198.80254309 222.42253794 -195.15713019 217.96002985 -191.5 213.5 C-190.60220825 212.39930176 -190.60220825 212.39930176 -189.6862793 211.27636719 C-186.49599391 207.39747677 -183.25138567 203.72585645 -179.625 200.25 C-178.33142578 201.26707031 -178.33142578 201.26707031 -177.01171875 202.3046875 C-151.31320204 222.07222694 -119.88280978 233.71103983 -87.125 229.5625 C-78.07302623 228.01942644 -69.06581549 225.01285627 -62.625 218.25 C-57.91166141 211.49268934 -56.95193147 205.32682237 -57.625 197.25 C-58.73433722 192.26180782 -59.97579277 188.83787602 -63.625 185.25 C-63.625 184.59 -63.625 183.93 -63.625 183.25 C-64.15875244 182.99508789 -64.69250488 182.74017578 -65.24243164 182.47753906 C-68.15492549 180.97697352 -70.93130082 179.28630833 -73.74609375 177.609375 C-82.06475382 172.77862026 -90.80262342 169.14653107 -99.6875 165.5 C-101.35949895 164.80508421 -103.031125 164.10927055 -104.70239258 163.41259766 C-111.83315853 160.44512565 -118.97769666 157.51143282 -126.1275177 154.59020996 C-128.11936997 153.77607969 -130.11040699 152.95998272 -132.10131836 152.14355469 C-134.48950995 151.16423183 -136.88097279 150.19504986 -139.27563477 149.23144531 C-148.90903875 145.30120652 -157.92081301 140.67596293 -166.4375 134.6875 C-167.47519531 133.96433594 -168.51289062 133.24117187 -169.58203125 132.49609375 C-172.72543885 130.17586349 -175.71849016 127.86107984 -178.625 125.25 C-178.625 124.59 -178.625 123.93 -178.625 123.25 C-179.615 122.92 -180.605 122.59 -181.625 122.25 C-198.72110722 103.88342277 -206.26733668 81.47738094 -205.83203125 56.53125 C-204.92410528 31.9782582 -192.65734637 11.24487166 -174.96484375 -5.2265625 C-125.27523898 -47.8176523 -48.90010569 -37.72453077 0 0 Z " fill="#000000" transform="translate(1308.625,112.75)"/>
<path d="M0 0 C0.69771011 0.00359528 1.39542023 0.00719055 2.11427307 0.01089478 C3.2117688 0.01067574 3.2117688 0.01067574 4.33143616 0.01045227 C6.76094989 0.0111515 9.19038789 0.01894432 11.61988831 0.02676392 C13.29997719 0.02862806 14.98006662 0.03005198 16.66015625 0.03105164 C21.09071849 0.03487709 25.52124815 0.04470761 29.95179749 0.05575562 C34.46941182 0.06596914 38.98703139 0.07054913 43.50465393 0.07559204 C52.37511098 0.08632986 61.24554381 0.10340661 70.11598206 0.12442017 C72.66556919 8.13219335 74.9509575 16.1260145 76.81520081 24.31973267 C77.30274032 26.42170423 77.79028952 28.52367354 78.27784729 30.62564087 C78.52686798 31.70721466 78.77588867 32.78878845 79.03245544 33.90313721 C82.84846074 50.46473611 86.75255761 66.9941373 91.05348206 83.43692017 C93.55962745 93.02645588 95.96945425 102.61738172 98.10084534 112.29800415 C100.20507347 121.74070597 102.57367642 131.11679684 104.92848206 140.49942017 C105.1450647 141.36277985 105.36164734 142.22613953 105.58479309 143.11566162 C107.47526035 150.64792348 109.37278678 158.17840244 111.27223206 165.70840454 C112.32643295 169.88821199 113.37828737 174.06860445 114.42848206 178.24942017 C114.5935022 178.90546234 114.75852234 179.56150452 114.92854309 180.23742676 C117.22166995 189.36575364 119.3576425 198.51759375 121.38795471 207.70742798 C122.95873234 214.7014797 124.89192199 221.54949437 127.00270081 228.39785767 C130.11598206 238.81915701 130.11598206 238.81915701 130.11598206 244.12442017 C131.10598206 244.12442017 132.09598206 244.12442017 133.11598206 244.12442017 C133.22305481 243.05320923 133.33012756 241.98199829 133.44044495 240.87832642 C134.15848675 235.17085867 135.55859261 229.64314518 136.92457581 224.06192017 C137.20697113 222.89337997 137.48936646 221.72483978 137.78031921 220.52088928 C138.54252886 217.37189547 139.30874912 214.22391539 140.07727432 211.07645798 C140.71524023 208.46135226 141.35028011 205.84553932 141.98542309 203.22974682 C144.01837121 194.85870865 146.06480366 186.49100913 148.11598206 178.12442017 C148.38140808 177.04102356 148.64683411 175.95762695 148.92030334 174.84140015 C150.29470811 169.23504163 151.67506917 163.63021547 153.06620789 158.02798462 C153.46636768 156.41625593 153.86555876 154.80428634 154.26365662 153.19204712 C156.39330886 144.58126823 158.68469608 136.04717651 161.22615051 127.54862976 C163.64862308 119.41513432 165.78775979 111.21068024 167.92848206 102.99942017 C168.36278154 101.34222532 168.79727385 99.685081 169.23194885 98.02798462 C171.29721651 90.14482379 173.34411045 82.25710377 175.36598206 74.36270142 C175.54087158 73.68004715 175.71576111 72.99739288 175.89595032 72.29405212 C176.06749634 71.62439926 176.23904236 70.9547464 176.41578674 70.26480103 C176.58396912 69.60833588 176.75215149 68.95187073 176.9254303 68.2755127 C177.26060201 66.96721657 177.59564448 65.65888733 177.93055725 64.3505249 C179.72757224 57.34050459 181.56772808 50.35924771 183.67848206 43.43692017 C186.35090678 34.65868439 188.48577546 25.75186414 190.61817932 16.82876587 C190.89846985 15.67594116 191.17876038 14.52311646 191.46754456 13.33535767 C191.71327209 12.30716919 191.95899963 11.27898071 192.21217346 10.21963501 C193.22345797 6.75635434 194.69475696 3.44061205 196.11598206 0.12442017 C219.87598206 0.12442017 243.63598206 0.12442017 268.11598206 0.12442017 C269.44911227 4.1238108 268.40260975 5.80193433 266.99098206 9.74942017 C266.5118505 11.12352706 266.03537525 12.4985625 265.56129456 13.87442017 C265.31669495 14.58340454 265.07209534 15.29238892 264.82008362 16.02285767 C263.74290767 19.23795148 262.80086068 22.49087347 261.86598206 25.74942017 C259.20705843 34.95355454 256.34497675 44.09288076 253.49293518 53.23867798 C251.23814683 60.47922119 249.02215929 67.72893933 246.86598206 74.99942017 C245.19822613 80.62286699 243.44523792 86.19714599 241.55348206 91.74942017 C239.80694028 96.90089196 238.27652144 102.06253358 236.86598206 107.31192017 C234.76309337 115.0974631 232.35348291 122.76624303 229.86598206 130.43692017 C220.58515635 158.92803346 220.58515635 158.92803346 212.38160706 187.74160767 C211.13157127 192.27263878 209.60014428 196.70722787 208.09945679 201.16017151 C205.77512412 208.08439725 203.65517667 215.06731664 201.55348206 222.06192017 C201.12666283 223.47563095 200.69965518 224.88928485 200.2724762 226.30288696 C197.87115756 234.25691435 195.48995353 242.21688097 193.11598206 250.17910767 C188.5178624 265.59234947 183.91313464 280.99844361 178.99098206 296.31192017 C178.62480774 297.45120972 178.25863342 298.59049927 177.88136292 299.76431274 C173.75246573 312.48793649 173.75246573 312.48793649 172.11598206 314.12442017 C169.46860116 314.21953283 166.84739205 314.24997651 164.19972229 314.23794556 C163.37052277 314.23809158 162.54132324 314.23823761 161.68699646 314.23838806 C158.93283007 314.23768868 156.17873045 314.2298951 153.42457581 314.22207642 C151.52028439 314.22021233 149.6159925 314.21878838 147.71170044 314.2177887 C142.68930243 314.21396279 137.66693314 314.2041319 132.64454651 314.19308472 C127.52370085 314.18287215 122.40285058 314.17829141 117.28199768 314.17324829 C107.22664649 314.16250969 97.17131666 314.14543241 87.11598206 314.12442017 C86.63783132 312.85982148 86.16068103 311.59484449 85.6839447 310.32971191 C85.2852118 309.27312284 85.2852118 309.27312284 84.87842369 308.19518852 C83.83740549 305.36781467 82.92553262 302.50874176 82.03004456 299.63223267 C81.65927795 298.44194458 81.28851135 297.25165649 80.9065094 296.02529907 C80.52188538 294.77925903 80.13726135 293.53321899 79.74098206 292.24942017 C79.54111694 291.60414368 79.34125183 290.95886719 79.1353302 290.29403687 C76.60282323 282.11230546 74.15928981 273.9154971 71.92237854 265.64785767 C70.33453157 259.8107195 68.58358078 254.03055893 66.80348206 248.24942017 C64.13290332 239.57040511 61.59128856 230.86107683 59.11598206 222.12442017 C54.99964216 207.61612226 50.62891193 193.1954424 46.14723206 178.79629517 C42.51011045 167.08623811 39.02137755 155.35657162 35.76490784 143.53482056 C33.33203257 134.75864785 30.66520716 126.06414659 27.95802307 117.36929321 C25.85350918 110.58819573 23.86858284 103.79020658 22.01173401 96.93763733 C20.46496017 91.27404532 18.77591904 85.66130278 17.04957581 80.05020142 C12.9328653 66.59240007 8.93585823 53.09963718 4.95240784 39.60195923 C3.92917241 36.1352028 2.90297805 32.66932917 1.87615395 29.20363426 C1.07512524 26.49830577 0.27606834 23.79239785 -0.52243423 21.08632278 C-1.08223194 19.19093741 -1.64403617 17.29614502 -2.20588684 15.40136719 C-2.543591 14.25471588 -2.88129517 13.10806458 -3.22923279 11.92666626 C-3.52566681 10.92348358 -3.82210083 9.9203009 -4.1275177 8.88671875 C-4.8353164 6.30224987 -5.48159863 3.77431479 -5.88401794 1.12442017 C-4.22236587 -0.53723191 -2.21885765 0.00482291 0 0 Z " fill="#000000" transform="translate(663.8840179443359,85.87557983398438)"/>
<path d="M0 0 C23.76 0 47.52 0 72 0 C72 103.62 72 207.24 72 314 C48.24 314 24.48 314 0 314 C0 210.38 0 106.76 0 0 Z " fill="#000000" transform="translate(2337,86)"/>
<path d="M0 0 C23.76 0 47.52 0 72 0 C72 103.62 72 207.24 72 314 C48.24 314 24.48 314 0 314 C0 210.38 0 106.76 0 0 Z " fill="#000000" transform="translate(966,86)"/>
<path d="M0 0 C3.36657902 1.32080197 6.50868426 2.77660899 9.6875 4.5 C14.67381365 7.04189523 19.48388816 8.21366065 25 9 C23.3087028 12.55517575 21.29316563 15.8904539 19.25 19.25 C7.77157328 38.27657144 -3.21253526 57.5756262 -14 77 C-18.75 76.125 -18.75 76.125 -21 75 C-20.27179784 70.27602187 -18.57994226 66.06024406 -16.875 61.625 C-9.33757432 41.46067548 -4.20536778 21.0922194 0 0 Z " fill="#2F3335" transform="translate(229,287)"/>
<path d="M0 0 C2.96252034 2.96252034 3.34321406 6.66460942 4.3125 10.625 C9.42817652 30.71086065 15.67781649 50.96777614 24.1875 69.890625 C25 72 25 72 25 75 C21.535 75.99 21.535 75.99 18 77 C17.6282666 76.35675781 17.2565332 75.71351563 16.87353516 75.05078125 C-0.50646415 44.56025012 -0.50646415 44.56025012 -20.67407227 15.87597656 C-22 14 -22 14 -22 12 C-21.16597656 11.72027344 -20.33195312 11.44054687 -19.47265625 11.15234375 C-11.89498437 8.45285239 -5.99593493 5.37620006 0 0 Z " fill="#303435" transform="translate(285,284)"/>
<path d="M0 0 C2.31 0 4.62 0 7 0 C7.02916504 0.65967773 7.05833008 1.31935547 7.08837891 1.99902344 C7.8274921 17.29840542 9.44244086 32.22116909 12 47.3125 C12.13142395 48.09403442 12.2628479 48.87556885 12.39825439 49.68078613 C13.88033686 58.75120527 13.88033686 58.75120527 16.08984375 67.66088867 C16.90451979 70.64970956 17.18586106 72.93329245 17 76 C16.35973877 75.99476318 15.71947754 75.98952637 15.05981445 75.98413086 C12.14405305 75.96327571 9.22830738 75.95031271 6.3125 75.9375 C5.30509766 75.92912109 4.29769531 75.92074219 3.25976562 75.91210938 C2.28330078 75.90888672 1.30683594 75.90566406 0.30078125 75.90234375 C-1.04246216 75.89448853 -1.04246216 75.89448853 -2.4128418 75.88647461 C-5.03641759 76.00159802 -7.44293053 76.41765715 -10 77 C-9.88390381 76.39446289 -9.76780762 75.78892578 -9.64819336 75.16503906 C-8.06867604 66.7253926 -6.78452132 58.24734894 -5.5625 49.75 C-5.45394684 48.99874847 -5.34539368 48.24749695 -5.23355103 47.47348022 C-2.96868912 31.69440785 -1.35935582 15.88059396 0 0 Z " fill="#303435" transform="translate(252,143)"/>
<path d="M0 0 C0.17015625 0.96679688 0.3403125 1.93359375 0.515625 2.9296875 C0.75987726 4.24489196 1.00470016 5.55999053 1.25 6.875 C1.48203125 8.15117187 1.7140625 9.42734375 1.953125 10.7421875 C3.02367678 15.72289365 5.00240021 20.32974119 7 25 C5.76894531 25.07476562 4.53789062 25.14953125 3.26953125 25.2265625 C-22.69593312 27.03925518 -48.5085982 31.85938517 -74 37 C-74 35.02 -74 33.04 -74 31 C-69.3605648 29.03434456 -64.68917599 27.20755841 -59.90234375 25.6328125 C-49.3637719 22.14319683 -39.18602995 18.03940485 -29.0625 13.5 C-27.86713623 12.96640869 -26.67177246 12.43281738 -25.44018555 11.88305664 C-18.29378139 8.64026269 -11.38850431 5.13147774 -4.54467773 1.30273438 C-2 0 -2 0 0 0 Z " fill="#2F3335" transform="translate(217,255)"/>
<path d="M0 0 C1.17691406 0.54527344 2.35382813 1.09054688 3.56640625 1.65234375 C25.80441983 11.86362986 48.43847066 20.37331987 72 27 C73.125 31.75 73.125 31.75 72 34 C65.08355763 33.42772631 58.36960791 32.39306958 51.5625 31.0625 C32.74994508 27.54898802 14.11434605 26.55053613 -5 26 C-4.79721436 25.37818848 -4.59442871 24.75637695 -4.38549805 24.11572266 C-2.62773995 18.53300255 -1.4139737 13.19108514 -0.8125 7.375 C-0.73064453 6.65699219 -0.64878906 5.93898438 -0.56445312 5.19921875 C-0.36814082 3.46705131 -0.1828283 1.73364251 0 0 Z " fill="#303334" transform="translate(296,251)"/>
<path d="M0 0 C5.0283812 1.65956455 9.05075064 4.59485988 13.375 7.5625 C30.79295195 19.33053019 49.06186637 29.86513554 68 39 C67.13375 39.99 66.2675 40.98 65.375 42 C61.27651481 46.77832871 57.49176778 51.76234833 54 57 C51.02363795 55.66420352 48.96048142 54.20765397 46.6875 51.875 C46.07648438 51.24851563 45.46546875 50.62203125 44.8359375 49.9765625 C43.10245576 48.11030343 41.45466127 46.1965619 39.8125 44.25 C36.30555672 40.17307948 32.39393735 36.59387665 28.40576172 33.00146484 C25.66437705 30.53155543 22.99674659 28.03291633 20.4375 25.375 C13.34803426 18.1647891 5.00574017 12.14761776 -3 6 C-2 4 -1 2 0 0 Z " fill="#303435" transform="translate(166,185)"/>
<path d="M0 0 C2.0625 0.75 2.0625 0.75 4 2 C4.495 3.485 4.495 3.485 5 5 C4.12859375 5.73863281 3.2571875 6.47726563 2.359375 7.23828125 C1.15614957 8.26290291 -0.04696952 9.28764945 -1.25 10.3125 C-1.8171875 10.79267578 -2.384375 11.27285156 -2.96875 11.76757812 C-13.36546171 20.6386854 -23.20754453 30.04114143 -32.84887695 39.71850586 C-34.58884712 41.46392971 -36.33422664 43.20382024 -38.08007812 44.94335938 C-39.20084231 46.06478298 -40.32129699 47.18651599 -41.44140625 48.30859375 C-41.956996 48.82215927 -42.47258575 49.33572479 -43.00379944 49.86485291 C-45.06987965 51.94445654 -46.99013824 53.98651224 -48.72241211 56.35571289 C-49.14401611 56.89832764 -49.56562012 57.44094238 -50 58 C-50.66 58 -51.32 58 -52 58 C-53.2265625 56.27734375 -53.2265625 56.27734375 -54.625 53.9375 C-57.38410879 49.60761145 -60.45252425 46.58536 -64.4609375 43.41015625 C-64.96882813 42.94480469 -65.47671875 42.47945312 -66 42 C-66 41.34 -66 40.68 -66 40 C-64.51113281 39.27296875 -64.51113281 39.27296875 -62.9921875 38.53125 C-48.29794653 31.30529095 -34.50484458 23.24794976 -21 14 C-20.18112305 13.43958008 -19.36224609 12.87916016 -18.51855469 12.30175781 C-13.34040094 8.75713151 -13.34040094 8.75713151 -8.16918945 5.20239258 C-7.39534912 4.67025146 -6.62150879 4.13811035 -5.82421875 3.58984375 C-5.13416748 3.11409912 -4.44411621 2.63835449 -3.7331543 2.14819336 C-2 1 -2 1 0 0 Z " fill="#303435" transform="translate(344,182)"/>
</svg>
