<svg width="760" height="89" viewBox="0 0 760 89" fill="none" xmlns="http://www.w3.org/2000/svg">
<path d="M46.743 88.7774H27.0879V66.3514C27.0879 42.8529 46.2053 23.7369 69.7024 23.7369H77.5315V43.392H69.7024C57.0428 43.392 46.743 53.6918 46.743 66.3514V88.7774Z" fill="#0F58C7"/>
<path d="M7.85322 43.392H0.0241699V23.7369H7.85322C20.5128 23.7369 30.8126 13.437 30.8126 0.777435H50.4677C50.4677 24.276 31.3503 43.392 7.85322 43.392Z" fill="#0F58C7"/>
<path d="M148.392 84.7774C144.953 84.7774 142.201 83.7457 140.138 81.6823C138.151 79.6189 137.157 76.8676 137.157 73.4286V38.2356H121.567V28.2624H137.157V9.57691H148.965V28.2624H165.816V38.2356H148.965V71.3651C148.965 73.6578 150.035 74.8042 152.175 74.8042H163.982V84.7774H148.392ZM173.956 84.7774V28.2624H185.534V34.9112H187.368C188.286 32.5421 189.738 30.8226 191.725 29.7527C193.788 28.6063 196.31 28.0331 199.29 28.0331H206.054V38.6942H198.832C195.011 38.6942 191.877 39.7641 189.432 41.904C186.986 43.9674 185.764 47.1772 185.764 51.5333V84.7774H173.956ZM234.222 85.8091C229.942 85.8091 226.121 84.8539 222.758 82.9433C219.396 81.0327 216.759 78.3197 214.849 74.8042C212.938 71.2887 211.983 67.0854 211.983 62.1943V28.2624H223.79V61.3919C223.79 66.283 225.013 69.9131 227.458 72.2822C229.904 74.5749 233.305 75.7213 237.661 75.7213C242.476 75.7213 246.335 74.1164 249.239 70.9066C252.22 67.6204 253.71 62.9204 253.71 56.8065V28.2624H265.517V84.7774H253.939V76.2944H252.105C251.035 78.5871 249.124 80.7652 246.373 82.8286C243.622 84.8156 239.572 85.8091 234.222 85.8091ZM287.442 84.7774V38.2356H271.622V28.2624H287.442V15.8818C287.442 12.4428 288.474 9.69154 290.537 7.62811C292.601 5.56468 295.352 4.53297 298.791 4.53297H313.35V14.5062H302.574C300.358 14.5062 299.249 15.6526 299.249 17.9453V28.2624H315.528V38.2356H299.249V84.7774H287.442ZM321.827 86.3823C319.152 86.3823 316.898 85.5035 315.064 83.7457C313.306 81.988 312.427 79.7335 312.427 76.9823C312.427 74.231 313.306 72.0147 315.064 70.3334C316.898 68.5757 319.152 67.6968 321.827 67.6968C324.502 67.6968 326.718 68.5757 328.476 70.3334C330.31 72.0912 331.227 74.3074 331.227 76.9823C331.227 79.7335 330.31 81.988 328.476 83.7457C326.718 85.5035 324.502 86.3823 321.827 86.3823ZM346.401 84.7774V28.2624H357.979V36.7454H359.813C360.883 34.4527 362.794 32.3128 365.545 30.3258C368.296 28.3388 372.385 27.3453 377.811 27.3453C382.091 27.3453 385.874 28.3006 389.16 30.2112C392.523 32.1218 395.159 34.8348 397.07 38.3503C398.98 41.7893 399.936 45.9544 399.936 50.8455V84.7774H388.128V51.7626C388.128 46.8715 386.905 43.2796 384.46 40.9869C382.014 38.6178 378.652 37.4332 374.372 37.4332C369.481 37.4332 365.545 39.0381 362.565 42.2479C359.661 45.4576 358.209 50.1195 358.209 56.2333V84.7774H346.401ZM437.104 86.3823C431.373 86.3823 426.367 85.1978 422.087 82.8286C417.807 80.3831 414.445 76.9823 411.999 72.6261C409.63 68.1936 408.446 63.0732 408.446 57.265V55.8894C408.446 50.0048 409.63 44.8845 411.999 40.5283C414.368 36.0958 417.655 32.695 421.858 30.3258C426.138 27.8803 431.067 26.6575 436.646 26.6575C442.072 26.6575 446.81 27.8803 450.86 30.3258C454.987 32.695 458.197 36.0194 460.49 40.2991C462.782 44.5788 463.929 49.5845 463.929 55.3163V59.787H420.482C420.635 64.7545 422.278 68.7285 425.411 71.7091C428.621 74.6131 432.595 76.0652 437.334 76.0652C441.766 76.0652 445.09 75.0717 447.307 73.0847C449.599 71.0977 451.357 68.805 452.58 66.2066L462.324 71.2505C461.254 73.3904 459.687 75.6449 457.624 78.014C455.637 80.3831 453 82.3701 449.714 83.975C446.428 85.5799 442.225 86.3823 437.104 86.3823ZM420.597 50.7309H451.892C451.586 46.4511 450.058 43.1267 447.307 40.7576C444.556 38.3121 440.964 37.0893 436.531 37.0893C432.099 37.0893 428.468 38.3121 425.641 40.7576C422.89 43.1267 421.208 46.4511 420.597 50.7309ZM491.49 84.7774C488.051 84.7774 485.3 83.7457 483.237 81.6823C481.25 79.6189 480.256 76.8676 480.256 73.4286V38.2356H464.666V28.2624H480.256V9.57691H492.064V28.2624H508.915V38.2356H492.064V71.3651C492.064 73.6578 493.134 74.8042 495.273 74.8042H507.081V84.7774H491.49ZM523.245 84.7774L513.616 28.2624H525.423L532.531 76.8676H534.365L544.223 28.2624H563.367L573.111 76.8676H574.946L582.053 28.2624H593.86L584.231 84.7774H564.399L554.655 36.2869H552.821L543.077 84.7774H523.245ZM627.922 86.3823C622.267 86.3823 617.223 85.236 612.79 82.9433C608.434 80.5742 604.995 77.2115 602.473 72.8554C599.951 68.4993 598.69 63.3407 598.69 57.3797V55.6602C598.69 49.6991 599.951 44.5788 602.473 40.2991C604.995 35.9429 608.434 32.5803 612.79 30.2112C617.223 27.8421 622.267 26.6575 627.922 26.6575C633.578 26.6575 638.621 27.8421 643.054 30.2112C647.487 32.5803 650.964 35.9429 653.486 40.2991C656.008 44.5788 657.269 49.6991 657.269 55.6602V57.3797C657.269 63.3407 656.008 68.4993 653.486 72.8554C650.964 77.2115 647.487 80.5742 643.054 82.9433C638.621 85.236 633.578 86.3823 627.922 86.3823ZM627.922 75.8359C633.119 75.8359 637.322 74.1928 640.532 70.9066C643.818 67.544 645.461 62.9204 645.461 57.0358V56.0041C645.461 50.1195 643.856 45.5341 640.647 42.2479C637.437 38.8852 633.195 37.2039 627.922 37.2039C622.802 37.2039 618.599 38.8852 615.312 42.2479C612.103 45.5341 610.498 50.1195 610.498 56.0041V57.0358C610.498 62.9204 612.103 67.544 615.312 70.9066C618.599 74.1928 622.802 75.8359 627.922 75.8359ZM666.237 84.7774V28.2624H677.815V34.9112H679.649C680.566 32.5421 682.019 30.8226 684.006 29.7527C686.069 28.6063 688.591 28.0331 691.571 28.0331H698.335V38.6942H691.113C687.292 38.6942 684.158 39.7641 681.713 41.904C679.267 43.9674 678.044 47.1772 678.044 51.5333V84.7774H666.237ZM704.837 84.7774V4.53297H716.644V50.2723H718.478L740.718 28.2624H756.423L727.878 55.6602L757.34 84.7774H741.749L718.478 61.2773H716.644V84.7774H704.837Z" fill="#272835"/>
</svg>
