<svg width="249" height="27" viewBox="0 0 249 27" fill="none" xmlns="http://www.w3.org/2000/svg">
<g clip-path="url(#clip0_1_143)">
<path d="M23.5326 0H0V7.949L3.4913 3.35033L16.9494 1.61296V24.276L14.5621 27H26.4989L24.116 24.276V1.61296L37.5742 3.35033L41.0655 7.949V0H23.5326Z" fill="black"/>
<path d="M87.3005 1.61296L100.759 3.35033L104.25 7.949V0H63.1845V7.949L66.6758 3.35033L80.1294 1.61296V24.276L77.7466 27H89.6834L87.3005 24.276V1.61296Z" fill="black"/>
<path d="M116.47 0L117.883 2.00334L99.3317 27H108.836L105.807 23.5338L108.509 19.2569H130.071L135.537 27H144.799L124.246 0H116.47ZM109.496 17.6911L118.686 3.14442L128.958 17.6911H109.491H109.496Z" fill="black"/>
<path d="M187.157 0H179.434L183.751 4.07531L185.865 24.0701L158.275 0H147.986L150.054 1.80172V27H157.773L153.456 22.9247L151.347 2.92993L178.932 27H189.222L187.157 25.1983V0Z" fill="black"/>
<path d="M58.0687 0H46.1319L48.5148 2.72402V24.276L46.1319 27H58.0687L55.6859 24.276V2.72402L58.0687 0Z" fill="black"/>
<path d="M249 0H233.312L221.788 12.4704L210.264 0H194.575L219.705 13.5L194.575 27H210.264L221.788 14.5296L233.312 27H249L223.874 13.5L249 0Z" fill="white"/>
</g>
<defs>
<clipPath id="clip0_1_143">
<rect width="249" height="27" fill="white"/>
</clipPath>
</defs>
</svg>
