<svg width="1200" height="400" viewBox="0 0 1200 400" fill="none" xmlns="http://www.w3.org/2000/svg">
<path d="M237.495 244H217.84V221.574C217.84 198.075 236.957 178.959 260.454 178.959H268.283V198.615H260.454C247.795 198.615 237.495 208.914 237.495 221.574V244Z" fill="#0F58C7"/>
<path d="M198.605 198.615H190.776V178.959H198.605C211.265 178.959 221.565 168.66 221.565 156H241.22C241.22 179.499 222.102 198.615 198.605 198.615Z" fill="#0F58C7"/>
<path d="M336.736 240V170.99H312.09V159.756H373.763V170.99H349.117V240H336.736ZM379.253 240V159.756H412.956C417.923 159.756 422.28 160.634 426.024 162.392C429.846 164.073 432.788 166.519 434.851 169.729C436.991 172.939 438.061 176.76 438.061 181.192V182.453C438.061 187.497 436.838 191.548 434.393 194.605C432.024 197.585 429.119 199.687 425.68 200.909V202.744C428.585 202.896 430.915 203.89 432.673 205.724C434.431 207.482 435.31 210.042 435.31 213.405V240H422.815V215.124C422.815 213.061 422.28 211.418 421.21 210.195C420.14 208.972 418.42 208.361 416.051 208.361H391.634V240H379.253ZM391.634 197.127H411.58C416.013 197.127 419.452 196.018 421.897 193.802C424.343 191.509 425.566 188.414 425.566 184.517V183.6C425.566 179.702 424.343 176.645 421.897 174.429C419.528 172.136 416.089 170.99 411.58 170.99H391.634V197.127ZM475.986 241.605C469.643 241.605 464.179 240.459 459.594 238.166C455.085 235.873 451.569 232.587 449.047 228.307C446.602 223.951 445.379 218.678 445.379 212.488V159.756H457.874V212.832C457.874 218.487 459.441 222.843 462.574 225.9C465.707 228.957 470.178 230.485 475.986 230.485C481.795 230.485 486.265 228.957 489.399 225.9C492.532 222.843 494.099 218.487 494.099 212.832V159.756H506.479V212.488C506.479 218.678 505.257 223.951 502.811 228.307C500.365 232.587 496.85 235.873 492.265 238.166C487.679 240.459 482.253 241.605 475.986 241.605ZM516.905 240V159.756H566.427V170.99H529.285V194.146H563.447V205.38H529.285V240H516.905ZM571.576 241.605C568.901 241.605 566.647 240.726 564.812 238.968C563.055 237.211 562.176 234.956 562.176 232.205C562.176 229.454 563.055 227.237 564.812 225.556C566.647 223.798 568.901 222.919 571.576 222.919C574.251 222.919 576.467 223.798 578.225 225.556C580.059 227.314 580.976 229.53 580.976 232.205C580.976 234.956 580.059 237.211 578.225 238.968C576.467 240.726 574.251 241.605 571.576 241.605ZM596.15 240V183.485H607.728V191.968H609.562C610.632 189.675 612.543 187.535 615.294 185.548C618.045 183.561 622.134 182.568 627.56 182.568C631.839 182.568 635.622 183.523 638.909 185.434C642.271 187.344 644.908 190.057 646.818 193.573C648.729 197.012 649.684 201.177 649.684 206.068V240H637.877V206.985C637.877 202.094 636.654 198.502 634.209 196.209C631.763 193.84 628.4 192.656 624.121 192.656C619.23 192.656 615.294 194.261 612.313 197.47C609.409 200.68 607.957 205.342 607.957 211.456V240H596.15ZM686.853 241.605C681.121 241.605 676.115 240.42 671.836 238.051C667.556 235.606 664.193 232.205 661.748 227.849C659.379 223.416 658.194 218.296 658.194 212.488V211.112C658.194 205.227 659.379 200.107 661.748 195.751C664.117 191.318 667.403 187.918 671.606 185.548C675.886 183.103 680.815 181.88 686.394 181.88C691.82 181.88 696.559 183.103 700.609 185.548C704.736 187.918 707.946 191.242 710.238 195.522C712.531 199.801 713.677 204.807 713.677 210.539V215.01H670.231C670.384 219.977 672.027 223.951 675.16 226.932C678.37 229.836 682.344 231.288 687.082 231.288C691.515 231.288 694.839 230.294 697.055 228.307C699.348 226.32 701.106 224.028 702.329 221.429L712.073 226.473C711.003 228.613 709.436 230.867 707.373 233.237C705.386 235.606 702.749 237.593 699.463 239.198C696.177 240.802 691.973 241.605 686.853 241.605ZM670.345 205.953H701.641C701.335 201.674 699.807 198.349 697.055 195.98C694.304 193.535 690.712 192.312 686.28 192.312C681.847 192.312 678.217 193.535 675.389 195.98C672.638 198.349 670.957 201.674 670.345 205.953ZM741.239 240C737.8 240 735.049 238.968 732.985 236.905C730.998 234.841 730.005 232.09 730.005 228.651V193.458H714.415V183.485H730.005V164.799H741.812V183.485H758.664V193.458H741.812V226.588C741.812 228.88 742.882 230.027 745.022 230.027H756.829V240H741.239ZM772.994 240L763.365 183.485H775.172L782.279 232.09H784.113L793.972 183.485H813.116L822.86 232.09H824.694L831.802 183.485H843.609L833.98 240H814.148L804.404 191.509H802.57L792.826 240H772.994ZM877.671 241.605C872.016 241.605 866.972 240.459 862.539 238.166C858.183 235.797 854.744 232.434 852.222 228.078C849.7 223.722 848.439 218.563 848.439 212.602V210.883C848.439 204.922 849.7 199.801 852.222 195.522C854.744 191.166 858.183 187.803 862.539 185.434C866.972 183.065 872.016 181.88 877.671 181.88C883.326 181.88 888.37 183.065 892.803 185.434C897.235 187.803 900.712 191.166 903.234 195.522C905.756 199.801 907.017 204.922 907.017 210.883V212.602C907.017 218.563 905.756 223.722 903.234 228.078C900.712 232.434 897.235 235.797 892.803 238.166C888.37 240.459 883.326 241.605 877.671 241.605ZM877.671 231.058C882.868 231.058 887.071 229.415 890.281 226.129C893.567 222.767 895.21 218.143 895.21 212.258V211.227C895.21 205.342 893.605 200.757 890.395 197.47C887.186 194.108 882.944 192.426 877.671 192.426C872.55 192.426 868.347 194.108 865.061 197.47C861.851 200.757 860.246 205.342 860.246 211.227V212.258C860.246 218.143 861.851 222.767 865.061 226.129C868.347 229.415 872.55 231.058 877.671 231.058ZM915.986 240V183.485H927.564V190.134H929.398C930.315 187.765 931.767 186.045 933.754 184.975C935.818 183.829 938.34 183.256 941.32 183.256H948.084V193.917H940.862C937.04 193.917 933.907 194.987 931.461 197.127C929.016 199.19 927.793 202.4 927.793 206.756V240H915.986ZM954.585 240V159.756H966.393V205.495H968.227L990.466 183.485H1006.17L977.627 210.883L1007.09 240H991.498L968.227 216.5H966.393V240H954.585Z" fill="#F8FAFB"/>
</svg>
