<svg width="1500" height="819" viewBox="0 0 1500 819" fill="none" xmlns="http://www.w3.org/2000/svg">
<rect width="1500" height="819" fill="#F6F8FA"/>
<path d="M387.243 434.777H367.588V412.351C367.588 388.853 386.705 369.737 410.202 369.737H418.031V389.392H410.202C397.543 389.392 387.243 399.692 387.243 412.351V434.777Z" fill="#0F58C7"/>
<path d="M348.353 389.392H340.524V369.737H348.353C361.013 369.737 371.313 359.437 371.313 346.777H390.968C390.968 370.276 371.85 389.392 348.353 389.392Z" fill="#0F58C7"/>
<path d="M486.484 430.777V361.767H461.838V350.533H523.511V361.767H498.865V430.777H486.484ZM529.001 430.777V350.533H562.704C567.672 350.533 572.028 351.412 575.772 353.17C579.594 354.851 582.536 357.296 584.599 360.506C586.739 363.716 587.809 367.537 587.809 371.97V373.231C587.809 378.275 586.586 382.325 584.141 385.382C581.772 388.363 578.868 390.464 575.428 391.687V393.521C578.333 393.674 580.663 394.667 582.421 396.502C584.179 398.259 585.058 400.819 585.058 404.182V430.777H572.563V405.902C572.563 403.838 572.028 402.195 570.958 400.972C569.888 399.75 568.168 399.138 565.799 399.138H541.382V430.777H529.001ZM541.382 387.904H561.328C565.761 387.904 569.2 386.796 571.646 384.58C574.091 382.287 575.314 379.192 575.314 375.294V374.377C575.314 370.479 574.091 367.423 571.646 365.206C569.276 362.914 565.837 361.767 561.328 361.767H541.382V387.904ZM625.734 432.382C619.391 432.382 613.927 431.236 609.342 428.943C604.833 426.651 601.317 423.364 598.795 419.085C596.35 414.729 595.127 409.455 595.127 403.265V350.533H607.622V403.609C607.622 409.264 609.189 413.62 612.322 416.677C615.456 419.734 619.926 421.263 625.734 421.263C631.543 421.263 636.013 419.734 639.147 416.677C642.28 413.62 643.847 409.264 643.847 403.609V350.533H656.227V403.265C656.227 409.455 655.005 414.729 652.559 419.085C650.113 423.364 646.598 426.651 642.013 428.943C637.427 431.236 632.001 432.382 625.734 432.382ZM666.653 430.777V350.533H716.175V361.767H679.033V384.923H713.195V396.158H679.033V430.777H666.653ZM721.324 432.382C718.649 432.382 716.395 431.503 714.56 429.746C712.803 427.988 711.924 425.733 711.924 422.982C711.924 420.231 712.803 418.015 714.56 416.333C716.395 414.576 718.649 413.697 721.324 413.697C723.999 413.697 726.215 414.576 727.973 416.333C729.807 418.091 730.724 420.307 730.724 422.982C730.724 425.733 729.807 427.988 727.973 429.746C726.215 431.503 723.999 432.382 721.324 432.382ZM745.898 430.777V374.262H757.476V382.745H759.31C760.38 380.453 762.291 378.313 765.042 376.326C767.793 374.339 771.882 373.345 777.308 373.345C781.588 373.345 785.37 374.301 788.657 376.211C792.019 378.122 794.656 380.835 796.566 384.35C798.477 387.789 799.432 391.954 799.432 396.845V430.777H787.625V397.763C787.625 392.871 786.402 389.28 783.957 386.987C781.511 384.618 778.148 383.433 773.869 383.433C768.978 383.433 765.042 385.038 762.061 388.248C759.157 391.458 757.705 396.119 757.705 402.233V430.777H745.898ZM836.601 432.382C830.869 432.382 825.863 431.198 821.584 428.829C817.304 426.383 813.941 422.982 811.496 418.626C809.127 414.194 807.942 409.073 807.942 403.265V401.889C807.942 396.005 809.127 390.884 811.496 386.528C813.865 382.096 817.151 378.695 821.354 376.326C825.634 373.88 830.563 372.658 836.142 372.658C841.568 372.658 846.307 373.88 850.357 376.326C854.484 378.695 857.694 382.019 859.986 386.299C862.279 390.579 863.426 395.585 863.426 401.316V405.787H819.979C820.132 410.755 821.775 414.729 824.908 417.709C828.118 420.613 832.092 422.065 836.83 422.065C841.263 422.065 844.587 421.072 846.803 419.085C849.096 417.098 850.854 414.805 852.077 412.207L861.821 417.251C860.751 419.39 859.184 421.645 857.121 424.014C855.134 426.383 852.497 428.37 849.211 429.975C845.925 431.58 841.721 432.382 836.601 432.382ZM820.093 396.731H851.389C851.083 392.451 849.555 389.127 846.803 386.758C844.052 384.312 840.46 383.089 836.028 383.089C831.595 383.089 827.965 384.312 825.137 386.758C822.386 389.127 820.705 392.451 820.093 396.731ZM890.987 430.777C887.548 430.777 884.797 429.746 882.733 427.682C880.746 425.619 879.753 422.868 879.753 419.429V384.236H864.163V374.262H879.753V355.577H891.56V374.262H908.412V384.236H891.56V417.365C891.56 419.658 892.63 420.804 894.77 420.804H906.578V430.777H890.987ZM922.742 430.777L913.113 374.262H924.92L932.027 422.868H933.862L943.72 374.262H962.864L972.608 422.868H974.442L981.55 374.262H993.357L983.728 430.777H963.896L954.152 382.287H952.318L942.574 430.777H922.742ZM1027.42 432.382C1021.76 432.382 1016.72 431.236 1012.29 428.943C1007.93 426.574 1004.49 423.212 1001.97 418.855C999.448 414.499 998.187 409.341 998.187 403.38V401.66C998.187 395.699 999.448 390.579 1001.97 386.299C1004.49 381.943 1007.93 378.58 1012.29 376.211C1016.72 373.842 1021.76 372.658 1027.42 372.658C1033.07 372.658 1038.12 373.842 1042.55 376.211C1046.98 378.58 1050.46 381.943 1052.98 386.299C1055.5 390.579 1056.77 395.699 1056.77 401.66V403.38C1056.77 409.341 1055.5 414.499 1052.98 418.855C1050.46 423.212 1046.98 426.574 1042.55 428.943C1038.12 431.236 1033.07 432.382 1027.42 432.382ZM1027.42 421.836C1032.62 421.836 1036.82 420.193 1040.03 416.907C1043.31 413.544 1044.96 408.92 1044.96 403.036V402.004C1044.96 396.119 1043.35 391.534 1040.14 388.248C1036.93 384.885 1032.69 383.204 1027.42 383.204C1022.3 383.204 1018.1 384.885 1014.81 388.248C1011.6 391.534 1009.99 396.119 1009.99 402.004V403.036C1009.99 408.92 1011.6 413.544 1014.81 416.907C1018.1 420.193 1022.3 421.836 1027.42 421.836ZM1065.73 430.777V374.262H1077.31V380.911H1079.15C1080.06 378.542 1081.52 376.823 1083.5 375.753C1085.57 374.606 1088.09 374.033 1091.07 374.033H1097.83V384.694H1090.61C1086.79 384.694 1083.66 385.764 1081.21 387.904C1078.76 389.967 1077.54 393.177 1077.54 397.533V430.777H1065.73ZM1104.33 430.777V350.533H1116.14V396.272H1117.98L1140.21 374.262H1155.92L1127.38 401.66L1156.84 430.777H1141.25L1117.98 407.277H1116.14V430.777H1104.33Z" fill="#272835"/>
</svg>
