<svg width="253" height="266" viewBox="0 0 253 266" fill="none" xmlns="http://www.w3.org/2000/svg">
<path d="M5.81744 88.9609L1.36373 86.8169L10.5956 67.6394L15.0493 69.7834L11.7373 76.6634L29.9731 85.4419L27.3705 90.8484L9.13472 82.0698L5.81744 88.9609Z" fill="#090909"/>
<path d="M37.163 71.8438L18.0793 55.4143L24.866 47.5311C26.0961 46.1023 27.4155 45.0911 28.8243 44.4976C30.2321 43.8925 31.6578 43.7191 33.1011 43.9774C34.5382 44.2304 35.9091 44.9184 37.2136 46.0415C38.5368 47.1807 39.4125 48.4376 39.8408 49.8122C40.2628 51.1814 40.2588 52.6057 39.8288 54.0852C39.3926 55.5593 38.5488 57.0231 37.2973 58.4768L33.0055 63.462L29.3714 60.3333L32.9252 56.2054C33.5242 55.5096 33.9342 54.8512 34.1551 54.2302C34.3752 53.5977 34.4032 52.9998 34.239 52.4366C34.0687 51.8681 33.6884 51.3298 33.0983 50.8218C32.5081 50.3137 31.9162 50.015 31.3224 49.9257C30.7225 49.831 30.123 49.9369 29.524 50.2432C28.9187 50.5442 28.3193 51.0394 27.7256 51.729L25.7682 54.0026L41.1339 67.2312L37.163 71.8438ZM37.6907 53.5911L50.5039 56.3476L46.1719 61.3794L33.4389 58.5297L37.6907 53.5911Z" fill="#090909"/>
<path d="M54.4843 21.4912L59.5355 18.1179L68.5561 31.6254C69.5985 33.1865 70.1352 34.7945 70.1661 36.4496C70.1924 38.0979 69.7526 39.6828 68.8467 41.2045C67.9362 42.7194 66.6016 44.0641 64.8429 45.2386C63.0637 46.4267 61.3001 47.1511 59.552 47.4117C57.7993 47.6654 56.1702 47.4621 54.6646 46.8017C53.1545 46.1345 51.8782 45.0204 50.8357 43.4593L41.8152 29.9518L46.8767 26.5716L55.6036 39.6395C56.0861 40.3621 56.6731 40.9016 57.3645 41.2579C58.0628 41.6098 58.8052 41.7547 59.5918 41.6927C60.3783 41.6307 61.1499 41.347 61.9066 40.8417C62.6633 40.3364 63.2175 39.7346 63.5694 39.0364C63.928 38.3336 64.0786 37.5923 64.0212 36.8126C63.9637 36.0328 63.6937 35.2816 63.2112 34.5591L54.4843 21.4912Z" fill="#090909"/>
<path d="M81.404 34.8641L73.1872 11.0607L89.4357 5.4518L91.0486 10.1241L80.5533 13.7471L82.2384 18.6286L91.6993 15.3627L93.3162 20.0467L83.8553 23.3126L87.1573 32.8781L81.404 34.8641Z" fill="#090909"/>
<path d="M129.921 0.450103L129.102 25.6184L123.018 25.4202L123.838 0.251953L129.921 0.450103Z" fill="#090909"/>
<path d="M167.719 6.80323L161.352 31.1667L156.355 29.861L150.334 13.2659L150.18 13.2255L146.505 27.2869L140.617 25.748L146.983 1.38455L152.051 2.70891L157.971 19.2521L158.173 19.305L161.842 5.26747L167.719 6.80323Z" fill="#090909"/>
<path d="M190.649 25.8041C191.031 24.9833 191.067 24.194 190.758 23.4364C190.461 22.6758 189.798 21.9969 188.77 21.3999C188.09 21.0046 187.471 20.7639 186.915 20.6775C186.358 20.5912 185.876 20.6381 185.468 20.8182C185.064 20.9913 184.743 21.2742 184.506 21.667C184.302 21.9848 184.199 22.3089 184.197 22.6394C184.202 22.9739 184.287 23.3172 184.452 23.6691C184.628 24.0181 184.874 24.3788 185.188 24.7511C185.503 25.1234 185.878 25.5069 186.312 25.9014L187.936 27.4137C188.878 28.2734 189.646 29.1371 190.242 30.0045C190.845 30.8761 191.27 31.7439 191.517 32.6078C191.771 33.4759 191.84 34.3452 191.723 35.2157C191.605 36.0863 191.297 36.9595 190.798 37.8355C189.992 39.2064 188.959 40.1848 187.699 40.7707C186.439 41.3565 185.012 41.537 183.418 41.3121C181.83 41.0914 180.129 40.454 178.314 39.4C176.493 38.3418 175.063 37.1466 174.027 35.8144C172.99 34.4822 172.419 33.0414 172.314 31.4922C172.209 29.9429 172.64 28.3115 173.607 26.5981L178.647 29.5255C178.282 30.252 178.13 30.9458 178.191 31.6072C178.253 32.2685 178.504 32.8885 178.945 33.4671C179.393 34.0498 180.004 34.5656 180.777 35.0144C181.485 35.4261 182.143 35.6804 182.751 35.7773C183.365 35.8782 183.906 35.8368 184.373 35.6531C184.84 35.4693 185.204 35.1598 185.467 34.7244C185.699 34.3092 185.775 33.8842 185.696 33.4495C185.62 33.0077 185.386 32.5302 184.992 32.017C184.609 31.5008 184.074 30.92 183.388 30.2745L181.421 28.4212C179.787 26.8936 178.708 25.3329 178.183 23.7389C177.663 22.1379 177.886 20.5137 178.852 18.8663C179.627 17.5155 180.674 16.5453 181.993 15.9558C183.312 15.3663 184.781 15.1627 186.401 15.3451C188.02 15.5274 189.656 16.0982 191.307 17.0576C192.994 18.0375 194.291 19.1748 195.198 20.4695C196.116 21.7612 196.62 23.1207 196.711 24.5478C196.801 25.975 196.46 27.3696 195.688 28.7316L190.649 25.8041Z" fill="#090909"/>
<path d="M214.986 34.5094L198.03 53.1269L193.53 49.0286L210.486 30.4111L214.986 34.5094Z" fill="#090909"/>
<path d="M212.033 68.3547L206.691 60.732L227.314 46.2812L232.648 53.8938C234.121 55.995 234.976 58.0935 235.213 60.1892C235.462 62.287 235.104 64.2896 234.138 66.1973C233.179 68.1002 231.629 69.802 229.488 71.3026C227.34 72.8079 225.204 73.6886 223.082 73.9448C220.964 74.2078 218.958 73.8666 217.065 72.9213C215.178 71.9714 213.501 70.4491 212.033 68.3547ZM214.434 62.7388L216.148 65.1857C216.957 66.3403 217.836 67.1807 218.786 67.7067C219.746 68.2347 220.813 68.393 221.986 68.1816C223.17 67.9722 224.505 67.3476 225.988 66.3081C227.472 65.2685 228.507 64.2324 229.095 63.2C229.69 62.1629 229.897 61.1017 229.717 60.0166C229.549 58.9335 229.05 57.8012 228.223 56.6197L226.557 54.2433L214.434 62.7388Z" fill="#090909"/>
<path d="M223.263 85.7485L246.929 77.1443L252.929 93.6459L248.283 95.3348L244.364 84.5533L239.51 86.3179L243.123 96.2558L238.466 97.9489L234.853 88.011L229.988 89.7797L233.908 100.561L229.263 102.25L223.263 85.7485Z" fill="#090909"/>
<path d="M238.268 133.314C238.309 132.323 238.588 131.428 239.105 130.629C239.63 129.831 240.313 129.203 241.152 128.745C241.991 128.296 242.906 128.092 243.897 128.133C244.896 128.174 245.791 128.453 246.582 128.97C247.381 129.495 248.005 130.178 248.454 131.017C248.912 131.856 249.12 132.771 249.079 133.762C249.037 134.761 248.754 135.656 248.229 136.447C247.712 137.246 247.034 137.87 246.195 138.319C245.364 138.777 244.449 138.985 243.449 138.944C242.458 138.903 241.564 138.619 240.765 138.094C239.966 137.577 239.338 136.899 238.88 136.059C238.431 135.229 238.226 134.314 238.268 133.314Z" fill="#090909"/>
<path d="M247.138 175.458L251.615 177.551L242.6 196.832L238.123 194.738L241.357 187.821L223.023 179.249L225.565 173.814L243.898 182.386L247.138 175.458Z" fill="#090909"/>
<path d="M215.999 192.922L235.268 209.135L228.571 217.094C227.357 218.537 226.049 219.563 224.647 220.172C223.246 220.793 221.823 220.983 220.377 220.741C218.937 220.504 217.558 219.832 216.241 218.723C214.905 217.599 214.015 216.352 213.571 214.983C213.134 213.618 213.122 212.194 213.535 210.71C213.954 209.231 214.781 207.758 216.016 206.29L220.251 201.256L223.921 204.344L220.414 208.512C219.823 209.214 219.42 209.877 219.206 210.501C218.993 211.136 218.972 211.734 219.143 212.295C219.32 212.862 219.706 213.396 220.302 213.897C220.898 214.398 221.493 214.69 222.088 214.773C222.689 214.861 223.287 214.748 223.882 214.435C224.484 214.127 225.078 213.625 225.664 212.929L227.595 210.633L212.081 197.58L215.999 192.922ZM215.678 211.18L202.835 208.569L207.109 203.488L219.874 206.193L215.678 211.18Z" fill="#090909"/>
<path d="M199.262 243.461L194.249 246.891L185.076 233.487C184.016 231.938 183.461 230.336 183.412 228.681C183.367 227.033 183.789 225.443 184.677 223.912C185.57 222.387 186.89 221.027 188.635 219.833C190.401 218.624 192.156 217.88 193.901 217.6C195.651 217.326 197.282 217.511 198.795 218.154C200.313 218.804 201.601 219.904 202.662 221.453L211.834 234.858L206.811 238.295L197.937 225.327C197.447 224.61 196.853 224.077 196.158 223.728C195.456 223.384 194.712 223.248 193.926 223.319C193.14 223.39 192.372 223.682 191.621 224.196C190.87 224.71 190.323 225.318 189.979 226.02C189.628 226.727 189.486 227.47 189.552 228.249C189.618 229.028 189.897 229.776 190.388 230.493L199.262 243.461Z" fill="#090909"/>
<path d="M172.172 230.421L180.657 254.13L164.473 259.922L162.808 255.268L173.261 251.527L171.521 246.665L162.098 250.037L160.428 245.372L169.851 241.999L166.441 232.472L172.172 230.421Z" fill="#090909"/>
<path d="M124.041 265.376L124.572 240.199L130.658 240.328L130.126 265.504L124.041 265.376Z" fill="#090909"/>
<path d="M86.1885 259.45L92.279 235.016L97.2898 236.265L103.498 252.791L103.653 252.829L107.168 238.727L113.074 240.199L106.984 264.633L101.901 263.366L95.7942 246.891L95.5914 246.841L92.0822 260.919L86.1885 259.45Z" fill="#090909"/>
<path d="M63.0407 240.708C62.6681 241.533 62.6405 242.322 62.9579 243.077C63.2641 243.834 63.9345 244.505 64.969 245.09C65.654 245.478 66.2752 245.711 66.8327 245.791C67.3902 245.871 67.8719 245.819 68.2778 245.634C68.6797 245.456 68.9972 245.17 69.2304 244.774C69.4303 244.454 69.5296 244.129 69.5281 243.799C69.5196 243.464 69.4307 243.122 69.2614 242.772C69.0809 242.425 68.8313 242.067 68.5125 241.698C68.1937 241.33 67.8148 240.95 67.376 240.561L65.7346 239.067C64.7833 238.218 64.0049 237.364 63.3993 236.503C62.7865 235.638 62.3517 234.775 62.0948 233.914C61.8308 233.049 61.7523 232.181 61.8594 231.309C61.9665 230.437 62.2647 229.56 62.754 228.679C63.5442 227.299 64.5658 226.309 65.8189 225.708C67.072 225.108 68.4971 224.911 70.0943 225.118C71.6843 225.321 73.3925 225.939 75.219 226.972C77.0526 228.009 78.4953 229.188 79.5472 230.508C80.5992 231.829 81.1864 233.263 81.309 234.811C81.4316 236.359 81.0192 237.995 80.0719 239.719L74.9992 236.849C75.356 236.119 75.4999 235.423 75.431 234.763C75.3621 234.102 75.1037 233.485 74.6559 232.912C74.201 232.334 73.5847 231.825 72.807 231.385C72.0935 230.982 71.4326 230.735 70.8242 230.645C70.2087 230.551 69.6685 230.599 69.2036 230.788C68.7388 230.977 68.3777 231.291 68.1203 231.729C67.8933 232.147 67.8219 232.572 67.9062 233.006C67.9864 233.447 68.2263 233.922 68.6261 234.431C69.0146 234.942 69.556 235.517 70.2501 236.155L72.2376 237.985C73.8892 239.494 74.9863 241.043 75.529 242.63C76.0676 244.225 75.8631 245.852 74.9156 247.51C74.1558 248.87 73.1199 249.852 71.8079 250.457C70.4958 251.061 69.0291 251.281 67.4077 251.118C65.7864 250.954 64.1445 250.402 62.4821 249.461C60.7841 248.501 59.4743 247.378 58.5527 246.094C57.6199 244.813 57.1001 243.459 56.9933 242.033C56.8865 240.607 57.2114 239.209 57.968 237.838L63.0407 240.708Z" fill="#090909"/>
<path d="M38.6048 232.285L55.3458 213.474L59.8924 217.52L43.1514 236.331L38.6048 232.285Z" fill="#090909"/>
<path d="M41.1751 198.389L46.6026 205.951L26.1451 220.634L20.7248 213.083C19.2287 210.998 18.3501 208.91 18.089 206.817C17.8164 204.722 18.152 202.715 19.0957 200.797C20.0328 198.883 21.5635 197.164 23.6878 195.639C25.8188 194.11 27.9441 193.205 30.0637 192.924C32.1784 192.638 34.1879 192.956 36.092 193.88C37.9895 194.808 39.6838 196.311 41.1751 198.389ZM38.8382 204.032L37.096 201.605C36.2739 200.459 35.3853 199.629 34.4302 199.114C33.4638 198.596 32.3952 198.45 31.2246 198.675C30.0426 198.898 28.7157 199.537 27.244 200.594C25.7723 201.65 24.7484 202.698 24.1724 203.737C23.5897 204.781 23.3944 205.844 23.5865 206.927C23.7672 208.008 24.2782 209.135 25.1194 210.307L26.8114 212.664L38.8382 204.032Z" fill="#090909"/>
<path d="M29.7529 181.148L6.18559 190.019L0 173.586L4.626 171.845L8.66742 182.581L13.5006 180.762L9.77534 170.866L14.4128 169.12L18.1381 179.016L22.9827 177.193L18.9413 166.456L23.5673 164.715L29.7529 181.148Z" fill="#090909"/>
<path d="M14.2019 133.723C14.1722 134.714 13.9034 135.612 13.3954 136.417C12.8793 137.222 12.2042 137.858 11.3702 138.325C10.5363 138.784 9.62372 138.998 8.63231 138.969C7.63271 138.939 6.73456 138.67 5.93788 138.162C5.13325 137.646 4.50149 136.971 4.04259 136.137C3.57551 135.303 3.35681 134.39 3.38648 133.399C3.4164 132.399 3.6893 131.501 4.20519 130.705C4.71313 129.9 5.38401 129.268 6.21783 128.809C7.0437 128.342 7.95643 128.123 8.95604 128.153C9.94745 128.183 10.8455 128.456 11.6501 128.972C12.455 129.48 13.091 130.151 13.558 130.985C14.0172 131.81 14.2318 132.723 14.2019 133.723Z" fill="#090909"/>
<path d="M194.025 132.947C194.025 170.381 163.679 200.727 126.245 200.727C88.8116 200.727 58.4655 170.381 58.4655 132.947C58.4655 95.5135 88.8116 65.1674 126.245 65.1674C163.679 65.1674 194.025 95.5135 194.025 132.947Z" fill="#090909"/>
</svg>
