<svg width="1840" height="779" viewBox="0 0 1840 779" fill="none" xmlns="http://www.w3.org/2000/svg">
<rect width="1840" height="779" fill="white"/>
<path d="M397.34 355.663C378.636 355.663 363.467 370.83 363.467 389.536C363.467 408.243 378.634 423.41 397.34 423.41C416.046 423.41 431.214 408.243 431.214 389.536C431.214 370.83 416.044 355.663 397.34 355.663Z" fill="#0407FF"/>
<path d="M346.118 380.009C348.018 369.84 352.965 360.479 360.514 353.003L360.633 352.886C360.795 352.728 360.956 352.571 361.118 352.415C361.272 352.269 361.425 352.124 361.579 351.978L361.728 351.839C371.381 342.908 383.949 337.989 397.12 337.987H397.13C410.289 337.987 422.851 342.896 432.501 351.809L432.681 351.976C432.826 352.112 432.972 352.249 433.115 352.387C433.269 352.534 433.423 352.682 433.576 352.833L433.72 352.973C441.288 360.454 446.246 369.826 448.15 380.007H470.69C470.384 377.649 470.041 375.313 469.509 373.007L469.018 371.113C468.111 367.621 466.931 364.161 465.51 360.832C461.769 352.065 456.417 344.194 449.595 337.431L449.564 337.403C442.754 330.641 434.821 325.33 425.987 321.619C422.631 320.211 419.144 319.038 415.624 318.141L413.716 317.654C408.312 316.429 402.742 315.886 397.132 315.886H397.116C391.477 315.886 385.881 316.437 380.451 317.674L378.541 318.163C375.039 319.063 371.573 320.229 368.238 321.631C359.406 325.344 351.476 330.657 344.669 337.423C344.245 337.846 343.814 338.284 343.392 338.723C337.171 345.192 332.242 352.637 328.74 360.855C327.319 364.185 326.141 367.647 325.236 371.141L324.744 373.035C324.217 375.333 323.875 377.661 323.572 380.009H346.118Z" fill="#0407FF"/>
<path d="M470.742 398.53H448.218C446.587 407.608 442.515 416.153 436.351 423.222L436.329 423.248C436.155 423.446 435.979 423.644 435.805 423.838C435.688 423.968 435.571 424.097 435.45 424.226C435.379 424.303 435.306 424.382 435.235 424.457C430.417 429.618 424.706 433.683 418.265 436.54C411.598 439.497 404.49 440.999 397.138 441.001H397.128C383.638 441.001 370.843 435.875 361.108 426.571C360.985 426.454 360.863 426.334 360.74 426.215L360.508 425.989C352.848 418.4 347.869 408.873 346.031 398.532H323.514C323.825 401.066 324.191 403.578 324.763 406.054L325.256 407.95C326.161 411.426 327.337 414.865 328.75 418.176C332.491 426.941 337.844 434.812 344.661 441.569C344.999 441.902 345.36 442.254 345.801 442.672C352.361 448.925 359.92 453.874 368.268 457.381C371.603 458.781 375.067 459.945 378.569 460.843L380.479 461.332C385.905 462.566 391.497 463.114 397.13 463.114H397.144C402.76 463.114 408.334 462.566 413.742 461.34L415.65 460.851C419.169 459.951 422.653 458.779 426.008 457.369C434.819 453.664 442.733 448.369 449.53 441.627L449.647 441.53L449.683 441.476C456.464 434.732 461.791 426.882 465.516 418.145C466.926 414.835 468.101 411.395 469.004 407.921L469.497 406.026C470.067 403.558 470.429 401.056 470.74 398.53H470.742Z" fill="#0407FF"/>
<path d="M508.944 361.047V342.741H587.768V361.047H559.49V436H537.268V361.047H508.944Z" fill="#090909"/>
<path d="M596.212 436V342.741H634.736C641.718 342.741 647.745 344.001 652.814 346.52C657.914 349.01 661.846 352.592 664.608 357.267C667.371 361.912 668.752 367.422 668.752 373.797C668.752 380.263 667.34 385.758 664.517 390.281C661.694 394.774 657.687 398.205 652.495 400.572C647.304 402.91 641.157 404.079 634.053 404.079H609.691V386.319H629.864C633.264 386.319 636.102 385.879 638.379 384.999C640.686 384.088 642.432 382.722 643.616 380.901C644.8 379.049 645.392 376.681 645.392 373.797C645.392 370.913 644.8 368.53 643.616 366.648C642.432 364.735 640.686 363.308 638.379 362.367C636.072 361.396 633.233 360.91 629.864 360.91H618.753V436H596.212ZM648.716 393.378L671.94 436H647.35L624.582 393.378H648.716Z" fill="#090909"/>
<path d="M734.971 342.741H757.466V402.895C757.466 409.847 755.811 415.903 752.502 421.064C749.193 426.194 744.579 430.171 738.659 432.995C732.739 435.787 725.863 437.184 718.031 437.184C710.108 437.184 703.186 435.787 697.266 432.995C691.346 430.171 686.747 426.194 683.469 421.064C680.19 415.903 678.551 409.847 678.551 402.895V342.741H701.091V400.937C701.091 404.155 701.789 407.023 703.186 409.543C704.613 412.063 706.601 414.036 709.151 415.463C711.701 416.89 714.661 417.603 718.031 417.603C721.401 417.603 724.345 416.89 726.865 415.463C729.415 414.036 731.404 412.063 732.83 409.543C734.257 407.023 734.971 404.155 734.971 400.937V342.741Z" fill="#090909"/>
<path d="M769.029 436V342.741H832.689V361.047H791.569V380.172H828.636V398.523H791.569V436H769.029Z" fill="#090909"/>
<path d="M849.614 437.321C846.335 437.321 843.527 436.167 841.19 433.86C838.883 431.553 837.744 428.76 837.775 425.481C837.744 422.263 838.883 419.516 841.19 417.239C843.527 414.932 846.335 413.778 849.614 413.778C852.711 413.778 855.443 414.932 857.811 417.239C860.209 419.516 861.423 422.263 861.454 425.481C861.423 427.667 860.846 429.655 859.723 431.446C858.63 433.237 857.188 434.664 855.397 435.727C853.636 436.789 851.709 437.321 849.614 437.321Z" fill="#090909"/>
<path d="M952.968 342.741V436H933.842L896.73 382.176H896.138V436H873.597V342.741H892.996L929.698 396.474H930.473V342.741H952.968Z" fill="#090909"/>
<path d="M964.576 436V342.741H1029.6V361.047H987.117V380.172H1026.28V398.523H987.117V417.694H1029.6V436H964.576Z" fill="#090909"/>
<path d="M1038.1 361.047V342.741H1116.93V361.047H1088.65V436H1066.43V361.047H1038.1Z" fill="#090909"/>
<path d="M1147.73 436L1120.59 342.741H1145.5L1159.57 403.851H1160.34L1176.42 342.741H1196.73L1212.8 403.988H1213.58L1227.69 342.741H1252.56L1225.46 436H1203.74L1186.94 379.443H1186.21L1169.41 436H1147.73Z" fill="#090909"/>
<path d="M1341.82 389.37C1341.82 399.631 1339.84 408.329 1335.9 415.463C1331.95 422.597 1326.61 428.016 1319.87 431.72C1313.16 435.423 1305.63 437.275 1297.28 437.275C1288.9 437.275 1281.36 435.408 1274.65 431.674C1267.94 427.94 1262.61 422.521 1258.67 415.417C1254.75 408.283 1252.79 399.601 1252.79 389.37C1252.79 379.109 1254.75 370.412 1258.67 363.278C1262.61 356.144 1267.94 350.725 1274.65 347.021C1281.36 343.318 1288.9 341.466 1297.28 341.466C1305.63 341.466 1313.16 343.318 1319.87 347.021C1326.61 350.725 1331.95 356.144 1335.9 363.278C1339.84 370.412 1341.82 379.109 1341.82 389.37ZM1318.77 389.37C1318.77 383.299 1317.91 378.168 1316.18 373.979C1314.48 369.79 1312.02 366.617 1308.8 364.462C1305.61 362.306 1301.77 361.229 1297.28 361.229C1292.82 361.229 1288.98 362.306 1285.76 364.462C1282.54 366.617 1280.07 369.79 1278.34 373.979C1276.64 378.168 1275.79 383.299 1275.79 389.37C1275.79 395.442 1276.64 400.572 1278.34 404.762C1280.07 408.951 1282.54 412.124 1285.76 414.279C1288.98 416.434 1292.82 417.512 1297.28 417.512C1301.77 417.512 1305.61 416.434 1308.8 414.279C1312.02 412.124 1314.48 408.951 1316.18 404.762C1317.91 400.572 1318.77 395.442 1318.77 389.37Z" fill="#090909"/>
<path d="M1352.41 436V342.741H1390.93C1397.92 342.741 1403.94 344.001 1409.01 346.52C1414.11 349.01 1418.04 352.592 1420.81 357.267C1423.57 361.912 1424.95 367.422 1424.95 373.797C1424.95 380.263 1423.54 385.758 1420.72 390.281C1417.89 394.774 1413.89 398.205 1408.69 400.572C1403.5 402.91 1397.36 404.079 1390.25 404.079H1365.89V386.319H1386.06C1389.46 386.319 1392.3 385.879 1394.58 384.999C1396.88 384.088 1398.63 382.722 1399.81 380.901C1401 379.049 1401.59 376.681 1401.59 373.797C1401.59 370.913 1401 368.53 1399.81 366.648C1398.63 364.735 1396.88 363.308 1394.58 362.367C1392.27 361.396 1389.43 360.91 1386.06 360.91H1374.95V436H1352.41ZM1404.91 393.378L1428.14 436H1403.55L1380.78 393.378H1404.91Z" fill="#090909"/>
<path d="M1434.75 436V342.741H1457.29V382.176H1458.52L1489.35 342.741H1515.9L1482.84 384.361L1516.49 436H1489.53L1466.31 399.343L1457.29 410.727V436H1434.75Z" fill="#090909"/>
</svg>
