<svg width="148" height="148" viewBox="0 0 148 148" fill="none" xmlns="http://www.w3.org/2000/svg">
<g clip-path="url(#clip0_4966_63711)">
<path d="M73.8265 40.2337C55.1223 40.2337 39.9528 55.4012 39.9528 74.1074C39.9528 92.8135 55.1203 107.981 73.8265 107.981C92.5327 107.981 107.7 92.8135 107.7 74.1074C107.7 55.4012 92.5307 40.2337 73.8265 40.2337Z" fill="white"/>
<path d="M22.6047 64.5804C24.5044 54.4108 29.4518 45.0497 37.0001 37.5741L37.1194 37.4569C37.281 37.2992 37.4427 37.1416 37.6044 36.986C37.758 36.8405 37.9116 36.695 38.0652 36.5494L38.2147 36.41C47.8669 27.4793 60.4354 22.5602 73.6061 22.5582H73.6162C86.7748 22.5582 99.3373 27.4672 108.987 36.3797L109.167 36.5474C109.313 36.6828 109.458 36.8203 109.602 36.9577C109.755 37.1052 109.909 37.2527 110.063 37.4043L110.206 37.5438C117.775 45.0254 122.732 54.3967 124.636 64.5784H147.176C146.871 62.2199 146.527 59.8837 145.996 57.5777L145.505 55.6841C144.597 52.1918 143.417 48.7319 141.996 45.4033C138.255 36.6363 132.904 28.7646 126.081 22.0024L126.051 21.9741C119.24 15.2119 111.308 9.90082 102.474 6.1903C99.117 4.78168 95.6308 3.60951 92.1102 2.7122L90.2024 2.22514C84.7983 1.00043 79.2285 0.456787 73.6182 0.456787H73.6021C67.9636 0.456787 62.3675 1.00851 56.9371 2.24535L55.0273 2.73443C51.5249 3.63376 48.0589 4.79987 44.7243 6.20243C35.8926 9.91497 27.9623 15.2281 21.1556 21.9944C20.7312 22.4167 20.3008 22.8553 19.8784 23.2938C13.6578 29.763 8.72862 37.2083 5.22626 45.4256C3.80551 48.7561 2.62728 52.2181 1.72188 55.7124L1.23078 57.606C0.703309 59.9039 0.361763 62.232 0.0586163 64.5804H22.6047Z" fill="white"/>
<path d="M147.228 83.1008H124.705C123.074 92.179 119.001 100.724 112.837 107.793L112.815 107.819C112.641 108.017 112.466 108.215 112.292 108.41C112.175 108.539 112.057 108.668 111.936 108.798C111.865 108.874 111.793 108.953 111.722 109.028C106.904 114.189 101.192 118.254 94.7516 121.111C88.0844 124.068 80.9766 125.57 73.6243 125.572H73.6142C60.1242 125.572 47.3293 120.446 37.5943 111.142C37.471 111.025 37.3497 110.905 37.2265 110.786L36.994 110.56C29.3345 102.971 24.3548 93.4442 22.5178 83.1028H0C0.311231 85.6371 0.677028 88.1492 1.24897 90.6249L1.74208 92.5206C2.64748 95.9967 3.82369 99.4364 5.23636 102.747C8.97719 111.512 14.3308 119.383 21.1475 126.14C21.485 126.473 21.8468 126.825 22.2874 127.243C28.8475 133.496 36.4059 138.445 44.7546 141.952C48.0892 143.352 51.5532 144.516 55.0555 145.414L56.9654 145.903C62.3917 147.137 67.9838 147.685 73.6162 147.685H73.6304C79.2467 147.685 84.8205 147.138 90.2287 145.911L92.1365 145.422C95.655 144.522 99.1392 143.35 102.494 141.94C111.305 138.235 119.22 132.94 126.016 126.198L126.133 126.101L126.17 126.047C132.95 119.303 138.277 111.453 142.002 102.716C143.413 99.4061 144.587 95.9663 145.49 92.4923L145.983 90.5966C146.553 88.129 146.915 85.627 147.226 83.1008H147.228Z" fill="white"/>
</g>
<defs>
<clipPath id="clip0_4966_63711">
<rect width="147.228" height="147.228" fill="white" transform="translate(0 0.456787)"/>
</clipPath>
</defs>
</svg>
