<svg width="406" height="406" viewBox="0 0 406 406" fill="none" xmlns="http://www.w3.org/2000/svg">
<g clip-path="url(#clip0_1447_238)">
<path d="M209.763 8.47784L210.747 1L242.939 5.2383L241.955 12.7161L230.406 11.1956L226.377 41.8139L217.301 40.619L221.33 10.0008L209.763 8.47784Z" fill="#0F58C7"/>
<path d="M249.51 45.7523L264.223 10.2573L278.883 16.3363C281.54 17.438 283.634 18.8684 285.166 20.6274C286.714 22.3797 287.645 24.3634 287.958 26.5787C288.277 28.7825 287.933 31.0975 286.927 33.524C285.907 35.985 284.503 37.8536 282.715 39.1297C280.932 40.3943 278.866 41.0676 276.517 41.1497C274.173 41.2202 271.649 40.695 268.946 39.5741L259.675 35.7298L262.477 28.9705L270.154 32.1537C271.447 32.6902 272.597 32.9706 273.602 32.9948C274.624 33.0122 275.504 32.7677 276.242 32.2613C276.984 31.7433 277.583 30.9354 278.038 29.8378C278.493 28.7401 278.644 27.7397 278.49 26.8365C278.341 25.9217 277.902 25.1032 277.173 24.381C276.448 23.6472 275.445 23.0144 274.162 22.4827L269.934 20.7294L258.088 49.3091L249.51 45.7523ZM276.214 37.8149L278.327 57.7018L268.97 53.8216L267.03 34.0066L276.214 37.8149Z" fill="#0F58C7"/>
<path d="M330.738 46.8529L338.035 52.5664L322.759 72.0817C320.994 74.337 318.919 75.8816 316.536 76.7155C314.159 77.5395 311.653 77.6576 309.016 77.07C306.386 76.4725 303.802 75.1791 301.261 73.1898C298.691 71.1773 296.801 68.9663 295.59 66.5566C294.387 64.1372 293.905 61.6788 294.144 59.1816C294.391 56.6746 295.397 54.2934 297.163 52.0381L312.438 32.5228L319.749 38.2479L304.971 57.1279C304.154 58.1719 303.652 59.2799 303.465 60.4521C303.288 61.6319 303.432 62.7771 303.897 63.8877C304.362 64.9983 305.14 65.9815 306.233 66.8374C307.326 67.6932 308.463 68.2097 309.642 68.3868C310.832 68.5716 311.978 68.4365 313.08 67.9814C314.183 67.5264 315.143 66.7769 315.96 65.7329L330.738 46.8529Z" fill="#0F58C7"/>
<path d="M324.19 92.2489L354.769 68.9898L370.643 89.868L364.641 94.4335L354.388 80.9478L348.116 85.7177L357.359 97.8743L351.342 102.451L342.099 90.2946L329.811 99.6414L324.19 92.2489Z" fill="#0F58C7"/>
<path d="M397.19 146.167L360.325 156.979L357.713 148.067L394.578 137.255L397.19 146.167Z" fill="#0F58C7"/>
<path d="M406 203.983L367.657 206.37L367.168 198.506L388.348 181.866L388.333 181.623L366.203 183.001L365.626 173.731L403.969 171.344L404.465 179.322L383.313 195.79L383.332 196.108L405.424 194.733L406 203.983Z" fill="#0F58C7"/>
<path d="M389.394 246.28C390.766 246.442 391.927 246.119 392.878 245.31C393.838 244.516 394.506 243.232 394.881 241.458C395.13 240.283 395.184 239.271 395.044 238.424C394.903 237.576 394.606 236.899 394.15 236.393C393.707 235.891 393.144 235.561 392.461 235.403C391.904 235.26 391.385 235.265 390.905 235.419C390.422 235.586 389.966 235.872 389.534 236.28C389.113 236.702 388.707 237.23 388.317 237.863C387.928 238.497 387.551 239.222 387.186 240.04L385.768 243.115C384.971 244.89 384.086 246.416 383.113 247.693C382.137 248.982 381.082 250.012 379.948 250.782C378.811 251.564 377.584 252.078 376.267 252.324C374.949 252.569 373.537 252.539 372.029 252.232C369.658 251.718 367.748 250.687 366.299 249.14C364.849 247.594 363.907 245.611 363.473 243.192C363.036 240.786 363.149 238.016 363.811 234.883C364.477 231.738 365.527 229.097 366.964 226.959C368.4 224.821 370.216 223.307 372.411 222.416C374.606 221.525 377.176 221.372 380.12 221.957L378.28 230.657C377.053 230.475 375.975 230.585 375.046 230.99C374.117 231.394 373.338 232.054 372.71 232.969C372.079 233.897 371.623 235.028 371.341 236.361C371.082 237.585 371.027 238.66 371.176 239.587C371.323 240.525 371.64 241.289 372.129 241.879C372.618 242.468 373.241 242.849 373.997 243.022C374.709 243.16 375.361 243.068 375.953 242.745C376.558 242.426 377.138 241.858 377.694 241.043C378.26 240.242 378.846 239.19 379.454 237.886L381.203 234.152C382.638 231.055 384.385 228.747 386.445 227.226C388.517 225.709 390.977 225.258 393.825 225.873C396.152 226.353 398.058 227.408 399.54 229.039C401.023 230.669 402.019 232.702 402.526 235.136C403.034 237.57 402.986 240.213 402.383 243.064C401.767 245.977 400.737 248.399 399.293 250.331C397.859 252.277 396.129 253.656 394.104 254.468C392.079 255.28 389.896 255.45 387.554 254.98L389.394 246.28Z" fill="#0F58C7"/>
<path d="M388.379 285.707L353.316 270.005L357.11 261.529L392.173 277.23L388.379 285.707Z" fill="#0F58C7"/>
<path d="M337.923 297.563L346.424 286.187L377.196 309.189L368.706 320.551C366.363 323.687 363.73 325.927 360.806 327.27C357.884 328.631 354.811 329.066 351.586 328.576C348.372 328.094 345.167 326.658 341.971 324.27C338.766 321.874 336.471 319.198 335.088 316.244C333.698 313.299 333.236 310.229 333.703 307.034C334.181 303.846 335.587 300.689 337.923 297.563ZM347.206 298.366L344.477 302.018C343.189 303.741 342.391 305.416 342.081 307.042C341.773 308.686 342.053 310.308 342.918 311.908C343.786 313.525 345.327 315.161 347.541 316.816C349.755 318.47 351.75 319.478 353.526 319.837C355.313 320.205 356.949 319.999 358.436 319.221C359.925 318.461 361.329 317.199 362.646 315.435L365.297 311.889L347.206 298.366Z" fill="#0F58C7"/>
<path d="M318.069 322.135L341.819 352.337L320.765 368.9L316.103 362.972L329.859 352.15L324.988 345.956L312.309 355.932L307.635 349.989L320.315 340.013L315.433 333.805L301.676 344.627L297.015 338.699L318.069 322.135Z" fill="#0F58C7"/>
<path d="M256.288 366.562C257.744 366.149 259.174 366.127 260.579 366.495C261.987 366.876 263.222 367.566 264.285 368.564C265.336 369.566 266.068 370.795 266.481 372.251C266.897 373.719 266.92 375.15 266.548 376.542C266.167 377.951 265.476 379.18 264.474 380.231C263.476 381.295 262.249 382.033 260.793 382.446C259.325 382.862 257.893 382.879 256.498 382.494C255.093 382.126 253.865 381.44 252.814 380.439C251.755 379.452 251.017 378.225 250.6 376.757C250.187 375.301 250.171 373.869 250.552 372.46C250.92 371.056 251.604 369.822 252.602 368.758C253.592 367.711 254.821 366.978 256.288 366.562Z" fill="#0F58C7"/>
<path d="M199.442 399.512L198.542 407L166.304 403.126L167.203 395.637L178.769 397.027L182.452 366.365L191.541 367.458L187.858 398.119L199.442 399.512Z" fill="#0F58C7"/>
<path d="M159.289 362.703L144.98 398.362L130.252 392.45C127.583 391.378 125.472 389.972 123.921 388.23C122.353 386.496 121.4 384.523 121.061 382.311C120.718 380.111 121.035 377.792 122.013 375.355C123.006 372.882 124.388 370.998 126.162 369.701C127.931 368.417 129.989 367.72 132.337 367.611C134.68 367.514 137.209 368.011 139.925 369.101L149.239 372.84L146.513 379.631L138.802 376.535C137.502 376.013 136.349 375.745 135.344 375.733C134.322 375.727 133.445 375.981 132.713 376.496C131.976 377.022 131.386 377.837 130.944 378.94C130.501 380.042 130.362 381.045 130.526 381.946C130.685 382.859 131.133 383.672 131.871 384.386C132.604 385.112 133.615 385.733 134.903 386.25L139.15 387.956L150.672 359.244L159.289 362.703ZM132.678 370.942L130.34 351.081L139.74 354.855L141.904 374.646L132.678 370.942Z" fill="#0F58C7"/>
<path d="M78.07 362.538L70.7094 356.907L85.763 337.22C87.5028 334.945 89.5597 333.377 91.934 332.516C94.3006 331.665 96.8057 331.519 99.4492 332.077C102.085 332.644 104.685 333.908 107.247 335.869C109.84 337.852 111.755 340.041 112.993 342.437C114.224 344.843 114.733 347.296 114.522 349.795C114.304 352.305 113.324 354.698 111.585 356.973L96.5311 376.66L89.1556 371.018L103.719 351.972C104.524 350.918 105.014 349.805 105.188 348.631C105.351 347.449 105.194 346.305 104.717 345.2C104.24 344.095 103.45 343.12 102.347 342.277C101.245 341.434 100.103 340.93 98.921 340.766C97.7295 340.595 96.5851 340.743 95.4877 341.211C94.3903 341.678 93.4389 342.438 92.6336 343.491L78.07 362.538Z" fill="#0F58C7"/>
<path d="M84.0549 317.053L53.7409 340.657L37.6319 319.96L43.5822 315.326L53.9874 328.695L60.2041 323.855L50.8245 311.803L56.7896 307.159L66.1693 319.21L78.3511 309.725L84.0549 317.053Z" fill="#0F58C7"/>
<path d="M10.4558 263.953L47.1943 252.72L49.9088 261.602L13.1703 272.835L10.4558 263.953Z" fill="#0F58C7"/>
<path d="M1 206.26L39.3131 203.439L39.8915 211.298L18.9017 228.176L18.9196 228.419L41.0319 226.791L41.7137 236.053L3.40065 238.874L2.81392 230.903L23.7787 214.196L23.7553 213.878L1.68039 215.504L1 206.26Z" fill="#0F58C7"/>
<path d="M17.1272 163.772C15.7537 163.625 14.5962 163.962 13.6547 164.781C12.7034 165.586 12.0503 166.878 11.6952 168.656C11.4602 169.834 11.4176 170.846 11.5675 171.692C11.7174 172.538 12.0229 173.212 12.4842 173.712C12.9332 174.21 13.4998 174.533 14.1841 174.683C14.7433 174.82 15.262 174.809 15.7402 174.649C16.2209 174.477 16.6745 174.185 17.1011 173.773C17.5179 173.346 17.9174 172.813 18.2998 172.176C18.6822 171.538 19.0511 170.808 19.4064 169.986L20.7886 166.895C21.5654 165.111 22.4331 163.575 23.3916 162.287C24.3526 160.987 25.3958 159.945 26.5212 159.162C27.6491 158.367 28.8703 157.839 30.1848 157.579C31.4992 157.318 32.9119 157.332 34.4227 157.621C36.7994 158.109 38.7213 159.117 40.1884 160.648C41.6555 162.178 42.62 164.15 43.0819 166.563C43.5462 168.965 43.465 171.735 42.8382 174.876C42.209 178.028 41.1884 180.681 39.7764 182.835C38.3645 184.99 36.5661 186.525 34.3812 187.44C32.1963 188.356 29.6286 188.538 26.678 187.987L28.4188 179.266C29.6476 179.435 30.7242 179.312 31.6487 178.897C32.5732 178.482 33.3443 177.814 33.962 176.891C34.5822 175.956 35.0257 174.82 35.2926 173.483C35.5374 172.257 35.58 171.181 35.4202 170.256C35.263 169.319 34.9365 168.559 34.4409 167.976C33.9453 167.392 33.3186 167.018 32.5607 166.854C31.847 166.724 31.1958 166.824 30.6074 167.153C30.0066 167.479 29.4329 168.053 28.8863 168.875C28.3298 169.682 27.755 170.741 27.162 172.051L25.4563 175.805C24.0569 178.918 22.336 181.247 20.2936 182.79C18.2389 184.332 15.7841 184.811 12.9292 184.228C10.5967 183.775 8.67967 182.742 7.17819 181.128C5.6767 179.514 4.65823 177.493 4.12277 175.065C3.58731 172.637 3.60482 169.994 4.1753 167.136C4.75802 164.216 5.76029 161.783 7.1821 159.834C8.59409 157.872 10.3079 156.473 12.3236 155.638C14.3393 154.803 16.5208 154.608 18.868 155.051L17.1272 163.772Z" fill="#0F58C7"/>
<path d="M17.6857 124.336L52.9267 139.634L49.2301 148.153L13.9891 132.856L17.6857 124.336Z" fill="#0F58C7"/>
<path d="M68.0327 111.901L59.6614 123.374L28.6304 100.721L36.9907 89.264C39.2982 86.1016 41.9063 83.8323 44.8149 82.4559C47.7208 81.0621 50.7887 80.5918 54.0188 81.0451C57.2388 81.491 60.4599 82.8901 63.6822 85.2423C66.9146 87.602 69.239 90.2511 70.6555 93.1898C72.0794 96.1184 72.5758 99.1829 72.1447 102.383C71.7035 105.576 70.3329 108.749 68.0327 111.901ZM58.7413 111.204L61.4285 107.522C62.6965 105.784 63.4763 104.1 63.7677 102.47C64.0564 100.823 63.759 99.204 62.8753 97.6143C61.9889 96.0072 60.4296 94.3888 58.1972 92.7592C55.9648 91.1296 53.9585 90.145 52.1781 89.8054C50.3877 89.4585 48.7535 89.6824 47.2756 90.4772C45.7949 91.2545 44.4058 92.5323 43.1083 94.3105L40.4985 97.8871L58.7413 111.204Z" fill="#0F58C7"/>
<path d="M87.5743 87.1245L63.4842 57.1932L84.35 40.3925L89.0786 46.2677L75.4457 57.2446L80.3861 63.3829L92.9523 53.2648L97.6927 59.1546L85.1265 69.2727L90.0786 75.4255L103.711 64.4486L108.44 70.3238L87.5743 87.1245Z" fill="#0F58C7"/>
<path d="M148.89 41.9723C147.439 42.402 146.01 42.4405 144.601 42.088C143.189 41.7235 141.946 41.0481 140.871 40.0618C139.809 39.072 139.063 37.8515 138.633 36.4003C138.2 34.9371 138.161 33.5071 138.517 32.1102C138.882 30.6978 139.559 29.4603 140.548 28.3976C141.534 27.3229 142.753 26.5707 144.204 26.141C145.667 25.7078 147.098 25.6752 148.498 26.0433C149.907 26.3958 151.142 27.067 152.205 28.0568C153.276 29.0311 154.028 30.2498 154.461 31.713C154.891 33.1642 154.923 34.596 154.559 36.0084C154.206 37.4173 153.537 38.6591 152.551 39.7337C151.573 40.7929 150.353 41.5391 148.89 41.9723Z" fill="#0F58C7"/>
<path d="M222.306 308H175.899V255.248C175.899 199.973 221.036 155.007 276.515 155.007H295V201.241H276.515C246.625 201.241 222.306 225.469 222.306 255.248V308Z" fill="#0F58C7"/>
<path d="M130.485 201.241H112V155.007H130.485C160.375 155.007 184.694 130.779 184.694 101H231.101C231.101 156.275 185.964 201.241 130.485 201.241Z" fill="#0F58C7"/>
</g>
<defs>
<clipPath id="clip0_1447_238">
<rect width="406" height="406" fill="white"/>
</clipPath>
</defs>
</svg>
