<svg width="253" height="266" viewBox="0 0 253 266" fill="none" xmlns="http://www.w3.org/2000/svg">
<path d="M5.81744 88.7089L1.36373 86.565L10.5956 67.3875L15.0493 69.5314L11.7373 76.4114L29.9731 85.1899L27.3705 90.5964L9.13472 81.8179L5.81744 88.7089Z" fill="#0407FF"/>
<path d="M37.163 71.5918L18.0793 55.1623L24.866 47.2791C26.0961 45.8503 27.4155 44.8392 28.8243 44.2457C30.2321 43.6406 31.6578 43.4672 33.1011 43.7255C34.5382 43.9784 35.9091 44.6665 37.2136 45.7896C38.5368 46.9287 39.4125 48.1856 39.8408 49.5602C40.2628 50.9295 40.2588 52.3538 39.8288 53.8332C39.3926 55.3073 38.5488 56.7712 37.2973 58.2248L33.0055 63.21L29.3714 60.0814L32.9252 55.9534C33.5242 55.2577 33.9342 54.5993 34.1551 53.9783C34.3752 53.3457 34.4032 52.7478 34.239 52.1847C34.0687 51.6162 33.6884 51.0779 33.0983 50.5698C32.5081 50.0617 31.9162 49.7631 31.3224 49.6737C30.7225 49.5791 30.123 49.6849 29.524 49.9912C28.9187 50.2922 28.3193 50.7875 27.7256 51.477L25.7682 53.7507L41.1339 66.9793L37.163 71.5918ZM37.6907 53.3391L50.5039 56.0956L46.1719 61.1274L33.4389 58.2778L37.6907 53.3391Z" fill="#0407FF"/>
<path d="M54.4843 21.2392L59.5355 17.8659L68.5561 31.3735C69.5985 32.9345 70.1352 34.5426 70.1661 36.1977C70.1924 37.8459 69.7526 39.4309 68.8467 40.9526C67.9362 42.4674 66.6016 43.8121 64.8429 44.9866C63.0637 46.1748 61.3001 46.8991 59.552 47.1597C57.7993 47.4135 56.1702 47.2101 54.6646 46.5497C53.1545 45.8825 51.8782 44.7684 50.8357 43.2074L41.8152 29.6998L46.8767 26.3197L55.6036 39.3875C56.0861 40.1101 56.6731 40.6496 57.3645 41.006C58.0628 41.3578 58.8052 41.5027 59.5918 41.4407C60.3783 41.3787 61.1499 41.0951 61.9066 40.5898C62.6633 40.0844 63.2175 39.4827 63.5694 38.7844C63.928 38.0816 64.0786 37.3404 64.0212 36.5606C63.9637 35.7809 63.6937 35.0297 63.2112 34.3071L54.4843 21.2392Z" fill="#0407FF"/>
<path d="M81.404 34.6121L73.1872 10.8088L89.4357 5.19984L91.0486 9.87217L80.5533 13.4951L82.2384 18.3767L91.6993 15.1108L93.3162 19.7947L83.8553 23.0606L87.1573 32.6261L81.404 34.6121Z" fill="#0407FF"/>
<path d="M129.921 0.19815L129.102 25.3664L123.018 25.1683L123.838 0L129.921 0.19815Z" fill="#0407FF"/>
<path d="M167.719 6.55128L161.352 30.9147L156.355 29.609L150.334 13.014L150.18 12.9736L146.505 27.0349L140.617 25.496L146.983 1.13259L152.051 2.45695L157.971 19.0002L158.173 19.053L161.842 5.01552L167.719 6.55128Z" fill="#0407FF"/>
<path d="M190.649 25.5522C191.031 24.7313 191.067 23.9421 190.758 23.1844C190.461 22.4238 189.798 21.745 188.77 21.148C188.09 20.7527 187.471 20.5119 186.915 20.4256C186.358 20.3393 185.876 20.3862 185.468 20.5663C185.064 20.7393 184.743 21.0222 184.506 21.415C184.302 21.7329 184.199 22.057 184.197 22.3874C184.202 22.722 184.287 23.0652 184.452 23.4172C184.628 23.7662 184.874 24.1268 185.188 24.4991C185.503 24.8715 185.878 25.2549 186.312 25.6495L187.936 27.1617C188.878 28.0215 189.646 28.8851 190.242 29.7526C190.845 30.6241 191.27 31.4919 191.517 32.3559C191.771 33.224 191.84 34.0933 191.723 34.9638C191.605 35.8343 191.297 36.7076 190.798 37.5835C189.992 38.9545 188.959 39.9329 187.699 40.5187C186.439 41.1046 185.012 41.285 183.418 41.0602C181.83 40.8395 180.129 40.2021 178.314 39.148C176.493 38.0898 175.063 36.8946 174.027 35.5624C172.99 34.2302 172.419 32.7895 172.314 31.2402C172.209 29.691 172.64 28.0596 173.607 26.3461L178.647 29.2736C178.282 30 178.13 30.6939 178.191 31.3552C178.253 32.0165 178.504 32.6365 178.945 33.2151C179.393 33.7979 180.004 34.3136 180.777 34.7624C181.485 35.1742 182.143 35.4285 182.751 35.5253C183.365 35.6263 183.906 35.5849 184.373 35.4011C184.84 35.2174 185.204 34.9078 185.467 34.4725C185.699 34.0572 185.775 33.6323 185.696 33.1975C185.62 32.7557 185.386 32.2782 184.992 31.765C184.609 31.2488 184.074 30.668 183.388 30.0226L181.421 28.1693C179.787 26.6417 178.708 25.0809 178.183 23.487C177.663 21.886 177.886 20.2618 178.852 18.6144C179.627 17.2635 180.674 16.2934 181.993 15.7039C183.312 15.1144 184.781 14.9108 186.401 15.0931C188.02 15.2754 189.656 15.8463 191.307 16.8056C192.994 17.7856 194.291 18.9229 195.198 20.2176C196.116 21.5093 196.62 22.8687 196.711 24.2959C196.801 25.723 196.46 27.1176 195.688 28.4797L190.649 25.5522Z" fill="#0407FF"/>
<path d="M214.986 34.2574L198.03 52.8749L193.53 48.7767L210.486 30.1592L214.986 34.2574Z" fill="#0407FF"/>
<path d="M212.033 68.1027L206.691 60.48L227.314 46.0292L232.648 53.6418C234.121 55.743 234.976 57.8415 235.213 59.9372C235.462 62.035 235.104 64.0377 234.138 65.9453C233.179 67.8483 231.629 69.55 229.488 71.0506C227.34 72.5559 225.204 73.4367 223.082 73.6929C220.964 73.9558 218.958 73.6147 217.065 72.6694C215.178 71.7194 213.501 70.1972 212.033 68.1027ZM214.434 62.4868L216.148 64.9337C216.957 66.0884 217.836 66.9287 218.786 67.4547C219.746 67.9828 220.813 68.1411 221.986 67.9296C223.17 67.7202 224.505 67.0957 225.988 66.0561C227.472 65.0165 228.507 63.9805 229.095 62.9481C229.69 61.9109 229.897 60.8498 229.717 59.7647C229.549 58.6816 229.05 57.5493 228.223 56.3678L226.557 53.9913L214.434 62.4868Z" fill="#0407FF"/>
<path d="M223.263 85.4966L246.929 76.8924L252.929 93.3939L248.283 95.0828L244.364 84.3014L239.51 86.0659L243.123 96.0038L238.466 97.6969L234.853 87.759L229.988 89.5277L233.908 100.309L229.263 101.998L223.263 85.4966Z" fill="#0407FF"/>
<path d="M238.268 133.062C238.309 132.071 238.588 131.176 239.105 130.377C239.63 129.579 240.313 128.951 241.152 128.493C241.991 128.044 242.906 127.84 243.897 127.881C244.896 127.922 245.791 128.201 246.582 128.718C247.381 129.243 248.005 129.926 248.454 130.765C248.912 131.604 249.12 132.519 249.079 133.51C249.037 134.509 248.754 135.404 248.229 136.195C247.712 136.994 247.034 137.618 246.195 138.067C245.364 138.525 244.449 138.733 243.449 138.692C242.458 138.651 241.564 138.368 240.765 137.842C239.966 137.325 239.338 136.647 238.88 135.807C238.431 134.977 238.226 134.062 238.268 133.062Z" fill="#0407FF"/>
<path d="M247.138 175.206L251.615 177.299L242.6 196.58L238.123 194.486L241.357 187.569L223.023 178.997L225.565 173.562L243.898 182.134L247.138 175.206Z" fill="#0407FF"/>
<path d="M215.999 192.67L235.268 208.883L228.571 216.842C227.357 218.285 226.049 219.311 224.647 219.92C223.246 220.541 221.823 220.731 220.377 220.489C218.937 220.252 217.558 219.58 216.241 218.472C214.905 217.347 214.015 216.101 213.571 214.731C213.134 213.367 213.122 211.942 213.535 210.458C213.954 208.979 214.781 207.506 216.016 206.038L220.251 201.004L223.921 204.092L220.414 208.26C219.823 208.962 219.42 209.625 219.206 210.249C218.993 210.884 218.972 211.482 219.143 212.043C219.32 212.61 219.706 213.144 220.302 213.645C220.898 214.146 221.493 214.438 222.088 214.521C222.689 214.609 223.287 214.496 223.882 214.183C224.484 213.875 225.078 213.373 225.664 212.677L227.595 210.381L212.081 197.328L215.999 192.67ZM215.678 210.928L202.835 208.317L207.109 203.236L219.874 205.941L215.678 210.928Z" fill="#0407FF"/>
<path d="M199.262 243.209L194.249 246.639L185.076 233.235C184.016 231.686 183.461 230.084 183.412 228.429C183.367 226.781 183.789 225.191 184.677 223.66C185.57 222.135 186.89 220.775 188.635 219.581C190.401 218.372 192.156 217.628 193.901 217.348C195.651 217.074 197.282 217.259 198.795 217.902C200.313 218.552 201.601 219.652 202.662 221.201L211.834 234.606L206.811 238.043L197.937 225.075C197.447 224.358 196.853 223.825 196.158 223.476C195.456 223.132 194.712 222.996 193.926 223.067C193.14 223.138 192.372 223.43 191.621 223.944C190.87 224.458 190.323 225.066 189.979 225.768C189.628 226.475 189.486 227.218 189.552 227.997C189.618 228.776 189.897 229.524 190.388 230.241L199.262 243.209Z" fill="#0407FF"/>
<path d="M172.172 230.169L180.657 253.878L164.473 259.67L162.808 255.016L173.261 251.275L171.521 246.413L162.098 249.785L160.428 245.12L169.851 241.747L166.441 232.22L172.172 230.169Z" fill="#0407FF"/>
<path d="M124.041 265.124L124.572 239.948L130.658 240.076L130.126 265.252L124.041 265.124Z" fill="#0407FF"/>
<path d="M86.1885 259.198L92.279 234.764L97.2898 236.013L103.498 252.539L103.653 252.577L107.168 238.475L113.074 239.947L106.984 264.381L101.901 263.114L95.7942 246.639L95.5914 246.589L92.0822 260.667L86.1885 259.198Z" fill="#0407FF"/>
<path d="M63.0407 240.456C62.6681 241.281 62.6405 242.071 62.9579 242.825C63.2641 243.582 63.9345 244.253 64.969 244.838C65.654 245.226 66.2752 245.459 66.8327 245.539C67.3902 245.619 67.8719 245.567 68.2778 245.382C68.6797 245.205 68.9972 244.918 69.2304 244.522C69.4303 244.202 69.5296 243.877 69.5281 243.547C69.5196 243.212 69.4307 242.87 69.2614 242.52C69.0809 242.173 68.8313 241.815 68.5125 241.446C68.1937 241.078 67.8148 240.699 67.376 240.309L65.7346 238.815C64.7833 237.966 64.0049 237.112 63.3993 236.251C62.7865 235.386 62.3517 234.523 62.0948 233.662C61.8308 232.797 61.7523 231.929 61.8594 231.057C61.9665 230.185 62.2647 229.309 62.754 228.427C63.5442 227.047 64.5658 226.057 65.8189 225.457C67.072 224.856 68.4971 224.66 70.0943 224.866C71.6843 225.069 73.3925 225.687 75.219 226.72C77.0526 227.757 78.4953 228.936 79.5472 230.256C80.5992 231.577 81.1864 233.011 81.309 234.559C81.4316 236.107 81.0192 237.743 80.0719 239.467L74.9992 236.598C75.356 235.867 75.4999 235.171 75.431 234.511C75.3621 233.85 75.1037 233.233 74.6559 232.66C74.201 232.082 73.5847 231.573 72.807 231.133C72.0935 230.73 71.4326 230.483 70.8242 230.393C70.2087 230.299 69.6685 230.347 69.2036 230.536C68.7388 230.725 68.3777 231.039 68.1203 231.477C67.8933 231.895 67.8219 232.321 67.9062 232.754C67.9864 233.195 68.2263 233.67 68.6261 234.179C69.0146 234.691 69.556 235.265 70.2501 235.903L72.2376 237.733C73.8892 239.242 74.9863 240.791 75.529 242.378C76.0676 243.973 75.8631 245.6 74.9156 247.258C74.1558 248.618 73.1199 249.6 71.8079 250.205C70.4958 250.809 69.0291 251.029 67.4077 250.866C65.7864 250.702 64.1445 250.15 62.4821 249.209C60.7841 248.249 59.4743 247.126 58.5527 245.842C57.6199 244.561 57.1001 243.207 56.9933 241.781C56.8865 240.355 57.2114 238.957 57.968 237.586L63.0407 240.456Z" fill="#0407FF"/>
<path d="M38.6048 232.033L55.3458 213.222L59.8924 217.268L43.1514 236.079L38.6048 232.033Z" fill="#0407FF"/>
<path d="M41.1751 198.137L46.6026 205.699L26.1451 220.382L20.7248 212.831C19.2287 210.746 18.3501 208.658 18.089 206.565C17.8164 204.47 18.152 202.463 19.0957 200.545C20.0328 198.631 21.5635 196.912 23.6878 195.387C25.8188 193.858 27.9441 192.953 30.0637 192.673C32.1784 192.386 34.1879 192.704 36.092 193.628C37.9895 194.556 39.6838 196.059 41.1751 198.137ZM38.8382 203.78L37.096 201.353C36.2739 200.207 35.3853 199.377 34.4302 198.862C33.4638 198.344 32.3952 198.198 31.2246 198.423C30.0426 198.646 28.7157 199.285 27.244 200.342C25.7723 201.398 24.7484 202.446 24.1724 203.485C23.5897 204.529 23.3944 205.592 23.5865 206.675C23.7672 207.756 24.2782 208.883 25.1194 210.055L26.8114 212.412L38.8382 203.78Z" fill="#0407FF"/>
<path d="M29.7529 180.896L6.18559 189.767L0 173.334L4.626 171.593L8.66742 182.329L13.5006 180.51L9.77534 170.614L14.4128 168.868L18.1381 178.765L22.9827 176.941L18.9413 166.204L23.5673 164.463L29.7529 180.896Z" fill="#0407FF"/>
<path d="M14.2019 133.471C14.1722 134.462 13.9034 135.36 13.3954 136.165C12.8793 136.97 12.2042 137.606 11.3702 138.073C10.5363 138.532 9.62372 138.746 8.63231 138.717C7.63271 138.687 6.73456 138.418 5.93788 137.91C5.13325 137.394 4.50149 136.719 4.04259 135.885C3.57551 135.051 3.35681 134.138 3.38648 133.147C3.4164 132.147 3.6893 131.249 4.20519 130.453C4.71313 129.648 5.38401 129.016 6.21783 128.557C7.0437 128.09 7.95643 127.871 8.95604 127.901C9.94745 127.931 10.8455 128.204 11.6501 128.72C12.455 129.228 13.091 129.899 13.558 130.733C14.0172 131.559 14.2318 132.471 14.2019 133.471Z" fill="#0407FF"/>
<path d="M194.025 132.695C194.025 170.129 163.679 200.475 126.245 200.475C88.8116 200.475 58.4655 170.129 58.4655 132.695C58.4655 95.2616 88.8116 64.9154 126.245 64.9154C163.679 64.9154 194.025 95.2616 194.025 132.695Z" fill="#0407FF"/>
</svg>
