<svg width="148" height="148" viewBox="0 0 148 148" fill="none" xmlns="http://www.w3.org/2000/svg">
<g clip-path="url(#clip0_4966_63708)">
<path d="M73.8265 40.0054C55.1223 40.0054 39.9528 55.1728 39.9528 73.879C39.9528 92.5852 55.1203 107.753 73.8265 107.753C92.5327 107.753 107.7 92.5852 107.7 73.879C107.7 55.1728 92.5307 40.0054 73.8265 40.0054Z" fill="#090909"/>
<path d="M22.6047 64.352C24.5044 54.1824 29.4518 44.8213 37.0001 37.3457L37.1194 37.2285C37.281 37.0708 37.4427 36.9132 37.6044 36.7576C37.758 36.6121 37.9116 36.4666 38.0652 36.321L38.2147 36.1816C47.8669 27.2509 60.4354 22.3318 73.6061 22.3298H73.6162C86.7748 22.3298 99.3373 27.2388 108.987 36.1513L109.167 36.319C109.313 36.4544 109.458 36.5919 109.602 36.7293C109.755 36.8768 109.909 37.0243 110.063 37.1759L110.206 37.3154C117.775 44.797 122.732 54.1683 124.636 64.35H147.176C146.871 61.9915 146.527 59.6553 145.996 57.3493L145.505 55.4557C144.597 51.9634 143.417 48.5035 141.996 45.175C138.255 36.4079 132.904 28.5362 126.081 21.774L126.051 21.7457C119.24 14.9836 111.308 9.67243 102.474 5.96191C99.117 4.55329 95.6308 3.38112 92.1102 2.48381L90.2024 1.99675C84.7983 0.772037 79.2285 0.228394 73.6182 0.228394H73.6021C67.9636 0.228394 62.3675 0.780121 56.9371 2.01696L55.0273 2.50604C51.5249 3.40537 48.0589 4.57148 44.7243 5.97404C35.8926 9.68657 27.9623 14.9997 21.1556 21.766C20.7312 22.1883 20.3008 22.6269 19.8784 23.0654C13.6578 29.5346 8.72862 36.9799 5.22626 45.1972C3.80551 48.5278 2.62728 51.9897 1.72188 55.484L1.23078 57.3776C0.703309 59.6755 0.361763 62.0036 0.0586163 64.352H22.6047Z" fill="#090909"/>
<path d="M147.228 82.8724H124.705C123.074 91.9506 119.001 100.495 112.837 107.565L112.815 107.591C112.641 107.789 112.466 107.987 112.292 108.181C112.175 108.31 112.057 108.44 111.936 108.569C111.865 108.646 111.793 108.725 111.722 108.8C106.904 113.961 101.192 118.025 94.7516 120.883C88.0844 123.84 80.9766 125.341 73.6243 125.343H73.6142C60.1242 125.343 47.3293 120.218 37.5943 110.913C37.471 110.796 37.3497 110.677 37.2265 110.558L36.994 110.331C29.3345 102.743 24.3548 93.2158 22.5178 82.8744H0C0.311231 85.4087 0.677028 87.9208 1.24897 90.3965L1.74208 92.2922C2.64748 95.7683 3.82369 99.208 5.23636 102.518C8.97719 111.283 14.3308 119.155 21.1475 125.911C21.485 126.245 21.8468 126.596 22.2874 127.015C28.8475 133.268 36.4059 138.217 44.7546 141.723C48.0892 143.124 51.5532 144.288 55.0555 145.185L56.9654 145.674C62.3917 146.909 67.9838 147.457 73.6162 147.457H73.6304C79.2467 147.457 84.8205 146.909 90.2287 145.682L92.1365 145.193C95.655 144.294 99.1392 143.122 102.494 141.711C111.305 138.007 119.22 132.712 126.016 125.97L126.133 125.873L126.17 125.818C132.95 119.074 138.277 111.225 142.002 102.488C143.413 99.1777 144.587 95.7379 145.49 92.2639L145.983 90.3682C146.553 87.9006 146.915 85.3986 147.226 82.8724H147.228Z" fill="#090909"/>
</g>
<defs>
<clipPath id="clip0_4966_63708">
<rect width="147.228" height="147.228" fill="white" transform="translate(0 0.228394)"/>
</clipPath>
</defs>
</svg>
