<svg width="1200" height="560" viewBox="0 0 1200 560" fill="none" xmlns="http://www.w3.org/2000/svg">
<g clip-path="url(#clip0_790_182)">
<path d="M237.719 324H218.064V301.574C218.064 278.075 237.181 258.959 260.679 258.959H268.508V278.615H260.679C248.019 278.615 237.719 288.914 237.719 301.574V324Z" fill="#0F58C7"/>
<path d="M198.829 278.615H191V258.959H198.829C211.489 258.959 221.788 248.66 221.788 236H241.444C241.444 259.499 222.326 278.615 198.829 278.615Z" fill="#0F58C7"/>
<path fill-rule="evenodd" clip-rule="evenodd" d="M334.094 250.31V319.32H346.475V250.31H371.121V239.075H309.448V250.31H334.094ZM376.611 319.32V239.075H410.314C415.282 239.075 419.638 239.954 423.382 241.712C427.204 243.393 430.146 245.839 432.209 249.049C434.349 252.258 435.419 256.08 435.419 260.512V261.773C435.419 266.817 434.196 270.867 431.751 273.924C429.382 276.905 426.478 279.006 423.038 280.229V282.063C425.943 282.216 428.273 283.21 430.031 285.044C431.789 286.802 432.668 289.362 432.668 292.724V319.32H420.173V294.444C420.173 292.381 419.638 290.737 418.568 289.515C417.498 288.292 415.778 287.681 413.409 287.681H388.992V319.32H376.611ZM388.992 276.446H408.938C413.371 276.446 416.81 275.338 419.256 273.122C421.701 270.829 422.924 267.734 422.924 263.836V262.919C422.924 259.022 421.701 255.965 419.256 253.749C416.886 251.456 413.447 250.31 408.938 250.31H388.992V276.446ZM456.952 317.486C461.537 319.778 467.001 320.925 473.344 320.925C479.611 320.925 485.037 319.778 489.623 317.486C494.208 315.193 497.723 311.907 500.169 307.627C502.614 303.271 503.837 297.998 503.837 291.807V239.075H491.457V292.151C491.457 297.807 489.89 302.163 486.757 305.22C483.623 308.277 479.153 309.805 473.344 309.805C467.536 309.805 463.065 308.277 459.932 305.22C456.799 302.163 455.232 297.807 455.232 292.151V239.075H442.737V291.807C442.737 297.998 443.96 303.271 446.405 307.627C448.927 311.907 452.443 315.193 456.952 317.486ZM514.263 319.32V239.075H563.785V250.31H526.643V273.466H560.804V284.7H526.643V319.32H514.263ZM593.164 319.32V239.075H617.008L638.789 311.066H640.623V239.075H652.889V319.32H629.045L607.264 247.214H605.43V319.32H593.164ZM957.877 239.075V319.32H969.684V295.82H971.518L994.789 319.32H1010.38L980.919 290.203L1009.46 262.805H993.758L971.518 284.815H969.684V239.075H957.877ZM919.277 262.805V319.32H931.085V286.076C931.085 281.72 932.307 278.51 934.753 276.446C937.199 274.306 940.332 273.237 944.153 273.237H951.375V262.576H944.612C941.631 262.576 939.109 263.149 937.046 264.295C935.059 265.365 933.607 267.084 932.69 269.454H930.855V262.805H919.277ZM880.962 320.925C875.307 320.925 870.263 319.778 865.83 317.486C861.474 315.117 858.035 311.754 855.513 307.398C852.991 303.042 851.73 297.883 851.73 291.922V290.203C851.73 284.242 852.991 279.121 855.513 274.841C858.035 270.485 861.474 267.123 865.83 264.754C870.263 262.384 875.307 261.2 880.962 261.2C886.617 261.2 891.661 262.384 896.094 264.754C900.526 267.123 904.004 270.485 906.526 274.841C909.047 279.121 910.308 284.242 910.308 290.203V291.922C910.308 297.883 909.047 303.042 906.526 307.398C904.004 311.754 900.526 315.117 896.094 317.486C891.661 319.778 886.617 320.925 880.962 320.925ZM880.962 310.378C886.159 310.378 890.362 308.735 893.572 305.449C896.858 302.086 898.501 297.463 898.501 291.578V290.546C898.501 284.662 896.896 280.076 893.686 276.79C890.477 273.428 886.235 271.746 880.962 271.746C875.842 271.746 871.638 273.428 868.352 276.79C865.142 280.076 863.537 284.662 863.537 290.546V291.578C863.537 297.463 865.142 302.086 868.352 305.449C871.638 308.735 875.842 310.378 880.962 310.378ZM766.656 262.805L776.285 319.32H796.117L805.861 270.829H807.695L817.439 319.32H837.271L846.9 262.805H835.093L827.985 311.41H826.151L816.407 262.805H797.263L787.405 311.41H785.571L778.463 262.805H766.656ZM744.531 319.32C741.092 319.32 738.34 318.288 736.277 316.225C734.29 314.161 733.296 311.41 733.296 307.971V272.778H717.706V262.805H733.296V244.119H745.104V262.805H761.955V272.778H745.104V305.908C745.104 308.2 746.174 309.347 748.314 309.347H760.121V319.32H744.531ZM675.127 317.371C679.407 319.74 684.412 320.925 690.144 320.925C695.264 320.925 699.468 320.122 702.754 318.517C706.04 316.912 708.677 314.925 710.664 312.556C712.727 310.187 714.294 307.933 715.364 305.793L705.62 300.749C704.397 303.347 702.639 305.64 700.347 307.627C698.13 309.614 694.806 310.608 690.373 310.608C685.635 310.608 681.661 309.156 678.451 306.251C675.318 303.271 673.675 299.297 673.522 294.329H716.969V289.859C716.969 284.127 715.822 279.121 713.53 274.841C711.237 270.562 708.027 267.237 703.9 264.868C699.85 262.423 695.112 261.2 689.686 261.2C684.107 261.2 679.177 262.423 674.898 264.868C670.694 267.237 667.408 270.638 665.039 275.071C662.67 279.427 661.485 284.547 661.485 290.432V291.807C661.485 297.616 662.67 302.736 665.039 307.169C667.485 311.525 670.847 314.925 675.127 317.371ZM704.932 285.273H673.637C674.248 280.994 675.929 277.669 678.681 275.3C681.508 272.854 685.138 271.632 689.571 271.632C694.003 271.632 697.595 272.854 700.347 275.3C703.098 277.669 704.626 280.994 704.932 285.273ZM562.17 318.288C564.004 320.046 566.259 320.925 568.934 320.925C571.609 320.925 573.825 320.046 575.583 318.288C577.417 316.53 578.334 314.276 578.334 311.525C578.334 308.85 577.417 306.634 575.583 304.876C573.825 303.118 571.609 302.239 568.934 302.239C566.259 302.239 564.004 303.118 562.17 304.876C560.413 306.557 559.534 308.773 559.534 311.525C559.534 314.276 560.413 316.53 562.17 318.288Z" fill="#272835"/>
</g>
<defs>
<clipPath id="clip0_790_182">
<rect width="819" height="88" fill="white" transform="translate(191 236)"/>
</clipPath>
</defs>
</svg>
