<svg width="253" height="266" viewBox="0 0 253 266" fill="none" xmlns="http://www.w3.org/2000/svg">
<path d="M5.81744 89.2128L1.36373 87.0689L10.5956 67.8914L15.0493 70.0353L11.7373 76.9153L29.9731 85.6938L27.3705 91.1003L9.13472 82.3218L5.81744 89.2128Z" fill="white"/>
<path d="M37.163 72.0957L18.0793 55.6663L24.866 47.783C26.0961 46.3543 27.4155 45.3431 28.8243 44.7496C30.2321 44.1445 31.6578 43.9711 33.1011 44.2294C34.5382 44.4823 35.9091 45.1704 37.2136 46.2935C38.5368 47.4326 39.4125 48.6895 39.8408 50.0641C40.2628 51.4334 40.2588 52.8577 39.8288 54.3371C39.3926 55.8112 38.5488 57.2751 37.2973 58.7287L33.0055 63.714L29.3714 60.5853L32.9252 56.4573C33.5242 55.7616 33.9342 55.1032 34.1551 54.4822C34.3752 53.8496 34.4032 53.2518 34.239 52.6886C34.0687 52.1201 33.6884 51.5818 33.0983 51.0737C32.5081 50.5656 31.9162 50.267 31.3224 50.1776C30.7225 50.083 30.123 50.1888 29.524 50.4952C28.9187 50.7961 28.3193 51.2914 27.7256 51.9809L25.7682 54.2546L41.1339 67.4832L37.163 72.0957ZM37.6907 53.843L50.5039 56.5995L46.1719 61.6314L33.4389 58.7817L37.6907 53.843Z" fill="white"/>
<path d="M54.4843 21.7431L59.5355 18.3698L68.5561 31.8774C69.5985 33.4384 70.1352 35.0465 70.1661 36.7016C70.1924 38.3498 69.7526 39.9348 68.8467 41.4565C67.9362 42.9713 66.6016 44.316 64.8429 45.4905C63.0637 46.6787 61.3001 47.403 59.552 47.6636C57.7993 47.9174 56.1702 47.714 54.6646 47.0536C53.1545 46.3864 51.8782 45.2723 50.8357 43.7113L41.8152 30.2037L46.8767 26.8236L55.6036 39.8914C56.0861 40.614 56.6731 41.1535 57.3645 41.5099C58.0628 41.8617 58.8052 42.0067 59.5918 41.9446C60.3783 41.8826 61.1499 41.599 61.9066 41.0937C62.6633 40.5883 63.2175 39.9866 63.5694 39.2883C63.928 38.5855 64.0786 37.8443 64.0212 37.0645C63.9637 36.2848 63.6937 35.5336 63.2112 34.811L54.4843 21.7431Z" fill="white"/>
<path d="M81.404 35.116L73.1872 11.3127L89.4357 5.70375L91.0486 10.3761L80.5533 13.999L82.2384 18.8806L91.6993 15.6147L93.3162 20.2987L83.8553 23.5645L87.1573 33.13L81.404 35.116Z" fill="white"/>
<path d="M129.921 0.702056L129.102 25.8703L123.018 25.6722L123.838 0.503906L129.921 0.702056Z" fill="white"/>
<path d="M167.719 7.05518L161.352 31.4186L156.355 30.1129L150.334 13.5179L150.18 13.4775L146.505 27.5388L140.617 25.9999L146.983 1.6365L152.051 2.96086L157.971 19.5041L158.173 19.557L161.842 5.51942L167.719 7.05518Z" fill="white"/>
<path d="M190.649 26.0561C191.031 25.2352 191.067 24.446 190.758 23.6883C190.461 22.9277 189.798 22.2489 188.77 21.6519C188.09 21.2566 187.471 21.0158 186.915 20.9295C186.358 20.8432 185.876 20.8901 185.468 21.0702C185.064 21.2432 184.743 21.5261 184.506 21.919C184.302 22.2368 184.199 22.5609 184.197 22.8913C184.202 23.2259 184.287 23.5691 184.452 23.9211C184.628 24.2701 184.874 24.6307 185.188 25.0031C185.503 25.3754 185.878 25.7588 186.312 26.1534L187.936 27.6656C188.878 28.5254 189.646 29.389 190.242 30.2565C190.845 31.128 191.27 31.9958 191.517 32.8598C191.771 33.7279 191.84 34.5972 191.723 35.4677C191.605 36.3382 191.297 37.2115 190.798 38.0874C189.992 39.4584 188.959 40.4368 187.699 41.0226C186.439 41.6085 185.012 41.789 183.418 41.5641C181.83 41.3434 180.129 40.706 178.314 39.6519C176.493 38.5937 175.063 37.3985 174.027 36.0663C172.99 34.7341 172.419 33.2934 172.314 31.7441C172.209 30.1949 172.64 28.5635 173.607 26.85L178.647 29.7775C178.282 30.5039 178.13 31.1978 178.191 31.8591C178.253 32.5204 178.504 33.1404 178.945 33.719C179.393 34.3018 180.004 34.8175 180.777 35.2663C181.485 35.6781 182.143 35.9324 182.751 36.0292C183.365 36.1302 183.906 36.0888 184.373 35.905C184.84 35.7213 185.204 35.4117 185.467 34.9764C185.699 34.5611 185.775 34.1362 185.696 33.7015C185.62 33.2596 185.386 32.7821 184.992 32.2689C184.609 31.7527 184.074 31.1719 183.388 30.5265L181.421 28.6732C179.787 27.1456 178.708 25.5848 178.183 23.9909C177.663 22.3899 177.886 20.7657 178.852 19.1183C179.627 17.7674 180.674 16.7973 181.993 16.2078C183.312 15.6183 184.781 15.4147 186.401 15.597C188.02 15.7793 189.656 16.3502 191.307 17.3095C192.994 18.2895 194.291 19.4268 195.198 20.7215C196.116 22.0132 196.62 23.3726 196.711 24.7998C196.801 26.2269 196.46 27.6215 195.688 28.9836L190.649 26.0561Z" fill="white"/>
<path d="M214.986 34.7613L198.03 53.3788L193.53 49.2806L210.486 30.6631L214.986 34.7613Z" fill="white"/>
<path d="M212.033 68.6066L206.691 60.9839L227.314 46.5331L232.648 54.1457C234.121 56.2469 234.976 58.3454 235.213 60.4412C235.462 62.5389 235.104 64.5416 234.138 66.4492C233.179 68.3522 231.629 70.0539 229.488 71.5545C227.34 73.0598 225.204 73.9406 223.082 74.1968C220.964 74.4597 218.958 74.1186 217.065 73.1733C215.178 72.2233 213.501 70.7011 212.033 68.6066ZM214.434 62.9907L216.148 65.4376C216.957 66.5923 217.836 67.4326 218.786 67.9586C219.746 68.4867 220.813 68.645 221.986 68.4335C223.17 68.2241 224.505 67.5996 225.988 66.56C227.472 65.5204 228.507 64.4844 229.095 63.452C229.69 62.4148 229.897 61.3537 229.717 60.2686C229.549 59.1855 229.05 58.0532 228.223 56.8717L226.557 54.4952L214.434 62.9907Z" fill="white"/>
<path d="M223.263 86.0005L246.929 77.3963L252.929 93.8978L248.283 95.5867L244.364 84.8053L239.51 86.5698L243.123 96.5077L238.466 98.2008L234.853 88.2629L229.988 90.0316L233.908 100.813L229.263 102.502L223.263 86.0005Z" fill="white"/>
<path d="M238.268 133.566C238.309 132.575 238.588 131.68 239.105 130.881C239.63 130.083 240.313 129.455 241.152 128.997C241.991 128.548 242.906 128.344 243.897 128.385C244.896 128.426 245.791 128.705 246.582 129.222C247.381 129.747 248.005 130.429 248.454 131.268C248.912 132.108 249.12 133.023 249.079 134.014C249.037 135.013 248.754 135.908 248.229 136.699C247.712 137.498 247.034 138.122 246.195 138.571C245.364 139.029 244.449 139.237 243.449 139.196C242.458 139.155 241.564 138.871 240.765 138.346C239.966 137.829 239.338 137.151 238.88 136.311C238.431 135.481 238.226 134.565 238.268 133.566Z" fill="white"/>
<path d="M247.138 175.71L251.615 177.803L242.6 197.084L238.123 194.99L241.357 188.073L223.023 179.501L225.565 174.066L243.898 182.638L247.138 175.71Z" fill="white"/>
<path d="M215.999 193.174L235.268 209.386L228.571 217.346C227.357 218.789 226.049 219.815 224.647 220.424C223.246 221.045 221.823 221.235 220.377 220.993C218.937 220.756 217.558 220.084 216.241 218.975C214.905 217.851 214.015 216.604 213.571 215.235C213.134 213.87 213.122 212.446 213.535 210.962C213.954 209.483 214.781 208.01 216.016 206.542L220.251 201.508L223.921 204.596L220.414 208.764C219.823 209.466 219.42 210.129 219.206 210.753C218.993 211.388 218.972 211.986 219.143 212.547C219.32 213.114 219.706 213.647 220.302 214.149C220.898 214.65 221.493 214.942 222.088 215.025C222.689 215.113 223.287 215 223.882 214.687C224.484 214.379 225.078 213.877 225.664 213.181L227.595 210.885L212.081 197.831L215.999 193.174ZM215.678 211.432L202.835 208.821L207.109 203.74L219.874 206.445L215.678 211.432Z" fill="white"/>
<path d="M199.262 243.713L194.249 247.143L185.076 233.739C184.016 232.19 183.461 230.588 183.412 228.933C183.367 227.285 183.789 225.695 184.677 224.164C185.57 222.638 186.89 221.279 188.635 220.084C190.401 218.876 192.156 218.132 193.901 217.852C195.651 217.578 197.282 217.763 198.795 218.406C200.313 219.056 201.601 220.156 202.662 221.705L211.834 235.11L206.811 238.547L197.937 225.579C197.447 224.862 196.853 224.329 196.158 223.98C195.456 223.636 194.712 223.5 193.926 223.571C193.14 223.642 192.372 223.934 191.621 224.448C190.87 224.962 190.323 225.57 189.979 226.272C189.628 226.979 189.486 227.722 189.552 228.501C189.618 229.28 189.897 230.028 190.388 230.745L199.262 243.713Z" fill="white"/>
<path d="M172.172 230.673L180.657 254.382L164.473 260.174L162.808 255.52L173.261 251.779L171.521 246.917L162.098 250.289L160.428 245.624L169.851 242.251L166.441 232.724L172.172 230.673Z" fill="white"/>
<path d="M124.041 265.627L124.572 240.451L130.658 240.58L130.126 265.756L124.041 265.627Z" fill="white"/>
<path d="M86.1885 259.702L92.279 235.268L97.2898 236.517L103.498 253.043L103.653 253.081L107.168 238.979L113.074 240.451L106.984 264.885L101.901 263.618L95.7942 247.143L95.5914 247.093L92.0822 261.171L86.1885 259.702Z" fill="white"/>
<path d="M63.0407 240.96C62.6681 241.785 62.6405 242.574 62.9579 243.329C63.2641 244.086 63.9345 244.757 64.969 245.342C65.654 245.73 66.2752 245.963 66.8327 246.043C67.3902 246.123 67.8719 246.071 68.2778 245.886C68.6797 245.708 68.9972 245.422 69.2304 245.026C69.4303 244.706 69.5296 244.381 69.5281 244.051C69.5196 243.716 69.4307 243.374 69.2614 243.024C69.0809 242.677 68.8313 242.319 68.5125 241.95C68.1937 241.582 67.8148 241.202 67.376 240.813L65.7346 239.319C64.7833 238.47 64.0049 237.616 63.3993 236.755C62.7865 235.89 62.3517 235.027 62.0948 234.166C61.8308 233.301 61.7523 232.433 61.8594 231.561C61.9665 230.689 62.2647 229.812 62.754 228.931C63.5442 227.551 64.5658 226.561 65.8189 225.96C67.072 225.36 68.4971 225.163 70.0943 225.37C71.6843 225.573 73.3925 226.191 75.219 227.224C77.0526 228.261 78.4953 229.44 79.5472 230.76C80.5992 232.081 81.1864 233.515 81.309 235.063C81.4316 236.611 81.0192 238.247 80.0719 239.971L74.9992 237.101C75.356 236.371 75.4999 235.675 75.431 235.015C75.3621 234.354 75.1037 233.737 74.6559 233.164C74.201 232.586 73.5847 232.077 72.807 231.637C72.0935 231.234 71.4326 230.987 70.8242 230.897C70.2087 230.803 69.6685 230.851 69.2036 231.04C68.7388 231.229 68.3777 231.542 68.1203 231.981C67.8933 232.399 67.8219 232.824 67.9062 233.258C67.9864 233.699 68.2263 234.174 68.6261 234.683C69.0146 235.194 69.556 235.769 70.2501 236.407L72.2376 238.237C73.8892 239.746 74.9863 241.295 75.529 242.882C76.0676 244.477 75.8631 246.104 74.9156 247.762C74.1558 249.122 73.1199 250.104 71.8079 250.708C70.4958 251.313 69.0291 251.533 67.4077 251.37C65.7864 251.206 64.1445 250.654 62.4821 249.713C60.7841 248.753 59.4743 247.63 58.5527 246.346C57.6199 245.065 57.1001 243.711 56.9933 242.285C56.8865 240.859 57.2114 239.461 57.968 238.09L63.0407 240.96Z" fill="white"/>
<path d="M38.6048 232.537L55.3458 213.726L59.8924 217.772L43.1514 236.583L38.6048 232.537Z" fill="white"/>
<path d="M41.1751 198.641L46.6026 206.203L26.1451 220.886L20.7248 213.335C19.2287 211.25 18.3501 209.162 18.089 207.069C17.8164 204.974 18.152 202.967 19.0957 201.049C20.0328 199.135 21.5635 197.416 23.6878 195.891C25.8188 194.362 27.9441 193.457 30.0637 193.176C32.1784 192.89 34.1879 193.208 36.092 194.132C37.9895 195.06 39.6838 196.563 41.1751 198.641ZM38.8382 204.284L37.096 201.856C36.2739 200.711 35.3853 199.881 34.4302 199.366C33.4638 198.848 32.3952 198.702 31.2246 198.927C30.0426 199.15 28.7157 199.789 27.244 200.846C25.7723 201.902 24.7484 202.95 24.1724 203.989C23.5897 205.033 23.3944 206.096 23.5865 207.179C23.7672 208.26 24.2782 209.387 25.1194 210.559L26.8114 212.916L38.8382 204.284Z" fill="white"/>
<path d="M29.7529 181.4L6.18559 190.271L0 173.838L4.626 172.097L8.66742 182.833L13.5006 181.014L9.77534 171.118L14.4128 169.372L18.1381 179.268L22.9827 177.445L18.9413 166.708L23.5673 164.967L29.7529 181.4Z" fill="white"/>
<path d="M14.2019 133.975C14.1722 134.966 13.9034 135.864 13.3954 136.669C12.8793 137.474 12.2042 138.11 11.3702 138.577C10.5363 139.036 9.62372 139.25 8.63231 139.22C7.63271 139.191 6.73456 138.922 5.93788 138.414C5.13325 137.898 4.50149 137.223 4.04259 136.389C3.57551 135.555 3.35681 134.642 3.38648 133.651C3.4164 132.651 3.6893 131.753 4.20519 130.957C4.71313 130.152 5.38401 129.52 6.21783 129.061C7.0437 128.594 7.95643 128.375 8.95604 128.405C9.94745 128.435 10.8455 128.708 11.6501 129.224C12.455 129.732 13.091 130.403 13.558 131.237C14.0172 132.062 14.2318 132.975 14.2019 133.975Z" fill="white"/>
<path d="M194.025 133.199C194.025 170.633 163.679 200.979 126.245 200.979C88.8116 200.979 58.4655 170.633 58.4655 133.199C58.4655 95.7655 88.8116 65.4193 126.245 65.4193C163.679 65.4193 194.025 95.7655 194.025 133.199Z" fill="white"/>
</svg>
