<svg width="1840" height="779" viewBox="0 0 1840 779" fill="none" xmlns="http://www.w3.org/2000/svg">
<rect width="1840" height="779" fill="#0E0E22"/>
<path d="M398.151 355.715C379.476 355.715 364.33 370.859 364.33 389.536C364.33 408.213 379.474 423.357 398.151 423.357C416.829 423.357 431.973 408.213 431.973 389.536C431.973 370.859 416.827 355.715 398.151 355.715Z" fill="white"/>
<path d="M347.009 380.024C348.906 369.87 353.846 360.524 361.382 353.06L361.501 352.943C361.663 352.785 361.824 352.628 361.986 352.473C362.139 352.327 362.292 352.182 362.446 352.037L362.595 351.897C372.232 342.981 384.781 338.069 397.931 338.067H397.941C411.08 338.067 423.623 342.968 433.258 351.867L433.437 352.035C433.583 352.17 433.728 352.307 433.871 352.444C434.025 352.592 434.178 352.739 434.331 352.89L434.475 353.029C442.031 360.499 446.981 369.856 448.882 380.022H471.387C471.082 377.667 470.739 375.335 470.209 373.032L469.718 371.142C468.812 367.655 467.634 364.2 466.215 360.877C462.48 352.123 457.137 344.264 450.325 337.512L450.294 337.484C443.494 330.732 435.574 325.429 426.754 321.725C423.403 320.318 419.922 319.148 416.407 318.252L414.502 317.766C409.106 316.543 403.545 316 397.943 316H397.927C392.298 316 386.71 316.551 381.288 317.786L379.381 318.274C375.884 319.172 372.424 320.336 369.094 321.737C360.276 325.444 352.358 330.748 345.562 337.504C345.139 337.926 344.709 338.364 344.287 338.802C338.076 345.261 333.155 352.694 329.658 360.899C328.239 364.224 327.063 367.681 326.159 371.17L325.668 373.061C325.142 375.355 324.801 377.679 324.498 380.024H347.009Z" fill="white"/>
<path d="M471.439 398.516H448.951C447.322 407.58 443.256 416.111 437.102 423.17L437.08 423.196C436.906 423.394 436.73 423.592 436.557 423.785C436.44 423.914 436.323 424.044 436.202 424.173C436.131 424.249 436.059 424.328 435.988 424.403C431.177 429.556 425.475 433.614 419.044 436.467C412.387 439.419 405.29 440.919 397.95 440.921H397.939C384.47 440.921 371.695 435.804 361.975 426.513C361.852 426.396 361.731 426.277 361.608 426.158L361.376 425.932C353.728 418.355 348.757 408.843 346.922 398.518H324.439C324.75 401.048 325.115 403.556 325.686 406.028L326.179 407.921C327.083 411.392 328.257 414.826 329.668 418.131C333.403 426.883 338.748 434.742 345.554 441.488C345.891 441.821 346.252 442.172 346.692 442.59C353.242 448.833 360.789 453.774 369.125 457.275C372.454 458.674 375.913 459.836 379.41 460.732L381.316 461.22C386.734 462.453 392.318 463 397.941 463H397.956C403.563 463 409.128 462.453 414.528 461.228L416.433 460.74C419.946 459.842 423.425 458.672 426.774 457.263C435.572 453.565 443.474 448.278 450.26 441.546L450.377 441.449L450.413 441.395C457.183 434.661 462.502 426.824 466.221 418.101C467.63 414.796 468.802 411.361 469.704 407.893L470.196 406C470.765 403.536 471.127 401.038 471.437 398.516H471.439Z" fill="white"/>
<path d="M509.582 360.466V342.188H588.284V360.466H560.049V435.303H537.862V360.466H509.582Z" fill="white"/>
<path d="M596.715 435.303V342.188H635.179C642.15 342.188 648.167 343.446 653.229 345.962C658.321 348.448 662.246 352.024 665.005 356.692C667.763 361.33 669.142 366.831 669.142 373.196C669.142 379.652 667.732 385.139 664.914 389.655C662.095 394.141 658.094 397.566 652.911 399.93C647.727 402.264 641.59 403.431 634.497 403.431H610.173V385.699H630.314C633.709 385.699 636.543 385.26 638.816 384.381C641.12 383.472 642.863 382.108 644.045 380.289C645.227 378.44 645.818 376.076 645.818 373.196C645.818 370.317 645.227 367.937 644.045 366.058C642.863 364.149 641.12 362.724 638.816 361.784C636.513 360.814 633.678 360.329 630.314 360.329H619.22V435.303H596.715ZM649.137 392.747L672.325 435.303H647.773L625.04 392.747H649.137Z" fill="white"/>
<path d="M735.258 342.188H757.718V402.249C757.718 409.19 756.066 415.237 752.762 420.39C749.458 425.512 744.851 429.483 738.94 432.302C733.03 435.091 726.164 436.485 718.344 436.485C710.433 436.485 703.522 435.091 697.612 432.302C691.701 429.483 687.109 425.512 683.836 420.39C680.562 415.237 678.925 409.19 678.925 402.249V342.188H701.431V400.294C701.431 403.507 702.128 406.371 703.522 408.887C704.947 411.403 706.932 413.373 709.478 414.798C712.025 416.222 714.98 416.935 718.344 416.935C721.709 416.935 724.649 416.222 727.165 414.798C729.711 413.373 731.696 411.403 733.121 408.887C734.545 406.371 735.258 403.507 735.258 400.294V342.188Z" fill="white"/>
<path d="M769.263 435.303V342.188H832.825V360.466H791.769V379.561H828.778V397.884H791.769V435.303H769.263Z" fill="white"/>
<path d="M849.723 436.621C846.45 436.621 843.646 435.47 841.312 433.166C839.009 430.862 837.872 428.074 837.902 424.8C837.872 421.587 839.009 418.844 841.312 416.571C843.646 414.267 846.45 413.115 849.723 413.115C852.815 413.115 855.543 414.267 857.907 416.571C860.302 418.844 861.514 421.587 861.544 424.8C861.514 426.983 860.938 428.968 859.817 430.756C858.726 432.545 857.286 433.969 855.498 435.03C853.739 436.091 851.815 436.621 849.723 436.621Z" fill="white"/>
<path d="M952.917 342.188V435.303H933.821L896.766 381.562H896.175V435.303H873.669V342.188H893.038L929.683 395.838H930.456V342.188H952.917Z" fill="white"/>
<path d="M964.507 435.303V342.188H1029.43V360.466H987.013V379.561H1026.11V397.884H987.013V417.025H1029.43V435.303H964.507Z" fill="white"/>
<path d="M1037.92 360.466V342.188H1116.62V360.466H1088.39V435.303H1066.2V360.466H1037.92Z" fill="white"/>
<path d="M1147.38 435.303L1120.28 342.188H1145.15L1159.2 403.204H1159.97L1176.02 342.188H1196.3L1212.35 403.34H1213.12L1227.21 342.188H1252.04L1224.99 435.303H1203.3L1186.52 378.834H1185.8L1169.02 435.303H1147.38Z" fill="white"/>
<path d="M1341.16 388.746C1341.16 398.991 1339.19 407.675 1335.25 414.798C1331.31 421.921 1325.98 427.331 1319.25 431.029C1312.55 434.727 1305.03 436.576 1296.69 436.576C1288.33 436.576 1280.8 434.712 1274.1 430.984C1267.4 427.255 1262.08 421.845 1258.14 414.752C1254.23 407.629 1252.27 398.96 1252.27 388.746C1252.27 378.501 1254.23 369.817 1258.14 362.694C1262.08 355.571 1267.4 350.16 1274.1 346.462C1280.8 342.764 1288.33 340.915 1296.69 340.915C1305.03 340.915 1312.55 342.764 1319.25 346.462C1325.98 350.16 1331.31 355.571 1335.25 362.694C1339.19 369.817 1341.16 378.501 1341.16 388.746ZM1318.15 388.746C1318.15 382.683 1317.29 377.561 1315.56 373.378C1313.87 369.195 1311.41 366.028 1308.2 363.876C1305.02 361.724 1301.18 360.648 1296.69 360.648C1292.24 360.648 1288.41 361.724 1285.19 363.876C1281.98 366.028 1279.51 369.195 1277.78 373.378C1276.08 377.561 1275.24 382.683 1275.24 388.746C1275.24 394.808 1276.08 399.93 1277.78 404.113C1279.51 408.296 1281.98 411.463 1285.19 413.616C1288.41 415.768 1292.24 416.844 1296.69 416.844C1301.18 416.844 1305.02 415.768 1308.2 413.616C1311.41 411.463 1313.87 408.296 1315.56 404.113C1317.29 399.93 1318.15 394.808 1318.15 388.746Z" fill="white"/>
<path d="M1351.74 435.303V342.188H1390.2C1397.18 342.188 1403.19 343.446 1408.25 345.962C1413.35 348.448 1417.27 352.024 1420.03 356.692C1422.79 361.33 1424.17 366.831 1424.17 373.196C1424.17 379.652 1422.76 385.139 1419.94 389.655C1417.12 394.141 1413.12 397.566 1407.94 399.93C1402.75 402.264 1396.61 403.431 1389.52 403.431H1365.2V385.699H1385.34C1388.73 385.699 1391.57 385.26 1393.84 384.381C1396.14 383.472 1397.89 382.108 1399.07 380.289C1400.25 378.44 1400.84 376.076 1400.84 373.196C1400.84 370.317 1400.25 367.937 1399.07 366.058C1397.89 364.149 1396.14 362.724 1393.84 361.784C1391.54 360.814 1388.7 360.329 1385.34 360.329H1374.25V435.303H1351.74ZM1404.16 392.747L1427.35 435.303H1402.8L1380.07 392.747H1404.16Z" fill="white"/>
<path d="M1433.95 435.303V342.188H1456.46V381.562H1457.68L1488.46 342.188H1514.97L1481.96 383.744L1515.56 435.303H1488.65L1465.46 398.703L1456.46 410.069V435.303H1433.95Z" fill="white"/>
</svg>
