<svg width="148" height="148" viewBox="0 0 148 148" fill="none" xmlns="http://www.w3.org/2000/svg">
<g clip-path="url(#clip0_4966_63703)">
<path d="M73.8265 39.777C55.1223 39.777 39.9528 54.9444 39.9528 73.6506C39.9528 92.3568 55.1203 107.524 73.8265 107.524C92.5327 107.524 107.7 92.3568 107.7 73.6506C107.7 54.9444 92.5307 39.777 73.8265 39.777Z" fill="#0407FF"/>
<path d="M22.6047 64.1236C24.5044 53.954 29.4518 44.5929 37.0001 37.1173L37.1194 37.0001C37.281 36.8424 37.4427 36.6848 37.6044 36.5292C37.758 36.3837 37.9116 36.2382 38.0652 36.0927L38.2147 35.9532C47.8669 27.0225 60.4354 22.1034 73.6061 22.1014H73.6162C86.7748 22.1014 99.3373 27.0104 108.987 35.9229L109.167 36.0906C109.313 36.226 109.458 36.3635 109.602 36.5009C109.755 36.6484 109.909 36.796 110.063 36.9475L110.206 37.087C117.775 44.5686 122.732 53.9399 124.636 64.1216H147.176C146.871 61.7631 146.527 59.4269 145.996 57.1209L145.505 55.2273C144.597 51.735 143.417 48.2751 141.996 44.9466C138.255 36.1796 132.904 28.3078 126.081 21.5457L126.051 21.5174C119.24 14.7552 111.308 9.44403 102.474 5.73352C99.117 4.32489 95.6308 3.15273 92.1102 2.25541L90.2024 1.76836C84.7983 0.543643 79.2285 0 73.6182 0H73.6021C67.9636 0 62.3675 0.551727 56.9371 1.78857L55.0273 2.27764C51.5249 3.17698 48.0589 4.34308 44.7243 5.74564C35.8926 9.45818 27.9623 14.7713 21.1556 21.5376C20.7312 21.9599 20.3008 22.3985 19.8784 22.8371C13.6578 29.3062 8.72862 36.7515 5.22626 44.9688C3.80551 48.2994 2.62728 51.7613 1.72188 55.2556L1.23078 57.1492C0.703309 59.4471 0.361763 61.7752 0.0586163 64.1236H22.6047Z" fill="#0407FF"/>
<path d="M147.228 82.644H124.705C123.074 91.7222 119.001 100.267 112.837 107.336L112.815 107.363C112.641 107.561 112.466 107.759 112.292 107.953C112.175 108.082 112.057 108.211 111.936 108.341C111.865 108.418 111.793 108.496 111.722 108.571C106.904 113.733 101.192 117.797 94.7516 120.655C88.0844 123.611 80.9766 125.113 73.6243 125.115H73.6142C60.1242 125.115 47.3293 119.99 37.5943 110.685C37.471 110.568 37.3497 110.449 37.2265 110.329L36.994 110.103C29.3345 102.514 24.3548 92.9874 22.5178 82.646H0C0.311231 85.1803 0.677028 87.6924 1.24897 90.1681L1.74208 92.0638C2.64748 95.5399 3.82369 98.9796 5.23636 102.29C8.97719 111.055 14.3308 118.927 21.1475 125.683C21.485 126.016 21.8468 126.368 22.2874 126.786C28.8475 133.039 36.4059 137.989 44.7546 141.495C48.0892 142.895 51.5532 144.06 55.0555 144.957L56.9654 145.446C62.3917 146.681 67.9838 147.228 73.6162 147.228H73.6304C79.2467 147.228 84.8205 146.681 90.2287 145.454L92.1365 144.965C95.655 144.066 99.1392 142.893 102.494 141.483C111.305 137.778 119.22 132.483 126.016 125.741L126.133 125.644L126.17 125.59C132.95 118.846 138.277 110.996 142.002 102.26C143.413 98.9493 144.587 95.5096 145.49 92.0355L145.983 90.1398C146.553 87.6722 146.915 85.1702 147.226 82.644H147.228Z" fill="#0407FF"/>
</g>
<defs>
<clipPath id="clip0_4966_63703">
<rect width="147.228" height="147.228" fill="white"/>
</clipPath>
</defs>
</svg>
