<svg width="545" height="211" viewBox="0 0 545 211" fill="none" xmlns="http://www.w3.org/2000/svg">
<path d="M90.601 131.077L97.8487 132.298L102.436 126.47L99.8302 119.421L92.5179 118.244L87.9734 124.194L90.601 131.066V131.077Z" fill="white"/>
<path d="M121.992 117.057L119.451 110.492L112.602 109.249L108.326 114.814L110.696 121.422L117.663 122.621L121.992 117.068V117.057Z" fill="white"/>
<path d="M121.195 91.4683L114.519 90.2477L110.211 95.6359L112.763 102.146L119.354 103.069L123.543 97.7912L121.206 91.4793L121.195 91.4683Z" fill="white"/>
<path d="M109.145 85.4531L106.464 78.5803L99.216 77.3598L94.6715 83.3088L97.2884 90.2366L104.547 91.4022L109.145 85.4641V85.4531Z" fill="white"/>
<path d="M87.8222 85.1782L80.9084 83.9906L76.4607 89.5988L79.0453 96.2846L85.9268 97.2413L90.1267 91.7871L87.8222 85.1892V85.1782Z" fill="white"/>
<path d="M76.5253 103.278L72.3361 108.623L74.8237 115.133L81.4144 116.056L85.5929 110.833L83.2775 104.29L76.5145 103.289L76.5253 103.278Z" fill="white"/>
<path d="M56.6131 85.992L53.9423 93.7665L59.23 99.9245L67.1453 98.407L69.816 90.5775L64.5284 84.4635L56.6131 85.981V85.992Z" fill="white"/>
<path d="M68.9219 115.473L63.8819 109.469L56.2143 110.888L53.6405 118.409L58.7774 124.37L66.3373 122.907L68.9111 115.484L68.9219 115.473Z" fill="white"/>
<path d="M80.6391 140.919L83.116 133.694L78.2161 127.833L71.0008 129.45L68.3839 136.564L73.3808 142.272L80.6499 140.908L80.6391 140.919Z" fill="white"/>
<path d="M102.587 150.662L104.913 143.844L100.26 138.346L93.2389 139.655L90.9128 146.472L95.5112 152.179L102.587 150.662Z" fill="white"/>
<path d="M123.069 140.259L125.298 133.749L120.797 128.394L114.174 129.659L111.751 136.268L116.295 141.722L123.069 140.259Z" fill="white"/>
<path d="M130.08 112.493L127.409 120.268L132.654 126.525L140.461 125.007L143.283 117.288L138.038 110.976L130.08 112.493Z" fill="white"/>
<path d="M138.491 86.5417L130.78 87.9603L128.206 95.3828L133.203 101.497L140.914 100.078L143.487 92.5018L138.491 86.5417Z" fill="white"/>
<path d="M129.789 72.6644L124.943 66.8583L117.577 68.2218L115.1 75.4465L120 81.2526L127.312 79.889L129.779 72.6644H129.789Z" fill="white"/>
<path d="M94.5314 60.1394L92.2053 67.0012L96.8576 72.5543L103.879 71.2458L106.205 64.329L101.553 58.8308L94.5314 60.1394Z" fill="white"/>
<path d="M72.1857 67.364L69.7626 73.9729L74.361 79.2181L81.081 78.0085L83.3102 71.2897L78.7656 66.0884L72.1857 67.353V67.364Z" fill="white"/>
<path d="M127.861 59.3367L126.925 50.3527L118.815 46.6689L111.697 52.1231L112.688 61.1071L120.743 64.637L127.861 59.3367Z" fill="white"/>
<path d="M86.0237 43.9306L79.1961 49.1319L80.133 57.6102L87.9407 61.14L94.6606 55.9387L93.7237 47.3615L86.013 43.9306H86.0237Z" fill="white"/>
<path d="M52.65 74.0278L59.9622 77.3048L66.4883 72.5103L65.4975 64.285L58.1314 61.0081L51.7023 65.9565L52.6392 74.0388L52.65 74.0278Z" fill="white"/>
<path d="M52.6073 103.806L51.8211 96.0867L44.8535 92.9087L38.6289 97.5492L39.6197 105.324L46.5442 108.348L52.6288 103.806H52.6073Z" fill="white"/>
<path d="M53.5439 140.16L59.3269 135.773L58.5408 128.449L51.9177 125.469L46.1347 129.912L46.9209 137.235L53.5439 140.16Z" fill="white"/>
<path d="M78.4094 164.187L85.3771 158.733L84.4401 149.793L76.331 146.263L69.2126 151.564L70.2034 160.548L78.4094 164.187Z" fill="white"/>
<path d="M111.191 166.915L117.911 161.867L116.974 153.29L109.307 149.859L102.436 154.907L103.373 163.539L111.18 166.926L111.191 166.915Z" fill="white"/>
<path d="M144.467 136.872L137.155 133.541L130.726 138.434L131.523 146.56L138.943 149.892L145.415 144.944L144.478 136.861L144.467 136.872Z" fill="white"/>
<path d="M152.329 117.992L158.457 113.296L157.52 105.577L150.552 102.553L144.522 107.193L145.308 114.913L152.329 117.992Z" fill="white"/>
<path d="M150.994 80.9885L150.208 73.6649L143.585 70.7399L137.802 75.1275L138.598 82.4511L145.221 85.4311L151.005 80.9885H150.994Z" fill="white"/>
<path d="M168.3 85.2772L159.157 82.1982L151.941 88.917L154.063 98.5059L163.206 101.585L170.421 94.8661L168.3 85.2772Z" fill="white"/>
<path d="M134.431 63.0205L143.132 65.9455L149.96 59.6885L148.032 50.4955L139.331 47.5705L132.503 53.8824L134.431 63.0205Z" fill="white"/>
<path d="M97.5036 37.7727L99.3344 46.4599L107.594 49.242L114.023 43.2819L112.193 34.5948L103.933 31.8127L97.5036 37.7727Z" fill="white"/>
<path d="M67.8344 57.3133L73.962 51.6611L72.282 43.5348L64.5175 40.9066L58.3899 46.4598L60.016 54.6851L67.8236 57.3133H67.8344Z" fill="white"/>
<path d="M41.7737 86.4429L47.5136 81.0876L45.9305 73.4121L38.6183 70.9929L32.8353 76.1942L34.4183 83.9687L41.7844 86.4429H41.7737Z" fill="white"/>
<path d="M28.7754 125.623L37.9184 128.702L45.1337 122.137L43.1521 112.394L33.9015 109.315L26.6862 115.979L28.7646 125.623H28.7754Z" fill="white"/>
<path d="M62.6976 147.88L53.9423 144.955L47.1685 151.311L49.0423 160.504L57.7976 163.286L64.5714 157.029L62.6976 147.891V147.88Z" fill="white"/>
<path d="M99.5712 173.128L97.8912 164.396L89.6313 161.768L83.1052 167.574L84.9359 176.306L93.1959 179.077L99.5712 173.117V173.128Z" fill="white"/>
<path d="M129.294 153.587L123.167 159.239L124.943 167.464L132.751 169.939L138.739 164.44L137.102 156.215L129.294 153.587Z" fill="white"/>
<path d="M158.51 139.907L164.25 134.651L162.667 126.976L155.355 124.501L149.572 129.758L151.198 137.433L158.51 139.907Z" fill="white"/>
<path d="M154.655 144.9L147.935 153.378L151.748 163.572L162.28 165.287L169.054 156.809L165.241 146.615L154.666 144.9H154.655Z" fill="white"/>
<path d="M185.509 110.932L181.847 101.343L171.907 99.7815L165.532 107.71L169.237 117.453L179.177 118.97L185.509 110.943V110.932Z" fill="white"/>
<path d="M154.106 61.5579L157.563 70.6409L166.91 72.1034L172.941 64.6369L169.484 55.5978L160.093 53.9814L154.106 61.5579Z" fill="white"/>
<path d="M128.842 40.2468L134.431 33.1322L131.222 24.6539L122.424 23.1914L116.834 30.3061L120.044 38.8393L128.842 40.2578V40.2468Z" fill="white"/>
<path d="M81.8233 37.2668L87.014 30.603L84.0525 22.7735L75.8895 21.41L70.6019 28.0188L73.5634 35.8923L81.8233 37.2558V37.2668Z" fill="white"/>
<path d="M42.4735 66.0005L49.1935 57.6213L45.3812 47.3176L34.849 45.7012L28.1291 54.0804L31.9413 64.3841L42.4735 66.0005Z" fill="white"/>
<path d="M11.5663 99.9685L15.2278 109.557L25.1677 111.119L31.543 103.19L27.9784 93.5466L17.9416 91.8861L11.5663 99.9685Z" fill="white"/>
<path d="M42.9688 149.298L39.555 140.259L30.2074 138.742L24.2736 146.318L27.5905 155.401L37.035 156.864L42.9688 149.287V149.298Z" fill="white"/>
<path d="M68.2762 170.708L62.687 177.724L65.8531 186.257L74.6515 187.676L80.2406 180.561L77.0314 172.182L68.2762 170.719V170.708Z" fill="white"/>
<path d="M115.294 173.633L110.104 180.297L113.076 188.127L121.336 189.49L126.527 182.826L123.554 174.997L115.294 173.633Z" fill="white"/>
<path d="M92.5072 189.842L86.6272 200.344L92.5072 210.9H104.418L110.449 200.344L104.418 189.842H92.5072Z" fill="white"/>
<path d="M147.731 172.171L142.142 182.068L147.731 191.964H158.909L164.499 182.068L158.909 172.171H147.731Z" fill="white"/>
<path d="M191.884 126.173H181.406L176.215 135.41L181.406 144.702H191.884L197.129 135.41L191.884 126.173Z" fill="white"/>
<path d="M191.485 84.0676L196.428 75.4354L191.485 66.8032H181.847L176.904 75.4354L181.847 84.0676H191.485Z" fill="white"/>
<path d="M157.821 36.816L162.365 28.7886L157.821 20.9152H148.872L144.327 28.7886L148.872 36.816H157.821Z" fill="white"/>
<path d="M104.622 21.0581L110.502 10.5016L104.622 0H92.7114L86.7776 10.5016L92.7114 21.0581H104.622Z" fill="white"/>
<path d="M49.3438 38.7293L54.933 28.8326L49.3438 18.9358H38.2193L32.5871 28.8326L38.2193 38.7293H49.3438Z" fill="white"/>
<path d="M15.6691 84.7273L20.9136 75.4353L15.6691 66.1984H5.24456L0 75.4353L5.24456 84.7273H15.6798H15.6691Z" fill="white"/>
<path d="M5.63187 126.778L0.688845 135.41L5.63187 144.097H15.3671L20.2133 135.41L15.3671 126.778H5.63187Z" fill="white"/>
<path d="M39.2539 174.084L34.7094 182.057L39.2539 190.084H48.2569L52.8015 182.057L48.2569 174.084H39.2539Z" fill="white"/>
<path d="M289.37 69.4944C305.004 69.4944 315.283 78.8103 315.283 93.3731C315.283 107.829 305.004 117.252 289.37 117.252H272.13V144.45H259.816V69.4944H289.37ZM272.13 80.2023V106.544H288.299C297.08 106.544 302.755 101.404 302.755 93.3731C302.755 85.2351 297.187 80.2023 288.406 80.2023H272.13ZM356.45 69.4944C372.083 69.4944 382.577 78.8103 382.577 93.3731C382.577 103.439 376.795 111.47 368.014 114.575L383.862 144.45H370.156L355.7 117.252H339.21V144.45H326.896V69.4944H356.45ZM339.21 80.2023V106.544H355.486C364.267 106.544 369.942 101.404 369.942 93.3731C369.942 85.3422 364.267 80.2023 355.486 80.2023H339.21ZM395.753 69.4944H444.688V80.4165H408.067V101.19H438.264V111.791H408.067V133.528H445.973V144.45H395.753V69.4944ZM458.232 69.4944H474.186L498.172 128.495L521.73 69.4944H537.364V144.45H525.478V89.3041L502.991 144.45H492.604L470.117 89.3041V144.45H458.232V69.4944Z" fill="white"/>
</svg>
