<svg width="1152" height="388" viewBox="0 0 1152 388" fill="none" xmlns="http://www.w3.org/2000/svg">
<g opacity="0.8">
<mask id="mask0_2212_1183" style="mask-type:alpha" maskUnits="userSpaceOnUse" x="0" y="-51" width="1152" height="439">
<rect y="-50.8477" width="1152" height="438.848" fill="url(#paint0_radial_2212_1183)"/>
</mask>
<g mask="url(#mask0_2212_1183)">
<path d="M280.178 143.736C291.152 147.38 303.029 144.355 312.933 138.386C313.429 138.087 313.929 137.792 314.432 137.501C339.385 123.094 368.086 122.015 391.227 132.198C401.192 136.583 407.179 146.952 405.994 157.775C403.242 182.907 387.957 207.223 363.004 221.63C362.5 221.92 361.995 222.206 361.488 222.486C351.367 228.078 342.809 236.852 340.477 248.178C340.141 249.812 338.688 250.975 337.02 250.947L303.885 250.389C301.969 250.357 300.442 248.778 300.475 246.862C300.48 246.579 300.519 246.296 300.593 246.023L306.318 224.655C306.794 222.878 306.545 220.983 305.625 219.39L287.683 188.313C286.763 186.719 285.247 185.556 283.469 185.08L262.102 179.355C260.251 178.859 259.152 176.956 259.649 175.105C259.722 174.831 259.828 174.568 259.966 174.319L276.051 145.345C276.861 143.886 278.594 143.21 280.178 143.736ZM338.718 179.565C342.55 186.203 351.038 188.477 357.675 184.645C364.313 180.813 366.587 172.325 362.755 165.688C358.923 159.05 350.435 156.776 343.798 160.608C337.16 164.44 334.886 172.928 338.718 179.565Z" fill="#072213"/>
<path d="M280.178 143.736C291.152 147.38 303.029 144.355 312.933 138.386C313.429 138.087 313.929 137.792 314.432 137.501C339.385 123.094 368.086 122.015 391.227 132.198C401.192 136.583 407.179 146.952 405.994 157.775C403.242 182.907 387.957 207.223 363.004 221.63C362.5 221.92 361.995 222.206 361.488 222.486C351.367 228.078 342.809 236.852 340.477 248.178C340.141 249.812 338.688 250.975 337.02 250.947L303.885 250.389C301.969 250.357 300.442 248.778 300.475 246.862C300.48 246.579 300.519 246.296 300.593 246.023L306.318 224.655C306.794 222.878 306.545 220.983 305.625 219.39L287.683 188.313C286.763 186.719 285.247 185.556 283.469 185.08L262.102 179.355C260.251 178.859 259.152 176.956 259.649 175.105C259.722 174.831 259.828 174.568 259.966 174.319L276.051 145.345C276.861 143.886 278.594 143.21 280.178 143.736ZM338.718 179.565C342.55 186.203 351.038 188.477 357.675 184.645C364.313 180.813 366.587 172.325 362.755 165.688C358.923 159.05 350.435 156.776 343.798 160.608C337.16 164.44 334.886 172.928 338.718 179.565Z" fill="#0F4C2C"/>
<path d="M340.475 248.173C343.495 238.361 347.436 233.426 355.919 225.795C325.748 237.905 309.293 235.943 303.747 234.496L300.59 246.017C300.517 246.291 300.477 246.574 300.472 246.857C300.44 248.773 301.967 250.352 303.883 250.384L337.018 250.942C338.686 250.97 340.138 249.807 340.475 248.173Z" fill="#072213"/>
<path d="M280.177 143.736C290.184 146.026 296.429 145.08 307.279 141.549C281.706 161.623 275.178 176.855 273.658 182.382L262.102 179.355C261.828 179.281 261.563 179.174 261.316 179.037C259.64 178.107 259.036 175.995 259.966 174.319L276.051 145.345C276.861 143.887 278.594 143.21 280.177 143.736Z" fill="#072213"/>
<mask id="path-5-outside-1_2212_1183" maskUnits="userSpaceOnUse" x="248.241" y="88.1755" width="186.342" height="179.753" fill="black">
<rect fill="white" x="248.241" y="88.1755" width="186.342" height="179.753"/>
<path d="M357.675 184.645C351.038 188.477 342.55 186.203 338.718 179.565C334.886 172.928 337.16 164.44 343.798 160.608C350.435 156.776 358.923 159.05 362.755 165.688C366.587 172.325 364.313 180.813 357.675 184.645Z"/>
</mask>
<path d="M312.933 138.386L313.191 138.814L312.933 138.386ZM391.227 132.198L391.025 132.656L391.227 132.198ZM405.994 157.775L406.491 157.829L405.994 157.775ZM361.488 222.486L361.247 222.048L361.247 222.048L361.488 222.486ZM340.477 248.178L339.987 248.077L339.987 248.077L340.477 248.178ZM337.02 250.947L337.012 251.447L337.012 251.447L337.02 250.947ZM303.885 250.389L303.877 250.889L303.877 250.889L303.885 250.389ZM300.475 246.862L300.975 246.871L300.975 246.871L300.475 246.862ZM300.593 246.023L300.11 245.892L300.11 245.893L300.593 246.023ZM262.102 179.355L262.235 178.873L262.231 178.872L262.102 179.355ZM259.649 175.105L260.132 175.235L260.132 175.235L259.649 175.105ZM259.966 174.319L260.403 174.562L260.404 174.562L259.966 174.319ZM276.051 145.345L275.614 145.103L275.614 145.103L276.051 145.345ZM280.178 143.736L280.02 144.211L280.02 144.211L280.178 143.736ZM312.933 138.386L313.191 138.814C313.684 138.517 314.181 138.223 314.682 137.934L314.432 137.501L314.182 137.068C313.676 137.36 313.173 137.657 312.675 137.957L312.933 138.386ZM314.432 137.501L314.682 137.934C339.501 123.605 368.035 122.539 391.025 132.656L391.227 132.198L391.428 131.74C368.138 121.492 339.27 122.584 314.182 137.068L314.432 137.501ZM405.994 157.775L405.497 157.721C402.763 182.69 387.573 206.867 362.754 221.197L363.004 221.63L363.254 222.063C388.341 207.578 403.722 183.124 406.491 157.829L405.994 157.775ZM363.004 221.63L362.754 221.197C362.253 221.486 361.75 221.77 361.247 222.048L361.488 222.486L361.73 222.923C362.24 222.642 362.748 222.355 363.254 222.063L363.004 221.63ZM340.477 248.178L339.987 248.077C339.699 249.475 338.456 250.471 337.028 250.447L337.02 250.947L337.012 251.447C338.92 251.479 340.582 250.148 340.967 248.279L340.477 248.178ZM337.02 250.947L337.028 250.447L303.894 249.89L303.885 250.389L303.877 250.889L337.012 251.447L337.02 250.947ZM303.885 250.389L303.894 249.89C302.254 249.862 300.947 248.51 300.975 246.871L300.475 246.862L299.975 246.854C299.938 249.046 301.685 250.852 303.877 250.889L303.885 250.389ZM300.475 246.862L300.975 246.871C300.979 246.628 301.013 246.386 301.076 246.152L300.593 246.023L300.11 245.893C300.026 246.207 299.98 246.53 299.975 246.854L300.475 246.862ZM300.593 246.023L301.075 246.153L304.377 233.94L303.894 233.809L303.411 233.679L300.11 245.892L300.593 246.023ZM274.421 182.76L274.554 182.278L262.235 178.873L262.102 179.355L261.969 179.836L274.287 183.242L274.421 182.76ZM262.102 179.355L262.231 178.872C260.647 178.447 259.707 176.819 260.132 175.235L259.649 175.105L259.166 174.976C258.598 177.094 259.855 179.27 261.972 179.838L262.102 179.355ZM259.649 175.105L260.132 175.235C260.194 175 260.286 174.774 260.403 174.562L259.966 174.319L259.529 174.076C259.371 174.361 259.25 174.663 259.166 174.976L259.649 175.105ZM259.966 174.319L260.404 174.562L276.488 145.588L276.051 145.345L275.614 145.103L259.529 174.077L259.966 174.319ZM276.051 145.345L276.488 145.588C277.181 144.339 278.665 143.761 280.02 144.211L280.178 143.736L280.335 143.262C278.524 142.66 276.54 143.434 275.614 145.103L276.051 145.345ZM361.488 222.486L361.247 222.048C351.049 227.683 342.359 236.559 339.987 248.077L340.477 248.178L340.967 248.279C343.259 237.145 351.685 228.474 361.73 222.923L361.488 222.486ZM391.227 132.198L391.025 132.656C400.791 136.953 406.658 147.115 405.497 157.721L405.994 157.775L406.491 157.829C407.7 146.79 401.593 136.213 391.428 131.74L391.227 132.198ZM312.933 138.386L312.675 137.957C302.845 143.881 291.123 146.843 280.335 143.262L280.178 143.736L280.02 144.211C291.181 147.916 303.213 144.828 313.191 138.814L312.933 138.386ZM338.718 179.565L337.852 180.065C341.961 187.181 351.059 189.619 358.175 185.511L357.675 184.645L357.175 183.779C351.016 187.335 343.14 185.225 339.584 179.065L338.718 179.565ZM357.675 184.645L358.175 185.511C365.291 181.403 367.729 172.304 363.621 165.188L362.755 165.688L361.889 166.188C365.445 172.347 363.334 180.223 357.175 183.779L357.675 184.645ZM362.755 165.688L363.621 165.188C359.513 158.072 350.413 155.634 343.298 159.742L343.798 160.608L344.298 161.474C350.457 157.918 358.333 160.029 361.889 166.188L362.755 165.688ZM343.798 160.608L343.298 159.742C336.182 163.85 333.744 172.95 337.852 180.065L338.718 179.565L339.584 179.065C336.028 172.906 338.138 165.03 344.298 161.474L343.798 160.608Z" fill="#26BD6C" mask="url(#path-5-outside-1_2212_1183)"/>
<path d="M387.513 130.554C385.333 138.994 385.981 157.217 406.009 162.59" stroke="#26BD6C"/>
<path d="M315.807 202.487L309.596 226.687C308.082 232.585 302.391 236.414 296.358 235.595L267.453 231.669C259.675 230.612 254.988 222.496 257.962 215.231L269.015 188.236C271.322 182.601 277.484 179.587 283.349 181.225L307.412 187.946C313.7 189.703 317.43 196.163 315.807 202.487Z" fill="#072213" stroke="#26BD6C"/>
<path d="M304.098 234.715L291.114 226.605C280.96 220.262 274.624 209.287 274.208 197.323L273.676 182.023" stroke="#26BD6C" stroke-opacity="0.3"/>
<path d="M312.681 138.601C302.026 145.125 279.416 162.557 273.76 182.074" stroke="#26BD6C"/>
<path d="M361.23 222.693C350.253 228.658 324.02 239.463 304.29 234.603" stroke="#26BD6C"/>
<path d="M814.918 333.79V209.699C814.918 207.361 816.539 205.334 818.82 204.821L934.991 178.68L939.762 180.466C941.715 181.198 943.009 183.064 943.009 185.149V301.768L822.924 337.793L814.918 333.79Z" fill="#072213"/>
<path d="M814.918 333.79V209.699C814.918 207.361 816.539 205.334 818.82 204.821L934.991 178.68L939.762 180.466C941.715 181.198 943.009 183.064 943.009 185.149V301.768L822.924 337.793L814.918 333.79Z" fill="#072213"/>
<path d="M814.918 333.79V209.699C814.918 207.361 816.539 205.334 818.82 204.821L934.991 178.68L939.762 180.466C941.715 181.198 943.009 183.064 943.009 185.149V301.768L822.924 337.793L814.918 333.79Z" stroke="#26BD6C" stroke-linecap="round" stroke-linejoin="round"/>
<path d="M822.924 337.401V208.701M822.924 208.701L941.957 182.27M822.924 208.701L816.302 206.913" stroke="#26BD6C" stroke-opacity="0.3" stroke-miterlimit="10" stroke-linejoin="round"/>
<path d="M842.938 225.66V345.746L971.029 308.774V195.639L842.938 225.66Z" fill="#072213"/>
<path d="M842.938 225.66V345.746L971.029 308.774V195.639L842.938 225.66Z" fill="#0F4C2C"/>
<path d="M842.938 225.66V345.746L971.029 308.774V195.639L842.938 225.66Z" stroke="#26BD6C" stroke-linecap="round" stroke-linejoin="round"/>
<circle cx="2.19199" cy="2.19199" r="2.19199" transform="matrix(0.971399 -0.237453 0.110432 0.993884 951.803 204.366)" fill="#26BD6C"/>
<circle cx="2.19199" cy="2.19199" r="2.19199" transform="matrix(0.971399 -0.237453 0.110432 0.993884 957.227 203.041)" fill="#26BD6C"/>
<circle cx="2.19199" cy="2.19199" r="2.19199" transform="matrix(0.971399 -0.237453 0.110432 0.993884 962.65 201.715)" fill="#26BD6C"/>
<path d="M876.09 310.495L872.331 316.116L872.33 316.115L863.559 329.231L858.823 326.064L867.594 312.948L856.545 305.559L860.304 299.938L876.09 310.495Z" fill="#072213"/>
<path d="M878.266 324.8L878.265 318.57L898.287 312.785L898.287 319.026L878.266 324.8Z" fill="#072213"/>
<path d="M528.203 -3.64201V-127.733C528.203 -130.072 526.582 -132.098 524.301 -132.611L408.13 -158.752L403.359 -156.966C401.406 -156.235 400.112 -154.369 400.112 -152.283V-35.6648L520.197 0.360825L528.203 -3.64201Z" fill="#072213"/>
<path d="M528.203 -3.64201V-127.733C528.203 -130.072 526.582 -132.098 524.301 -132.611L408.13 -158.752L403.359 -156.966C401.406 -156.235 400.112 -154.369 400.112 -152.283V-35.6648L520.197 0.360825L528.203 -3.64201Z" fill="#072213"/>
<path d="M528.203 -3.64201V-127.733C528.203 -130.072 526.582 -132.098 524.301 -132.611L408.13 -158.752L403.359 -156.966C401.406 -156.235 400.112 -154.369 400.112 -152.283V-35.6648L520.197 0.360825L528.203 -3.64201Z" stroke="#26BD6C" stroke-linecap="round" stroke-linejoin="round"/>
<path d="M500.184 -111.772V8.31343L372.092 -28.6585V-141.793L500.184 -111.772Z" fill="#072213"/>
<path d="M500.184 -111.772V8.31343L372.092 -28.6585V-141.793L500.184 -111.772Z" fill="#0F4C2C"/>
<path d="M500.184 -111.772V8.31343L372.092 -28.6585V-141.793L500.184 -111.772Z" stroke="#26BD6C" stroke-linecap="round" stroke-linejoin="round"/>
<path d="M710.851 -6.91946V1.22863L668.375 22.7651C667.034 23.4452 665.449 23.4444 664.109 22.7635L621.633 1.1891V-6.91979C621.633 -8.70191 622.637 -10.3315 624.23 -11.1319L664.124 -31.1846C665.457 -31.8542 667.026 -31.8542 668.358 -31.1846L708.253 -11.1319C709.845 -10.3315 710.851 -8.70142 710.851 -6.91946Z" fill="#072213" stroke="#26BD6C" stroke-linecap="round" stroke-linejoin="round"/>
<path d="M789.847 114.317V153.969C789.847 155.724 788.874 157.333 787.319 158.146L750.653 177.331C749.297 178.041 747.682 178.048 746.32 177.349L735.32 171.719V128.249C735.32 126.468 736.323 124.84 737.913 124.039L776.48 104.609L787.276 110.117C788.854 110.923 789.847 112.545 789.847 114.317Z" fill="#072213" stroke="#26BD6C" stroke-linecap="round" stroke-linejoin="round"/>
<path d="M597.152 128.273V171.732L586.152 177.364C584.79 178.061 583.175 178.054 581.819 177.344L545.154 158.16C543.6 157.347 542.625 155.738 542.625 153.984V114.331C542.625 112.559 543.618 110.937 545.196 110.132L555.835 104.702L594.545 124.057C596.142 124.855 597.152 126.488 597.152 128.273Z" fill="#072213" stroke="#26BD6C" stroke-linecap="round" stroke-linejoin="round"/>
<path d="M789.109 111.806L748.479 132.099V177.881" fill="#072213"/>
<path d="M789.109 111.806L748.479 132.099V177.881" stroke="#26BD6C" stroke-opacity="0.3" stroke-miterlimit="10" stroke-linejoin="round"/>
<path d="M622.359 -9.44964L666.221 12.8104L710.109 -9.46216" fill="#072213"/>
<path d="M622.359 -9.44964L666.221 12.8104L710.109 -9.46216" stroke="#26BD6C" stroke-opacity="0.3" stroke-miterlimit="10" stroke-linejoin="round"/>
<path d="M666.236 12.8137V23.2781V12.8137Z" fill="#072213"/>
<path d="M666.236 12.8137V23.2781" stroke="#26BD6C" stroke-opacity="0.3" stroke-miterlimit="10" stroke-linejoin="round"/>
<path d="M736.053 125.752L748.481 132.099L736.053 125.752Z" fill="#072213"/>
<path d="M736.053 125.752L748.481 132.099" stroke="#26BD6C" stroke-opacity="0.3" stroke-miterlimit="10" stroke-linejoin="round"/>
<path d="M543.396 111.831L583.975 132.099V177.723" fill="#072213"/>
<path d="M543.396 111.831L583.975 132.099V177.723" stroke="#26BD6C" stroke-opacity="0.3" stroke-miterlimit="10" stroke-linejoin="round"/>
<path d="M596.403 125.744L583.966 132.096L596.403 125.744Z" fill="#072213"/>
<path d="M596.403 125.744L583.966 132.096" stroke="#26BD6C" stroke-opacity="0.3" stroke-miterlimit="10" stroke-linejoin="round"/>
<path d="M763.501 45.8426V81.8015C763.501 83.5812 762.499 85.2091 760.91 86.0103L750.134 91.4458L711.568 110.876C709.978 111.677 708.975 113.306 708.975 115.086V168.505C708.975 170.288 707.97 171.917 706.378 172.717L668.36 191.833C667.031 192.502 665.464 192.502 664.134 191.833L626.116 172.719C624.524 171.918 623.52 170.289 623.52 168.507V115.096C623.52 113.31 622.511 111.678 620.914 110.88L582.203 91.5245L571.829 86.3212C570.235 85.5216 569.229 83.8909 569.229 82.1076V45.7233C569.229 43.9527 570.221 42.3314 571.798 41.5254L608.212 22.9188C609.554 22.2328 611.144 22.2305 612.489 22.9122L621.638 27.5503L664.114 49.1248C665.455 49.8056 667.04 49.8061 668.381 49.1263L710.856 27.5898L720.008 22.9506C721.351 22.2697 722.939 22.2716 724.281 22.9557L760.928 41.6443C762.506 42.4495 763.501 44.0703 763.501 45.8426Z" fill="#0F4C2C" stroke="#26BD6C" stroke-linecap="round" stroke-linejoin="round"/>
<g opacity="0.6">
<path d="M666.364 192.143V92.3269" stroke="#26BD6C" stroke-opacity="0.3" stroke-linecap="round" stroke-linejoin="round"/>
<path d="M762.771 43.3326L666.235 92.3248L570.015 43.2468" stroke="#26BD6C" stroke-opacity="0.3" stroke-linecap="round" stroke-linejoin="round"/>
</g>
<path d="M-35.0825 22.8335L-35.0825 2.11104C-35.0825 1.08547 -34.5054 0.147314 -33.5893 -0.314405L-27.3793 -3.44676L-5.15442 -14.644C-4.23819 -15.1055 -3.66009 -16.0442 -3.66009 -17.0702L-3.66009 -47.8548C-3.6601 -48.8819 -3.08115 -49.8207 -2.16378 -50.2821L19.7453 -61.2982C20.5113 -61.6836 21.4144 -61.6836 22.1807 -61.2982L44.0897 -50.283C45.0071 -49.8217 45.5861 -48.8829 45.5861 -47.8558L45.5861 -17.0759C45.5861 -16.0469 46.1675 -15.1063 47.0878 -14.6461L69.3958 -3.49214L75.3744 -0.493534C76.2932 -0.0327644 76.873 0.906998 76.873 1.93466L76.873 22.9022C76.873 23.9226 76.3013 24.857 75.3925 25.3214L54.4074 36.0441C53.634 36.4394 52.7179 36.4407 51.9431 36.0479L46.6704 33.375L22.1922 20.942C21.4196 20.5497 20.5063 20.5494 19.7335 20.9412L-4.74423 33.3522L-10.0182 36.0257C-10.7924 36.4182 -11.7075 36.417 -12.4806 36.0228L-33.5998 25.2529C-34.5092 24.7889 -35.0825 23.8548 -35.0825 22.8335Z" fill="#0F4C2C" stroke="#26BD6C" stroke-linecap="round" stroke-linejoin="round"/>
<g opacity="0.6">
<path d="M-34.662 24.2799L20.9702 -3.9534L76.4199 24.3293" stroke="#26BD6C" stroke-opacity="0.3" stroke-linecap="round" stroke-linejoin="round"/>
</g>
<path d="M1179.88 -29.7195V-21.5714L1137.4 -0.0349541C1136.06 0.64518 1134.47 0.644356 1133.13 -0.0365982L1090.66 -21.611V-29.7198C1090.66 -31.502 1091.66 -33.1315 1093.26 -33.9319L1133.15 -53.9847C1134.48 -54.6542 1136.05 -54.6542 1137.38 -53.9847L1177.28 -33.9319C1178.87 -33.1315 1179.88 -31.5015 1179.88 -29.7195Z" fill="#072213" stroke="#26BD6C" stroke-linecap="round" stroke-linejoin="round"/>
<path d="M1135.26 -9.98633V0.478077V-9.98633Z" fill="#072213"/>
<path d="M1135.26 -9.98633V0.478077" stroke="#26BD6C" stroke-opacity="0.3" stroke-miterlimit="10" stroke-linejoin="round"/>
<path d="M546.379 300.646L580.543 280.516C582.054 279.626 583.935 279.648 585.425 280.575L620.567 302.426C621.867 303.233 622.693 304.622 622.783 306.15L623.516 318.485L586.063 340.552C584.529 341.456 582.617 341.418 581.119 340.455L544.801 317.091L544.067 304.993C543.959 303.225 544.853 301.545 546.379 300.646Z" fill="#072213" stroke="#26BD6C" stroke-linecap="round" stroke-linejoin="round"/>
<path d="M544.591 302.557L582.701 327.261L622.146 304.02" fill="#072213"/>
<path d="M544.591 302.557L582.701 327.261L622.146 304.02" stroke="#26BD6C" stroke-opacity="0.3" stroke-miterlimit="10" stroke-linejoin="round"/>
<path d="M583.54 341.188L582.7 327.258L583.54 341.188Z" fill="#072213"/>
<path d="M583.54 341.188L582.7 327.258" stroke="#26BD6C" stroke-opacity="0.3" stroke-miterlimit="10" stroke-linejoin="round"/>
<path d="M197.219 26.3503V69.8093L208.219 75.4412C209.581 76.1379 211.196 76.1313 212.552 75.4214L249.217 56.2376C250.772 55.4241 251.746 53.8149 251.746 52.0608V12.4078C251.746 10.6363 250.753 9.01424 249.175 8.20908L238.536 2.77905L199.826 22.1339C198.229 22.9325 197.219 24.5647 197.219 26.3503Z" fill="#072213" stroke="#26BD6C" stroke-linecap="round" stroke-linejoin="round"/>
<path d="M250.976 9.9082L210.396 30.1761V75.8001" fill="#072213"/>
<path d="M250.976 9.9082L210.396 30.1761V75.8001" stroke="#26BD6C" stroke-opacity="0.3" stroke-miterlimit="10" stroke-linejoin="round"/>
<path d="M197.968 23.8213L210.405 30.1729L197.968 23.8213Z" fill="#072213"/>
<path d="M197.968 23.8213L210.405 30.1729" stroke="#26BD6C" stroke-opacity="0.3" stroke-miterlimit="10" stroke-linejoin="round"/>
<path d="M877.58 40.749C873.174 39.9176 870.223 34.884 872.6 30.3336L924.119 -67.4919C925.928 -70.944 929.84 -71.7011 932.738 -70.2625L956.98 -61.8723C958.529 -61.3234 959.907 -60.3784 960.977 -59.1314C962.047 -57.8844 962.771 -56.3789 963.078 -54.7647L966.331 -37.7177L970.367 -16.5252C970.639 -15.1166 971.448 -13.8687 972.622 -13.0438L999.654 5.80062C1005.2 10.3274 1003.52 19.2043 996.722 21.4222L906.533 45.2119C903.799 45.9307 900.933 45.9869 898.173 45.3757L877.58 40.749Z" fill="#072213" stroke="#26BD6C" stroke-miterlimit="10" stroke-linejoin="round"/>
<path d="M944.689 -19.2118L965.997 -1.7585C971.541 2.76643 969.867 11.6433 963.066 13.8612L881.15 40.5166C875.025 42.5145 869.594 36.0437 872.599 30.3333L924.119 -67.4941C927.016 -73.0056 935.263 -71.6192 936.219 -65.4528L942.743 -22.6386C942.95 -21.2845 943.65 -20.0548 944.709 -19.1851L944.689 -19.2118Z" fill="#072213" stroke="#26BD6C" stroke-opacity="0.3" stroke-miterlimit="10" stroke-linejoin="round"/>
<path d="M971.593 -13.996L943.076 -21.3748L971.593 -13.996ZM999.635 5.77078L961.314 -5.48955L999.635 5.77078ZM996.702 21.3921L958.763 15.406L996.702 21.3921Z" fill="#266DF0"/>
<path d="M971.593 -13.996L943.076 -21.3748M999.635 5.77078L961.314 -5.48955M996.702 21.3921L958.763 15.406" stroke="#26BD6C" stroke-opacity="0.3" stroke-miterlimit="10" stroke-linejoin="round"/>
<path d="M177.507 309.098C184.665 309.059 190.744 302.003 188.32 294.175L135.533 125.766C133.684 119.825 127.759 117.512 122.796 118.939L82.3202 125.147C79.7306 125.564 77.2955 126.652 75.2571 128.303C73.2187 129.954 71.6482 132.109 70.7019 134.555L60.6969 160.388L48.2705 192.505C47.4375 194.639 45.8097 196.366 43.7293 197.324L-4.13097 219.146C-14.136 224.661 -14.0576 239.081 -4.01639 244.518L130.762 307.786C134.849 309.701 139.333 310.613 143.843 310.446L177.507 309.098Z" fill="#072213" stroke="#26BD6C" stroke-miterlimit="10" stroke-linejoin="round"/>
<path d="M89.3617 195.665L50.8884 216.948C40.8833 222.46 40.9617 236.879 51.0029 242.316L171.968 307.708C181.011 312.605 191.399 304.005 188.321 294.175L135.533 125.762C132.569 116.276 119.22 116.083 115.948 125.491L93.4023 190.844C92.6871 192.91 91.2343 194.64 89.3225 195.701L89.3617 195.665Z" fill="#0F4C2C" stroke="#26BD6C" stroke-miterlimit="10" stroke-linejoin="round"/>
<path d="M45.6173 196.125L92.5156 192.733L45.6173 196.125ZM-4.0943 219.106L59.3132 212.436L-4.0943 219.106ZM-3.97674 244.477L57.314 245.979L-3.97674 244.477Z" fill="#266DF0"/>
<path d="M45.6173 196.125L92.5156 192.733M-4.0943 219.106L59.3132 212.436M-3.97674 244.477L57.314 245.979" stroke="#26BD6C" stroke-opacity="0.3" stroke-miterlimit="10" stroke-linejoin="round"/>
<path d="M1150.25 157.911C1143.37 155.629 1135.94 157.524 1129.74 161.261C1129.42 161.449 1129.11 161.633 1128.8 161.815C1115.26 169.631 1099.96 171.183 1086.69 167.312C1076.24 164.263 1069.98 153.427 1072.57 142.851C1075.85 129.423 1084.84 116.95 1098.38 109.134C1098.7 108.952 1099.01 108.773 1099.33 108.598C1105.67 105.096 1111.03 99.6018 1112.49 92.5094C1112.7 91.4862 1113.61 90.7579 1114.65 90.7754L1135.4 91.1245C1136.6 91.1448 1137.56 92.1335 1137.54 93.3333C1137.53 93.5106 1137.51 93.6875 1137.46 93.859L1133.88 107.239C1133.58 108.352 1133.74 109.539 1134.31 110.537L1145.55 129.997C1146.12 130.995 1147.07 131.723 1148.19 132.021L1161.57 135.607C1162.73 135.917 1163.41 137.108 1163.1 138.267C1163.06 138.439 1162.99 138.604 1162.9 138.76L1152.83 156.903C1152.32 157.817 1151.24 158.24 1150.25 157.911ZM1113.59 135.475C1111.19 131.318 1105.87 129.894 1101.72 132.294C1097.56 134.694 1096.14 140.008 1098.54 144.165C1100.94 148.321 1106.25 149.745 1110.41 147.346C1114.56 144.946 1115.99 139.631 1113.59 135.475Z" fill="#072213"/>
<path d="M1150.25 157.911C1143.37 155.629 1135.94 157.524 1129.74 161.261C1129.42 161.449 1129.11 161.633 1128.8 161.815C1115.26 169.631 1099.96 171.183 1086.69 167.312C1076.24 164.263 1069.98 153.427 1072.57 142.851C1075.85 129.423 1084.84 116.95 1098.38 109.134C1098.7 108.952 1099.01 108.773 1099.33 108.598C1105.67 105.096 1111.03 99.6018 1112.49 92.5094C1112.7 91.4862 1113.61 90.7579 1114.65 90.7754L1135.4 91.1245C1136.6 91.1448 1137.56 92.1335 1137.54 93.3333C1137.53 93.5106 1137.51 93.6875 1137.46 93.859L1133.88 107.239C1133.58 108.352 1133.74 109.539 1134.31 110.537L1145.55 129.997C1146.12 130.995 1147.07 131.723 1148.19 132.021L1161.57 135.607C1162.73 135.917 1163.41 137.108 1163.1 138.267C1163.06 138.439 1162.99 138.604 1162.9 138.76L1152.83 156.903C1152.32 157.817 1151.24 158.24 1150.25 157.911ZM1113.59 135.475C1111.19 131.318 1105.87 129.894 1101.72 132.294C1097.56 134.694 1096.14 140.008 1098.54 144.165C1100.94 148.321 1106.25 149.745 1110.41 147.346C1114.56 144.946 1115.99 139.631 1113.59 135.475Z" fill="#0F4C2C"/>
<path d="M1112.49 92.5126C1110.6 98.6565 1108.13 101.747 1102.82 106.525C1121.71 98.9423 1132.02 100.171 1135.49 101.077L1137.46 93.8623C1137.51 93.6908 1137.54 93.5139 1137.54 93.3365C1137.56 92.1367 1136.6 91.148 1135.4 91.1277L1114.65 90.7786C1113.61 90.7611 1112.7 91.4895 1112.49 92.5126Z" fill="#072213"/>
<path d="M1150.25 157.911C1143.98 156.477 1140.07 157.069 1133.28 159.28C1149.29 146.71 1153.38 137.172 1154.33 133.711L1161.57 135.607C1161.74 135.653 1161.9 135.719 1162.06 135.806C1163.11 136.388 1163.48 137.71 1162.9 138.76L1152.83 156.903C1152.32 157.817 1151.24 158.24 1150.25 157.911Z" fill="#072213"/>
<mask id="path-66-outside-2_2212_1183" maskUnits="userSpaceOnUse" x="1054.35" y="79.5501" width="116.576" height="112.916" fill="black">
<rect fill="white" x="1054.35" y="79.5501" width="116.576" height="112.916"/>
<path d="M1101.72 132.294C1105.87 129.894 1111.19 131.318 1113.59 135.475C1115.99 139.631 1114.56 144.946 1110.41 147.346C1106.25 149.745 1100.94 148.321 1098.54 144.165C1096.14 140.008 1097.56 134.694 1101.72 132.294Z"/>
</mask>
<path d="M1129.74 161.261L1129.99 161.69L1129.74 161.261ZM1086.69 167.312L1086.55 167.792L1086.69 167.312ZM1072.57 142.851L1072.08 142.733L1072.57 142.851ZM1099.33 108.598L1099.09 108.16L1099.09 108.16L1099.33 108.598ZM1112.49 92.5094L1112.98 92.6102L1112.98 92.6102L1112.49 92.5094ZM1114.65 90.7754L1114.66 90.2755L1114.66 90.2755L1114.65 90.7754ZM1135.4 91.1245L1135.41 90.6246L1135.41 90.6246L1135.4 91.1245ZM1137.54 93.3333L1137.04 93.3249L1137.04 93.3249L1137.54 93.3333ZM1137.46 93.859L1137.95 93.9895L1137.95 93.9885L1137.46 93.859ZM1161.57 135.607L1161.43 136.089L1161.44 136.09L1161.57 135.607ZM1163.1 138.267L1162.62 138.138L1162.62 138.138L1163.1 138.267ZM1162.9 138.76L1162.47 138.517L1162.47 138.517L1162.9 138.76ZM1152.83 156.903L1153.27 157.146L1153.27 157.146L1152.83 156.903ZM1150.25 157.911L1150.4 157.436L1150.4 157.436L1150.25 157.911ZM1129.74 161.261L1129.48 160.833C1129.17 161.019 1128.86 161.202 1128.55 161.382L1128.8 161.815L1129.05 162.248C1129.36 162.065 1129.68 161.878 1129.99 161.69L1129.74 161.261ZM1128.8 161.815L1128.55 161.382C1115.13 169.131 1099.97 170.664 1086.83 166.832L1086.69 167.312L1086.55 167.792C1099.95 171.702 1115.39 170.132 1129.05 162.248L1128.8 161.815ZM1072.57 142.851L1073.05 142.97C1076.3 129.676 1085.21 117.316 1098.63 109.567L1098.38 109.134L1098.13 108.701C1084.48 116.584 1075.4 129.17 1072.08 142.733L1072.57 142.851ZM1098.38 109.134L1098.63 109.567C1098.94 109.386 1099.26 109.209 1099.57 109.035L1099.33 108.598L1099.09 108.16C1098.77 108.337 1098.45 108.517 1098.13 108.701L1098.38 109.134ZM1112.49 92.5094L1112.98 92.6102C1113.14 91.8227 1113.84 91.2618 1114.64 91.2753L1114.65 90.7754L1114.66 90.2755C1113.38 90.2539 1112.26 91.1497 1112 92.4086L1112.49 92.5094ZM1114.65 90.7754L1114.64 91.2753L1135.39 91.6244L1135.4 91.1245L1135.41 90.6246L1114.66 90.2755L1114.65 90.7754ZM1135.4 91.1245L1135.39 91.6244C1136.32 91.64 1137.05 92.4013 1137.04 93.3249L1137.54 93.3333L1138.04 93.3417C1138.06 91.8658 1136.89 90.6495 1135.41 90.6246L1135.4 91.1245ZM1137.54 93.3333L1137.04 93.3249C1137.03 93.4613 1137.02 93.5975 1136.98 93.7296L1137.46 93.859L1137.95 93.9885C1138 93.7775 1138.03 93.56 1138.04 93.3417L1137.54 93.3333ZM1137.46 93.859L1136.98 93.7286L1134.91 101.377L1135.4 101.507L1135.88 101.638L1137.95 93.9895L1137.46 93.859ZM1153.85 133.474L1153.72 133.956L1161.43 136.089L1161.57 135.607L1161.7 135.125L1153.99 132.992L1153.85 133.474ZM1161.57 135.607L1161.44 136.09C1162.33 136.329 1162.86 137.246 1162.62 138.138L1163.1 138.267L1163.59 138.397C1163.97 136.971 1163.12 135.506 1161.7 135.124L1161.57 135.607ZM1163.1 138.267L1162.62 138.138C1162.58 138.27 1162.53 138.397 1162.47 138.517L1162.9 138.76L1163.34 139.003C1163.45 138.811 1163.53 138.608 1163.59 138.397L1163.1 138.267ZM1162.9 138.76L1162.47 138.517L1152.39 156.661L1152.83 156.903L1153.27 157.146L1163.34 139.002L1162.9 138.76ZM1152.83 156.903L1152.39 156.661C1152 157.364 1151.17 157.69 1150.4 157.436L1150.25 157.911L1150.09 158.385C1151.31 158.79 1152.64 158.27 1153.27 157.146L1152.83 156.903ZM1099.33 108.598L1099.57 109.035C1105.99 105.491 1111.48 99.8949 1112.98 92.6102L1112.49 92.5094L1112 92.4086C1110.58 99.3087 1105.35 104.7 1099.09 108.16L1099.33 108.598ZM1086.69 167.312L1086.83 166.832C1076.64 163.858 1070.53 153.286 1073.05 142.97L1072.57 142.851L1072.08 142.733C1069.43 153.569 1075.84 164.668 1086.55 167.792L1086.69 167.312ZM1129.74 161.261L1129.99 161.69C1136.12 157.997 1143.4 156.166 1150.09 158.385L1150.25 157.911L1150.4 157.436C1143.35 155.093 1135.75 157.051 1129.48 160.833L1129.74 161.261ZM1113.59 135.475L1114.45 134.975C1111.78 130.34 1105.85 128.752 1101.22 131.428L1101.72 132.294L1102.22 133.16C1105.9 131.036 1110.6 132.296 1112.72 135.975L1113.59 135.475ZM1101.72 132.294L1101.22 131.428C1096.58 134.104 1095 140.03 1097.67 144.665L1098.54 144.165L1099.4 143.665C1097.28 139.987 1098.54 135.283 1102.22 133.16L1101.72 132.294ZM1098.54 144.165L1097.67 144.665C1100.35 149.299 1106.27 150.888 1110.91 148.212L1110.41 147.346L1109.91 146.48C1106.23 148.603 1101.53 147.343 1099.4 143.665L1098.54 144.165ZM1110.41 147.346L1110.91 148.212C1115.54 145.536 1117.13 139.609 1114.45 134.975L1113.59 135.475L1112.72 135.975C1114.85 139.653 1113.59 144.356 1109.91 146.48L1110.41 147.346Z" fill="#26BD6C" mask="url(#path-66-outside-2_2212_1183)"/>
<path d="M1083.03 166.166C1084.4 160.881 1083.99 149.469 1071.45 146.104" stroke="#26BD6C"/>
<path d="M1129.03 116.867L1130.83 109.834C1132.35 103.936 1138.04 100.107 1144.07 100.926L1152.47 102.067C1160.25 103.124 1164.94 111.241 1161.96 118.505L1158.75 126.35C1156.44 131.986 1150.28 134.999 1144.42 133.361L1137.42 131.408C1131.13 129.652 1127.4 123.191 1129.03 116.867Z" fill="#072213" stroke="#26BD6C"/>
<path d="M1135.27 100.94L1137.33 102.227C1147.48 108.569 1153.82 119.544 1154.23 131.508L1154.32 133.936" stroke="#26BD6C" stroke-opacity="0.3"/>
<path d="M1129.89 161.127C1136.56 157.041 1150.72 146.125 1154.27 133.904" stroke="#26BD6C"/>
<path d="M1099.49 108.468C1106.37 104.733 1122.79 97.9664 1135.15 101.01" stroke="#26BD6C"/>
</g>
</g>
<defs>
<radialGradient id="paint0_radial_2212_1183" cx="0" cy="0" r="1" gradientUnits="userSpaceOnUse" gradientTransform="translate(576 311.64) rotate(-90) scale(556.792 1612.04)">
<stop stop-color="#D9D9D9" stop-opacity="0"/>
<stop offset="1" stop-color="#737373"/>
</radialGradient>
</defs>
</svg>
