<svg xmlns="http://www.w3.org/2000/svg" width="288" height="233" fill="none" viewBox="0 0 288 233">
    <g clip-path="url(#a)">
        <path stroke="#3a3a3a" d="m152.66-128-433.01 250m441.67-245-433.01 250m441.67-245-433.01 250m441.67-245-433.01 250M187.3-108l-433 250m441.67-245-433.01 250M204.62-98l-433.01 250M213.28-93l-433.01 250M221.94-88l-433.01 250M230.6-83l-433 250M239.26-78l-433.01 250M247.92-73l-433.01 250M256.58-68l-433 250M265.23-63l-433 250M273.9-58l-433 250M282.55-53l-433 250M291.21-48l-433 250M299.88-43l-433.02 250M308.55-38l-433.02 250M317.2-33l-433 250M325.86-28l-433.02 250M334.53-23-98.5 227M343.2-18-89.83 232M351.85-13-81.17 237M360.51-8-72.51 242M369.17-3-63.85 247M377.83 2-55.2 252M386.5 7-46.53 257M395.15 12-37.87 262M403.81 17-29.21 267M412.47 22-20.54 272M421.13 27-11.88 277M429.79 32-3.22 282M438.45 37 5.44 287M447.1 42l-433 250M455.77 47 22.76 297M464.43 52 31.42 302M473.09 57 40.08 307M481.75 62 48.74 312M490.4 67l-433 250M499.07 72 66.06 322M507.73 77 74.72 327M516.39 82 83.38 332M525.05 87 92.04 337M533.7 92l-433 250M542.37 97 109.36 347m441.67-245L118.02 352m441.67-245L126.68 357m441.67-245L135.34 362m0-490 433.01 250M126.68-123l433.01 250M118.02-118l433.01 250M109.36-113l433.01 250M100.7-108l433 250M92.04-103l433.01 250M83.38-98l433.01 250M74.72-93l433.01 250M66.06-88l433.01 250M57.4-83l433 250M48.74-78l433.01 250M40.08-73l433.01 250M31.42-68l433 250M22.77-63l433 250M14.1-58l433 250M5.45-53l433 250M-3.21-48l433 250M-11.87-43l433 250M-20.53-38l433 250M-29.2-33l433.02 250M-37.87-28l433.02 250M-46.53-23 386.5 227M-55.2-18l433.02 250M-63.85-13l433.02 250M-72.51-8l433.02 250M-81.17-3l433.02 250M-89.83 2 343.2 252M-98.5 7l433.02 250M-107.15 12l433.02 250M-115.81 17l433.02 250M-124.48 22l433.02 250M-133.13 27 299.9 277M-141.8 32l433.01 250M-150.45 37l433.01 250M-159.1 42l433 250M-167.77 47l433.01 250M-176.43 52l433.01 250M-185.09 57l433.01 250M-193.75 62l433.01 250M-202.4 67l433 250M-211.07 72l433.01 250M-219.73 77l433.01 250M-228.39 82l433.01 250M-237.05 87l433.01 250M-245.7 92l433 250M-254.37 97l433.01 250m-441.67-245 433.01 250m-441.67-245 433.01 250m-441.67-245 433.01 250M144-133l-433.01 250L144 367l433.01-250z" opacity=".3"/>
        <circle cx="1" cy="1" r="1" fill="#4a4a4a" transform="matrix(.87 .5 0 1 57.43 10.12)"/>
        <path fill="#4a4a4a" d="M57.68 10.56q.27-.14.61.06l92.67-53.5q-.35-.2-.62-.06z"/>
        <path fill="#4a4a4a" d="M59.16 12.12a1.9 1.9 0 0 0-.87-1.5l92.67-53.5c.47.27.86.95.86 1.5z"/>
        <path fill="#4a4a4a" d="M58.9 12.68q.26-.16.26-.56l92.66-53.5q0 .4-.25.56z"/>
        <path fill="#4a4a4a" d="M21.5 30c0-2.2 1.55-4.9 3.46-6L56.14 6c1.91-1.1 3.46-.2 3.46 2v7c0 2.2-1.55 4.9-3.46 6L24.96 39c-1.91 1.1-3.46.2-3.46-2z"/>
        <path fill="#606060" d="M21.5 37c0 1.02.33 1.85 1.01 2.24l-2.6-1.5c-.67-.39-1.01-1.22-1.01-2.24z"/>
        <path fill="#606060" d="M24.96 24a7.7 7.7 0 0 0-3.46 6v7l-2.6-1.5v-7c0-2.2 1.55-4.9 3.46-6z"/>
        <path fill="#606060" d="M53.7 4.4c.84-.42 1.65-.5 2.29-.14l2.6 1.5c-.68-.4-1.57-.27-2.45.24L24.96 24l-2.6-1.5 31.18-18z"/>
        <circle cx="1" cy="1" r="1" fill="#4a4a4a" transform="matrix(.87 .5 0 1 13.49 35.37)"/>
        <path fill="#4a4a4a" d="M13.74 35.8q.27-.13.62.07l6.06-3.5q-.35-.2-.62-.06z"/>
        <path fill="#4a4a4a" d="M15.22 37.37a1.9 1.9 0 0 0-.87-1.5l6.07-3.5c.48.27.86.95.86 1.5z"/>
        <path fill="#4a4a4a" d="M14.97 37.93q.25-.16.25-.56l6.06-3.5q0 .4-.25.56z"/>
        <path fill="#2a2a28" stroke="#606060" d="M1.34 29.09c2.1-1.1 4.25-1.4 6-.49l.19.1 5.2 3-.25.44-.25.43-.27-.14c-1.39-.65-3.19-.44-5.11.6l-.24.14-51.96 30-.27.16a17.6 17.6 0 0 0-5.76 6.29 17 17 0 0 0-2.38 8.13c0 2.47.8 4.32 2.28 5.17l-.2.34-.05.1-.25.43-5.2-3c-1.89-1.1-2.78-3.4-2.78-6.03 0-2.88 1-6.03 2.6-8.8 1.5-2.6 3.55-4.9 5.85-6.36l.46-.28 51.96-30z"/>
        <path fill="#2a2a28" stroke="#606060" d="M6.1 32.32c2.49-1.44 4.85-1.63 6.63-.6s2.79 3.16 2.79 6.03-1 6.02-2.6 8.79-3.83 5.2-6.31 6.64l-51.96 30c-2.49 1.44-4.85 1.64-6.63.61-1.77-1.03-2.78-3.17-2.78-6.04s1-6.01 2.6-8.79 3.82-5.2 6.3-6.64z"/>
        <path fill="#fff" fill-opacity=".7" d="m-45.68 76.72-.77.05 2.68-8.23h.76zm3.56-.81v-6.3l.86-.5v.75a3 3 0 0 1 .68-1.15q.22-.21.47-.36.33-.2.62-.2.3-.01.52.16.22.16.35.54t.13.98a4.6 4.6 0 0 1-.51 2.13 4 4 0 0 1-.52.75q-.3.32-.6.5-.23.12-.44.18a1 1 0 0 1-.38.03 1 1 0 0 1-.3-.14v2.13zm1.78-3.37a1.7 1.7 0 0 0 .68-.75q.15-.28.22-.64.08-.37.08-.84 0-.5-.12-.78-.1-.3-.3-.36-.2-.09-.5.08-.2.11-.4.31-.17.2-.3.48-.14.28-.2.66a5 5 0 0 0-.03 1.36q.04.22.12.36.09.14.19.2t.25.03.3-.12m2.96-5.67.9-.51-.03 1.33-.1-.05q.04-.33.17-.64a3 3 0 0 1 .69-1.08q.22-.22.45-.36.33-.19.6-.21.26-.03.48.11l-.36 1.03-.04.11h-.07l-.05-.13q-.03-.06-.13-.11h-.26a1 1 0 0 0-.28.11 2 2 0 0 0-.75.78 3 3 0 0 0-.35 1.32V71l-.87.5zm5.64 1.48q-.55.32-.97.26a1 1 0 0 1-.68-.46 2 2 0 0 1-.25-1.12 4.6 4.6 0 0 1 .93-2.63q.42-.57.97-.88.54-.3.96-.24.44.07.68.47t.25 1.1-.25 1.39q-.25.68-.68 1.25-.42.55-.96.86m0-.81q.3-.17.52-.5.22-.34.36-.78t.13-.92q0-.48-.13-.77-.13-.28-.36-.35t-.52.1-.53.5q-.22.34-.36.77-.12.44-.13.92 0 .48.13.77.14.28.36.36.23.07.53-.1m4.14-1.57q-.32.19-.63.21a1 1 0 0 1-.52-.16 1 1 0 0 1-.38-.54q-.12-.4-.13-1 0-.63.13-1.15a4 4 0 0 1 .91-1.7q.3-.33.63-.52.24-.14.43-.17a1 1 0 0 1 .35 0q.16.05.26.2v-2.58l.84-.48.07-.05v.1l-.06.16v6.15q.02.16.08.28l-.85.48a1 1 0 0 1-.08-.33v-.19q-.12.28-.27.53a3 3 0 0 1-.78.76m.14-.9q.25-.14.4-.34t.27-.48q.1-.27.16-.6a5 5 0 0 0-.05-1.52q-.09-.32-.3-.39-.2-.09-.51.1-.22.13-.4.33-.16.2-.3.5-.1.26-.17.59-.06.32-.06.68 0 .5.12.82.14.3.35.39.22.07.5-.09m4.07-1.53q-.24.13-.45.18a1 1 0 0 1-.39-.01 1 1 0 0 1-.3-.23 1 1 0 0 1-.19-.46q-.06-.3-.06-.74v-2.69l.86-.49v2.68q0 .36.05.57t.16.3.23.09a1 1 0 0 0 .28-.1q.18-.1.35-.29.16-.17.29-.4t.19-.53.07-.64v-2.61l.86-.5v3.9l.01.38q.02.15.08.3l-.8.47-.07-.18-.02-.2v-.22q-.09.24-.22.46a3 3 0 0 1-.59.71 2 2 0 0 1-.34.24m4.9-2.84q-.43.26-.82.31-.36.03-.65-.12a1 1 0 0 1-.42-.52q-.15-.36-.15-.87 0-.52.15-1.05a5 5 0 0 1 1.07-1.91q.39-.41.82-.66.54-.3.93-.31.41 0 .66.27l-.5.88-.05.11-.05-.03q-.01-.08-.04-.13-.02-.08-.11-.15a.6.6 0 0 0-.38-.03q-.21.05-.48.2-.23.13-.43.36a3 3 0 0 0-.62 1.19q-.1.34-.1.72 0 .36.1.6t.26.35.38.1q.23 0 .47-.16a2 2 0 0 0 .71-.63q.16-.23.31-.52l.48.37a4.4 4.4 0 0 1-1.53 1.63m4.5-2.6q-.36.2-.62.22a.5.5 0 0 1-.4-.2q-.15-.23-.22-.66-.06-.45-.04-1.15l.11-3.39.89-.64.08-.05.01.08-.08.18-.04.27-.09 1.34.04.09-.06 1.63q-.02.69.03 1.03t.2.4.36-.06q.28-.15.5-.41.23-.27.44-.58l.19.63q-.3.42-.61.73-.33.32-.7.53m-2.06-3.54 3.02-1.75v.81l-3.02 1.74zm5.01 2.16-.77.05 2.68-8.24.76.02zm6.3-3.17q-.64.35-1.06.46-.45.1-.67-.16t-.2-.98l.03-.95q0-.4-.08-.57t-.23-.15q-.15 0-.36.13l-.25.15v-.77l.24-.14q.23-.14.38-.31.15-.18.23-.42.08-.26.08-.6l-.01-.79a3 3 0 0 1 .77-2.02q.36-.4.9-.71l.61-.36v.78l-.77.45q-.34.19-.53.53-.17.32-.17.75l.02.78a3 3 0 0 1-.32 1.28q-.15.3-.38.55.22-.01.37.11t.23.36.08.64l-.02.8q0 .37.1.55.1.16.32.13.21-.03.55-.22l.51-.3v.78zm1.92-2v-.79l1-.57V47.1l-.95.55v-.8l1.81-1.05v3.84l.91-.52v.79zm1.38-6.25q-.24.13-.4.05-.15-.1-.15-.36 0-.27.15-.54.16-.27.4-.4.22-.14.39-.04.18.09.17.34 0 .26-.17.54t-.39.4m4.15 3.17q-.32.19-.63.21a1 1 0 0 1-.52-.16 1 1 0 0 1-.38-.54q-.13-.4-.13-1 0-.63.13-1.15a4 4 0 0 1 .91-1.7q.3-.33.64-.52.23-.14.42-.17a1 1 0 0 1 .35 0q.16.05.26.2v-2.58l.84-.48.07-.05v.1l-.06.16v6.15q.03.16.08.28l-.85.48a1 1 0 0 1-.08-.33v-.19q-.12.28-.27.53a3 3 0 0 1-.78.76m.15-.9q.22-.14.4-.34.16-.21.26-.48t.16-.6a5 5 0 0 0-.05-1.52q-.09-.32-.3-.39-.2-.09-.5.1-.25.13-.4.33-.18.2-.3.5-.11.26-.18.59t-.06.68q0 .5.13.82.13.3.34.39.22.07.5-.09m3.03-.16-.38.22v-.78l.5-.29q.35-.2.56-.42t.31-.5q.1-.3.1-.66l-.01-.78q0-.39.08-.73a2.5 2.5 0 0 1 .6-1.16.6.6 0 0 1-.39-.11 1 1 0 0 1-.23-.35 2 2 0 0 1-.08-.57l.02-.8q0-.43-.17-.55t-.53.08l-.77.44v-.78l.61-.36q.53-.3.9-.32.38 0 .57.27.2.27.2.86l-.01.81q0 .35.07.5t.24.16a1 1 0 0 0 .38-.13l.24-.14v.77l-.25.14q-.21.13-.36.3-.15.15-.23.4-.08.26-.08.66l.04.91q0 .7-.21 1.22a3 3 0 0 1-.67.93 6 6 0 0 1-1.05.76"/>
        <circle cx="1" cy="1" r="1" fill="#4a4a4a" transform="matrix(.87 .5 0 1 108.52 30.62)"/>
        <path fill="#4a4a4a" d="M108.78 31.06c.16-.1.39-.07.6.06l110.86-64q-.34-.2-.61-.06zm1.47 1.56a1.9 1.9 0 0 0-.86-1.5l110.85-64c.48.27.86.95.86 1.5z"/>
        <path fill="#4a4a4a" d="M110 33.18q.25-.16.25-.56l110.85-64q0 .4-.25.56zM90.78 40c0-2.2 1.55-4.9 3.46-6l12.13-7c1.9-1.1 3.46-.2 3.46 2v7c0 2.2-1.55 4.9-3.47 6l-12.12 7c-1.91 1.1-3.46.2-3.46-2z"/>
        <path fill="#606060" d="M90.78 47c0 1.02.33 1.85 1.01 2.24l-2.6-1.5c-.67-.39-1.01-1.22-1.01-2.24z"/>
        <path fill="#606060" d="M94.24 34a7.7 7.7 0 0 0-3.46 6v7l-2.6-1.5v-7c0-2.2 1.55-4.9 3.46-6zm9.69-8.6c.83-.42 1.65-.5 2.29-.14l2.6 1.5c-.68-.4-1.57-.27-2.45.24l-12.13 7-2.6-1.5 12.13-7z"/>
        <circle cx="1" cy="1" r="1" fill="#4a4a4a" transform="matrix(.87 .5 0 1 29.07 76.37)"/>
        <path fill="#4a4a4a" d="M29.32 76.8q.27-.13.62.07l58.89-34q-.35-.2-.62-.06zm1.48 1.57a1.9 1.9 0 0 0-.86-1.5l58.89-34c.48.27.86.95.86 1.5zm-.25.56q.25-.16.25-.56l58.9-34q-.01.4-.26.56z"/>
        <path fill="#2a2a28" stroke="#606060" d="M32.52 61.08c2.16-1.13 4.4-1.4 6.2-.37l5.19 3-.25.43-.25.44-.28-.15c-1.43-.66-3.3-.41-5.29.72l-.06.03-39.83 23A17 17 0 0 0-8 94.46a17 17 0 0 0-2.47 8.29v.46c.1 2.24.9 3.92 2.28 4.71l-.25.44-.25.43-5.2-3c-1.9-1.1-2.78-3.4-2.78-6.04l.01-.54a18.6 18.6 0 0 1 2.6-8.25c1.6-2.77 3.81-5.2 6.3-6.64l39.84-23 .42-.24z"/>
        <path fill="#2a2a28" stroke="#606060" d="M37.28 64.32c2.49-1.44 4.85-1.63 6.63-.6 1.77 1.02 2.78 3.16 2.78 6.03s-1 6.02-2.6 8.79-3.82 5.2-6.3 6.64l-39.84 23c-2.49 1.44-4.85 1.64-6.63.61-1.77-1.03-2.78-3.17-2.78-6.04s1-6.01 2.6-8.79 3.82-5.2 6.3-6.64z"/>
        <path fill="#fff" fill-opacity=".7" d="m-2.38 101.73-.77.04 2.68-8.23h.76zm5.55-3.53q-.44.26-.83.31-.36.03-.65-.12a1 1 0 0 1-.42-.52q-.15-.36-.15-.87 0-.52.15-1.05a5 5 0 0 1 1.07-1.91q.39-.41.82-.66.54-.3.93-.31.41 0 .66.27l-.5.88-.05.11-.05-.03q-.01-.08-.04-.13-.02-.08-.11-.14a.6.6 0 0 0-.38-.03q-.21.03-.48.19-.23.13-.43.36a3 3 0 0 0-.62 1.19q-.1.34-.1.72 0 .36.1.6t.26.36.38.1.47-.16a2 2 0 0 0 .71-.64q.16-.24.31-.52l.48.37a4.4 4.4 0 0 1-1.53 1.64m3.64-2.1q-.66.39-1.04.25-.36-.15-.36-.72 0-.37.15-.77.15-.39.43-.78.29-.38.68-.73a5 5 0 0 1 1.37-.9l.28-.14.03.7a4 4 0 0 0-.52.25l-.25.14a4 4 0 0 0-1 .8q-.14.2-.23.4-.07.21-.07.42 0 .17.05.27t.14.11.21-.02q.13-.04.28-.12a2 2 0 0 0 .87-.94q.15-.3.23-.67a4 4 0 0 0-.04-1.7q-.13-.27-.34-.27-.23 0-.56.2-.29.15-.54.42-.25.24-.5.66l-.45-.33a5 5 0 0 1 1.53-1.57q.38-.22.7-.3a1 1 0 0 1 .57.02q.26.09.38.42.14.33.14.97v2.58l-.9.53v-.58q-.11.27-.25.49a3 3 0 0 1-.99.91m3.44-6.72.9-.52-.02 1.33-.1-.05q.04-.33.16-.64a3 3 0 0 1 .69-1.08q.22-.22.45-.36.33-.19.6-.21.27-.03.48.11L13.05 89l-.04.11h-.07l-.05-.13q-.03-.06-.13-.11h-.26a1 1 0 0 0-.28.11 2 2 0 0 0-.75.78 3 3 0 0 0-.34 1.32v2.44l-.88.5zm6.06 1.22q-.35.2-.61.22a.5.5 0 0 1-.4-.2q-.15-.22-.22-.67-.06-.44-.04-1.14l.11-3.39.89-.64.08-.06.01.09-.08.19-.04.26-.09 1.34.04.09-.06 1.63q-.02.68.03 1.04.06.33.21.4.15.05.35-.07.28-.16.5-.41.23-.27.44-.58l.2.63q-.3.42-.62.73-.33.33-.7.53m-2.05-3.54 3.02-1.75v.81l-3.02 1.74zm5.01 2.16-.77.05 2.68-8.23h.76zm6.3-3.17q-.64.35-1.06.45-.45.1-.67-.15-.23-.26-.2-.98l.03-.95q0-.4-.08-.56t-.23-.16-.36.13l-.25.15v-.77l.24-.14q.23-.14.38-.31.15-.18.23-.43.09-.24.08-.59l-.01-.79a3 3 0 0 1 .77-2.02q.36-.4.9-.72l.61-.35v.78l-.77.44q-.34.21-.53.54-.17.31-.17.75l.02.78a3 3 0 0 1-.32 1.28q-.15.3-.38.55.22-.01.37.11t.23.36q.08.25.08.64l-.02.8q0 .37.1.55.1.16.32.13.21-.03.55-.22l.51-.3v.78zm1.92-2v-.79l1-.58v-3.05l-.95.56v-.8l1.82-1.05v3.84l.9-.52v.79zm1.38-6.25q-.24.13-.4.05-.15-.1-.15-.35 0-.27.15-.55.16-.26.4-.4.22-.14.39-.04.18.09.17.34t-.17.54q-.16.28-.39.4m4.15 3.17q-.32.19-.63.21a1 1 0 0 1-.52-.16 1 1 0 0 1-.38-.54q-.12-.4-.13-1 0-.63.13-1.15a4 4 0 0 1 .91-1.7q.3-.34.64-.52.23-.14.42-.17a1 1 0 0 1 .36 0q.15.05.25.2v-2.58l.84-.48.07-.05v.1l-.06.16v6.15q.03.16.08.28l-.85.48a1 1 0 0 1-.08-.33v-.19q-.12.28-.27.53a3 3 0 0 1-.78.76m.15-.9q.22-.14.4-.34.16-.21.26-.48t.16-.6a5 5 0 0 0-.05-1.53q-.09-.3-.3-.38t-.5.1q-.24.13-.4.33-.18.2-.3.5-.11.26-.18.58-.06.33-.06.69 0 .5.13.82.13.3.34.39.22.07.5-.09m3.03-.16-.38.22v-.77l.5-.3q.36-.2.56-.42.22-.21.31-.5.1-.3.1-.66l-.01-.78q0-.39.08-.73a2.5 2.5 0 0 1 .6-1.16.6.6 0 0 1-.39-.11 1 1 0 0 1-.23-.34 2 2 0 0 1-.08-.58l.02-.8q0-.43-.17-.55t-.53.07l-.77.45v-.78l.61-.36q.52-.3.9-.31.38-.03.57.25.2.28.2.87l-.01.81q0 .35.07.5t.24.16a1 1 0 0 0 .38-.13l.24-.14v.77l-.25.14q-.21.12-.36.3-.15.15-.23.4a2 2 0 0 0-.08.66l.04.91q0 .7-.21 1.22a3 3 0 0 1-.67.92 6 6 0 0 1-1.05.77"/>
        <circle cx="1" cy="1" r="1" fill="#faff69" transform="matrix(.87 .5 0 1 176.84 42.12)"/>
        <path fill="#faff69" d="M177.09 42.56q.27-.14.61.06l77.94-45q-.34-.2-.6-.06z"/>
        <path fill="#faff69" d="M178.57 44.12a1.9 1.9 0 0 0-.87-1.5l77.94-45c.48.27.87.95.87 1.5z"/>
        <path fill="#faff69" d="M178.31 44.68q.26-.16.26-.56l77.94-45q0 .4-.25.56z"/>
        <path fill="#353624" d="M148.7 57.5v7c0 1.03.34 1.86 1.01 2.25l-2.6-1.5c-.67-.4-1-1.22-1-2.25v-7.23a7.7 7.7 0 0 1 3.45-5.77l22.52-13c.9-.5 1.77-.63 2.45-.24l2.6 1.5c-.63-.36-1.45-.28-2.27.15l-.18.1-22.52 13a7.7 7.7 0 0 0-3.46 6"/>
        <path stroke="#faff69" d="M148.7 57.5v7c0 1.03.34 1.86 1.01 2.25l-2.6-1.5c-.67-.4-1-1.22-1-2.25v-7.23a7.7 7.7 0 0 1 3.45-5.77l22.52-13c.9-.5 1.77-.63 2.45-.24l2.6 1.5c-.63-.36-1.45-.28-2.27.15l-.18.1-22.52 13a7.7 7.7 0 0 0-3.46 6"/>
        <path fill="#353624" stroke="#faff69" d="M148.7 57.5c0-2.2 1.55-4.9 3.47-6l22.51-13c1.91-1.1 3.47-.2 3.47 2v7c0 2.2-1.56 4.9-3.47 6l-22.51 13c-1.92 1.1-3.47.2-3.47-2z"/>
        <circle cx="1" cy="1" r="1" fill="#faff69" transform="matrix(.87 .5 0 1 80.06 97.87)"/>
        <path fill="#faff69" d="M80.32 98.3q.27-.13.61.07l66.68-38.5q-.34-.2-.6-.06zm1.48 1.57c0-.55-.4-1.23-.87-1.5l66.68-38.5c.48.27.87.95.87 1.5zm-.26.56q.26-.16.26-.56l66.68-38.5q0 .4-.25.56z"/>
        <path fill="#353624" stroke="#faff69" d="M71.55 89.05c2.16-1.12 4.4-1.4 6.19-.37l5.2 3-.5.87-.29-.15c-1.42-.66-3.3-.4-5.28.72l-.06.04-34.64 20a17 17 0 0 0-5.94 6.28 17 17 0 0 0-2.47 8.28l.01.46c.1 2.24.9 3.92 2.28 4.72l-.5.86-5.2-3c-1.91-1.1-2.79-3.4-2.79-6.04l.02-.54a18.6 18.6 0 0 1 2.59-8.24c1.6-2.77 3.82-5.22 6.3-6.65l34.65-20 .42-.23z"/>
        <path fill="#353624" stroke="#faff69" d="M76.31 92.29c2.48-1.43 4.85-1.63 6.63-.6 1.77 1.02 2.78 3.17 2.78 6.03s-1 6.02-2.6 8.79a18 18 0 0 1-6.3 6.65l-34.65 20c-2.48 1.43-4.85 1.63-6.62.6s-2.79-3.17-2.79-6.04 1-6.01 2.6-8.78 3.83-5.22 6.31-6.65z"/>
        <path fill="#faff69" d="m41.29 126.58-.78.04 2.68-8.23h.76zm5.54-3.52q-.45.25-.82.3-.38.03-.65-.12a1 1 0 0 1-.43-.52q-.15-.36-.15-.87 0-.53.15-1.05a5 5 0 0 1 1.08-1.91q.38-.41.8-.66.55-.3.94-.31.42 0 .66.27l-.5.89-.05.1-.05-.03q0-.08-.04-.13-.02-.08-.11-.14a.6.6 0 0 0-.38-.03q-.21.03-.48.19-.23.13-.43.36a3 3 0 0 0-.62 1.18q-.1.36-.1.73 0 .36.1.6t.26.36.38.1.47-.17a2 2 0 0 0 .71-.64q.17-.21.31-.5l.48.36a4.4 4.4 0 0 1-1.53 1.64m2.42-8.2.85-.5.09-.05v.1l-.07.17-.01.24v2.28a3.6 3.6 0 0 1 1.22-1.5q.38-.21.66-.17t.44.37.16 1.03v2.79l-.85.49v-2.78q0-.43-.08-.64t-.22-.24-.33.07q-.15.1-.3.23a2.5 2.5 0 0 0-.7 1.64v2.66l-.86.5zm6.15 3.25q-.43.24-.8.3-.36.05-.63-.1-.25-.15-.4-.53-.15-.36-.15-.93a4 4 0 0 1 .54-2.11q.27-.47.6-.83.35-.37.74-.6.33-.18.64-.23.3-.03.54.11.22.14.36.48.14.35.14.9v.24l-.01.21-2.72 1.57q.01.35.12.56.1.2.26.28a.6.6 0 0 0 .37.03q.21-.03.44-.16.2-.12.36-.25a3 3 0 0 0 .61-.78l.46.25a4 4 0 0 1-1.46 1.59m-1.13-2.28 1.87-1.08q0-.28-.06-.45a.5.5 0 0 0-.18-.26.4.4 0 0 0-.28-.06 1 1 0 0 0-.37.13 2 2 0 0 0-.64.65 3 3 0 0 0-.34 1.07m5.55-.27q-.45.25-.82.3-.38.03-.65-.12a1 1 0 0 1-.43-.52q-.15-.36-.15-.87 0-.53.15-1.05a5 5 0 0 1 1.08-1.91q.38-.41.81-.66.54-.3.93-.31.42 0 .66.27l-.5.89-.05.1-.05-.03q0-.08-.04-.13-.01-.08-.11-.14a.6.6 0 0 0-.38-.03q-.21.03-.48.19-.23.13-.43.36a3 3 0 0 0-.62 1.18q-.1.36-.1.73 0 .36.1.6t.26.36.39.1q.22-.03.46-.17a2 2 0 0 0 .71-.64q.17-.21.31-.5l.48.36a4.4 4.4 0 0 1-1.53 1.64m3.65-4.4-.4.67v1.73l-.86.5v-6.69l.86-.49.08-.05v.09l-.07.17v3.68l1.7-2.84.12-.05.14-.06.15-.07.12-.08.39-.22-1.62 2.75 1.85 1.72-1 .61zm4.74-.46q-.55.32-.97.26a1 1 0 0 1-.68-.46 2 2 0 0 1-.25-1.11 4.6 4.6 0 0 1 .93-2.64q.42-.57.97-.88.54-.31.96-.23.44.05.69.46.25.4.25 1.1t-.25 1.39-.69 1.24q-.42.56-.96.87m0-.81q.3-.17.52-.5.24-.34.36-.78.13-.44.13-.92t-.13-.77-.36-.35q-.22-.07-.52.1t-.53.5-.35.77-.13.92.13.77q.12.28.35.37.23.06.53-.11m4.03-1.5q-.25.14-.46.18a1 1 0 0 1-.38-.01 1 1 0 0 1-.3-.23 1 1 0 0 1-.2-.47q-.06-.3-.06-.73l.01-2.69.85-.48v2.68q0 .35.05.56t.16.3q.1.1.23.09a1 1 0 0 0 .28-.1q.19-.11.35-.28a2 2 0 0 0 .48-.94q.07-.3.07-.64v-2.61l.87-.5v4.28l.08.3-.8.47-.06-.18-.03-.2v-.22q-.09.25-.22.46a3 3 0 0 1-.59.71q-.15.14-.33.25m5.05-2.95a2 2 0 0 1-.61.23.5.5 0 0 1-.4-.2q-.15-.23-.22-.66-.06-.45-.04-1.15l.11-3.38.89-.64.08-.06.01.08-.08.19-.04.26-.09 1.34.04.09-.06 1.63q-.02.69.03 1.03t.21.4.36-.06q.28-.16.49-.42.23-.25.44-.57l.2.63q-.3.42-.62.73-.33.33-.7.53m-2.05-3.53 3.02-1.74v.8l-3.02 1.74z"/>
        <circle cx="1" cy="1" r="1" fill="#faff69" transform="matrix(.87 .5 0 1 21.02 131.87)"/>
        <path fill="#faff69" d="M21.27 132.3q.27-.13.62.07l8.66-5q-.35-.2-.61-.06z"/>
        <path fill="#faff69" d="M22.75 133.87a1.9 1.9 0 0 0-.86-1.5l8.66-5c.48.27.86.95.86 1.5z"/>
        <path fill="#faff69" d="M22.5 134.43q.25-.16.25-.56l8.66-5q0 .4-.25.56z"/>
        <circle cx="1" cy="1" r="1" fill="#4a4a4a" transform="matrix(.87 .5 0 1 220.14 67.12)"/>
        <path fill="#4a4a4a" d="M220.39 67.56c.17-.1.4-.07.61.06l95.26-55q-.35-.2-.6-.06z"/>
        <path fill="#4a4a4a" d="M221.87 69.12a1.9 1.9 0 0 0-.87-1.5l95.26-55c.48.27.87.95.87 1.5z"/>
        <path fill="#4a4a4a" d="M221.62 69.68q.25-.16.25-.56l95.26-55q0 .4-.25.56z"/>
        <path fill="#4a4a4a" d="M217.12 68c0-2.2 1.55-4.9 3.47-6l3.46-2c1.91-1.1 3.46-.2 3.46 2v7c0 2.2-1.55 4.9-3.46 6l-3.46 2c-1.92 1.1-3.47.2-3.47-2z"/>
        <path fill="#606060" d="M217.12 75c0 1.02.34 1.85 1.02 2.24l-2.6-1.5c-.68-.39-1.01-1.22-1.01-2.24z"/>
        <path fill="#606060" d="M220.59 62a7.7 7.7 0 0 0-3.47 6v7l-2.6-1.5v-7c0-2.2 1.55-4.9 3.47-6z"/>
        <path fill="#606060" d="m224.05 60-3.46 2-2.6-1.5 3.46-2z"/>
        <path fill="#606060" d="M226.5 59.76c-.68-.4-1.56-.27-2.45.24l-2.6-1.5c.89-.51 1.78-.63 2.45-.24z"/>
        <circle cx="1" cy="1" r="1" fill="#4a4a4a" transform="matrix(.87 .5 0 1 123.36 122.87)"/>
        <path fill="#4a4a4a" d="M123.62 123.3q.27-.13.61.07l91.8-53q-.34-.2-.61-.06zm1.48 1.57c0-.55-.4-1.23-.87-1.5l91.8-53c.48.27.87.95.87 1.5zm-.26.56q.26-.16.26-.56l91.8-53q0 .4-.26.56z"/>
        <path fill="#2a2a28" stroke="#606060" d="M124.38 108.55c2.15-1.12 4.4-1.4 6.19-.37l5.2 3-.5.87-.29-.15c-1.43-.66-3.3-.4-5.29.72l-.05.04-44.17 25.5a17 17 0 0 0-5.94 6.28 17 17 0 0 0-2.47 8.28l.01.46c.1 2.24.9 3.92 2.28 4.72l-.5.86-5.2-3c-1.91-1.1-2.78-3.4-2.78-6.04v-.54a18.6 18.6 0 0 1 2.6-8.24c1.6-2.77 3.82-5.22 6.3-6.65l44.17-25.5h.01l.42-.23Z"/>
        <path fill="#2a2a28" stroke="#606060" d="M129.14 111.8c2.48-1.44 4.85-1.64 6.62-.62 1.78 1.03 2.79 3.18 2.79 6.04 0 2.87-1 6.02-2.6 8.79s-3.83 5.21-6.31 6.65l-44.17 25.5c-2.48 1.43-4.85 1.63-6.62.6s-2.79-3.17-2.79-6.04 1-6.01 2.6-8.78 3.83-5.22 6.31-6.65z"/>
        <path fill="#fff" fill-opacity=".7" d="m84.59 151.57-.77.05 2.67-8.24.76.02zm5.27-3.37q-.55.32-.97.26a1 1 0 0 1-.68-.46 2 2 0 0 1-.25-1.12 4.6 4.6 0 0 1 .93-2.63q.42-.57.97-.88.54-.3.96-.24.44.07.69.47t.25 1.1-.25 1.39-.69 1.25-.96.86m0-.81q.3-.17.52-.5.24-.34.36-.78.13-.44.13-.92t-.13-.77q-.12-.28-.36-.35-.22-.07-.52.1t-.53.5-.35.77q-.13.44-.13.93 0 .47.13.76.12.28.35.37.23.06.53-.11m3.02-5.66.9-.52-.02 1.33-.1-.05q.03-.33.16-.64a3 3 0 0 1 .7-1.07q.21-.24.44-.37.33-.19.6-.21.27-.03.48.11l-.36 1.03-.03.11h-.07l-.06-.13q-.02-.06-.13-.11h-.26a1 1 0 0 0-.28.11q-.22.12-.4.33a2.7 2.7 0 0 0-.68 1.77v2.44l-.89.5zm5.45 1.59q-.32.19-.62.21a1 1 0 0 1-.53-.16 1 1 0 0 1-.37-.54q-.14-.4-.13-1 0-.63.13-1.15a4 4 0 0 1 .9-1.7q.3-.34.64-.52.23-.14.42-.18a1 1 0 0 1 .36.01q.15.05.25.2v-2.58l.84-.48.08-.05v.1l-.06.16q-.03.08-.01.25v5.9q.03.16.08.28l-.85.49a1 1 0 0 1-.07-.34v-.19q-.13.28-.28.53a3 3 0 0 1-.78.76m.15-.9q.23-.14.4-.34.16-.21.26-.48t.16-.6a5 5 0 0 0-.04-1.53q-.1-.3-.3-.38-.2-.1-.52.1-.22.13-.4.34-.17.2-.29.48t-.17.6q-.06.32-.06.68 0 .5.12.82.13.3.34.39.22.08.5-.09m4.55-1.81q-.43.24-.8.3-.36.05-.63-.1-.25-.15-.4-.53-.15-.36-.15-.93a4 4 0 0 1 .55-2.11q.25-.47.6-.83.33-.37.73-.6.33-.19.64-.22.3-.05.54.1.23.14.36.49.14.33.14.9v.22l-.01.22-2.72 1.57q.02.35.12.56.1.2.26.28.16.07.37.03.21-.03.44-.17.2-.11.36-.25a3 3 0 0 0 .62-.77l.45.25a4 4 0 0 1-1.46 1.58m-1.13-2.28 1.87-1.08q0-.28-.06-.46a.5.5 0 0 0-.18-.25.4.4 0 0 0-.28-.06 1 1 0 0 0-.36.13 2 2 0 0 0-.65.65 3 3 0 0 0-.34 1.07m3.97-4.1.9-.52-.02 1.33-.1-.05q.03-.33.16-.64a3 3 0 0 1 .7-1.07q.2-.24.44-.37.33-.19.6-.21.27-.03.48.11l-.36 1.03-.03.11h-.07l-.06-.13q-.02-.06-.13-.11h-.25a1 1 0 0 0-.3.11q-.2.12-.4.33a2 2 0 0 0-.35.45q-.15.28-.25.61-.08.32-.08.71v2.44l-.88.5zm4.7 2.34-.77.05 2.67-8.24.76.02zm6.28-3.17q-.61.35-1.05.45t-.67-.15-.2-.98l.03-.95q0-.4-.08-.56-.08-.18-.23-.16-.15 0-.36.13l-.25.15v-.77l.24-.14q.23-.14.38-.31.16-.18.24-.43t.07-.59l-.01-.79a3 3 0 0 1 .77-2.02q.37-.4.9-.72l.61-.35v.78l-.77.45q-.34.19-.53.53-.17.31-.17.75l.02.78a3 3 0 0 1-.31 1.28q-.15.3-.38.55.21-.01.36.11t.23.37.08.63l-.02.8q0 .38.1.54.1.18.32.14.21-.03.55-.22l.52-.3v.78zm1.94-2v-.79l1-.58v-3.05l-.96.55v-.78l1.82-1.06v3.84l.9-.52v.79zm1.37-6.26q-.23.14-.4.05-.15-.1-.15-.34 0-.27.15-.54.15-.28.4-.42.22-.13.4-.03.16.09.16.34t-.17.54q-.16.27-.39.4m4.15 3.18q-.32.19-.62.21a1 1 0 0 1-.53-.16q-.24-.16-.37-.54a5 5 0 0 1 0-2.15 4 4 0 0 1 .9-1.7q.3-.34.64-.52.23-.14.42-.17a1 1 0 0 1 .36 0q.15.05.25.2v-2.57l.84-.49.08-.05v.1l-.06.16-.01.25v5.9q.03.16.08.27l-.85.5a1 1 0 0 1-.07-.34v-.19q-.13.28-.28.53a3 3 0 0 1-.78.76m.15-.9q.23-.14.4-.34.16-.21.27-.48.1-.27.15-.6a5 5 0 0 0-.04-1.53q-.1-.3-.3-.38-.2-.1-.52.1-.22.13-.4.34-.16.21-.29.48-.11.27-.17.6t-.06.68q0 .5.12.82.13.3.34.39.22.07.5-.08m3.03-.17-.38.22v-.77l.5-.29q.35-.2.56-.42t.32-.5q.1-.3.1-.66l-.02-.78q0-.39.08-.72a2.5 2.5 0 0 1 .6-1.17 1 1 0 0 1-.38-.11 1 1 0 0 1-.24-.34 2 2 0 0 1-.08-.58l.02-.8q0-.43-.17-.55t-.53.08l-.77.44v-.78l.61-.35q.54-.3.9-.33.37 0 .58.27t.2.86l-.02.81q0 .35.08.5t.23.16a1 1 0 0 0 .38-.13l.24-.14v.77l-.25.14q-.21.13-.36.3a1 1 0 0 0-.23.4q-.07.26-.07.66l.03.91q.01.7-.2 1.22a3 3 0 0 1-.67.93q-.45.4-1.06.75"/>
        <circle cx="1" cy="1" r="1" fill="#4a4a4a" transform="matrix(.87 .5 0 1 64.32 156.87)"/>
        <path fill="#4a4a4a" d="M64.58 157.3c.16-.09.39-.06.6.07l8.67-5q-.34-.2-.61-.06zm1.47 1.57a1.9 1.9 0 0 0-.86-1.5l8.66-5c.48.27.86.95.86 1.5z"/>
        <path fill="#4a4a4a" d="M65.8 159.43q.25-.16.25-.56l8.66-5q0 .4-.25.56z"/>
        <circle cx="1" cy="1" r="1" fill="#4a4a4a" transform="matrix(.87 -.5 0 1 103.38 180.37)"/>
        <path fill="#4a4a4a" d="M103.38 181.37q0 .4.26.56l-204.39-118q-.25-.16-.25-.56z"/>
        <path fill="#4a4a4a" d="M103.38 181.37c0-.55.39-1.23.87-1.5l-204.38-118a1.9 1.9 0 0 0-.87 1.5z"/>
        <path fill="#4a4a4a" d="M104.86 179.8q-.27-.13-.61.07l-204.38-118q.34-.2.6-.06z"/>
        <g clip-path="url(#b)">
            <path fill="#4a4a4a" d="M86 189 383.91 17l18.19 10.5-297.91 172z"/>
            <path stroke="#bebebd" stroke-linecap="round" stroke-linejoin="round" d="M111.55 187.75v-3h-5.2"/>
            <path fill="#bebebd" d="M130.7 177.3q-.64.38-1.4.44-.77.08-1.62-.16a7 7 0 0 1-1.74-.74q-.87-.51-1.26-.99-.4-.5-.29-.94.13-.45.76-.81.66-.38 1.42-.44.78-.08 1.62.16.85.22 1.73.72.9.53 1.28 1.02.4.48.28.93-.13.44-.78.81m-.7-.4q.36-.2.38-.49 0-.29-.3-.62a6 6 0 0 0-2.27-1.31q-.6-.2-1.1-.19-.5 0-.85.21-.36.2-.37.5 0 .28.32.63.33.33.98.71.7.4 1.29.6.6.18 1.07.18.5-.03.85-.22m5.3-2.25a4 4 0 0 1-2.06.51q-.55 0-1.08-.13a4 4 0 0 1-.98-.4q-.45-.26-.68-.56a1 1 0 0 1-.25-.63q-.01-.33.2-.63.22-.32.65-.57.54-.3 1.14-.43.6-.12 1.22-.05l.02.59v.06h-.1l-.16-.05-.3-.04q-.33 0-.6.1-.27.08-.54.23a1 1 0 0 0-.34.3.6.6 0 0 0-.09.38q.03.2.2.4.16.2.48.39a3 3 0 0 0 1.36.37q.33 0 .66-.06a2 2 0 0 0 .88-.45 1 1 0 0 0 .2-.29q.04-.16.02-.34l1.03.04a1 1 0 0 1-.23.7q-.24.32-.66.56m4.46-2.6q-.35.2-.72.29a2 2 0 0 1-.8.01 4 4 0 0 1-.88-.26 9 9 0 0 1-1.05-.56l-2.77-1.73.78-.58.07-.05.09.04.04.11q.04.06.17.15l1.03.7.13.03 1.31.83q.57.35.96.51.38.15.66.14.27-.02.47-.14.28-.16.38-.34.12-.2.17-.42l.83.26q-.08.3-.29.55-.2.24-.58.46m-6.14-1.18 3.03-1.74.68.4-3.01 1.75zm14.28-3.5a4.4 4.4 0 0 1-2.23.56l-.17-.64-.02-.07h.11l.17.05q.1.03.29.03.3-.01.58-.09.28-.06.54-.22.3-.17.39-.35a.4.4 0 0 0-.03-.36q-.1-.2-.38-.34a1.8 1.8 0 0 0-1.77-.06q-.3.13-.61.35l-.68-.39q.4-.22.6-.41.18-.2.2-.34a.4.4 0 0 0-.1-.28 1 1 0 0 0-.28-.24 1.5 1.5 0 0 0-1.45 0q-.18.1-.3.22a1 1 0 0 0-.2.28 1 1 0 0 0-.06.3h-1a1 1 0 0 1 .22-.68q.26-.3.65-.53a3.2 3.2 0 0 1 2-.4q.52.06.92.29.3.17.43.38.14.2.12.41a1 1 0 0 1-.18.4 3.4 3.4 0 0 1 1.6-.08q.4.08.78.29.45.26.6.59t-.02.68q-.17.33-.72.65m4.05-2.44-4.44-2.57-.68.78-.73-.2.68-1.27.62-.36 5.4 3.12zm8.66-5-4.44-2.57-.68.78-.73-.2.68-1.27.62-.36 5.4 3.12zm2.37-2.12.01-1q0-.45-.02-.8a3 3 0 0 0-.08-.63 1 1 0 0 0-.25-.48 2 2 0 0 0-.47-.4 2 2 0 0 0-.84-.23q-.21 0-.41.06a2 2 0 0 0-.7.41 1 1 0 0 0-.18.27 1 1 0 0 0-.02.3.4.4 0 0 0 .08.17q.04.05.12.08l.02.06-.12.01-1.05.08q-.15-.3-.12-.59.05-.3.27-.56t.6-.47q.46-.28 1.02-.38t1.13-.03q.56.08 1.04.35a2 2 0 0 1 .85.97q.09.29.13.62.03.33.03.7v.81l1.8-1.03.2-.13.04-.1.08-.05.08.05.71.4-3.3 1.91zm3.9-4.47q-.24.14-.6.14a1 1 0 0 1-.6-.14q-.25-.15-.25-.35 0-.21.25-.35.23-.14.6-.14.36 0 .62.13.24.15.24.36t-.25.35m2.67 1.54q-.25.15-.6.15a1 1 0 0 1-.6-.15q-.25-.14-.25-.35t.24-.35.6-.14q.38 0 .63.14.24.13.24.34t-.26.36m4.75-2.86-1.29-.75-2.2 1.27-.58-.33-1.15-3.42.66-.37 3.42 1.97.7-.4.7.4-.7.4 1.28.75zm-3.3-.39 1.33-.76-2.03-1.17zm7.41-1.87q-.56.32-1.27.37-.7.04-1.5-.17a7 7 0 0 1-2.92-1.75q-.43-.54-.33-1t.67-.8q.36-.2.82-.32.46-.14 1-.13l.08.59v.07h-.1l-.17-.03h-.3l-.18.05-.18.07a1 1 0 0 0-.43.28.6.6 0 0 0-.14.61q.06.18.29.41t.65.5a1 1 0 0 1 0-.33q.06-.17.19-.31.13-.15.32-.28.33-.18.7-.27a3 3 0 0 1 1.7.05q.46.12.88.37.54.3.74.67.21.38.09.72-.14.35-.6.63m-.67-.42a1 1 0 0 0 .23-.23.4.4 0 0 0 .03-.29 1 1 0 0 0-.18-.3q-.15-.17-.42-.32t-.55-.23a2 2 0 0 0-1-.05q-.2.05-.36.14a1 1 0 0 0-.22.18l-.11.22-.02.23.08.26a4 4 0 0 0 1.33.52q.34.06.64.03.32-.03.55-.16m2.14-3.5q-.25.14-.6.14a1 1 0 0 1-.62-.14q-.24-.15-.24-.35 0-.21.25-.35.22-.14.6-.14.36 0 .62.13.24.15.24.36t-.25.35m2.66 1.54q-.25.15-.6.15-.36 0-.6-.15-.25-.14-.25-.35t.24-.35.6-.14q.39 0 .63.14.24.13.24.34t-.26.36m1.6-2.79-.5-2.95.74.22.49 2.94zm2.85.22q-.56.3-1.28.37-.72.04-1.55-.19a8 8 0 0 1-3.01-1.74q-.4-.48-.34-.9.07-.43.63-.75t1.29-.35q.74-.05 1.56.19a7.5 7.5 0 0 1 3 1.74q.42.47.33.89-.07.41-.63.74m-.67-.39q.31-.18.29-.44-.04-.28-.4-.61a8 8 0 0 0-2.25-1.3 4 4 0 0 0-1.04-.22q-.47-.04-.8.15-.3.18-.26.46.03.26.39.6t1 .71q.68.38 1.25.59.58.2 1.05.22.45.02.77-.16m2.64-1.6.01-1.01q0-.45-.02-.8a3 3 0 0 0-.08-.63 1 1 0 0 0-.25-.48 2 2 0 0 0-.47-.4 2 2 0 0 0-.84-.23q-.22 0-.4.06a2 2 0 0 0-.71.41 1 1 0 0 0-.17.27 1 1 0 0 0-.03.3.4.4 0 0 0 .08.17q.05.05.12.08l.02.06-.12.01-1.04.08a1 1 0 0 1-.12-.59q.03-.3.26-.56.22-.26.6-.47.47-.28 1.02-.38.57-.1 1.13-.03t1.04.35a2 2 0 0 1 .85.97q.09.29.13.62.03.33.03.7v.81l1.8-1.03.2-.13.04-.1.08-.05.08.05.71.4-3.3 1.91zm9.2-4.57-5.4-3.12 1.81-1.04a3.6 3.6 0 0 1 2.38-.47q.54.09.97.34.32.18.49.4.18.22.17.47t-.2.5q-.22.25-.67.51l-.98.57 2.3 1.33zM196 136l.91-.53q.32-.18.43-.35.1-.18.02-.35a1 1 0 0 0-.32-.3 2 2 0 0 0-.52-.19 2 2 0 0 0-.6.02q-.3.05-.62.23l-.92.53zm6.34-.18-5.4-3.11.73-.42 3.67.8-1.37-2.13.72-.42 5.4 3.12-.75.44-3.87-2.24 1.1 1.73-.4.23-2.94-.65 3.86 2.23zm25.6-14.77-.68-.4 1-.57-2.65-1.52-.95.55-.69-.4 1.82-1.05 3.33 1.92.9-.52.7.39zm-3.35-3.52q-.24.12-.55.14-.33 0-.54-.14-.24-.13-.24-.31t.25-.32q.22-.13.55-.13t.56.12.2.32q0 .18-.23.32m7.42 1.17-4-2.31.86-.5.61.35a1 1 0 0 1-.04-.4 1 1 0 0 1 .16-.38q.14-.18.4-.33.33-.2.8-.27.45-.06 1 .06.53.1 1.14.45l2.41 1.4-.85.5-2.41-1.4a3 3 0 0 0-.66-.29 2 2 0 0 0-.55-.05q-.24 0-.44.13a1 1 0 0 0-.27.25q-.1.15-.1.3-.02.16.1.33.1.15.34.3l2.37 1.36zm1.75-4.85-.86.5-.68-.4.86-.5-.27-.15q-.54-.3-.67-.63a.7.7 0 0 1 .07-.64q.2-.32.62-.56a3.3 3.3 0 0 1 1.88-.44l.23.55.03.06-.1.02a1 1 0 0 0-.49-.07q-.26.02-.44.08t-.38.16q-.24.15-.33.3-.08.15.01.33.09.17.42.35l.27.16 1.24-.72.69.39-1.25.72 3.32 1.92-.84.49zm8.64-1.05q-.54.32-1.23.41-.7.09-1.4-.03a4 4 0 0 1-1.35-.49q-.6-.35-.82-.77a1 1 0 0 1-.07-.81q.15-.42.7-.72.52-.31 1.23-.4a4.6 4.6 0 0 1 2.75.51q.61.35.83.77.23.42.06.82-.16.4-.7.71m-.7-.4q.3-.18.35-.4.05-.25-.13-.5a2 2 0 0 0-.6-.5 3 3 0 0 0-.86-.34q-.45-.11-.85-.08-.4.05-.7.2-.3.18-.35.41-.06.22.13.48.18.26.6.5a3 3 0 0 0 1.71.43q.4-.04.7-.2m32.7-18.17-5.4-3.12 3.43-1.98.7.4-2.6 1.52 1.52.88 2.15-1.25.72.41-2.15 1.25 1.74 1 2.6-1.5.7.41zm4.15-2.4-.61-1.97-3.37-.36.92-.53 2.24.23-.46-1.26.88-.5.67 1.87 3.5.34-.94.54-2.34-.22.46 1.31zm6.7-3.78q-.35.2-.72.29a2 2 0 0 1-.8.02 4 4 0 0 1-.87-.28 9 9 0 0 1-1.06-.55l-2.76-1.73.77-.58.08-.05.08.04.05.12q.03.05.16.14l1.03.7.13.03 1.32.83q.56.35.95.51.38.15.66.14.27-.02.47-.14.29-.15.38-.35.12-.18.17-.41l.83.26q-.08.3-.29.54-.2.26-.57.47m-6.13-1.17 3.02-1.75.68.4-3.01 1.75zm4.64-2.69.9-.52 1.12.67-.2.01a1 1 0 0 1-.3-.36.6.6 0 0 1-.07-.38 1 1 0 0 1 .18-.36q.12-.18.36-.31.33-.2.7-.28.4-.1.83-.09l.35.62.04.06-.1.03-.2-.06-.29-.02-.39.08a1.4 1.4 0 0 0-.66.42.5.5 0 0 0-.12.33q0 .18.15.38.15.18.49.38l2.1 1.21-.87.51zm9.33-.64q-.66.38-1.34.42a2 2 0 0 1-1.17-.25 1 1 0 0 1-.44-.43.7.7 0 0 1-.03-.52q.1-.27.4-.56a4 4 0 0 1 1-.7l.27-.15.3-.14.63.34-.55.27-.25.14q-.33.2-.53.38a1 1 0 0 0-.27.31.3.3 0 0 0 0 .27q.06.12.24.23a1 1 0 0 0 .62.14q.15-.02.3-.08.16-.05.31-.14.3-.16.4-.34a.5.5 0 0 0 .1-.37 1 1 0 0 0-.24-.41 4 4 0 0 0-1.53-.83 2 2 0 0 0-.75-.05q-.34.08-.67.27-.28.15-.44.36a.7.7 0 0 0-.17.48l-.98-.04q.01-.37.27-.68.26-.3.68-.55a4 4 0 0 1 1.66-.5 3 3 0 0 1 .94.1q.5.12 1.04.44l2.25 1.3-.9.52-.5-.29q.06.17.05.32a1 1 0 0 1-.13.27q-.09.13-.24.25zm5.02-2.9a4 4 0 0 1-2.06.52q-.56-.02-1.08-.14a4 4 0 0 1-.98-.4 2 2 0 0 1-.68-.56 1 1 0 0 1-.25-.63q0-.33.2-.63.22-.32.66-.57.53-.3 1.13-.42t1.22-.06l.03.58v.08h-.1l-.17-.06-.3-.04q-.33 0-.6.1-.27.08-.54.23a1 1 0 0 0-.34.3.6.6 0 0 0-.08.38q.02.2.19.4.16.2.48.38a3 3 0 0 0 1.36.38q.34 0 .66-.06.32-.07.56-.22.2-.1.32-.23a1 1 0 0 0 .2-.29q.05-.16.02-.34l1.03.04a1 1 0 0 1-.23.7q-.24.32-.65.56m4.47-2.6q-.36.2-.73.29a2 2 0 0 1-.79.02 4 4 0 0 1-.88-.28 9 9 0 0 1-1.06-.55l-2.76-1.73.77-.58.08-.05.08.04.05.12q.03.05.16.14l1.03.7.13.03 1.32.83q.56.35.95.51.37.15.66.14.27-.02.48-.14.27-.15.38-.35.11-.18.16-.41l.83.26q-.08.3-.28.54-.21.26-.58.47m-6.14-1.17 3.02-1.75.68.4-3.01 1.75zm10.24-1.18q-.43.26-.94.38a4 4 0 0 1-2.1-.01q-.53-.14-1.02-.42-.5-.3-.75-.6a1 1 0 0 1-.26-.62q-.01-.3.18-.59.2-.29.59-.5.34-.2.76-.3.44-.12.9-.1.47 0 .96.13.5.13.99.41l.2.11.17.11-2.72 1.58a3 3 0 0 0 1.3.3 2.4 2.4 0 0 0 1.1-.3q.18-.11.32-.22a1 1 0 0 0 .2-.27q.07-.15.05-.3h.9a1 1 0 0 1-.05.44q-.08.2-.29.4-.19.2-.49.37m-3.67-.81 1.87-1.08a2 2 0 0 0-.98-.28q-.24-.02-.47.05-.23.05-.43.17-.2.1-.3.23a.5.5 0 0 0-.1.27q0 .15.09.31.1.16.32.33m7.63-1.47q-.32.18-.75.28a4 4 0 0 1-1.96-.09 5 5 0 0 1-1.07-.47 3 3 0 0 1-.8-.6q-.24-.3-.26-.59a.8.8 0 0 1 .15-.53q.18-.25.5-.44a2 2 0 0 1 1.03-.31q.27-.02.55.03l-2.23-1.29.84-.48.07-.05.08.05q0 .04.06.1.03.04.2.12l4.83 2.79.3.16q.14.08.35.12l-.85.48a2 2 0 0 1-.41-.14l-.16-.1a1 1 0 0 1 .04.35 1 1 0 0 1-.16.32q-.12.15-.35.29m-.56-.5a1 1 0 0 0 .3-.28q.07-.15-.01-.32a1 1 0 0 0-.29-.34 4 4 0 0 0-1.39-.75 2 2 0 0 0-.78-.11q-.38.01-.68.2a1 1 0 0 0-.3.28.4.4 0 0 0-.02.33q.06.16.25.34.19.2.5.37.45.25.9.37t.85.1q.39-.03.66-.19m9.42-4.62a4 4 0 0 1-2.53.48l.14-.64v-.06h.11l.15.06.3.03q.3 0 .59-.06.27-.07.55-.22a1 1 0 0 0 .28-.25.5.5 0 0 0 .07-.31.6.6 0 0 0-.15-.32q-.14-.15-.38-.3a2.4 2.4 0 0 0-1.1-.32 2 2 0 0 0-1.01.22q-.18.1-.3.23a1 1 0 0 0-.17.27q-.04.15 0 .3l-.68.2-2.65-1.73 2.84-1.64.7.4-2.11 1.23 1.25.81.14-.2q.1-.11.22-.2t.25-.17q.35-.2.77-.31a3.4 3.4 0 0 1 1.76.05q.46.12.88.37.57.33.75.7.2.37.02.73a1.7 1.7 0 0 1-.7.65m8.71-5.03a5 5 0 0 1-2.43.67l-.33-.64-.03-.08.1-.02.19.06q.09.03.3.04.37-.03.76-.11a3 3 0 0 0 1.15-.61q.12-.16.12-.28-.03-.13-.17-.21l-.25-.08h-.32l-.44.09-.59.17q-.58.18-1.06.27-.51.1-.92.06a2 2 0 0 1-.74-.21q-.32-.19-.38-.43-.06-.26.14-.54t.67-.56a4 4 0 0 1 1.07-.44q.27-.06.57-.1.3-.03.6-.03l.14.6.02.06-.11.01-.17-.05-.28-.02a3 3 0 0 0-1.15.34q-.3.18-.44.38-.12.19.1.3.11.08.31.08t.54-.07q.32-.08.81-.24.63-.2 1.1-.28t.83-.03q.38.04.68.22.33.19.44.47t-.1.59-.73.62m4.62-1.03q-.3.17-.61.24-.3.09-.7.1l-.27-.52-.03-.07.1-.02.17.04.31-.02q.1-.02.19-.06l.17-.08q.2-.11.23-.26.04-.13-.06-.31a2 2 0 0 0-.31-.44l-1.6-1.88q-.24-.3-.5-.55a4 4 0 0 0-.62-.51l.81-.47q.37.25.65.58t.53.64l1.75 2.16q.4.49.32.84-.09.33-.53.6m-6.3-2.73.87-.51 4.36 1.12.52.8zm10.34-1.24a5 5 0 0 1-2.43.67l-.33-.64-.03-.08.1-.02.19.06q.09.03.3.04.37-.03.76-.11.37-.1.76-.32.27-.15.4-.3.12-.15.1-.27 0-.13-.16-.21l-.25-.08h-.32l-.44.09-.59.17q-.57.18-1.06.27-.51.1-.92.06a2 2 0 0 1-.74-.21q-.32-.19-.38-.43-.06-.26.14-.54t.67-.56a4 4 0 0 1 1.07-.44q.27-.06.57-.1.3-.03.6-.03l.14.6.02.06-.11.01-.17-.05-.28-.02a3 3 0 0 0-1.15.34q-.3.18-.44.38-.12.19.1.3.11.08.31.08t.54-.07q.31-.08.81-.24.63-.2 1.1-.28t.83-.03q.38.04.68.22.34.19.44.47t-.1.59-.73.62m4.68-2.72q-.36.2-.73.29a2 2 0 0 1-.79.01 4 4 0 0 1-.88-.27 9 9 0 0 1-1.06-.55l-2.76-1.73.77-.57.08-.06.08.04.05.12q.03.05.16.14l1.03.7.13.03 1.32.83q.56.35.95.51.38.15.66.14.27-.01.48-.13.27-.17.38-.35.11-.2.16-.42l.83.26q-.08.3-.28.55-.2.24-.58.46m-6.14-1.17 3.02-1.75.68.4-3.01 1.74zm10.24-1.18q-.44.26-.93.38a4 4 0 0 1-2.1-.01q-.54-.14-1.03-.42-.5-.3-.74-.6a1 1 0 0 1-.27-.62q0-.3.18-.59.2-.29.59-.5.34-.21.76-.3.43-.12.9-.1.47 0 .96.13.5.13.99.41l.2.12.17.1-2.72 1.57a3 3 0 0 0 1.3.31 2.4 2.4 0 0 0 1.1-.3q.2-.1.32-.23a1 1 0 0 0 .2-.26q.07-.15.05-.3h.9a1 1 0 0 1-.05.44q-.08.2-.29.4-.19.2-.49.37m-3.67-.81 1.87-1.08a2 2 0 0 0-.98-.29q-.24 0-.47.05t-.43.17-.3.24a.5.5 0 0 0-.1.28q0 .15.09.3.1.16.32.33m5.84-.55-4-2.32.73-.43.33.2-.02-.26.1-.23a1 1 0 0 1 .23-.18q.16-.1.36-.14a2 2 0 0 1 .86.04.5.5 0 0 1-.07-.29q0-.14.12-.26.1-.15.3-.25.2-.13.43-.16.24-.05.48-.02t.5.12q.24.09.49.24l3 1.73-.76.43-2.77-1.6q-.3-.18-.49-.24a1 1 0 0 0-.3-.05.4.4 0 0 0-.2.05.2.2 0 0 0-.13.22q0 .12.12.29.13.15.38.29l2.6 1.5-.73.42-2.74-1.58a2 2 0 0 0-.68-.3.6.6 0 0 0-.4.06.2.2 0 0 0-.1.14q-.03.07.01.18l.15.21q.12.1.33.23l2.63 1.52zm5.23-7.65.89-.52 1.13.67-.2.01a1 1 0 0 1-.3-.37 1 1 0 0 1-.08-.37 1 1 0 0 1 .18-.37q.12-.17.36-.3.33-.2.71-.28.38-.1.82-.09l.35.62.04.07-.1.02-.2-.05-.29-.02-.38.07a1.4 1.4 0 0 0-.66.42.5.5 0 0 0-.12.33q0 .17.14.38.15.18.49.38l2.11 1.22-.87.5zm9.92-.99q-.44.26-.93.38a4 4 0 0 1-2.1-.01q-.54-.14-1.03-.42-.5-.3-.74-.6a1 1 0 0 1-.27-.62q0-.3.18-.59.2-.29.59-.5.34-.21.76-.3.44-.12.9-.1.47 0 .96.13.51.13.99.41l.2.12.17.1-2.72 1.57a3 3 0 0 0 1.3.31 2.4 2.4 0 0 0 1.42-.52 1 1 0 0 0 .2-.27q.07-.15.05-.3h.9a1 1 0 0 1-.05.44q-.09.2-.28.4t-.5.37m-3.67-.81 1.87-1.08a2 2 0 0 0-1.45-.23q-.23.05-.43.16-.18.12-.3.24a.5.5 0 0 0-.1.28q0 .15.09.3.1.16.32.33m7.46.19-5.46-3.16.86-.49.64.37a.6.6 0 0 1-.13-.4.6.6 0 0 1 .16-.37q.15-.17.4-.31.31-.2.75-.28.42-.1.9-.07a4 4 0 0 1 2.05.62q.53.3.79.61.25.3.3.6a1 1 0 0 1-.14.52q-.16.25-.47.43-.22.12-.5.22a3 3 0 0 1-1.12.14l1.84 1.06zm-.26-2.2a1 1 0 0 0 .3-.26q.1-.15.08-.31a.7.7 0 0 0-.23-.39 3.5 3.5 0 0 0-1.46-.8q-.4-.11-.78-.09-.36.02-.66.18a1 1 0 0 0-.32.27.4.4 0 0 0-.05.34q.04.17.27.38a4 4 0 0 0 2.08.88q.22 0 .4-.05.2-.06.37-.16m3.28-1.22-.68-.4 1.14-.66-4.43-2.55-1.09.63-.68-.4 1.96-1.13 5.11 2.95 1.14-.66.68.4zm4.52-2.61-.68-.4 1-.57-2.65-1.52-.95.54-.69-.39 1.82-1.05 3.33 1.92.9-.52.7.39zm-3.35-3.52q-.24.13-.56.13t-.53-.12q-.24-.15-.24-.32t.25-.32q.22-.13.55-.13t.55.12.21.32q0 .18-.23.31m9.43.12a4 4 0 0 1-2.05.52q-.55-.02-1.09-.14a4 4 0 0 1-.97-.4q-.45-.26-.69-.56a1 1 0 0 1-.25-.64q0-.32.2-.62.22-.31.66-.57.53-.3 1.13-.42.6-.13 1.22-.06l.03.58v.07h-.1l-.17-.05-.3-.04q-.32 0-.6.1-.27.08-.54.23a1 1 0 0 0-.34.3.6.6 0 0 0-.08.38q.03.2.19.4t.48.39a3 3 0 0 0 1.36.37q.35 0 .66-.06a2 2 0 0 0 .89-.45 1 1 0 0 0 .19-.29q.05-.16.02-.34l1.03.04a1 1 0 0 1-.22.7q-.24.32-.66.56m3.64-2.1q-.66.38-1.34.42a2 2 0 0 1-1.17-.25 1 1 0 0 1-.44-.43.7.7 0 0 1-.02-.52q.09-.27.39-.56a4 4 0 0 1 1-.7l.27-.15.3-.14.63.34a6 6 0 0 0-.8.42q-.33.2-.53.36a1 1 0 0 0-.27.32.3.3 0 0 0 0 .27q.06.12.24.23.14.09.32.12.15.03.3.02l.31-.07.3-.15q.3-.16.41-.34a.5.5 0 0 0 .09-.37 1 1 0 0 0-.24-.41 4 4 0 0 0-1.53-.84 2 2 0 0 0-.74-.04q-.34.08-.68.27-.27.15-.44.36a.7.7 0 0 0-.17.47l-.97-.03q.01-.37.26-.67.26-.32.68-.55a4 4 0 0 1 1.66-.52 3 3 0 0 1 .95.11q.49.12 1.04.44l2.24 1.3-.9.51-.5-.28q.06.16.05.32a1 1 0 0 1-.12.28q-.1.12-.25.23t-.33.23m4.81-2.78a5 5 0 0 1-2.43.68l-.33-.65-.03-.08.1-.02.19.07.3.03q.38-.03.76-.11.37-.1.77-.32.25-.15.39-.3.12-.15.1-.27 0-.14-.16-.21l-.25-.08h-.32l-.44.09-.59.17q-.57.18-1.06.28-.5.08-.92.05a2 2 0 0 1-.74-.21q-.32-.19-.38-.43-.06-.26.14-.54t.68-.56a4 4 0 0 1 1.06-.43q.29-.08.57-.1.3-.04.6-.04l.15.6.01.06-.1.01-.18-.05-.28-.02a3 3 0 0 0-1.15.34q-.3.18-.43.38-.12.19.08.3.13.08.32.08.21 0 .54-.07.32-.08.81-.24.63-.2 1.1-.29.48-.07.84-.03t.67.23q.34.19.44.47t-.1.59q-.18.3-.73.62"/>
        </g>
        <g clip-path="url(#c)">
            <path fill="#4a4a4a" d="M122.37 210 420.3 38l18.18 10.5-297.91 172z"/>
            <path stroke="#bebebd" stroke-linecap="round" stroke-linejoin="round" d="M147.92 208.75v-3h-5.2"/>
            <path fill="#bebebd" d="M167.08 198.3q-.65.38-1.41.44-.77.08-1.61-.16a7 7 0 0 1-1.75-.74q-.87-.51-1.26-.99-.4-.5-.29-.94.13-.45.77-.81.64-.38 1.42-.44.76-.08 1.62.16.84.22 1.72.72.9.53 1.28 1.02.4.48.28.93-.12.44-.77.81m-.7-.4q.35-.2.37-.49 0-.29-.3-.62a6 6 0 0 0-2.27-1.31q-.6-.2-1.1-.19-.5 0-.85.21-.36.2-.37.5 0 .28.32.63.33.33.98.71.7.4 1.3.6.58.18 1.07.18.49-.03.85-.22m5.29-2.25a4 4 0 0 1-2.05.51q-.56 0-1.09-.13a4 4 0 0 1-.98-.4 2 2 0 0 1-.68-.56 1 1 0 0 1-.25-.63q0-.33.2-.63.22-.32.66-.57.53-.3 1.13-.43.6-.12 1.22-.05l.03.59v.06h-.1l-.17-.05-.3-.04q-.32 0-.6.1-.27.08-.54.23a1 1 0 0 0-.34.3.6.6 0 0 0-.08.38q.02.2.19.4.16.2.48.39a3 3 0 0 0 1.36.37q.34 0 .66-.06a2 2 0 0 0 .88-.45 1 1 0 0 0 .2-.29q.05-.16.02-.34l1.03.04a1 1 0 0 1-.22.7q-.25.32-.66.56m4.47-2.6q-.36.2-.73.29a2 2 0 0 1-.79.01 4 4 0 0 1-.88-.26 9 9 0 0 1-1.06-.56l-2.76-1.73.77-.58.08-.05.08.04.05.11q.03.06.16.15l1.03.7.13.03 1.32.83q.56.35.95.51.38.15.66.14.27-.02.47-.14.28-.16.39-.34.11-.2.16-.42l.83.26q-.08.3-.28.55-.21.24-.58.46m-6.14-1.18 3.02-1.74.68.4-3.01 1.75zm14.28-3.5a4.4 4.4 0 0 1-2.24.56l-.17-.64-.02-.07h.11l.17.05q.09.03.3.03.28-.01.57-.09.28-.06.54-.22.3-.17.39-.35a.4.4 0 0 0-.03-.36q-.1-.2-.38-.34a1.8 1.8 0 0 0-1.76-.06q-.3.13-.62.35l-.67-.39q.4-.22.59-.41.19-.2.2-.34a.4.4 0 0 0-.1-.28 1 1 0 0 0-.28-.24 1.5 1.5 0 0 0-1.46 0l-.3.22a1 1 0 0 0-.19.28 1 1 0 0 0-.06.3h-1a1 1 0 0 1 .22-.68q.27-.3.65-.53a3.2 3.2 0 0 1 2.01-.4q.51.06.91.29.3.17.43.38.15.2.13.41a1 1 0 0 1-.19.4 3.4 3.4 0 0 1 1.6-.08q.42.08.78.29.45.26.6.59t-.01.68q-.18.33-.72.65m4.04-2.44-4.44-2.57-.68.78-.72-.2.67-1.27.62-.36 5.4 3.12zm8.66-5-4.44-2.57-.68.78-.72-.2.67-1.27.63-.36 5.4 3.12zm2.37-2.12.01-1-.01-.8a3 3 0 0 0-.1-.63 1 1 0 0 0-.24-.48 2 2 0 0 0-.47-.4 2 2 0 0 0-.84-.23q-.2 0-.4.06a2 2 0 0 0-.7.41 1 1 0 0 0-.18.27 1 1 0 0 0-.03.3q.04.13.08.17t.12.08l.02.06-.11.01-1.05.08q-.16-.3-.12-.59.05-.3.27-.56.21-.26.59-.47.47-.28 1.03-.38t1.12-.03q.56.08 1.04.35a2 2 0 0 1 .85.97q.09.29.13.62.03.33.03.7v.81l1.8-1.03.2-.13.05-.1.07-.05.08.05.71.4-3.3 1.91zm3.91-4.47q-.24.14-.6.14a1 1 0 0 1-.61-.14q-.25-.15-.25-.35 0-.21.25-.35.23-.14.6-.14t.62.13q.24.15.24.36t-.25.35m2.67 1.54q-.27.15-.6.15a1 1 0 0 1-.6-.15q-.26-.14-.26-.35t.25-.35q.22-.14.6-.14t.63.14q.23.13.23.34t-.25.36m4.74-2.86-1.29-.75-2.2 1.27-.58-.33-1.15-3.42.66-.37 3.42 1.97.7-.4.7.4-.7.4 1.28.75zm-3.29-.39 1.32-.76-2.03-1.17zm7.4-1.87q-.56.32-1.27.37-.7.04-1.5-.17a7 7 0 0 1-2.92-1.75q-.42-.54-.33-1 .1-.45.68-.8.35-.2.8-.32.48-.14 1.02-.13l.07.59v.07h-.1l-.17-.03h-.3l-.17.05-.19.07a1 1 0 0 0-.43.28.6.6 0 0 0-.14.61q.06.18.29.41t.65.5a1 1 0 0 1 0-.33q.06-.17.19-.31.13-.15.33-.28.32-.18.7-.27a3 3 0 0 1 1.7.05q.45.12.87.37.53.3.75.67.2.38.08.72-.13.35-.6.63m-.67-.42a1 1 0 0 0 .23-.23.4.4 0 0 0 .03-.29 1 1 0 0 0-.18-.3q-.15-.17-.42-.32-.28-.15-.55-.23a2 2 0 0 0-.99-.05q-.21.05-.37.14a1 1 0 0 0-.22.18l-.1.22-.03.23.08.26a4 4 0 0 0 1.34.52q.33.06.64.03.3-.03.54-.16m2.14-3.5q-.24.14-.6.14a1 1 0 0 1-.61-.14q-.25-.15-.25-.35 0-.21.25-.35.23-.14.6-.14t.62.13q.24.15.24.36t-.25.35m2.67 1.54q-.26.15-.6.15-.37 0-.6-.15-.26-.14-.26-.35t.25-.35q.22-.14.6-.14t.63.14q.23.13.23.34t-.25.36m1.6-2.79-.51-2.95.74.22.49 2.94zm2.84.22q-.56.3-1.28.37-.72.04-1.55-.19a8 8 0 0 1-3-1.74q-.42-.48-.34-.9.06-.43.62-.75t1.29-.35q.73-.05 1.57.19a7.5 7.5 0 0 1 3 1.74q.4.47.32.89-.07.41-.63.74m-.67-.39q.33-.18.29-.44-.03-.28-.39-.61a8 8 0 0 0-2.25-1.3 4 4 0 0 0-1.05-.22q-.46-.04-.79.15-.3.18-.27.46.04.26.4.6.34.33 1 .71t1.25.59q.57.2 1.04.22.46.02.77-.16m5.3-2.4-1.29-.75-2.2 1.27-.58-.33-1.15-3.42.66-.37 3.42 1.97.7-.4.7.4-.7.4 1.28.75zm-3.29-.39 1.32-.76-2.03-1.17zm9.83-3.38-5.4-3.12 1.82-1.04a3.6 3.6 0 0 1 2.37-.47q.55.09.97.34.32.18.5.4.16.22.17.47 0 .24-.21.5-.22.25-.67.51l-.98.57 2.3 1.33zm-2.15-2.25.91-.53q.33-.18.43-.35.1-.18.02-.35a1 1 0 0 0-.32-.3 2 2 0 0 0-.52-.19 2 2 0 0 0-.6.02q-.3.05-.62.23l-.92.53zm6.34-.18-5.4-3.11.74-.42 3.67.8-1.38-2.13.72-.42 5.4 3.12-.75.44-3.87-2.24 1.1 1.73-.4.23-2.94-.65 3.86 2.23zm25.58-14.77-.68-.4 1-.57-2.64-1.53-.96.55-.68-.39 1.82-1.05 3.32 1.92.91-.53.69.4zm-3.35-3.53q-.23.15-.55.14t-.54-.12q-.23-.15-.23-.32t.24-.32q.22-.13.56-.13.33 0 .55.12.21.12.2.32 0 .18-.23.31m7.43 1.18-4.01-2.31.86-.5.62.35a1 1 0 0 1-.05-.4 1 1 0 0 1 .17-.38q.12-.19.39-.34.33-.19.8-.25.45-.07 1 .04.54.12 1.14.47l2.42 1.39-.86.5-2.4-1.4a3 3 0 0 0-.67-.28 2 2 0 0 0-.55-.06q-.24 0-.44.13a1 1 0 0 0-.27.25q-.1.15-.1.3-.02.16.1.32.1.17.35.3l2.36 1.37zm1.74-4.85-.85.5-.69-.4.86-.5-.27-.15q-.54-.3-.67-.64a.7.7 0 0 1 .07-.63q.2-.32.63-.56a3.3 3.3 0 0 1 1.87-.44l.23.55.03.06-.1.02a1 1 0 0 0-.48-.07q-.27.02-.44.07-.18.06-.38.18-.25.14-.33.3-.09.14 0 .32.1.17.42.35l.27.16 1.25-.72.68.39-1.25.72 3.33 1.92-.85.49zm8.65-1.05q-.56.32-1.23.41-.7.09-1.41-.03a4 4 0 0 1-1.35-.49q-.6-.35-.82-.76a1 1 0 0 1-.07-.83q.15-.39.7-.72.52-.3 1.23-.39a4.6 4.6 0 0 1 2.76.51q.6.35.83.77.21.42.05.82t-.7.71m-.7-.4q.29-.18.34-.4.06-.24-.13-.5a2 2 0 0 0-.6-.5 3 3 0 0 0-.86-.34q-.45-.11-.85-.07-.4.02-.7.2-.28.16-.35.4-.05.22.13.49.18.24.6.5a3 3 0 0 0 1.71.42q.41-.04.7-.2"/>
        </g>
        <g clip-path="url(#d)">
            <path fill="#4a4a4a" d="m140.56 220.5 297.91-172L456.66 59 158.75 231z"/>
            <path stroke="#bebebd" stroke-linecap="round" stroke-linejoin="round" d="M166.1 219.25v-3h-5.19"/>
            <path fill="#bebebd" d="M185.26 208.8q-.64.38-1.4.44-.77.08-1.62-.16a7 7 0 0 1-1.74-.74q-.87-.51-1.26-.99-.4-.5-.29-.94.13-.45.76-.81.65-.38 1.42-.44.78-.08 1.62.16.85.22 1.73.72.9.53 1.28 1.02.4.48.28.93-.13.44-.78.81m-.7-.4q.36-.2.38-.49 0-.29-.3-.62a6 6 0 0 0-2.27-1.31q-.6-.2-1.1-.19-.5 0-.86.21-.34.2-.36.5 0 .28.32.63.33.33.98.71.7.4 1.29.6.6.18 1.07.18.5-.03.85-.22m5.3-2.25a4 4 0 0 1-2.06.51q-.56 0-1.08-.13a4 4 0 0 1-.98-.4 2 2 0 0 1-.68-.56 1 1 0 0 1-.25-.63q-.01-.33.2-.63.22-.32.65-.57.54-.3 1.14-.43.6-.12 1.22-.05l.02.59v.06h-.1l-.16-.05-.3-.04q-.33 0-.6.1-.27.08-.54.23a1 1 0 0 0-.34.3.6.6 0 0 0-.09.38q.03.2.2.4.15.2.48.39a3 3 0 0 0 1.36.37q.33 0 .66-.06.32-.07.56-.22.19-.1.32-.23a1 1 0 0 0 .2-.29q.04-.16.02-.34l1.03.04a1 1 0 0 1-.23.7q-.24.32-.66.56m4.46-2.6q-.35.2-.72.29a2 2 0 0 1-.8.01 4 4 0 0 1-.88-.26 9 9 0 0 1-1.05-.56l-2.77-1.73.78-.58.07-.05.09.04.04.11q.04.06.17.15l1.03.7.13.03 1.31.83q.57.35.96.51.38.15.66.14.26-.02.47-.14.28-.16.38-.34.12-.2.17-.42l.83.26q-.08.3-.29.55-.2.24-.58.46m-6.14-1.18 3.03-1.74.68.4-3.01 1.75zm14.28-3.5a4.4 4.4 0 0 1-2.23.56l-.17-.64-.02-.07h.11l.17.05q.1.03.29.03.3-.01.58-.09.28-.06.54-.22.3-.17.39-.35a.4.4 0 0 0-.03-.36q-.1-.2-.38-.34a1.9 1.9 0 0 0-1.77-.06q-.3.13-.61.35l-.68-.39q.4-.22.6-.41.18-.2.2-.34a.4.4 0 0 0-.1-.28 1 1 0 0 0-.28-.24q-.17-.1-.35-.14a1.5 1.5 0 0 0-1.1.14q-.18.1-.31.22a1 1 0 0 0-.19.28q-.07.13-.06.3h-1a1 1 0 0 1 .22-.68q.26-.3.65-.53a3 3 0 0 1 2-.4q.52.06.92.29.3.17.43.38.14.2.12.41a.7.7 0 0 1-.18.4 3.4 3.4 0 0 1 1.6-.08q.4.08.78.29.45.26.6.59.16.32-.02.68-.17.33-.72.65m4.05-2.44-4.44-2.57-.68.78-.73-.2.68-1.27.62-.36 5.4 3.12zm8.66-5-4.44-2.57-.68.78-.73-.2.68-1.27.62-.36 5.4 3.12zm2.37-2.12v-1.8a3 3 0 0 0-.1-.63 1 1 0 0 0-.25-.48q-.16-.22-.46-.4a2 2 0 0 0-.84-.23q-.21 0-.41.06a2 2 0 0 0-.7.41 1 1 0 0 0-.18.27 1 1 0 0 0-.02.3.4.4 0 0 0 .08.17q.04.05.12.08l.01.06-.1.01-1.06.08a1 1 0 0 1-.12-.59q.05-.3.27-.56t.6-.47q.46-.28 1.02-.38t1.13-.03q.56.08 1.04.35a2 2 0 0 1 .84.97q.1.29.13.62.04.33.04.7v.81l1.8-1.03.2-.13.04-.1.08-.05.08.05.71.4-3.3 1.91zm3.9-4.47q-.24.14-.6.14a1 1 0 0 1-.6-.14q-.25-.15-.25-.35 0-.21.24-.35t.61-.14.62.13q.24.15.24.36t-.25.35m2.67 1.54q-.25.15-.6.15-.36 0-.6-.15-.25-.14-.25-.35t.24-.35.6-.14q.38 0 .63.14.24.13.24.34t-.26.36m4.75-2.86-1.3-.75-2.19 1.27-.58-.33-1.15-3.42.66-.37 3.42 1.97.7-.4.7.4-.7.4 1.28.75zm-3.3-.39 1.32-.76-2.02-1.17zm7.41-1.87q-.56.32-1.27.37-.7.04-1.5-.17a7 7 0 0 1-2.92-1.75q-.43-.54-.33-1t.67-.8q.35-.2.81-.32.48-.14 1.02-.13l.07.59v.07h-.1l-.17-.03h-.3l-.18.05-.18.07a1 1 0 0 0-.43.28 1 1 0 0 0-.16.26q-.04.15.02.34t.28.42.66.5a1 1 0 0 1 0-.33q.06-.17.19-.31.13-.15.32-.28.33-.18.7-.27a3 3 0 0 1 1.7.05q.46.12.88.37.54.3.74.67.21.38.09.72-.13.35-.6.63m-.67-.42a1 1 0 0 0 .23-.23.4.4 0 0 0 .03-.29 1 1 0 0 0-.18-.3q-.15-.17-.42-.32-.28-.15-.55-.23a2 2 0 0 0-1-.05q-.21.05-.36.14a1 1 0 0 0-.22.18l-.11.22-.02.23q.02.13.08.26a4 4 0 0 0 1.33.52q.34.06.64.03.32-.03.55-.16m2.14-3.5q-.25.14-.6.14a1 1 0 0 1-.62-.14q-.24-.15-.24-.35 0-.21.25-.35.22-.14.6-.14.36 0 .62.13.24.15.24.36t-.25.35m2.66 1.54q-.25.15-.6.15a1 1 0 0 1-.6-.15q-.25-.14-.25-.35t.24-.35.6-.14q.38 0 .63.14.24.13.23.34.02.21-.25.36m1.6-2.79-.5-2.95.74.22.49 2.94zm2.85.22q-.56.3-1.29.37-.72.04-1.54-.19a8 8 0 0 1-3.01-1.74q-.4-.48-.34-.9.07-.43.63-.75t1.29-.35q.73-.05 1.56.19a7.5 7.5 0 0 1 3 1.74q.42.47.33.89-.07.41-.63.74m-.67-.39q.31-.18.29-.44-.04-.28-.4-.61a8 8 0 0 0-2.25-1.3 4 4 0 0 0-1.04-.22q-.47-.04-.8.15-.3.18-.26.46.03.26.39.6t1 .71q.68.38 1.25.59.58.2 1.05.22.45.02.77-.16m5-2.12a4 4 0 0 1-2.52.48l.14-.64v-.06h.1l.16.06.29.03q.31 0 .6-.05.27-.08.54-.23a1 1 0 0 0 .29-.25.5.5 0 0 0 .07-.31.6.6 0 0 0-.15-.32q-.15-.15-.38-.3a2.4 2.4 0 0 0-1.64-.28 1.5 1.5 0 0 0-.78.41 1 1 0 0 0-.16.27q-.03.15-.01.3l-.68.2-2.65-1.74 2.84-1.63.72.4-2.13 1.23 1.26.81.14-.2q.09-.1.22-.2.11-.1.25-.18.35-.2.77-.3a3.3 3.3 0 0 1 1.76.04q.45.12.88.38.57.33.75.7t.02.73a1.7 1.7 0 0 1-.7.65m6.84-4.06-5.4-3.11 1.81-1.04a3.6 3.6 0 0 1 2.38-.47q.54.09.97.34.31.18.49.4t.17.47q0 .24-.2.5-.22.25-.67.51l-.98.57 2.3 1.33zm-2.15-2.25.91-.52q.32-.18.43-.35.1-.18.02-.35a1 1 0 0 0-.32-.3 2 2 0 0 0-.52-.19q-.28-.04-.6.02-.3.05-.62.23l-.92.53zm6.34-.17-5.4-3.11.73-.42 3.67.8-1.37-2.13.72-.42 5.4 3.12-.75.44-3.87-2.24 1.1 1.73-.4.23-2.94-.65 3.85 2.23zm25.58-14.77-.68-.4 1-.57-2.65-1.53-.95.55-.69-.39 1.82-1.05 3.33 1.92.9-.53.7.4zm-3.35-3.53q-.24.15-.55.14-.33 0-.54-.12-.24-.15-.24-.32t.25-.32q.22-.13.55-.13t.56.12q.2.12.2.32 0 .18-.23.31m7.42 1.18-4-2.31.86-.5.61.35a.8.8 0 0 1 .12-.78q.13-.19.4-.34.33-.19.79-.25.45-.07 1 .04.54.12 1.15.47l2.41 1.39-.85.5-2.41-1.4a3 3 0 0 0-.66-.28 2 2 0 0 0-.55-.06q-.25 0-.44.13a1 1 0 0 0-.27.25q-.1.15-.1.3-.02.16.1.32.1.17.34.3l2.37 1.37zm1.75-4.85-.86.5-.68-.4.86-.5-.27-.15q-.54-.3-.67-.64a.7.7 0 0 1 .07-.63q.2-.32.62-.56a3.3 3.3 0 0 1 1.88-.44l.23.55.02.06-.1.02a1 1 0 0 0-.48-.07q-.26.02-.44.07t-.38.18q-.24.14-.33.3-.08.14.01.32t.42.35l.26.16 1.25-.72.69.39-1.25.72 3.32 1.92-.84.49zm8.64-1.05q-.54.32-1.23.41a5 5 0 0 1-1.4-.03 4 4 0 0 1-1.35-.49q-.6-.35-.82-.76a1 1 0 0 1-.07-.83q.15-.39.7-.72.53-.3 1.23-.39a4.6 4.6 0 0 1 2.75.51q.6.35.83.77t.06.82-.7.71m-.7-.4q.3-.18.35-.4.05-.24-.13-.5a2 2 0 0 0-.6-.5 3 3 0 0 0-.87-.34q-.43-.11-.84-.07-.4.02-.7.2-.3.16-.35.4-.06.22.13.49.18.24.6.5a3 3 0 0 0 1.71.42q.4-.04.7-.2"/>
        </g>
        <path fill="#faff69" fill-rule="evenodd" d="m104.19 190.5 297.9-172L420.3 29v2l-18.2-10.5-297.9 172z" clip-rule="evenodd"/>
        <path fill="#faff69" fill-rule="evenodd" d="M420.29 29 122.37 201l-18.18-10.5v2l18.18 10.5L420.3 31z" clip-rule="evenodd"/>
        <g clip-path="url(#e)">
            <path fill="#353624" d="m104.19 190.5 297.91-172L420.29 29 122.37 201z"/>
            <path stroke="#faff69" stroke-linecap="round" stroke-linejoin="round" d="M129.73 189.25v-3h-5.2"/>
            <path fill="#faff69" d="M148.9 178.8q-.65.38-1.42.44-.76.08-1.61-.16a7 7 0 0 1-1.74-.74q-.87-.51-1.27-.99-.4-.5-.28-.94.12-.45.76-.81.64-.38 1.42-.44.76-.08 1.62.16.84.22 1.72.72.9.53 1.28 1.02.4.48.28.93-.12.44-.77.81m-.71-.4q.36-.2.37-.49t-.3-.62a6 6 0 0 0-2.27-1.31q-.6-.2-1.1-.19-.5 0-.85.21t-.36.5q0 .28.32.63.32.33.98.71.69.4 1.29.6.59.18 1.07.18.5-.03.85-.22m5.3-2.25a4 4 0 0 1-2.06.51q-.55 0-1.08-.13a4 4 0 0 1-.98-.4 2 2 0 0 1-.69-.56 1 1 0 0 1-.25-.63q0-.33.21-.63.21-.32.65-.57.54-.3 1.13-.43.6-.12 1.23-.05l.02.59v.06h-.1l-.17-.05-.3-.04q-.32 0-.59.1-.28.08-.54.23a1 1 0 0 0-.34.3.6.6 0 0 0-.09.38q.03.2.2.4.15.2.48.39a3 3 0 0 0 1.36.37q.33 0 .65-.06.32-.07.57-.22.18-.1.32-.23a1 1 0 0 0 .19-.29q.05-.16.02-.34l1.03.04a1 1 0 0 1-.22.7q-.24.32-.66.56m4.46-2.6q-.36.2-.73.29a2 2 0 0 1-.79.01 4 4 0 0 1-.88-.26 9 9 0 0 1-1.06-.56l-2.76-1.73.77-.58.08-.05.09.04q0 .06.04.11.03.06.16.15l1.03.7.13.03 1.32.83q.57.35.95.51.39.15.66.14.27-.02.48-.14.27-.16.38-.34.12-.2.16-.42l.84.26q-.09.3-.29.55-.2.24-.58.46m-6.14-1.18 3.02-1.74.69.4-3.02 1.75zm14.28-3.5a4.4 4.4 0 0 1-2.23.56l-.18-.64-.02-.07h.12l.16.05q.1.03.3.03.3-.01.58-.09.27-.06.53-.22.3-.17.4-.35a.4.4 0 0 0-.03-.36q-.12-.2-.38-.34a1.9 1.9 0 0 0-1.77-.06q-.3.13-.61.35l-.68-.39q.4-.22.59-.41.2-.2.2-.34a.4.4 0 0 0-.09-.28 1 1 0 0 0-.28-.24q-.17-.1-.35-.14a1.5 1.5 0 0 0-1.11.14q-.18.1-.3.22a1 1 0 0 0-.2.28 1 1 0 0 0-.05.3h-1a1 1 0 0 1 .22-.68q.26-.3.65-.53a3 3 0 0 1 2-.4q.52.06.91.29.3.17.44.38.13.2.12.41a.7.7 0 0 1-.18.4 3.4 3.4 0 0 1 1.6-.08q.4.08.78.29.45.26.6.59.16.32-.02.68-.18.33-.72.65m4.04-2.44-4.44-2.57-.67.78-.73-.2.67-1.27.63-.36 5.4 3.12zm8.66-5-4.44-2.57-.67.78-.73-.2.68-1.27.62-.36 5.4 3.12zm2.38-2.12v-1l-.01-.8a3 3 0 0 0-.09-.63 1 1 0 0 0-.25-.48q-.15-.22-.47-.4a2 2 0 0 0-.84-.23q-.2 0-.4.06a2 2 0 0 0-.7.41 1 1 0 0 0-.18.27 1 1 0 0 0-.02.3.4.4 0 0 0 .07.17q.04.05.13.08l.01.06-.11.01-1.05.08a1 1 0 0 1-.12-.59q.04-.3.27-.56.21-.26.59-.47.48-.28 1.03-.38.56-.1 1.12-.03t1.04.35a2 2 0 0 1 .85.97q.1.29.13.62.04.33.04.7v.81l1.8-1.03.19-.13.05-.1.08-.05.08.05.7.4-3.3 1.91zm3.9-4.47q-.24.14-.6.14a1 1 0 0 1-.6-.14q-.25-.15-.25-.35 0-.21.24-.35t.6-.14.62.13q.24.15.24.36.02.2-.25.35m2.67 1.54q-.25.15-.6.15-.36 0-.6-.15-.25-.14-.25-.35t.24-.35q.23-.14.6-.14.38 0 .63.14.23.13.23.34t-.25.36m4.75-2.86-1.3-.75-2.2 1.27-.57-.33-1.16-3.42.66-.37 3.42 1.97.7-.4.7.4-.7.4 1.29.75zm-3.3-.39 1.32-.76-2.02-1.17zm7.41-1.87q-.56.32-1.27.37-.72.04-1.5-.17a7 7 0 0 1-2.93-1.75q-.42-.54-.33-1 .1-.45.68-.8.35-.2.81-.32.47-.14 1.02-.13l.06.59v.07h-.1l-.16-.03h-.3l-.18.05-.18.07a1 1 0 0 0-.44.28.6.6 0 0 0-.14.61q.07.18.3.41.21.23.64.5a1 1 0 0 1 .01-.33q.05-.17.18-.31.13-.15.33-.28.33-.18.7-.27a3 3 0 0 1 1.7.05q.46.12.88.37.53.3.74.67t.09.72q-.14.35-.61.63m-.67-.42a1 1 0 0 0 .23-.23.4.4 0 0 0 .03-.29 1 1 0 0 0-.19-.3q-.14-.17-.41-.32-.28-.15-.56-.23a2 2 0 0 0-.98-.05q-.22.05-.38.14l-.21.18-.12.22q-.02.1-.01.23 0 .13.07.26a4 4 0 0 0 1.34.52q.34.06.64.03t.55-.16m2.13-3.5q-.24.14-.6.14a1 1 0 0 1-.6-.14q-.25-.15-.25-.35 0-.21.24-.35t.6-.14q.38 0 .62.13.25.15.25.36t-.26.35m2.67 1.54q-.25.15-.6.15-.36 0-.6-.15-.25-.14-.25-.35t.24-.35.6-.14q.38 0 .63.14.23.13.23.34t-.25.36m1.6-2.79-.5-2.95.74.22.48 2.94zm2.84.22q-.56.3-1.28.37-.72.04-1.55-.19a8 8 0 0 1-3-1.74q-.41-.48-.34-.9t.62-.75 1.3-.35q.72-.05 1.56.19a7.5 7.5 0 0 1 3 1.74q.41.47.33.89-.09.41-.64.74m-.66-.39q.31-.18.28-.44-.03-.28-.39-.61a8 8 0 0 0-2.25-1.3 4 4 0 0 0-1.05-.22q-.46-.04-.78.15-.32.18-.27.46.03.26.39.6.35.33 1 .71.67.38 1.25.59t1.05.22q.45.02.77-.16m5.3-2.4-1.3-.75-2.2 1.27-.57-.33-1.16-3.42.66-.37 3.42 1.97.7-.4.7.4-.7.4 1.29.75zm-3.3-.39 1.32-.76-2.02-1.17zm9.84-3.38-5.4-3.12 1.81-1.04a3.6 3.6 0 0 1 2.37-.47q.55.09.97.34.33.18.5.4t.17.47-.2.5-.67.51l-.98.57 2.3 1.33zm-2.15-2.25.9-.53q.33-.18.43-.35.1-.18.03-.35a1 1 0 0 0-.32-.3 2 2 0 0 0-.52-.19q-.3-.04-.6.02-.31.05-.62.23l-.92.53zm6.34-.18-5.4-3.11.73-.42 3.67.8-1.38-2.13.72-.42 5.4 3.12-.75.44-3.87-2.24 1.1 1.73-.4.23-2.93-.65 3.85 2.23zm26.68-15.27q-.67.38-1.35.42a2 2 0 0 1-1.17-.25 1 1 0 0 1-.44-.43.7.7 0 0 1-.03-.52q.1-.27.4-.56a4 4 0 0 1 1-.7l.27-.15.3-.14.63.34-.55.27-.25.14q-.33.2-.53.38a1 1 0 0 0-.27.31.3.3 0 0 0 0 .27q.06.12.24.23a1 1 0 0 0 .62.14q.15-.02.3-.08.16-.05.31-.14.3-.16.4-.34a.5.5 0 0 0 .1-.37 1 1 0 0 0-.24-.41 4 4 0 0 0-1.53-.83 2 2 0 0 0-.75-.05q-.33.08-.67.27-.28.15-.44.36a.7.7 0 0 0-.17.48l-.98-.04q.02-.37.27-.68.26-.3.68-.55a4 4 0 0 1 1.66-.5q.45-.03.95.1.48.12 1.03.44l2.25 1.3-.9.52-.5-.29q.06.17.05.32a1 1 0 0 1-.12.27q-.1.13-.25.25zm3.07-1.89-.69-.4 1.15-.66-4.43-2.55-1.09.63-.68-.4 1.96-1.13 5.11 2.95 1.14-.66.68.4zm6.4-3.61q-.34.2-.72.29a2 2 0 0 1-.79.02 4 4 0 0 1-.88-.28 9 9 0 0 1-1.06-.55l-2.76-1.73.77-.58.08-.05.08.04.05.12q.03.05.16.14l1.03.7.13.03 1.32.83q.56.35.95.51.38.15.66.14.27-.02.48-.14.27-.15.38-.35.11-.18.16-.41l.83.26q-.08.3-.28.54-.21.26-.58.47m-6.13-1.17 3.02-1.75.68.4-3.01 1.75zm10.24-1.18q-.44.26-.93.38a4 4 0 0 1-2.1-.01q-.54-.14-1.03-.42-.5-.3-.75-.6a1 1 0 0 1-.26-.62q-.01-.3.18-.59.2-.29.59-.5.34-.2.76-.3.44-.12.9-.1.47 0 .96.13.5.13.99.41l.2.11.17.11-2.72 1.58a3 3 0 0 0 1.3.3 2.4 2.4 0 0 0 1.1-.3q.18-.11.32-.22a1 1 0 0 0 .2-.27q.07-.15.05-.3h.9a1 1 0 0 1-.05.44q-.08.2-.29.4-.19.2-.49.37m-3.67-.81 1.87-1.08q-.24-.14-.49-.21a2 2 0 0 0-1.39.15 1 1 0 0 0-.3.23.5.5 0 0 0-.1.27q0 .15.09.31.1.16.32.33m2.4-3.2.9-.52 1.13.67-.2.01a1 1 0 0 1-.3-.36 1 1 0 0 1-.08-.38 1 1 0 0 1 .18-.36q.12-.18.36-.31.33-.2.71-.28.38-.1.82-.09l.35.62.04.06-.1.03-.2-.06-.29-.02-.39.08q-.16.05-.32.14-.21.12-.33.28a.5.5 0 0 0-.13.33q0 .18.15.38.15.18.49.38l2.11 1.21-.87.51zm10.16-1.14q-.36.2-.73.29a2 2 0 0 1-.79.02 4 4 0 0 1-.88-.28 9 9 0 0 1-1.06-.55l-2.76-1.73.77-.58.08-.05.08.04.05.12q.03.05.16.14l1.03.7.13.03 1.32.83q.56.35.95.51.38.15.66.14.27-.02.48-.14.27-.15.38-.35.11-.18.16-.41l.83.26q-.07.3-.28.54-.2.26-.58.47m-6.14-1.17 3.02-1.75.68.4-3.01 1.75zm23.7-15.29.86-.5.08-.05.08.04q0 .07.05.1l.2.13 4.29 2.47 2.51-1.45.71.42-3.39 1.95zm11.46-.29q-.55.32-1.23.41-.7.09-1.42-.03a4 4 0 0 1-1.34-.49q-.6-.35-.82-.77a1 1 0 0 1-.07-.81q.15-.42.7-.72.53-.31 1.23-.4a4.6 4.6 0 0 1 2.75.51q.6.35.84.77.21.42.05.82t-.7.71m-.7-.4q.29-.18.34-.4.06-.25-.13-.5a2 2 0 0 0-.6-.5 3 3 0 0 0-.86-.34q-.45-.11-.85-.08-.4.05-.7.2-.29.18-.35.41t.13.48.6.5a3 3 0 0 0 1.71.43q.4-.04.7-.2m5.1-2.13a5 5 0 0 1-2.44.67l-.33-.64-.02-.08.1-.02q.07.04.18.06.1.03.3.03.39 0 .77-.1.37-.1.76-.32.26-.15.39-.3.12-.15.11-.27t-.16-.22l-.25-.07h-.32l-.45.09-.59.17q-.57.18-1.06.28-.5.09-.92.06a2 2 0 0 1-.73-.22q-.32-.18-.38-.43-.07-.25.13-.54t.68-.56a4 4 0 0 1 1.06-.44q.28-.07.58-.1.28-.03.6-.03l.14.6.02.06-.12.01-.17-.05-.28-.02a3 3 0 0 0-1.15.34q-.3.17-.43.38-.12.18.09.3.12.08.32.08t.53-.07q.33-.08.82-.24.62-.21 1.1-.29.47-.08.83-.03.37.04.68.22.33.21.44.48.1.28-.1.58-.2.32-.73.63m4.67-2.72q-.35.2-.73.29a2 2 0 0 1-.78.02 4 4 0 0 1-.89-.28 9 9 0 0 1-1.05-.55l-2.77-1.73.77-.58.08-.05.09.04.04.12q.04.05.17.14l1.03.7.13.03 1.31.83q.57.35.96.51.38.15.65.14.27-.02.48-.14.28-.15.38-.35.11-.18.17-.41l.83.26q-.08.3-.29.54-.2.26-.58.47m-6.14-1.17 3.02-1.75.69.4-3.02 1.75zm14.66-3.73a4 4 0 0 1-2.05.52 5 5 0 0 1-1.08-.14 4 4 0 0 1-.98-.4q-.45-.26-.68-.56a1 1 0 0 1-.26-.63q0-.33.21-.63.22-.32.65-.57.54-.3 1.14-.42t1.22-.06l.02.58v.08h-.1l-.17-.06-.29-.04q-.33 0-.6.1-.27.08-.54.23a1 1 0 0 0-.34.3.6.6 0 0 0-.09.38q.02.2.2.4.15.2.48.38a3 3 0 0 0 1.36.38q.33 0 .66-.06a2 2 0 0 0 .88-.45 1 1 0 0 0 .19-.29q.04-.16.03-.34l1.03.04a1 1 0 0 1-.23.7q-.24.32-.66.56m4.06-2.35q-.55.32-1.23.41-.7.09-1.42-.03a4 4 0 0 1-1.34-.49q-.6-.35-.82-.77a1 1 0 0 1-.07-.81q.15-.42.7-.72.52-.31 1.23-.4a4.6 4.6 0 0 1 2.76.51q.6.35.83.77.21.42.05.82t-.7.71m-.7-.4q.29-.18.34-.4.06-.25-.13-.5a2 2 0 0 0-.6-.5 3 3 0 0 0-.86-.34q-.45-.11-.85-.08-.4.05-.7.2-.28.18-.35.41-.05.22.13.48t.6.5a3 3 0 0 0 1.71.43q.4-.04.7-.2m3.3-1.2-4.01-2.31.86-.5.62.35a.8.8 0 0 1 .12-.78q.12-.18.39-.34.33-.18.8-.26.45-.06 1 .06.54.1 1.14.45l2.42 1.4-.86.5-2.4-1.4a3 3 0 0 0-.67-.29 2 2 0 0 0-.55-.05q-.24 0-.44.13a1 1 0 0 0-.27.25q-.1.15-.1.3-.02.16.1.33.1.15.35.3l2.36 1.36zm4.32-2.5-4-2.31.86-.5.62.35a.8.8 0 0 1 .12-.78q.12-.18.39-.34.33-.18.8-.26.45-.06 1 .06.54.1 1.14.45l2.42 1.4-.86.5-2.4-1.4a3 3 0 0 0-.67-.29 2 2 0 0 0-.55-.05q-.24 0-.44.13a1 1 0 0 0-.27.25q-.1.15-.1.3-.01.16.1.33.1.15.35.3l2.36 1.36zm6.26-3.5q-.44.26-.94.38a4 4 0 0 1-2.1-.01q-.53-.14-1.02-.42-.51-.3-.75-.6a1 1 0 0 1-.27-.62q0-.3.18-.59.2-.29.6-.5.33-.2.75-.3.45-.12.9-.1.48 0 .97.13.5.13.98.41l.2.11.18.11-2.72 1.58a3 3 0 0 0 1.3.3 2.4 2.4 0 0 0 1.42-.52 1 1 0 0 0 .2-.27q.06-.15.05-.3h.89a1 1 0 0 1-.04.44q-.1.2-.29.4-.2.2-.5.37m-3.67-.81 1.87-1.08q-.25-.14-.49-.21a2 2 0 0 0-.96-.02q-.24.05-.43.17-.2.1-.3.23a.5.5 0 0 0-.1.27q0 .15.09.31t.31.33m8.08-1.74a4 4 0 0 1-2.05.52q-.56-.02-1.08-.14a4 4 0 0 1-.98-.4 2 2 0 0 1-.68-.56 1 1 0 0 1-.25-.63q-.01-.33.2-.63.22-.32.65-.57.54-.3 1.14-.42t1.22-.06l.02.58v.08h-.1l-.16-.06-.3-.04q-.33 0-.6.1-.27.08-.54.23a1 1 0 0 0-.34.3.6.6 0 0 0-.09.38q.02.2.2.4.15.2.48.38a3 3 0 0 0 1.36.38q.33 0 .66-.06a2 2 0 0 0 .88-.45 1 1 0 0 0 .2-.29q.04-.16.02-.34l1.03.04a1 1 0 0 1-.23.7q-.24.32-.66.56m4.47-2.6q-.35.2-.73.29a2 2 0 0 1-.78.02 4 4 0 0 1-.89-.28 9 9 0 0 1-1.05-.55l-2.76-1.73.76-.58.08-.05.09.04.04.12q.04.05.17.14l1.03.7.13.03 1.31.83q.57.35.96.51.37.15.66.14.26-.02.47-.14.28-.15.38-.35.12-.18.17-.41l.83.26q-.08.3-.29.54-.2.26-.58.47m-6.14-1.17 3.03-1.75.68.4-3.02 1.75zm8.59-.33-.69-.4 1-.57-2.65-1.52-.95.54-.68-.39 1.82-1.05 3.32 1.92.91-.52.69.39zm-3.36-3.52q-.23.13-.55.13t-.54-.12q-.23-.15-.23-.32t.24-.32q.23-.13.56-.13t.55.12q.21.12.2.32 0 .18-.23.31m9.16.27q-.55.32-1.23.41-.7.1-1.41-.04a4 4 0 0 1-1.35-.48q-.6-.35-.82-.77a1 1 0 0 1-.07-.82q.15-.4.7-.72.53-.3 1.23-.39a4.6 4.6 0 0 1 2.76.51q.6.35.83.77.21.42.05.82t-.7.71m-.7-.4q.29-.18.34-.4.06-.24-.13-.5a2 2 0 0 0-.6-.5 3 3 0 0 0-.86-.34q-.45-.11-.85-.07-.4.02-.7.2-.28.16-.35.4-.05.23.13.48.18.26.6.5a3 3 0 0 0 1.71.43q.41-.04.7-.2m3.3-1.2-4.01-2.32.86-.5.62.36a.8.8 0 0 1 .12-.78q.12-.18.39-.34.33-.18.8-.25.45-.07 1 .05.54.1 1.14.45l2.42 1.4-.86.5-2.4-1.4a3 3 0 0 0-.66-.28 2 2 0 0 0-.56-.07q-.24.02-.44.14a1 1 0 0 0-.27.25q-.1.15-.1.3t.1.32.35.3l2.36 1.37zm10.8-6.15a3 3 0 0 1-.72.29 2 2 0 0 1-.8.01 4 4 0 0 1-.88-.27 9 9 0 0 1-1.05-.55l-2.76-1.73.77-.57.07-.06.1.04.03.12q.04.05.17.14l1.03.7.13.03 1.31.83q.57.35.96.51.38.15.66.14.26-.01.47-.13.28-.17.38-.35.11-.2.17-.42l.83.26q-.08.3-.29.55-.2.24-.58.46m-6.14-1.17 3.03-1.75.68.4-3.01 1.74zm10.06-1.08q-.56.32-1.23.41-.69.1-1.41-.04a4 4 0 0 1-1.35-.48q-.6-.35-.82-.77a1 1 0 0 1-.07-.82q.15-.4.7-.72.53-.3 1.23-.39a4.6 4.6 0 0 1 2.76.51q.6.35.83.77.21.42.05.82t-.7.71m-.7-.4q.29-.18.34-.4.06-.24-.13-.5a2 2 0 0 0-.6-.5 3 3 0 0 0-.86-.34q-.45-.11-.85-.07-.4.02-.7.2-.28.16-.35.4-.05.23.13.48.19.26.6.5a3 3 0 0 0 1.71.43q.42-.04.7-.2m7.4-3.57-5.39-3.12.73-.42 3.67.8-1.37-2.14.72-.41 5.4 3.12-.75.44-3.87-2.24 1.1 1.73-.4.23-2.94-.65 3.85 2.23zm6.29-3.53q-.56.32-1.23.41-.69.1-1.41-.04a4 4 0 0 1-1.35-.48q-.6-.35-.82-.77a1 1 0 0 1-.07-.82q.15-.4.7-.72.53-.3 1.23-.39a4.6 4.6 0 0 1 2.76.51q.6.35.83.77.21.42.05.82t-.7.71m-.7-.4q.29-.18.34-.4.06-.24-.13-.5a2 2 0 0 0-.6-.5 3 3 0 0 0-.86-.34q-.45-.11-.85-.07-.4.02-.7.2-.28.16-.35.4-.05.23.13.48.19.26.6.5a3 3 0 0 0 1.71.43q.42-.04.7-.2m3.3-1.2-4.01-2.32.86-.5.62.36a1 1 0 0 1-.05-.4 1 1 0 0 1 .17-.38q.12-.18.39-.34.33-.18.8-.25.45-.07 1 .05.54.1 1.14.45l2.42 1.4-.86.5-2.4-1.4a3 3 0 0 0-.66-.28 2 2 0 0 0-.56-.07q-.24.03-.44.14a1 1 0 0 0-.27.25 1 1 0 0 0-.1.3q0 .15.1.32.1.16.35.3l2.36 1.37zm7.42-2.53a6 6 0 0 1-1.61.61q-.37.07-.69.02-.3-.05-.55-.18a1 1 0 0 1-.3-.3.5.5 0 0 1-.04-.34 1 1 0 0 1 .17-.33l.56-.12q-.06.12-.07.23t.03.21a.7.7 0 0 0 .52.26q.18 0 .4-.05a3 3 0 0 0 .98-.42q.36-.2.52-.38.18-.17.16-.3 0-.14-.15-.23a1 1 0 0 0-.32-.11 1 1 0 0 0-.4.07q-.22.09-.6.3l-.58.31a5 5 0 0 1-1.1.36 2 2 0 0 1-.5.02q-.24-.05-.43-.15-.27-.15-.31-.37a1 1 0 0 1 0-.45l.63-.08v.16q0 .08.03.13.02.04.1.1.1.06.32.03.2-.03.53-.18.32-.15.81-.43.4-.23.76-.34.36-.1.66-.12.3 0 .56.07.24.07.47.2.24.14.37.33.12.2.08.43a1 1 0 0 1-.28.5q-.24.26-.73.54M388 39.08q-.43.24-.94.33a4 4 0 0 1-1.02.01 3 3 0 0 1-.88-.3 1.2 1.2 0 0 1-.52-.51.7.7 0 0 1 .02-.59q.14-.3.56-.55.43-.24.95-.32a3 3 0 0 1 1.9.29q.4.23.52.51.13.28-.01.58-.16.3-.58.55m-.65-.37a1 1 0 0 0 .29-.28q.06-.15 0-.3a1 1 0 0 0-.29-.28q-.21-.12-.47-.16a1.7 1.7 0 0 0-1 .17.6.6 0 0 0-.26.27q-.07.15-.01.3.07.15.28.27.2.12.47.16.25.05.52 0 .26-.04.47-.16m-.08-1.46-.73-.05q.04-.26.23-.49.2-.23.58-.44l.7.31q-.3.14-.5.3a.7.7 0 0 0-.28.37m6.69.05q-.54.32-1.23.41-.69.1-1.41-.04a4 4 0 0 1-1.34-.48q-.6-.35-.83-.77a1 1 0 0 1-.07-.82q.15-.4.7-.72.53-.3 1.23-.39a4.6 4.6 0 0 1 2.76.51q.6.35.83.77.21.42.05.82t-.7.71m-.7-.4q.29-.18.34-.4.06-.24-.13-.5a2 2 0 0 0-.6-.5 3 3 0 0 0-.86-.34q-.45-.11-.85-.07-.4.02-.7.2-.28.16-.35.4-.05.23.13.48.2.26.6.5a3 3 0 0 0 1.72.43q.4-.04.7-.2m3.18-1.12-5.4-3.12 1.34-.78q.48-.27.89-.41a3.5 3.5 0 0 1 1.62-.17 5 5 0 0 1 1.7.41q.42.17.83.41.62.37.96.73.36.38.41.74a1 1 0 0 1-.2.73q-.27.38-.9.74zm.15-.87.4-.23q.58-.34.7-.67.1-.34-.18-.69a3 3 0 0 0-.9-.7 6 6 0 0 0-1.24-.55q-.6-.18-1.19-.14a3 3 0 0 0-1.15.37l-.48.28zm4.13-1.61-5.4-3.12 1.62-.93q.47-.27.92-.42a3.4 3.4 0 0 1 1.63-.12q.36.07.65.24.24.13.38.33.15.18.17.4a.6.6 0 0 1-.15.4 4 4 0 0 1 1.84 0q.27.07.49.2.35.2.5.43.16.24.1.52-.05.26-.33.55t-.82.59zm.13-.91.85-.49q.34-.2.5-.38.15-.2.08-.38-.05-.2-.34-.37-.29-.15-.61-.2a2 2 0 0 0-.72.02q-.39.08-.85.35l-.7.41zm-2.5-1.44.68-.39q.42-.24.56-.43.15-.2.07-.35a.6.6 0 0 0-.29-.29 1.3 1.3 0 0 0-.75-.17q-.22.03-.47.1t-.5.23l-.77.45z"/>
        </g>
        <path stroke="#faff69" d="M.87 0h343v20H.87z" transform="matrix(.87 -.5 .87 .5 104.3 190.93)"/>
    </g>
    <defs>
        <clipPath id="a">
            <path fill="#fff" d="M0 0h288v233H0z"/>
        </clipPath>
        <clipPath id="b">
            <path fill="#fff" d="M86 189 383.91 17l18.19 10.5-297.91 172z"/>
        </clipPath>
        <clipPath id="c">
            <path fill="#fff" d="M122.37 210 420.3 38l18.18 10.5-297.91 172z"/>
        </clipPath>
        <clipPath id="d">
            <path fill="#fff" d="m140.56 220.5 297.91-172L456.66 59 158.75 231z"/>
        </clipPath>
        <clipPath id="e">
            <path fill="#fff" d="m104.19 190.5 297.91-172L420.29 29 122.37 201z"/>
        </clipPath>
    </defs>
</svg>
