<svg xmlns="http://www.w3.org/2000/svg" width="288" height="233" fill="none" viewBox="0 0 288 233">
    <g clip-path="url(#a)">
        <path stroke="#3a3a3a" d="m152.66-128-433.01 250m441.67-245-433.01 250m441.67-245-433.01 250m441.67-245-433.01 250M187.3-108l-433 250m441.67-245-433.01 250M204.62-98l-433.01 250M213.28-93l-433.01 250M221.94-88l-433.01 250M230.6-83l-433 250M239.26-78l-433.01 250M247.92-73l-433.01 250M256.58-68l-433 250M265.23-63l-433 250M273.9-58l-433 250M282.55-53l-433 250M291.21-48l-433 250M299.88-43l-433.02 250M308.55-38l-433.02 250M317.2-33l-433 250M325.86-28l-433.02 250M334.53-23-98.5 227M343.2-18-89.83 232M351.85-13-81.17 237M360.51-8-72.51 242M369.17-3-63.85 247M377.83 2-55.2 252M386.5 7-46.53 257M395.15 12-37.87 262M403.81 17-29.21 267M412.47 22-20.54 272M421.13 27-11.88 277M429.79 32-3.22 282M438.45 37 5.44 287M447.1 42l-433 250M455.77 47 22.76 297M464.43 52 31.42 302M473.09 57 40.08 307M481.75 62 48.74 312M490.4 67l-433 250M499.07 72 66.06 322M507.73 77 74.72 327M516.39 82 83.38 332M525.05 87 92.04 337M533.7 92l-433 250M542.37 97 109.36 347m441.67-245L118.02 352m441.67-245L126.68 357m441.67-245L135.34 362m0-490 433.01 250M126.68-123l433.01 250M118.02-118l433.01 250M109.36-113l433.01 250M100.7-108l433 250M92.04-103l433.01 250M83.38-98l433.01 250M74.72-93l433.01 250M66.06-88l433.01 250M57.4-83l433 250M48.74-78l433.01 250M40.08-73l433.01 250M31.42-68l433 250M22.77-63l433 250M14.1-58l433 250M5.45-53l433 250M-3.21-48l433 250M-11.87-43l433 250M-20.53-38l433 250M-29.2-33l433.02 250M-37.87-28l433.02 250M-46.53-23 386.5 227M-55.2-18l433.02 250M-63.85-13l433.02 250M-72.51-8l433.02 250M-81.17-3l433.02 250M-89.83 2 343.2 252M-98.5 7l433.02 250M-107.15 12l433.02 250M-115.81 17l433.02 250M-124.48 22l433.02 250M-133.13 27 299.9 277M-141.8 32l433.01 250M-150.45 37l433.01 250M-159.1 42l433 250M-167.77 47l433.01 250M-176.43 52l433.01 250M-185.09 57l433.01 250M-193.75 62l433.01 250M-202.4 67l433 250M-211.07 72l433.01 250M-219.73 77l433.01 250M-228.39 82l433.01 250M-237.05 87l433.01 250M-245.7 92l433 250M-254.37 97l433.01 250m-441.67-245 433.01 250m-441.67-245 433.01 250m-441.67-245 433.01 250M144-133l-433.01 250L144 367l433.01-250z" opacity=".3"/>
        <path fill="#2a2a28" stroke="#606060" d="M94.6 50.64 89.66 42 74.4 32.9l-.7.75L78.6 42l15.9 10.2zm-51.23 50.1.23 1.26 15.5 8.8.5-.3 11.25-6.5.05-1.3C64.6 99.5 54.6 94 54.6 94zm47.29 17.55c-3.07 1.78-4.66 2.55-6.31 3.46-1.71.93-2.91 1.47-4.08 1.66-1.1.18-2.1.25-3.14.1-.6-.08-2.03-1.13-2.53-1.63l.68.84c.54.92 1.47 2.65 2.23 3.33.65.58 1.74 1.3 2.7 1.9l1.23.76.37.21.1.06.03.02c6.7 3.87 15.36 3.6 24.36-2.4l1.02-.76c9.89-5.78 18.86-16.57 25.39-27.84 6.55-11.38 10.6-24.18 10.6-35.7l-.01-1c-.21-10.2-3.73-18.3-10.43-22.15l-.03-.02-.42-.22q-.6-.3-1.24-.57a25 25 0 0 0-2.6-.88q-.66-.18-1.33-.31c-1.1-.2-1.86-.3-2.38-.38.95 1.4 1.7 2.7 2.24 4.62.65 2.31 1 5.45 1.1 10.6l.01 1.02c0 11.73-4.11 24.71-10.74 36.2-6.46 11.19-15.35 22.02-25.2 27.94 0 0-.65.32-1.02.6-.25.2-.6.54-.6.54Z"/>
        <path fill="#2a2a28" stroke="#606060" d="M153.55 56.85c0-30-21.06-42.16-47.05-27.16a80 80 0 0 0-16.78 13.25l4.88 8.47a61 61 0 0 1 12.1-9.38c20.08-11.59 36.35-2.19 36.35 21 0 23.18-16.27 51.36-36.35 62.96-20.08 11.59-36.35 2.2-36.35-21l.02-1.4-10.9 6.3-.01 1.28c0 30 21.06 42.16 47.04 27.16s47.05-51.48 47.05-81.48Z"/>
        <path fill="#2a2a28" stroke="#606060" d="M43.43 100.7v1.21h-.01c0 13.9 4.6 25.16 13.78 30.46L74.6 143c-9.19-5.3-15.14-17.93-15.14-31.83l.01 1.35-.01-1.35.01-1.28-.06.04zm80.3-83.57c-9.19-5.3-21.23-3.65-33.27 3.3l-.6.35a80 80 0 0 0-16.14 12.86l15.94 9.2.06.1A80 80 0 0 1 106.5 29.7c12.04-6.95 24.08-8.6 33.27-3.3z"/>
        <path fill="#353624" stroke="#faff69" d="M66.2 31.6C48.83 49.29 36.4 75.66 35.95 98.54l10.9-6.29c.5-17.96 10.46-38.63 24.23-52.19z"/>
        <path fill="#353624" stroke="#faff69" d="M50.2 22.3C32.8 40 20.34 66.44 19.91 89.36l15.98 9.22.9-.68c.46-22.88 12.5-47.81 29.86-65.5l-.51-.9z"/>
        <path fill="#2a2a28" stroke="#606060" d="M0 0h32.65v16.32H0z" transform="matrix(-.87 .5 .87 .5 253.16 58.32)"/>
        <path fill="#2a2a28" stroke="#606060" d="M0 0h32.65v70.73H0z" transform="matrix(-.87 .5 0 1 267.3 66.48)"/>
        <path fill="#2a2a28" stroke="#606060" d="M0 0h16.32v70.73H0z" transform="matrix(-.87 -.5 0 1 239.02 82.8)"/>
        <path fill="#353624" stroke="#faff69" d="M0 0h32.65v16.32H0z" transform="matrix(-.87 .5 .87 .5 210.72 50.15)"/>
        <path fill="#353624" stroke="#faff69" d="M0 0h32.65v103.38H0z" transform="matrix(-.87 .5 0 1 224.85 58.32)"/>
        <path fill="#353624" stroke="#faff69" d="M0 0h16.32v103.38H0z" transform="matrix(-.87 -.5 0 1 196.58 74.64)"/>
        <path fill="#2a2a28" stroke="#606060" d="M0 0h32.65v16.32H0z" transform="matrix(-.87 .5 .87 .5 168.28 123.6)"/>
        <path fill="#2a2a28" stroke="#606060" d="M0 0h32.65v54.41H0z" transform="matrix(-.87 .5 0 1 182.41 131.77)"/>
        <path fill="#2a2a28" stroke="#606060" d="M0 0h16.32v54.41H0z" transform="matrix(-.87 -.5 0 1 154.14 148.1)"/>
    </g>
    <defs>
        <clipPath id="a">
            <path fill="#fff" d="M0 0h288v233H0z"/>
        </clipPath>
    </defs>
</svg>
