<?xml version="1.0" encoding="UTF-8"?>
<svg width="32px" height="32px" viewBox="0 0 32 32" version="1.1" xmlns="http://www.w3.org/2000/svg" xmlns:xlink="http://www.w3.org/1999/xlink" style="background: #FFFFFF;">
    <title>brand/favicon</title>
    <g id="brand/favicon" stroke="none" stroke-width="1" fill="none" fill-rule="evenodd">
        <rect fill="#FFFFFF" x="0" y="0" width="32" height="32"></rect>
        <path d="M9.66666667,24.3870968 C9.95994868,24.813676 10.2320646,25.2537439 10.5313429,25.6766915 C11.4086383,26.916309 12.3522958,28.1036579 13.3790065,29.231648 C13.9038623,29.8082455 14.4564174,30.3707057 15.0299596,30.9025139 C15.2220204,31.0805903 15.4174821,31.2625576 15.6162999,31.4335871 C15.7234727,31.5257596 15.8314509,31.6209153 15.9405926,31.7107965 C16.0110269,31.7688151 16.1646934,31.8503956 16.2,31.9331867 C16.1825481,31.9560136 16.185233,31.9637956 16.154625,31.9684215 L16.1363609,31.9712557 L16.1101449,31.9710155 L16.0966308,31.985585 C16.020961,32.0039157 15.9314192,31.9963932 15.8531092,31.9967391 C15.744415,31.9972579 15.6186268,32.0094495 15.5135572,31.9830775 L15.5110065,31.9612448 C14.3458885,31.9027939 13.1849768,31.5788064 12.275373,30.8492941 C12.1312827,30.7337326 11.981017,30.5760621 11.8550499,30.4409592 C11.2207391,29.7606028 10.8507581,28.881764 10.5315667,28.0334044 C10.2446837,27.2710351 10.011499,26.4897298 9.85461058,25.6924715 C9.7692751,25.2586292 9.74314194,24.8206797 9.66666667,24.3870968 Z M9.93333333,22.1935484 C9.96892267,22.1974487 9.99613013,22.1993775 10.0239203,22.223594 C10.1617057,22.3435194 10.2840721,22.4854326 10.4185854,22.6084439 C10.7312695,22.8943704 11.058028,23.1723676 11.3785562,23.4503648 C11.5977399,23.6404538 11.8104691,23.8406152 12.0349418,24.0249179 C13.8549284,25.5192277 15.7140902,26.9489887 17.7565326,28.1645726 C18.9577399,28.879496 20.2197717,29.4719223 21.5534305,29.9236355 C21.7196336,29.9799122 22.0338866,30.120668 22.2,30.0838075 L22.1784402,30.1276115 C22.076289,30.303385 21.8589878,30.4875592 21.6934123,30.6117707 C21.6422246,30.6501742 21.5865994,30.6995073 21.5244302,30.7182377 C21.5076216,30.7406969 21.4911716,30.7567269 21.4675051,30.7727141 C20.7310211,31.2700745 19.8097772,31.4487196 18.9254226,31.3086923 C18.4789423,31.2380143 18.0087955,31.086286 17.6242604,30.8568076 C17.4792137,30.7702282 17.350348,30.6654328 17.2183447,30.5625232 C16.9900172,30.384521 16.7573866,30.1965322 16.5436713,30.0029286 C16.4204533,29.8912754 16.3080377,29.7691212 16.1858058,29.6567394 C15.1396855,28.6948075 14.2132422,27.6534539 13.3086725,26.5694964 C12.4617897,25.554631 11.6279505,24.5322649 10.8378134,23.4759957 C10.6809783,23.266362 10.5216779,23.0573284 10.374166,22.8416084 C10.2254886,22.624174 10.0918269,22.4045108 9.93333333,22.1935484 Z M10.3333333,20.6451613 C10.4306101,20.6505922 10.5555523,20.7255908 10.6475019,20.762185 C10.8395037,20.8385198 11.0340125,20.9119236 11.2274916,20.9849395 C11.876063,21.2297195 12.5285739,21.4649738 13.1767871,21.7105728 C14.3549864,22.1569439 15.55436,22.5703415 16.7488542,22.979084 C17.8415054,23.3529564 18.9411849,23.7094585 20.0529513,24.0271682 C21.0250474,24.3049648 22.0039927,24.5584947 23.0069774,24.7103884 C23.6961516,24.8147831 24.3752983,24.8593512 25.071098,24.8849111 C25.4226462,24.8978419 25.7680615,24.8925403 26.1195203,24.8850835 C26.3698076,24.8797819 26.6178566,24.8818508 26.8666667,24.8499117 C26.570897,25.4469697 26.2629509,26.0008389 25.8195426,26.5106571 C25.7591531,26.5800524 25.6805438,26.6895331 25.5969207,26.72936 C25.567778,26.7909537 25.4907803,26.8469009 25.4390306,26.8917708 C25.2637265,27.0436646 25.0793349,27.1775845 24.8817373,27.3010736 C23.768046,27.9968798 22.5030453,28.1399376 21.2179893,27.8766234 C20.2729319,27.6830063 19.3977992,27.269307 18.5675222,26.8037121 C17.2793774,26.0813546 16.1035059,25.2010691 14.9270973,24.3237576 C13.6261941,23.3535599 12.3391685,22.3693538 11.099371,21.3278212 C10.9486435,21.2011856 10.8066454,21.0688173 10.6577086,20.9412334 C10.5478973,20.8472265 10.4143152,20.765116 10.3333333,20.6451613 Z M7.55365806,2.13162821e-14 C7.9234257,0.308026213 8.34321388,0.579405228 8.75728033,0.828939082 C9.96832298,1.55877221 11.2777528,2.02796576 12.6938395,2.21095581 C13.1495674,2.26984986 13.6059658,2.28599071 14.0648674,2.29949535 C14.6405284,2.3164344 15.234785,2.32035636 15.8096861,2.27938508 C16.2543728,2.24769879 16.7015628,2.20638236 17.1398572,2.1254408 C18.4697602,1.87985047 19.6922016,1.37900084 20.8197873,0.658219699 C21.1408307,0.453035433 21.4352322,0.23099841 21.7349085,2.13162821e-14 L21.7657523,2.13162821e-14 C22.1820985,0.417951409 22.5888787,0.824546838 22.9396483,1.29745092 C23.9989307,2.72559053 24.7611294,4.40436853 25.2461366,6.09318225 C25.4923503,6.95048971 25.6821065,7.86716582 25.664539,8.75968027 C25.6531402,9.33891292 25.4780906,9.86568024 25.2129683,10.3806688 C25.0363542,10.7237643 24.8039978,11.0722531 24.5173742,11.338808 C24.2513579,11.586163 23.9510111,11.7370871 23.623933,11.8912039 C23.7381444,11.4316578 23.8411358,10.9463105 23.8768072,10.4749424 C23.9509217,9.49587741 23.7795376,8.50939136 23.2401739,7.66589057 C22.8683501,7.08445749 22.2793234,6.51005717 21.6380859,6.21053889 L22.512261,5.02968092 C21.9635547,5.12977922 21.4149826,5.34304901 20.9153583,5.58030788 C20.2277657,5.90679231 19.5909983,6.29700311 19.0131916,6.78558639 C18.9208838,6.86363718 18.8374269,6.95691844 18.7496339,7.04006044 C18.3812073,7.38898069 18.0589122,7.74933459 17.7677738,8.16137717 C17.2920645,8.83449512 16.8946716,9.56314175 16.5319221,10.2978719 C16.1362278,11.0993056 15.7766967,11.921708 15.4539546,12.7530417 C15.3025966,13.1429074 15.1562899,13.5340674 15.0167777,13.9280319 C14.9533915,14.1070007 14.8909441,14.2863148 14.8317151,14.4666211 C14.8123148,14.5256878 14.7909477,14.641448 14.7508061,14.683472 C14.737798,14.67014 14.7232255,14.6565922 14.7156263,14.6392907 C14.6969412,14.5969215 14.6922476,14.5400122 14.6786585,14.4945365 C14.6474124,14.3896921 14.612322,14.2858401 14.5775445,14.1820313 C14.4616345,13.8359587 14.3330741,13.4903175 14.2009823,13.1497675 C13.7513785,11.9906551 13.2712885,10.8444432 12.6814126,9.74418161 C12.3446343,9.11602161 11.9951163,8.48932856 11.5606662,7.91734441 C10.8243941,6.94798726 9.82809558,6.168558 8.71508247,5.63622486 C8.17326024,5.37709107 7.58570876,5.13737288 6.98902931,5.03149304 L7.85404956,6.1995367 C7.67014917,6.31546952 7.48030353,6.42881359 7.30814165,6.56066722 C7.16373469,6.67124996 7.03821395,6.81255252 6.90997092,6.94013472 C6.80301456,7.04657546 6.6894916,7.14486164 6.59136371,7.25954323 C6.17369883,7.74756561 5.87745111,8.3774083 5.7434774,8.99581735 C5.66104407,9.37636349 5.63710215,9.74543284 5.63687864,10.1330549 C5.63625283,11.2090254 5.90720865,12.3114874 6.52367728,13.2178516 C7.58289259,14.7752432 9.33463995,15.525247 11.1675198,15.8902175 C12.2959101,16.1148778 13.4590779,16.181797 14.6089247,16.1812361 C15.1836917,16.180934 15.7585927,16.1760586 16.3320187,16.1332148 C19.0660731,15.9289193 21.754577,15.2063562 24.1766176,13.9584497 C24.6288588,13.7254622 25.0990252,13.4882465 25.5217189,13.2084459 L28.6920115,10.846471 C28.7625499,11.1031024 28.8526226,11.3490336 28.9055488,11.6111013 C29.1271322,12.7075229 28.9614252,13.8130914 28.3810706,14.7847784 C27.4743531,16.3029504 25.6926113,17.3085069 23.9746133,17.7462644 C22.9240476,18.0139842 21.8452756,18.1237903 20.7598431,18.0824998 C20.0414961,18.0551885 19.3299438,17.9560394 18.6173186,17.8697909 C17.341951,17.7154152 16.0645719,17.5580192 14.7774479,17.5551284 C14.2303957,17.5538772 13.6851761,17.5641891 13.1425046,17.6389608 C12.1783015,17.7718067 11.2309954,18.0960907 10.4332593,18.6410656 C9.85451394,19.0364107 9.3523863,19.515804 8.99276581,20.1097925 C8.16977355,21.4691447 8.08086303,23.1880742 8.19109598,24.7217356 C8.2478664,25.5117355 8.36346349,26.302771 8.57306703,27.0693428 C8.6001112,27.1681467 8.62554614,27.2628087 8.67252701,27.3548387 C8.57530208,27.3331795 8.49689632,27.227386 8.42573215,27.16202 C8.15247422,26.9109977 7.90398071,26.6300321 7.66380161,26.3495842 C7.25362416,25.8705793 6.86994107,25.3665498 6.52892519,24.8391353 C5.12893986,22.6739055 4.18295247,20.2951901 3.61649098,17.8047701 C3.41364044,16.912946 3.24295236,16.0045971 3.1420606,15.0963775 C3.11697835,14.8705523 3.0902596,14.6439936 3.07335856,14.417478 C3.06589526,14.317466 3.05925491,14.217454 3.05357786,14.1173126 C3.05140718,14.0789991 3.05509636,14.0147118 3.04049215,13.9795048 C3.03655836,13.9700127 3.00874059,13.9487418 3,13.9402853 L3,11.6517015 C3.08015044,11.5552706 3.05653395,11.3656447 3.0628453,11.243542 C3.08561471,10.8031095 3.15637613,10.3558168 3.21547548,9.91844758 C3.61467165,6.96442581 4.73138153,4.04733687 6.37227907,1.52767271 C6.52230048,1.29730423 6.68543274,1.0779897 6.84434521,0.85363575 C7.05356879,0.558250832 7.25559548,0.242095084 7.53224622,2.13162821e-14 L7.55365806,2.13162821e-14 Z M16.9137411,19.1759209 C18.8971533,19.3989081 20.875647,19.6725313 22.8677784,19.8168374 C23.9278071,19.8935859 24.9948112,19.9768195 26.0552423,19.8628779 C27.0668907,19.7541329 28.0691046,19.4735951 29,19.0817784 L29,19.7347633 C28.9395917,19.8166656 28.9347179,19.944909 28.9140155,20.043647 C28.7441927,20.8535647 28.2956691,21.6328175 27.5626767,22.0944251 C27.1064624,22.3817058 26.6373258,22.598895 26.1103744,22.7398941 C24.8539182,23.0760499 23.5172455,22.9909694 22.2437534,22.8001075 C21.5494831,22.6960439 20.8460465,22.5548731 20.1718974,22.3639252 C19.4575059,22.1615961 18.7524596,21.9237488 18.0463402,21.6963379 C16.4961147,21.1971506 14.9644007,20.6503337 13.4212848,20.1321633 C12.9870249,19.9863111 12.5567445,19.8280039 12.1250333,19.67528 C11.8971721,19.5946662 11.6537505,19.4916763 11.4165441,19.4441326 L11.4,19.4409115 C11.6218696,19.3758449 11.8374345,19.2953599 12.0598407,19.2317536 C12.3726581,19.1422924 12.6912435,19.0779989 13.0149263,19.0373699 C14.3159173,18.8739948 15.6194571,19.0304123 16.9137411,19.1759209 Z M19.6748414,9.19404387 C19.9129016,9.26031645 20.1914837,9.42325499 20.3087549,9.64136168 C20.369058,9.75355612 20.4258435,9.86738747 20.4494165,9.99307533 C20.4996691,10.2608643 20.4398228,10.5671428 20.2738522,10.7904256 C20.0936739,11.0328205 19.8440556,11.1702321 19.5421746,11.2192508 C19.2780744,11.2460607 19.0095429,11.1913349 18.7903502,11.0422438 C18.567777,10.890852 18.3944512,10.6569072 18.3501833,10.393498 C18.3033113,10.114693 18.3518736,9.82367765 18.5255191,9.59207753 C18.7151541,9.3391534 18.9747315,9.21479276 19.2869371,9.16488924 C19.4162233,9.15741256 19.5494384,9.15913795 19.6748414,9.19404387 Z M10.364859,9.2005483 C10.5923573,9.26253335 10.8556085,9.43573731 10.9701091,9.64006661 C11.0491756,9.78103834 11.1098874,9.91930929 11.1279233,10.0809575 C11.1570722,10.3420916 11.0668472,10.6416566 10.8955517,10.8454103 C10.7149649,11.0601885 10.4514404,11.1933678 10.1689691,11.2228107 C9.98624173,11.2339238 9.82032056,11.2155939 9.65071023,11.1428943 C9.59204802,11.1177461 9.53520761,11.0934833 9.48187418,11.058329 C9.25596998,10.9093434 9.06741285,10.6768109 9.01918048,10.4109393 C8.96484506,10.1116401 9.02537463,9.8222584 9.20814752,9.57520368 C9.38996396,9.32947721 9.66063909,9.21236973 9.95923342,9.16326872 C10.1003325,9.15733586 10.2281778,9.16335727 10.364859,9.2005483 Z" id="Combined-Shape" fill="#022B4F" fill-rule="nonzero"></path>
    </g>
</svg>